/* XPM */
static char *_5bdd29ba0ca452cdd0376abf7964b0fkhyMizwkllrUjAh8[] = {
/* columns rows colors chars-per-pixel */
"64 64 144 2 ",
"   c #24201F",
".  c #262322",
"X  c #2A2625",
"o  c #2D2827",
"O  c #2E2A29",
"+  c #322D2C",
"@  c #35302F",
"#  c #363231",
"$  c #3A3534",
"%  c #3D3837",
"&  c #3F3A38",
"*  c #433D3C",
"=  c #46403F",
"-  c #474240",
";  c #4B4543",
":  c #4E4847",
">  c #4F4A48",
",  c #504947",
"<  c #534C4B",
"1  c #584F4E",
"2  c #57504E",
"3  c #58514F",
"4  c #575250",
"5  c #5B5452",
"6  c #5F5856",
"7  c #5F5A58",
"8  c #605757",
"9  c #605957",
"0  c #645D5B",
"q  c #685F5D",
"w  c #67605E",
"e  c #69615F",
"r  c #676260",
"t  c #6C6462",
"y  c #6F6866",
"u  c #6E6968",
"i  c #716766",
"p  c #716967",
"a  c #726967",
"s  c #716A67",
"d  c #726A67",
"f  c #706865",
"g  c #706966",
"h  c #726A68",
"j  c #726B68",
"k  c #736B68",
"l  c #726A69",
"z  c #726B69",
"x  c #736B69",
"c  c #726C6A",
"v  c #736C6A",
"b  c #746C69",
"n  c #746C6A",
"m  c #746D6A",
"M  c #756D6A",
"N  c #756D6B",
"B  c #766E6B",
"V  c #766E6C",
"C  c #776F6C",
"Z  c #766F6D",
"A  c #746C6A",
"S  c #786F6D",
"D  c #76706E",
"F  c #77716E",
"G  c #78706D",
"H  c #78706E",
"J  c #79716E",
"K  c #777170",
"L  c #777170",
"P  c #797270",
"I  c #787271",
"U  c #797271",
"Y  c #7A7270",
"T  c #7B7370",
"R  c #7A7573",
"E  c #7C7472",
"W  c #7D7572",
"Q  c #7D7573",
"!  c #7E7673",
"~  c #7D7674",
"^  c #7E7674",
"/  c #7F7774",
"(  c #7C7573",
")  c #7E7875",
"_  c #7E7876",
"`  c #7F7A79",
"'  c #807775",
"]  c #807977",
"[  c #817976",
"{  c #807978",
"}  c #837B78",
"|  c #827C7A",
" . c #847E7C",
".. c #867F7D",
"X. c #837C7A",
"o. c #897F7E",
"O. c #87817E",
"+. c #86807E",
"@. c #88807E",
"#. c #878280",
"$. c #8B8381",
"%. c #8C8683",
"&. c #8B8584",
"*. c #8D8784",
"=. c #8B8583",
"-. c #8C8886",
";. c #8E8986",
":. c #8F8987",
">. c #8E8886",
",. c #8F8A88",
"<. c #918A87",
"1. c #918A88",
"2. c #918B89",
"3. c #938D8B",
"4. c #938E8C",
"5. c #948F8C",
"6. c #938C8A",
"7. c #95908E",
"8. c #95908E",
"9. c #98928F",
"0. c #979290",
"q. c #969290",
"w. c #989290",
"e. c #999391",
"r. c #999491",
"t. c #9C9794",
"y. c #9A9593",
"u. c #9E9997",
"i. c #9E9A98",
"p. c #A29E9C",
"a. c #A29C9B",
"s. c #A5A19F",
"d. c #A7A3A1",
"f. c #A8A4A2",
"g. c #A9A5A4",
"h. c #A9A6A4",
"j. c #ACA7A6",
"k. c #A9A5A3",
"l. c #ADA9A7",
"z. c #AFADAB",
"x. c #AEAAA9",
"c. c #B2AEAC",
"v. c #B6B3B2",
"b. c #B8B6B4",
/* pixels */
"@ : < < 1 2 , , 3 < 3 1 * # * 3 3 q q q 0 0 9 9 9 5 < 9 8 3 5 3 5 5 5 8 1 3 3 3 < : * # + * * * @ * * % O % % # % % * # # * * # ",
"+ : < 5 5 0 < : 5 t < 5 4 % + 1 4 n B a n t S y p } f p 0 9 0 a M f 0 5 < < 3 3 , : * # X : 1 1 $ < 5 ; O ; ; # 4 0 3 * * < 1 % ",
"+ ; 4 t 0 w 3 : 3 p < 0 9 < + * 5 f n E } y S J t t 3 w ( E ' t 3 3 3 < < , < , ; : * # o < 5 5 # 9 q ; O < 4 $ 6 0 < * $ 3 8 $ ",
"O : 5 p { 9 w ; < 9 < 6 q 3 * = 5 y t T { ' M h } t ] $.J 0 < : < < : : : , : < 1 < * # X 5 3 8 # 9 p ; + > 0 - y T 5 * # 3 t $ ",
"O ; 5 t ..x w 6 ; : , 1 w 3 = * t q t <.<.@.%.t.*.w < < ; ; - , : : < 3 3 5 3 < < < - # X 3 5 5 $ w a ; + 4 u ; h 2.6 % # < p @ ",
"O ; 6 t 3.7.p t < - ; : q 3 * - t 0 n 4.q.e.4.f 1 : : ; = * : : < < 2 3 8 t 6 0 1 < - # X 4 9 8 * t M = # 9 T > N q.6 # + 5 N + ",
"+ : 4 D z.h.*.y w : * < < + + < e q h T y 6 < : , - ; # # - , < 3 9 3 t M d t t 1 , ; # X 3 t 5 * f a , $ 9 ] < N h.6 * + 6 ( + ",
"+ : 5 T h.r.p.-.a 8 - * : + * < r r r 4 < : - : ; & O + ; : < < 6 9 9 G y J ( t n < ; % X 3 B 4 * a M ; % 9 } 2 T j.0 = + B 2.+ ",
"+ ; 6 x s.3.f ' e 0 < * = X * 1 w w < : < , : * O . @ ; , , , 3 9 w a ' ' *.*.N p < : $ X < S 4 & p E ; * 0 $.; h x.0 - + ( 4.+ ",
"@ - 4 t 3.O.9 0 M 3 < - < + * 1 0 < < < * # @ . @ * ; , ; 5 3 9 0 w J @.$.9.$.( p < : % + : ( < % f } , * e 2.* h c.0 ; + ] u.# ",
"@ = 6 K _ w < < < , : < , % o $ < < * O + + % + * = ; ; , 9 9 9 t M 3.a.t.3.%.( p < - $ + : / < % r 3.< % t a.: h x.w : + _ p.$ ",
"+ * 4 7 0 2 < , : * % + + + + + @ + O + * 0 5 * * : < = 3 9 5 w t } r.r.%.6.} J f < : # + : ..6 % 0 t.< * a p.- y h.0 < + ( d.& ",
"+ * , 3 < : - : ; * $ & % * $ $ X $ 9 0 _ 2.w = & ; = = 0 0 9 e p <.<.@.@.6.} M y < ; $ + ; ..8 # 9 a.< $ M t.* w l.t , + ] a.- ",
"o * : : ; : : - # * - $ ; 3 = * + + 5 7.h.3.3 # * ; ; , 9 0 0 e / %.+.@.@.6.@.p t < * # + : e.r # 9 a.< % M :.% 0 k.y , + ] 9.2 ",
"+ $ = ; : , > % % = $ - < 6 ; < * . % 2 $.&.4 % = ; ; , 9 e w w } } } } } %.} t w 1 ; * + : a.t # 9 u.< $ h %.$ 0 k.p ; + J 3.4 ",
"+ @ - : : ; : : : % ; 6 8 8 < < - * + # 4 r 2 @ * : = 5 e f 0 f } } } } } @.} t q 4 - * + : e.f @ 6 a.2 $ p @.% 9 s.p ; + p 7.5 ",
"+ # ; = , < 5 1 * : < 0 t < 5 4 < ; * * 1 9 @ # * ; = 3 e w e J [ } [ } } } } t 0 5 - = @ : i.u $ 0 d.7 $ t O.# 0 a.p : # f <.< ",
"+ $ * , 3 q 1 = * < 4 5 q q y 6 1 < ; * * # # % * = , 5 9 9 e W } } [ ' ..} @.J 0 5 : = @ > -.w $ 0 d.r $ t @.$ 9 t.f , * f 2.: ",
"+ # ; 3 0 5 , * < > 5 2 p 4./ 6 1 : < < ; 1 = * * , < , 3 e f [ } } ] [ +.@.+.] 0 6 : = $ > -.w & r d.t # t @.$ 9 5.w ; + J 2.- ",
"O # ; 9 w < * = < < 4 0 :.i.] 6 < 1 3 r 5 1 , : * < < , 3 e M [ [ } ' [ } <.@.} 9 6 : = $ 3 ,.w & 0 h.t @ y O.* 9 <.e ; + } a.- ",
"+ $ , e w * * ; < < 0 | ,.a.&.0 < 3 5 0 9 1 , < * = < ; 3 y G ] ' [ / [ @.7.+.} 0 5 < * $ 6 ;.6 $ w i.w # w _ ; q %.q = @ ' c.: ",
"o % 3 a 9 $ $ ; > 8 T ,.4.x.4.t 3 q w 6 q 3 < < = * < ; 8 y D / ' ' ( J %.6.<.O.0 5 < * % 9 ;.6 $ 7 3.5 @ w _ ; t @.0 = # ' l.: ",
"+ * 0 f 5 + $ , 4 N { e.d.c.l.h 5 8 d 9 w 9 < < = $ < ; 9 f M J J ' ( J 7.9.t.-.w 5 4 = $ 5 %.3 & w i.4 # r ] 2 q } 8 - # ( c.: ",
"+ * f w < O $ ; < r y l { i.q.t 3 w e ( p w < = = @ ; < 5 e f G G J J } 9.t.a.%.w 3 4 ; = 5 ` > & 7 d.5 # w | 2 f } 8 : # ] c.- ",
"O = { w < + # ; < 9 t t { | t.t 9 e / 7.y w 5 : * o = < 5 w w p M B J } a.p.k.:.t 4 4 : & 4 ) 2 % 6 d.6 $ w O.< p ..8 ; + M s.* ",
"+ = 3.( < @ + : : 4 t t y M ..y 9 0 ` r.W y 6 2 = + = : 4 w w t p M J @.s.s.v.t.u 4 6 - # 4 ) : $ 6 k.6 $ t | < e 3.9 ; + t a.* ",
"@ - R a.0 @ + % : : 1 6 w J x _ y 0 M i.+.y 0 3 = o = , 5 0 0 w p n B S 1.k.v.c.u 4 4 - @ 4 ` * @ 0 d.4 % t =.: 0 u.9 ; + t a.* ",
"+ ; 9 a._ % $ # * < < : < 3 w 5 t d x ,.7.F w 3 = o * ; 6 0 8 0 w n N } a.%.} ..r 4 5 - + 4 ) % @ 0 i.< $ e #.* 9 a.0 ; # e a.* ",
"o ; 3 M N 4 # * % < 5 3 < < 4 4 w 0 D ;.D u 3 3 = + % ; 6 0 y y t _ D ` ' J p t r 5 4 - O : J * + 6 7.; $ w <.: 5 a.0 ; # e e.* ",
"O - < 6 f 4 * * * 0 p 0 5 5 < < 5 e d u 9 3 3 2 = O = 6 0 y N D M F y r w w r 0 r 7 5 > X = M * + 5 7.; % r -., 3 3.0 ; @ w $.* ",
"O - < 3 6 < < % : w q w 9 4 < < 2 5 3 5 3 3 < ; : = ; 4 6 6 7 7 7 7 7 r r 7 0 0 7 5 5 2 $ = p * + 3 -.; $ r #.: < O.9 ; + q a * ",
"+ ; < , : : ; * - 3 5 9 < : < : ; : : ; ; : ; = < ; = & * 2 5 4 5 5 5 4 4 2 2 < ; - ; * @ = 0 * + 2 | ; $ t D * < J 0 ; + 0 w * ",
"; % $ + + + + + + + # $ $ $ $ $ $ $ + + O + % % * - % @ @ + O @ o     . . . X X o o O % O = 6 * O 2 F - $ 2 : # < < : * O - ; * ",
": - & $ ; : : : - = ; = * * * * & $ % # % * % * & > * * & & & * & * * * * - - ; - - ; & X * 6 & O ; 7 & $ - % # * = * % + * * = ",
"< = & $ 2 8 6 3 3 < : : , , ; : - * * * - : * - 2 r 6 5 3 2 , ; ; ; - - < 2 3 4 4 > ; # o + + O o O O O o X o . X X X . X X # % ",
"< = & $ - x -.7.4.7.| t 0 5 9 < < : = * : < = , 5 y e l t 2 3 5 > ; - 5 4 2 5 3 2 ; > # O $ & $ # & & & % % % % & % % % * * * = ",
"2 : * * : 5 | 3.%.q.{ t 6 3 9 3 1 < < 1 < < : 5 r t / &.c r r u 4 < < 8 0 0 9 6 5 ; 2 @ + = = = - = = = = * ; ; ; < < , : : : < ",
"2 : * * : 3 w R ` 4.] t 9 9 9 < < < < 3 4 < - 3 e n { $.R L i t 5 < < 4 x -.J ( u 6 2 O @ ; : ; ; ; > > < t 7 3 < < 0 6 5 < < 1 ",
"2 : * * : < 5 w #.7.J y 9 5 5 2 < 5 8 5 3 < : < h / { ..&.| c u 5 1 < < w *.] D 6 3 < + $ ; < < ; 2 > 2 2 t y 3 , < q n y 5 0 5 ",
"3 < * $ < < 3 0 D ,.D w 9 5 5 2 < 0 t 9 2 : : < R o.$.E | _ #.c q 3 , < q J %.y 5 2 2 + * < < , ; > 2 3 3 t w < * - 0 p %.w q 5 ",
"2 < * & > : 3 0 x ` p u 0 6 2 3 3 t 9 3 < < < , { q.,.| | R #.N w 5 1 ; 8 x -.y 6 2 2 # * > < < ; < 5 6 5 x y : % - 0 n t.N q 4 ",
"2 2 & % > ; < 5 x | x R 0 6 < 5 5 f 3 , = 6 , < ` y.2.#./ K _ / t 5 1 = 6 x | 0 6 2 > @ % < < : : < 5 8 0 D x 4 % - 8 n u.{ w 4 ",
"3 3 $ & : ; 2 6 x _ R d w 5 < 5 9 a 3 ; = 0 , 5 ` i.2.2.T y T J e 9 < * < M @.0 6 4 2 # = : 2 > : 2 0 9 0 M N 5 # ; 6 f u...w 5 ",
"3 3 $ & ; ; 3 5 w 0 R y 0 3 < 5 w a 1 , = 0 < 6  .p.&.X.p t ` N a 0 < = < M -.w 6 5 > O - : 2 > ; < w 6 0 T T 4 % < < y t.} q 3 ",
"2 2 $ % ; ; 2 4 0 t ` y 9 5 < 3 f p 3 3 = 9 < 6 ..p.#._ f t X.y w 9 = * , f -.w 6 2 > @ - > 2 2 ; < ( 9 r ' O.: $ = , r 3.{ 0 4 ",
"2 > % % ; ; 2 5 9 D R 0 5 5 ; 2 t p 5 3 ; 3 , 6 ..p.&.{ t r ..y 0 8 * * , 0 <.t 5 2 > + - > > 2 = ; J r h 4.R * + = < t ..M 0 4 ",
"< > & % ; ; 3 5 8 | d 9 3 < : < D d 5 3 , : , 9 X.i.,.^ t t M 0 3 < * * , 3 %.t 6 < < + ; < 4 2 - ; 6 O.2.i.w + O 3 < h / M 9 3 ",
"2 > $ % ; ; 2 5 6 / w 9 2 ; : < R d 5 3 < : < 9 { a.e.T t e a 8 < , * * 1 3 J M 6 < 4 $ ; > < 2 % * 3 7.h.e.* O = 4 t N | p 6 < ",
"2 : $ % ; - 4 4 6 R 8 6 < ; ; 2 / x 9 5 2 ; , 9 ( 3.r.( t t a 9 > : * = 3 < w y 5 4 < # : 3 < < : + - q M w . @ = 3 e u / y 4 < ",
"2 ; $ % : ; 2 6 5 D 9 5 ; = ; < x G 0 0 6 < 2 0 ] ( O.O.e t p 5 : - = < > : 5 u 4 4 < # = 9 4 < < # * : * + + - > < y h | c 5 < ",
"3 ; & & ; ; 3 5 5 h 0 3 : = = , 3 0 9 e 6 2 2 w ] J / R e t t 5 : = : 5 ; : 2 t 5 6 < # * 5 5 1 3 ; # + . + - _ < : y N 0 y 8 < ",
"3 ; & $ : ; 3 4 6 y 6 2 > ; - = , 3 3 e 5 3 3 w D J w D w w t 3 ; & 5 5 = ; 2 w 5 7 : @ * 3 w 4 5 < * X # * 4 5 ; $ r 0 6 t 8 < ",
"3 - & $ ; : 4 5 5 p 5 1 < = * < < < 2 w w 5 3 w M p w q 9 9 e 1 ; = x t = - 2 w 5 7 ; @ * < 0 R w 1 * * # * q 8 < * = < 6 6 4 < ",
"3 - & $ : ; 4 3 3 y 5 2 , = * < 2 ; < 5 e w w w p 6 w 9 5 9 e 3 ; = ` w = = 2 w 6 6 - @ * < 4 =.} 6 < ; * * w 6 9 < * * < 5 < , ",
"3 ; $ $ ; < > > 3 9 5 3 ; ; $ < 9 = ; 5 t 2 3 9 0 5 w 9 5 3 0 < = 2 R 4 = = 4 6 4 5 ; @ & > < / 2.4 4 * * = 8 r ] 6 * * : 3 3 < ",
"3 ; @ # 2 4 ; > 3 3 3 2 ; ; $ 3 9 = = < 2 ; : 2 < < < , < 3 < < = * 2 2 & = 2 4 4 4 - + * < 5 o.0 7 ; % - 6 0 ..#.6 * * : < < < ",
"5 ; # # : 4 5 9 0 0 7 3 ; - # 3 2 = & = > : ; 2 < < 2 2 9 2 2 ; * = ; ; & - 4 < 1 < * X % - < / 0 : * : < 8 q r.O.5 - * : , 1 3 ",
"< - $ = ; ; > : > > > > > > : > : ; = - - = - ; ; : ; < < ; : 2 < ; ; ; ; ; ; ; - - % X + - q 5 : < - ; < w f $.t 3 - * * ; , 3 ",
"$ O o . X O + # # # $ $ $ # + O o o o o O O o o o O o O O O O O $ $ # # @ @ @ O + # + o # * * * = , : : 0 p B t < * * % * * ; * ",
"# # # @ $ & % * $ $ # @ + + # # $ # @ $ $ $ $ $ $ @ @ $ @ @ @ $ - - ; = * * * & * * * * : - * * - : : 8 T J 1 < : * * * * $ # # ",
"- & & & * * = = : ; : : > > 3 3 < ; < , ; < < < < < = > 2 3 2 3 ; ; ; ; ; ; - ; , ; ; ; ; ; : < < < 1 n n < , , * ; ; ; * * ; ; ",
"- = * * = , ; , < < < 5 4 6 w y M p f f M e e e 3 3 3 5 5 9 e y e e y w r 6 6 6 1 1 < < ; * : : : : 5 : : ; ; = * = = ; * * = * ",
"$ * - ; : < ; : < : : : 5 t t w w 0 w w e e e w 3 3 ; 3 9 9 w y y d d d t t w < ; ; * * % * = * = * = = * * * * * * * * * * = * ",
"# : 3 < 3 2 ; < 3 ; 2 : > 5 0 9 0 9 9 5 5 5 3 3 3 3 = 2 5 9 9 e w w 6 w 5 4 5 4 , ; * . . . . . .   o # * o X o   X .   X   X + "
};
