/* XPM */
static char *_8a3493862e54d24a1623b3e9e8de414RioKKtF6lFTs16vr[] = {
/* columns rows colors chars-per-pixel */
"64 64 155 2 ",
"   c #151515",
".  c #1D1C1C",
"X  c #201F1F",
"o  c #201F20",
"O  c #242424",
"+  c #282727",
"@  c #2C2B2B",
"#  c #302F2F",
"$  c #302F31",
"%  c #333333",
"&  c #383737",
"*  c #383837",
"=  c #373738",
"-  c #373838",
";  c #3C3C3C",
":  c #403F3F",
">  c #41403F",
",  c #403F40",
"<  c #3F4040",
"1  c #444444",
"2  c #484747",
"3  c #474846",
"4  c #474748",
"5  c #474848",
"6  c #4B4C4C",
"7  c #514F50",
"8  c #4F5050",
"9  c #535354",
"0  c #585757",
"q  c #565857",
"w  c #585957",
"e  c #565658",
"r  c #585759",
"t  c #575859",
"y  c #5B5C5C",
"u  c #615F5F",
"i  c #5F605F",
"p  c #60615F",
"a  c #5F5F60",
"s  c #5F6060",
"d  c #646464",
"f  c #686766",
"g  c #676867",
"h  c #696967",
"j  c #676768",
"k  c #686768",
"l  c #676868",
"z  c #6C6D6D",
"x  c #6D6D6D",
"c  c #6C6C6C",
"v  c #6D6E6E",
"b  c gray43",
"n  c #6F6E6E",
"m  c #6E6F6E",
"M  c #6E6E6F",
"N  c #6E6F6F",
"B  c #6F6F6F",
"V  c #6B6B6B",
"C  c #706F6F",
"Z  c #6F706F",
"A  c #6F706F",
"S  c #70706F",
"D  c #70706F",
"F  c #6F6F70",
"G  c #6F6F70",
"H  c #706F70",
"J  c #706F70",
"K  c #6F7070",
"L  c #6F7170",
"P  c #6F7070",
"I  c gray44",
"U  c #707071",
"Y  c #707171",
"T  c #717171",
"R  c #707271",
"E  c #717271",
"W  c #717172",
"Q  c #717272",
"!  c #727272",
"~  c #727273",
"^  c #727373",
"/  c gray45",
"(  c #737473",
")  c #737474",
"_  c #747474",
"`  c #747574",
"'  c #747575",
"]  c gray46",
"[  c #757675",
"{  c #767675",
"}  c #757576",
"|  c #757676",
" . c #757677",
".. c #767676",
"X. c #767677",
"o. c #767777",
"O. c #777777",
"+. c #737474",
"@. c #787875",
"#. c #777778",
"$. c #787778",
"%. c #777878",
"&. c #777878",
"*. c gray47",
"=. c #787979",
"-. c #797979",
";. c #787979",
":. c #797A7A",
">. c #797B7A",
",. c gray48",
"<. c #7A7B7B",
"1. c #7B7B7B",
"2. c #7A7B7A",
"3. c #7B7B7C",
"4. c #7B7C7C",
"5. c #7C7C7C",
"6. c #7C7D7D",
"7. c gray49",
"8. c #7C7C7D",
"9. c #7D7E7D",
"0. c #7E7D7E",
"q. c #7D7E7E",
"w. c #7E7F7F",
"e. c #7B7B7B",
"r. c #7F807F",
"t. c #7F8080",
"y. c #7F8080",
"u. c #808080",
"i. c #818282",
"p. c #828282",
"a. c #848384",
"s. c #838485",
"d. c #848585",
"f. c gray52",
"g. c #848484",
"h. c #858685",
"j. c #868686",
"k. c #868787",
"l. c gray53",
"z. c #838383",
"x. c #878888",
"c. c #878888",
"v. c #888888",
"b. c gray54",
"n. c #8B8B8B",
"m. c #8B8C8C",
"M. c gray55",
"N. c #8D8D8D",
"B. c #8E8E8E",
"V. c #8F8E8F",
"C. c #8B8B8B",
"Z. c #8F8F90",
"A. c #8F9090",
"S. c #959595",
"D. c #929292",
/* pixels */
"@ ; 1 ; ; ; 3 1 1 1 1 1 > 1 > 1 1 1 , 1 , < ; ; ; 1 ; ; 5 6 6 1 3 3 6 6 6 6 6 5 2 3 1 1 , 1 1 1 , 1 3 1 3 1 ; ; ; ; ; ; 3 1 : # ",
"@ 5 d V o.-.-.t.f.u.r.*.o.h y y u w w w e 9 e 8 3 6 w r w e 9 7 e e e 0 w w d V d k F / / o.y.y.o.O.3.3.a.u.o.o.J / o./ z e 1 # ",
"@ y f.b.g.B.f.u.u.-.o./ ( m m C m k d y m m m w 9 j _ / m d k V d d 9 w x m k k o.-.-.o.m x J / m $.3.-.w.w.f.B.B.b.w.-._ y 1 % ",
"# 9 $./ V h d d d d V V o.-.O.o.o.-.J m / -.o.e 9 / -.-.-.o.J O./ k 6 5 V V d m C m x V d k m J / _ o.o.o.m / o.~ / o./ h 9 1 % ",
"@ e w./ y d d d d d d V k c m k F L x d S o.V 6 9 d V J o.o.o.o.x x e 3 V V / o.-.-.1.-./ 1.O.o.O.$.-.o.V k m ~ / / o.m k r 3 % ",
"# 9 -.d r r y 0 a y u y y u u d j d d V S S e 5 y m V x $.w.r.w._ / y 4 m / -.O.O.O./ m d d d V x m m d u d d d d / / k u 9 1 @ ",
"@ 6 m y 9 e 9 9 e e w u a a y r a d d d h u ; 6 V m m x d V F / o.k 7 3 y m V k d V V V V d V V d k d u d d d d y g V / k 9 ; @ ",
"% 9 V 9 e y p d d d d V g j d a d V j d d w ; 8 d C / x V _ u.y._ w 2 3 u / J V d / / / / o./ m V V V d y d u y 6 d C o.V y 3 @ ",
"@ 9 d d d d d V g h m m / F V L / / / V d e 1 d o.o.V m -.y.f.f.f.~ e 3 d C m ~ -.-.o.o.-.w.3./ / / m m x V V d 3 9 d J V y 2 @ ",
"% 7 d j V V _ -.w.e.4.4.-.%.-.4.-.3.-.X.V 9 > m -.-.u.f.B.B.m.x.z.j 1 3 V l.a.u.f.f.-.$.w.$.w.O.o.*.*.o.-.$.O.d 1 y V m j w ; @ ",
"# 6 w j k m o.-.w.w.w.t.u.o./ -.1.3.o./ c 7 1 w.B.Z.B.b.k.f.f.s.t.e = 1 V o.1.( o./ Z / / V / m V V V d d d d 9 ; y k d d w 1 + ",
"& 6 w d d d V o.o.-.f.s.u.u.-./ 3.o.w.f.o.6 6 b.S.m.x.f.u.w.4.) a 1 1 9 V / / V / V d V d d d y w y 0 e y k d e ; w d y d r ; + ",
"% 6 w d y d y j d d V V V l h h V d k J / 8 3 -.f.w.t.t.t.b.b.~ 5 5 6 y / -.o./ m V c m V d m d m d d d p d d 9 ; r u u d y ; + ",
"% 5 0 k V V m d d V V m / ^ ) o.X.-.o.x ) 9 4 o.m.D.A.S.S.D.u.w 6 e d m 3.u.w.u.w.o.u.*.o.-.-.o.o./ / J / V d w ; a V d w 6 % O ",
"% 6 w F F V m m d a j / _ / -.-.~ m o.%./ w ; y o.-.t.t.z.-.d 8 1 d m u.Z.u.u.f.u.z.l.w.w.w.f.f.-./ m / o.V d d ; e V V k 0 ; @ ",
"& 9 y d d d d k V d V m V V F L z L ~ ) V d @ 2 m -.y.w.o.L y 1 & w F -./ J J / -.-.*.o.o.-.-.-.V k V V V w y y % ; 7 0 w 7 ; @ ",
"& 5 e 9 w y 0 u d d x x x d z z V ) / j d d ; ; y ) %.X.) / d & ; w X.o.-./ / C C O.3.-.$.O.1.r.4.f.z.o.m d V d 3 , 9 w y y = @ ",
"% 9 d V d d d V V m J J C k V V V L F m V w 9 ; 6 L -.) m d 1 - ; d -./ ^ o.( o.5.1.0.r.1./ / / / z d V V d j d 5 1 9 V j d ; @ ",
"% e h d d d V V V V V V V d i V z F / / F d s 4 ; d L / y % & 5 & w -.w.u.w.-.5.l.z.1.o.o.o.-.-.x d d d d y d d w , 7 d V y ; @ ",
"% e d V d d d d d y r y y d d d d m m F V a 9 8 & 8 d w ; % e 6 ; y o.C / o.o.1.O./ ( / o.o./ *./ m m C V d u y y 5 3 u V d 1 @ ",
"# 9 y 0 y y 0 9 6 9 y d j F d u d V V g d d w 9 ; ; e 5 % 9 w ; e w V l m S S S V c C c x V V k x J / V d d d w y 6 , d F V 3 @ ",
"@ e y y w d d y d d d x m V V m C m m l V d d y 4 = 3 < % 9 5 1 y t d V S C m m k k h C x m V k V d d d d y w 9 d 6 ; y J d 1 @ ",
"# e d d V d m / _ ~ J F m d d V V k u d d d d d 9 , - & & & ; d 9 w m V m m m c h h c V s d j l d d d d y y 9 d y ; $ d m V 9 @ ",
"# w p d k d w e y w r y w 9 9 y p d d V c J m k y 1 ; @ % , d y e d m V o.( S C V c S Z V d V V V V d V J V k V 6 % ; d o.m y $ ",
"@ : w k 6 6 6 9 6 y V k j l y V k V m m / X.w.-.d 5 : @ % 9 y V d d Z d o.-.o./ m z / o./ / / ) o.J ~ -.-./ m e < 1 ; V u./ d @ ",
"@ 6 w.w.d y d d d d d d d y e w p d d d y u d d t ; % @ ; 1 y m V V d p p d d h g V V d k k d g y d d y d d d 1 3 ; ; ~ b.) y @ ",
"@ 9 f.%.y w 9 e 0 w y y y y 9 r w w w w 9 9 9 6 5 ; + @ ; 8 8 t e e w 0 9 9 w y y y y s y w y i y d d u d y y ; 9 = & -.f.m w $ ",
"& e w.m u k m / C V V V V V V u y u V k d w w y 9 ; + @ ; 9 e t e 9 9 9 9 9 9 9 8 9 t y y w y g d V V V V y 3 1 d ; ; -.-.Z e % ",
"; s / t.B.D.D.D.B.b.f.l.3.o.o.V 3.3.o./ k a e 7 1 ; o # ; 9 q 8 9 6 5 5 7 9 6 5 6 e w y y V / ~ ^ ^ o.5.-.s 3 s u.w 5 %.u.o.e # ",
"% 9 y y a w e 6 6 9 9 9 9 9 9 9 e 9 9 6 6 6 5 , ; & o + - 1 5 1 1 1 1 3 3 1 1 4 8 e s y y i y y d d y y e < & d o.6 ; e 3 1 2 % ",
"; 3 2 6 6 3 3 1 3 2 2 5 2 2 3 1 3 4 4 3 3 3 1 1 ; ; @ @ ; 1 5 1 ; 1 1 1 1 1 ; 1 3 5 5 3 1 3 3 1 1 > 1 ; ; % + ; 1 & + & = 3 3 & ",
"O @ @ + @ @ O o O O O O O O + O + @ % # @ @ @ $ # # @ @ # @ @ + @ @ @ @ @ + + O   . o O . . .       O O O . o O O O o O O @ @ @ ",
"1 1 1 1 < < $ + % ; ; ; , ; % @ O @ % % & % & % # % @ + @ @ @ + O $ % & % ; : +     X X . . . @ + O O # & % @ $ % & % = : 3 1 1 ",
"y y w w t 9 - @ 3 5 e y y d 6 = & e u d d d d d d d e 9 8 5 , $ O ; d o.O.y e ; % % O O O . . % 5 - ; q e 8 6 6 w e 9 8 r r w y ",
"V V j s d 6 & $ 5 9 a d V L d , & 3 V o.%./ o.b.f.-.-.w.J r 1 % @ 5 w.b.y.y w : # % @ $ @ O . O 1 < 6 g d w y d V m j V d d d m ",
"m m d V V 3 = % 7 e V z m / j w % 9 w.u.w.f.w.-.z V m m d 9 2 % @ 6 _ b.k 9 w ; # # - # % O . X < - 6 z V s d m m m m m F m d F ",
"y.o.j L d 3 ; = 6 u w.w.f.b./ d ; e o.m / / m m d V V / w 6 6 $ @ 6 m %.d e d ; ; # - 6 ; o . o 3 - w g l l d V / o.o.o.u.%.3.w.",
"j y t u 3 , % # ; w V C / J y w @ 3 d d V k j d d d k m 9 4 2 @ @ 3 V X.m u m ; < % - < - @ o . 8 < y l m V z l d V d d d d V V ",
"a 9 w e , ; % @ O 9 6 w d d w e @ 5 d y d d s u d w m d 8 5 6 @ @ 3 y d y y V : 6 1 % % - $ O O 9 1 s V m m j V x V V l a d y d ",
"d a w 9 ; ; @ $ o 3 1 3 5 6 w 5 O 1 6 9 9 9 9 6 7 9 9 2 6 , 3 + + 3 d V k d F w 8 6 y 6 1 % $ O 9 1 y d V d d w d d l V d d d V ",
"x d u w 1 , % 3 @ % 9 7 9 9 6 , + 1 e y w w y y y y u w 9 3 4 O $ 6 d V V V V / d y e 0 5 ; # @ 1 5 d m F L z d d x z V V z m m ",
"m V m d 5 ; ; a 1 @ 6 w d s 8 & @ e d d d d d d u d y t 6 3 2 + & y J o.o.-.o.o.o.O.m d 6 & % $ ; 5 F -.-.%.) -.-.-.-.-.o.o.~ / ",
"-.3.o./ 9 = = d e % ; e y d 6 & % w d d d d d d d d w e 9 2 6 + = d ~ ) ~ o.m / o.o./ o.L 9 = = ; e L o.L m -.4.u.u.u.u.t.y.w.4.",
"f.f.u.y.d , = x m 5 & 3 w d w = ; k / C m k V m k d d y w 8 6 @ % 9 m V m V k m o./ m / -./ a 3 1 d o.F F o.w.t.t.m.b.k.f.f.s.z.",
"t.u.u.t.V 5 ; / -.s ; @ 6 t y % 3 / m k k / _ o./ k d d e 6 5 $ % 8 V k V V V k V d d l ) X.V y 6 l -.-.-.w.-.u.w.u.w.4.4.-.3.-.",
"/ / o.%.d ; & a 4./ 5 ; - y 6 # 6 / m V C o.$.o./ m d d 9 5 3 @ @ 5 d k m d d V d y y d V o.L d 9 m s.f.b.x.u.%.e.w.%.) o.w.-./ ",
"o.-.%./ d < & d w.o.t 5 % & % @ e X./ m m %.w.-.w.o.x d 9 2 , $ $ 5 d d x d V d y d y d d V V d 6 V x.s.w.u.-.m m o.4.w.w.4.) ) ",
"w.o.4.o.z 1 ; d u.u.F t 1 % @ % y L / / o.o.f.1.-.$.o./ y 6 3 % & 5 w d u u a y d d m -.w.%.) V 9 d u.B.B.m.f.u./ X.-.%.4.s.o.o.",
"f.k.u.4.m 3 < j -.m.u.z 9 ; % - t d L / l L -.o.m m V V w 5 3 % $ 6 L 3.) o.3.X./ o.3.b.b.f.y.-.V m f.u.w./ z %./ ) X.%.-.t.u.f.",
"u.u.u.-.V 4 1 F w.s.u.w.~ 6 - % 9 y l d j m d d d V d d w 6 1 % % 9 m u.o.o./ j d F z l F x m V m o.o.o.F z d l m o.-.f.B.D.D.b.",
"t.-.w.%.d - w m L X.o./ / j ; - = 9 8 9 y j d V d m k d y 6 1 # @ 6 d ~ m k V m m o.o.~ F / o.) ) / / / V l d L ~ o.o.3.o.o.%.o.",
"V V V g 3 ; V V V F V d d d 1 & + $ 9 y e w d y d k V u y 6 1 # @ 6 y / m d V F d m m m m d y d d V m ) / V V / m m C / V V J L ",
") ) L d ; e / d j F V d d d 6 # @ @ @ # 3 5 9 6 e 9 7 5 3 ; & @ @ 6 d / m d k V V V j d y w d d y g / ~ ) m / ~ ) o.-.4./ ~ o.w.",
"/ / / d ; s m z x m m m L m y 1 ; y 9 1 ; & @ @ 9 u d d d e 3 @ @ 6 w u u w w y y y w r y u j V V ) o.X./ F / / ) ) X.-./ / / -.",
"%.%.-.l 5 d V ) ~ F o.o.o.) V 6 ; 6 w w 8 1 ; @ . % e y h y 5 % @ 2 9 y y d y d d d m ~ / _ %./ l ~ o.~ m / o.o.X.%.X.t.t.%.o.r.",
"-.u.u./ 9 d Z ) o./ L ) o.X.) s , ; y d j 7 6 3 ; @ O 7 g y 6 % # 9 y d d d k j x m o.o.~ o.o.V d L L / / / / _ o.o.o.o.o.o.o.4.",
"u.w./ m w d V z d d d l z m m V 2 @ 1 d m d 6 5 6 ; O @ d y 5 % % e y h d d d k j a d d V V F V d ~ ~ o.o.o.o.F z ) O.o.o._ O.z.",
"u.4.X.~ m L z V l z j l z z V V 5 % @ 9 a V d 9 6 9 3 % d w 3 @ @ 5 e y w y 9 w a w y d d m X.V V ~ m o._ o.F k x o._ o.3.w.f.f.",
"4.-.-.z F ~ z l L z d l / o./ / y < % ; e z o.o.y e 6 5 e e 5 # + 7 C k d p 0 y d d d F F m ~ / F L V F / V u d / x / w.f.f.a.w.",
"u.-.) z / F z V V j d a d / ~ k m d 1 % ; d / ) / m 9 e 3 w 6 # + 9 -./ V / m d L X.-.-./ V d m d d d d x m x J m x _ _ w.O.o.3.",
"d y y u d d s s d s s a e y w w d C m e 3 7 o.b.m.l.m d 1 7 5 % @ y u.b.b.D.b.V.Z.x.t.z.y.=.~ L ~ l V d y j y y y r r y y r d u ",
"r e 9 e t 9 w w w t t e 9 6 e w e 0 7 5 1 ; 5 V d d e 3 ; 1 1 + @ w c c u y 0 y y y y e 8 6 8 6 6 8 9 9 9 7 7 7 9 9 7 6 6 7 9 e ",
"@ @ # % % % - - ; ; ; ; ; , , , 1 1 2 3 : ; & ; ; : ; ; ; ; % O # ; ; ; % # % % $ % $ @ @ # # $ # @ @ + + @ $ $ $ $ @ + + @ @ @ ",
"@ @ @ @ @ @ @ @ @ @ @ + @ @ + @ @ @ @ # @ @ @ + @ @ @ @ + + @ @ O + + + + + @ @ $ # $ @ @ # $ $ # # # # # @ @ @ @ # @ @ O + + O "
};
