/* XPM */
static char *_62303e5e1674f93981f851eb896c1d2QhpvkbWH5JaO7jim[] = {
/* columns rows colors chars-per-pixel */
"64 64 232 2 ",
"   c #170409",
".  c #1C050B",
"X  c #1E0B0C",
"o  c #23060C",
"O  c #2B070E",
"+  c #230D0D",
"@  c #2D080E",
"#  c #32070F",
"$  c #3E060C",
"%  c #33080F",
"&  c #3B0A0D",
"*  c #24100E",
"=  c #2E160F",
"-  c #3A120D",
";  c #340710",
":  c #350810",
">  c #3C0911",
",  c #380711",
"<  c #231110",
"1  c #2F1A14",
"2  c #341511",
"3  c #331B14",
"4  c #3C1912",
"5  c #3C2519",
"6  c #382319",
"7  c #44060D",
"8  c #4A050B",
"9  c #42080D",
"0  c #4D0A0D",
"q  c #53060C",
"w  c #54080D",
"e  c #5D090D",
"r  c #4D130E",
"t  c #430A13",
"y  c #4B0B14",
"u  c #4D0E18",
"i  c #490710",
"p  c #530C16",
"a  c #5A0C17",
"s  c #550F19",
"d  c #540E19",
"f  c #590D19",
"g  c #5C0D19",
"h  c #4A151A",
"j  c #54111B",
"k  c #59101B",
"l  c #5C111C",
"z  c #5B1616",
"x  c #511E0E",
"c  c #67060A",
"v  c #79070B",
"b  c #630A13",
"n  c #6B0A12",
"m  c #630E1A",
"M  c #740B15",
"N  c #7D0B15",
"B  c #63111D",
"V  c #6A111E",
"C  c #671814",
"Z  c #751814",
"A  c #562B0F",
"S  c #472C1C",
"D  c #5A2614",
"F  c #5A361D",
"G  c #4A250E",
"H  c #7C2B14",
"J  c #5E1520",
"K  c #641521",
"L  c #6A1622",
"P  c #6C1421",
"I  c #6D1825",
"U  c #711522",
"Y  c #731623",
"T  c #771926",
"R  c #751926",
"E  c #781927",
"W  c #751C29",
"Q  c #7C1C2A",
"!  c #781726",
"~  c #4B3421",
"^  c #745337",
"/  c #8A090C",
"(  c #86070A",
")  c #99060B",
"_  c #8E140E",
"`  c #830A13",
"'  c #8D0912",
"]  c #930A11",
"[  c #9C0B10",
"{  c #981611",
"}  c #901E10",
"|  c #A40B0F",
" . c #AB0A0D",
".. c #A9080B",
"X. c #BA0A0C",
"o. c #B8060A",
"O. c #AE160F",
"+. c #B7150D",
"@. c #A00B10",
"#. c #A91110",
"$. c #B7240E",
"%. c #AD2912",
"&. c #B92111",
"*. c #B93716",
"=. c #811E2C",
"-. c #85202F",
";. c #862130",
":. c #BB3D20",
">. c #883614",
",. c #C50D0B",
"<. c #CD0C09",
"1. c #C70509",
"2. c #D30306",
"3. c #DB0B08",
"4. c #C31B0E",
"5. c #C9150D",
"6. c #D3130A",
"7. c #D8190C",
"8. c #C61E10",
"9. c #E90A05",
"0. c #F30704",
"q. c #ED1D0A",
"w. c #F51405",
"e. c #CB230E",
"r. c #CE2A0F",
"t. c #D52B0F",
"y. c #D9230D",
"u. c #DE330F",
"i. c #CE2C12",
"p. c #C42A10",
"a. c #D32B11",
"s. c #DC2D13",
"d. c #C73C14",
"f. c #D43613",
"g. c #D93A13",
"h. c #F4280B",
"j. c #E7360F",
"k. c #EB3911",
"l. c #F43812",
"z. c #F13510",
"x. c #9D411A",
"c. c #B74A19",
"v. c #BB5B1C",
"b. c #BB531A",
"n. c #B6641A",
"m. c #B75E20",
"M. c #B66426",
"N. c #B47031",
"B. c #925025",
"V. c #CE4316",
"C. c #C8491A",
"Z. c #DD4B18",
"A. c #D84A16",
"S. c #D9571C",
"D. c #E34314",
"F. c #EA4216",
"G. c #EC4B15",
"H. c #E44A17",
"J. c #F24C14",
"K. c #E4561B",
"L. c #E95818",
"P. c #F15413",
"I. c #F45B19",
"U. c #F35D15",
"Y. c #EB460F",
"T. c #CA661C",
"R. c #DC691D",
"E. c #DB791B",
"W. c #EC621B",
"Q. c #EE6C1B",
"!. c #E4681C",
"~. c #F3641A",
"^. c #F26B1B",
"/. c #F36217",
"(. c #EE721C",
"). c #E97A1E",
"_. c #F4741C",
"`. c #F27D1D",
"'. c #C65923",
"]. c #E45E22",
"[. c #D97825",
"{. c #C27837",
"}. c #D2752C",
"|. c #E56A2A",
" X c #E96B21",
".X c #EB7629",
"XX c #F17421",
"oX c #F57826",
"OX c #EA7533",
"+X c #E27535",
"@X c #EA6C29",
"#X c #B57C52",
"$X c #AE724B",
"%X c #BD823C",
"&X c #F3841D",
"*X c #F58A1E",
"=X c #E3831C",
"-X c #D7842A",
";X c #D98637",
":X c #E18628",
">X c #F38424",
",X c #F68D22",
"<X c #F48A2A",
"1X c #F5952D",
"2X c #F79425",
"3X c #EB8837",
"4X c #F28735",
"5X c #E39237",
"6X c #F39235",
"7X c #F69B39",
"8X c #F7A53C",
"9X c #BF8040",
"0X c #BC8957",
"qX c #C59956",
"wX c #CD8F43",
"eX c #E69A43",
"rX c #F08E41",
"tX c #D8A756",
"yX c #F8AA45",
"uX c #F4A346",
"iX c #F7AD55",
"pX c #F6B55A",
"aX c #F9B656",
"sX c #EEA256",
"dX c #C0A862",
"fX c #E3BA69",
"gX c #FAC25E",
"hX c #F9C768",
"jX c #F9CD72",
"kX c #F8D279",
"lX c #EBC174",
"zX c #F8DA80",
/* pixels */
"o o o . o . . o . . o o o o o o o o o o . . .   .   .   . . . o o o o o o o o o + o o o o o o o o o + o o o o o o X o . . o o   ",
". # t t > t t t t t t t y t t y i t t t t > > > > > > > > > t y y y y t t t t t t t t t > t t > > > > > > > > > > > , , , % ; o ",
". y B L P V P P V m l g f a p p f f p a f f f f p u y i y y u p p s g f k j d d d d d s j d s s s s J s k k j j j j d u u t t + ",
". y Y Q T R R ! P V B l g g p p p i i t i y t y t i t t t t t t t t t t t > > t y u u u u d k k g K L I I I P I L L I V s d t o ",
". p P E ! Y P m f s s s y y t t t t t t t t t > > > > > > , , : : , > > > ; ; > y y y p p p g g V K V V Y P U Y V R Q R l p > o ",
". p V ! E P m l k d u t t t t > t t > t t t t t t t t t t t > : : ; : : > > > > > t y t t t y t t p a g B V ! V U R -.Q l p , o ",
". p P E Y m g B k u y t t , , t > > , ; # o O O # # O # O O o o o O ; ; > > > : : > & % % % # # , : > u p m V V U ! =.! s p , o ",
"o s V E P p l s p y i y > > # O o . . . . o . o o . . . . o . .       .   . . X o O O O o o o O O # : , t y p m V ! E R s u > o ",
"o p V P l j k y y t y t O o . o o O ; , > > t t i i i y y i t > t t o o + o o o O o o .   . o O O o # : , > y d g V E R s p > o ",
"O f g B V p p y t y t O o O , t t 7 t t t t i i u y p p p p p a d # ; # ; > > : ; ; : ; @ o .   . o o O @ ; > y a m P Y p y > o ",
"o f g l k t t y > O O O & y p p y p a f a f p f f f m a m m m g O     . > : O O @ ; y f t O O O o . . o O o ; t y p B V p y t o ",
"O p g l d t t & o O O t y y p p a m m b m V V m V V V Y Y V V m g y & u k I Q W J u > ; d B p : o @ o o @ @ : , t y p B a t y O ",
"O p f s u t o . o ; $ t y p m m V V V V P U Y ! U ! Q ! Y Y V m a y > > ; t t u j T T R W P m g f # o ; @ o O : t y y j p y t O ",
"O p s u , O . @ ; , t p g m m V V V U V P ! Y Y ! ! ;.;.=.=.E m y y i % . o o o @ , y L Y P j u , > @ o : : O O & y y p p t y # ",
"O u p > O   : t , t p g m m V m Y Y V V U V V P E E Y ! =.=.Q g y t > > . o O % : % O t V V y % a u , @ @ > t O O t p y y t y ; ",
"# t t ; o O u > : p a m V U Y V m m m m m m m Y ! V Y E =.U V m g m t & ; ; o O @ , , k B V m t % m V Q t O > > # , p a y y u ; ",
"@ t @ o o u , # t p g V m P ! m m g y p a m m ! P V P E P m g p p t t > i f m y y > O J Y m p g > # a Y Q u o > > ; t s f y y ; ",
"# > o O , u ; # y s m P P ! Y m g i 7 p y g V Y V V L E m y p p a y O o # t f f , # t L g m m m g t # a P W J @ > : : u p p t # ",
": > O @ j # : , y B V V ! ! V m y y t p y l B Y V k L P f y y p a y t O , , > + O t f V # o O O ; , # . y p u O t > > > y d y ; ",
"> # , , s @ , > p m P P Q ! m g t t y y y a f P g s V P y p t y g p p > o > B K t # O o y t o O @ @ > O o & u > O u > > t y y # ",
"y : : j u O @ t s K Y E E Y m y t y > t y p p U f f L K y t & , t p y y # O p R Q Y V m m m o t f m Q Q > o % t : : > > , y p # ",
"t > @ l > O O t l m ! =.! V m y t t # > t p p L p s V l p y p % o # O & y , # a V ;.=.m m m a > # t m Y -.k > o t @ > : : > y # ",
"; , > K % @ O t B P ! =.U V g t t > O t t y d L p p l m y y p p t o o o . O % , a V ! K t > t p s , # y P I m > o O o ; : > u O ",
"O @ t B % @ O u m V ! Q V m a t > % O & t y u K s p K V t t p p p t t > @ % > @ o , L m u > y t % > y O : g f p . J O O , t y > ",
"O o k B : O ; u V V Q R V m a % . o o % > t > l p p g K t % p p p t > R s ; O y y g Y f # u j J j s t ; O % p t ; W t O ; , y > ",
"o o l j # o : u B L ! Y V m t O o .   O > , > s s p g m y # , p m m t Q =.P o # t > j p o f R E T I > y y @ > # > W u O # , u > ",
"o o l p , . t p B Y ! V B m , > o . . . ; # > t p f s B t ; > t p g i p I =.W u t a m y , O , t t t $ t p u % , u T h O # > t t ",
". o k u @ . h j f R R U m a t O . . . . o # ; t y g y f t : s > y % p O O f R Q p % t g g y @ o > . . o O y y # u Q t O # ; > > ",
"o . B u o   t j l V R Y m a , :   . . . . O O > t y p p t ; t u & O % t O # y m m m u O > f t @ . @ K Y > @ u O g g ; @ O # > t ",
"#   u k .   : p B P R P V g , $   . . .   O o > > > y p t O J I u O > O O p # t m : I W L t > O . I Q l p O % o o o o O o % > > ",
"#   > f o . O u p V P I V g & >     o o   . O ; > t i p : O > J I y > O o > p f j d I Q Q I K # o W B u y y > # ; @ .     ; > % ",
"; . X u o   . @ u p V Y U m t > . . . ; . . o # % > y y : @ > J L Y d O t t f g t @ ; O @ : > , O > p m y p y y a y > #   O > # ",
"# o . o @ . . o O ; i K V m p O . o o > . . . o > % t y , O u u t I Q m a m i O ; u K W L f y p > , p m y V B k L V > @ . @ > ; ",
"@ ; o   . . , . O ; , f m V g O o o O > o o o . % % % > u o J I s : t g m % O g -.-.E L m y f g m a p p p L V R T Q t O o o > O ",
"; O t O . . > t . o O t y m m > . o o O : o O     # , # # O p Y E m y O y o > : , # # O # > # p g m a p p t s ! Q Q u o o @ > O ",
"O O t t O   o y y o # i f m V a . . @ ; : > # O o . o # o o , p T E P f : o o # , > i t p p # p m m a y a #   s I =.u o o > t O ",
"o t y t t ; o : O o p g g g P g O o O , y % # # o & O : > o o O g m V t # O : O > m g p p y p V V V P p p t . # L Q > o o y t o ",
"o y y ; : O o   . , f V V V V p ;   # t > % > o O p y @ p p O . o y a % # . O u V V b p p p p I ! ! P p a : o y V Q > . O u t O ",
"o t t . . o . : B Y Q ! P ! g i t o , t t > > & o t m t O p f > . & y g o t m m m m m p y s y P =.=.! a y , y m P m O . O t > O ",
"o t ,   @ > d L R Q Y Y P g t g t o t t t , y y O % m m p , t p t i t p O o # > p p m p y t p V =.E Y m t t g P P u . . , t & O ",
"O t >   ; s d k Y ! V p > p m f # o > t t y p $ % O t t p a > # > O # # , ; O o o . : t t t p m Q ! U m u t g V m > o o , t , o ",
"o , $ % . O u y g m p p g y i > # O > t t y % p , O O o ; p f p # o o . o o O O . ; t > y y y m E P m a t p g B V t . o ; > ; O ",
"o > p y > o O u u t > t > % > O o # t t y % t p o O & o o # p i t p f p p t > . . . o , t t s m Q m m f t y d g U > . O O o O O ",
"o % > O > > o , s : o o o o O > t > t O O y > . . O O o o . > t t y y y p # .   . o     O > p m V g p y t & > j K > o # # o . o ",
"o O . o > > o # m y . # . . O > y y t # .   . . o o o o o O o p p u f g y . . . o o . .   O t V V y o o o . # u K : . # t o   o ",
". # . . & > O o f m o o O . . > & p y # O . . . o o o o o o ; o p p t o > .   . o O O O     , V m # . t u t @ t I y o t O # . . ",
"o ; . . # > # . p m u . O . . . > & y t O . . . o o o o . O t O 7 u ; . O . . o O O O O ; o o B m . o z Z C O u I t . t t y . . ",
"; t o . . # > . t m u > . o . . o O O a % o . . o o o . o % > , # # p O . . . , , O o # O %   > u o S #Xc.H @ t K u . > p p . . ",
"# t O ; . ; O . # f > u o o . . . . # > > t , . o o o o & y t t o i m t     . % % O o # # # O o y o ^ lX+X>.- o t t . t p i o O ",
"O t % n o # > . . t ; t ,   O . . . # O y i a y o O o o y g t t o a a o o   o # % # @ o # # > o o ; $XzXrXx.r ; ; O O a b m O 7 ",
"O > 8 ) c . ; O . o # y t . . . o . o f m i y m t o % o p g t t o p y & o       % , : O O # t > : > $XzXuXc.z z m m M q w b # q ",
"o O 7 | ] p o > > . o > p . . . . O o p m p p f 9 8 ( 7 t m p O o f y y 0 o     ; & , % # # , > > 2 0XkXuXT.e m O y M c b b $ e ",
". o q o. .@.b o i o o , , % o o q $ 8 7 p m g o 7 $.6./ # p g O O m 7 c M $ .   # u > t $ > y O y h qXjX7X|.z m o i v ( q g 8 c ",
"O o e 5.8.7.| V , O O t m g # w ( ( $ g i i p o c p.k.6.v o t . O m > v ] ] &   O > $ t 0 p > > : D qXhX7X3Xz m o q ) ) $ 7 v c ",
"o . e 5.f.H.a. .n o 7 o m V 8 c 1.2.c 0 , y t o v s.J.j.+.w O & o y # / 4.i.C O t t > t a p . 9 { f.sXaX1X2Xx.y > c 2.o.q # ..q ",
"O O n <.d.F.H.<...a m # n v p w  .9.6.( p o O o / y.G.L.j. .7 m # t t [ r.L.d.0 > t y t # # 7 _ k.L.pXyX2X,X].{ / 1.9.o.) ) o.q ",
"# 7 ] 6.A.K.W.a.2.) n > e ] n a #.a.z.y.@.m . O n 8.F.L.H.t.#.N c 7 ` +.A.Q./.%.b 0 9 0 b ` | y.J.oXhX8X,X*X_.j.<.3.9.2.1.X.<.p ",
"# ( o.6.g.|.W.K.r.1./ 0 i [ ( } #.C. Xk.3. .N t ` ,.k./.W.Y.t.+. .[ | 4.L.Q.(.D.e.,.o.o.2.3.7.Y.^.7XhX1X*X&X_.P.j.l.h.0.7.s.f.r ",
"$ o.X.6.g.OX XL.A.p. .v 7 ( ..&.#.C.+X Xk.7.X.] | 3.D._.6X^.j.f.5.e.&.5.A.XX,X/.h.q.w.9.0.w.Y.(.>XpXhX&X*X`./.U./.I.l.q.j.F.S.x ",
"$ +.a.8.j.OX4X.XZ.d.O.[ v _ $.e.O.C.eX3X].u.6.,.4.y.Z.XXyX7XK.V.f.k.A.4.V..X6X`.U.Y.J.l.h.J.^.`.1XjXiX&X&X&XP.L._.~.l.k.k.L.S.D ",
"- $.e.r.Z.rXiXiX|.d.C.} O.$.d.p.8.A.uXpXOXZ.A.g.g.D.L.`.8XaX<XA.C.L.L.V.V.|.4X>X_.^./.I.P.Q.`.>XyXjXuX,X*X*X^.Q.^.I.F.L. X^.R.A ",
"& %.Z.L. XrXpXjX3XC.V.*.c.S.S.Z.Z.K.6XhXuXQ.(.W.Z.!.Q.(.7XgXyX.XR.R.Q.K.S.|.4X,X`.`._.U.W.&X&X>XpXjX7X,X*X*X&X_.^./._.oX^.~.E.A ",
"3 B.M.v.n.9X0XdX9XM.M.n.N.N.{.v.b.b.M.9XqXN.n.T.T.T.T.T.-XtXtX;X;X5X[.T.C.S.;X5X-X). XR.).=X-XeXfXfXeX5X-X-X-X;X}.}.N.{.'.v.n.G ",
"X + X o < < < < < < * X X * * + + + * * * * + = 3 3 4 2 1 6 6 1 1 1 = 3 - - h 5 S F F F A G S ~ ~ S S S 5 6 6 6 6 6 3 1 1 3 1 X "
};
