/* XPM */
static char *d7cebf2fd65246f7dc1544c19c5010a8hUW6rrqImFoXIs6s[] = {
/* columns rows colors chars-per-pixel */
"64 64 132 2 ",
"   c #1A1A1A",
".  c #201E1E",
"X  c #242323",
"o  c #282727",
"O  c #2C2C2C",
"+  c #302E2E",
"@  c #2F302F",
"#  c #2E3031",
"$  c #333333",
"%  c #383737",
"&  c #383836",
"*  c #3C3B3B",
"=  c #413F3F",
"-  c #444444",
";  c #484747",
":  c #4B4A4A",
">  c #504F4F",
",  c #545353",
"<  c #585757",
"1  c #5C5B5B",
"2  c #605F5F",
"3  c #646363",
"4  c #686666",
"5  c #6C6B6B",
"6  c #706F6F",
"7  c #757474",
"8  c gray46",
"9  c #747474",
"0  c #767575",
"q  c #767676",
"w  c #777777",
"e  c #727272",
"r  c #787676",
"t  c gray47",
"y  c #797878",
"u  c #797979",
"i  c #7A7979",
"p  c gray48",
"a  c #7B7A7A",
"s  c #7B7B7B",
"d  c #7C7C7C",
"f  c #7E7E7E",
"g  c gray50",
"h  c #7C7B7B",
"j  c #807F7F",
"k  c #807F7F",
"l  c #808080",
"z  c #818080",
"x  c #818181",
"c  c #828181",
"v  c gray51",
"b  c #838383",
"n  c #848282",
"m  c #848484",
"M  c #858484",
"N  c gray52",
"B  c #868585",
"V  c #868686",
"C  c #878686",
"Z  c gray53",
"A  c #848484",
"S  c #898787",
"D  c #888888",
"F  c #898989",
"G  c #8A8989",
"H  c gray54",
"J  c #8B8A8A",
"K  c #8B8B8B",
"L  c #8C8B8B",
"P  c gray55",
"I  c #8D8C8C",
"U  c #8D8D8D",
"Y  c #8F8D8D",
"T  c #8E8E8E",
"R  c gray56",
"E  c #8B8B8B",
"W  c #908F8F",
"Q  c #909090",
"!  c #919090",
"~  c gray57",
"^  c #929191",
"/  c #929292",
"(  c #939393",
")  c #949292",
"_  c gray58",
"`  c #959494",
"'  c #959595",
"]  c #969595",
"[  c gray59",
"{  c #979696",
"}  c #979797",
"|  c #949494",
" . c #989797",
".. c #989797",
"X. c #989898",
"o. c gray60",
"O. c #9A9898",
"+. c #9A9A9A",
"@. c #9B9A9A",
"#. c gray61",
"$. c #9D9C9C",
"%. c #9D9D9D",
"&. c #9E9D9D",
"*. c gray62",
"=. c #9F9F9F",
"-. c #9C9C9C",
";. c #A09F9F",
":. c #A09F9F",
">. c #A0A0A0",
",. c #A1A0A0",
"<. c gray63",
"1. c #A2A1A1",
"2. c #A2A2A2",
"3. c #A4A3A3",
"4. c #A4A4A4",
"5. c #A7A6A6",
"6. c #A7A7A7",
"7. c #A2A2A2",
"8. c #A8A7A7",
"9. c #A9A8A8",
"0. c #A9A9A9",
"q. c gray67",
"w. c gray68",
"e. c #AEAEAE",
"r. c #AFAFAF",
"t. c gray69",
"y. c #B2B1B1",
"u. c gray70",
"i. c #B6B6B6",
"p. c #B3B3B3",
"a. c #BDBDBD",
"s. c #C3C3C3",
/* pixels */
"d N P P R F Z x l l m F T T T T R } _ _ ' ( R R F D m F P P P P D D l P D m D D P R _ } _ _ } R R P P P P m g g x D F Q T T N d ",
"9 9 9 9 e e e 6 6 6 6 6 x F Z N m V ~ ' o.%.%.=.=.=.} F J J J D D D m D P } =.=.=.%.%.} } R D m m D H l 6 6 6 6 6 e e e e e e e ",
"9 9 9 9 e e e w d N m Z F o.X._ ' _ R P ' =.o.' ' ( U P P K J J P m D P P P _ _ [ @.=.} P R _ _ _ } @.D Z m m d t e e e e e e 9 ",
"9 5 5 5 6 6 e w x F F Z R ~ ~ T U P F F F D v l f s u u w 0 9 9 9 e e w w w s l l c D D D P P P R _ R R Z F F m t 6 6 6 6 6 6 e ",
"- - = * < 3 , : : ; ; - - - - = = * * & % % $ $ O X # # $ $ $ $ $ @ X $ $ # X O # $ % % * % % - = - - - - - - ; : , 2 , = - - - ",
"                                                                                                                                ",
"                        . . . .                                                                 . . . .                         ",
"      X X O o O O O O # O O O O o O O o o O # O O O O # # # $ $ $ $ # # O # O O # O O O o o O O O O # O # O O # O O O X X       ",
"O .   X # # # * & % * * % # % % $ $ % % $ % * * = = - - : > , , , , , : - - * - % % % $ $ $ $ $ % # # & * * & & % # # # o   . O ",
"; o . @ - - > > , > > > > : : - - - - * * * % * * - = - ; : : : : : : ; - - - * * * * = = - - - ; : : > > > > > > > - - #   o : ",
"5 #   # ; ; > < < < 1 < , > ; - - % + % * % $ $ O $ * * * = - : : - = * * % $ O $ $ % % $ $ % - - : > < < 1 < < < > : ; #   # 5 ",
"3 O   @ ; ; , 2 1 < 1 < > ; ; * + $ + O O $ # + o X . X O % % = * & & O X . X o + O $ # O O $ $ * - - > < 1 1 1 1 , : ; O   O 3 ",
"3 o   # ; : < 3 1 1 < > * * # # < 0 J [ W d 6 6 l = O O o O * * * * O o O O - j 6 5 j W ) J 0 < # # = * > < < 1 3 < : - #   o 3 ",
"2 X   O ; : 2 3 < , : = % # O # : - - 1 S 2.e.-.m & % O o X $ * * $ o X O $ % N *.y.2.S 1 - - : # O O * = : , < 3 1 : : o   X 2 ",
"1 X   o ; : 2 3 < ; & & # o # ; < 0 y 1 * % * : ; - e l + + O % & o O $ c 6 - ; : * % * 1 y 7 < : O o # * & : < 3 2 : : O   X 1 ",
"< X   # - : 1 3 , * & $ o # : > < < 2 7 ^ 5 - $ # , 6 > * * $ $ $ $ = % , 9 , O $ - 5 W r 2 < < > : # o # & * , 2 1 : - #   X , ",
"< X   @ ; : 1 1 : & % o $ - N 4.D 1 : : - : : - X X o $ $ * * % % * * $ + o X X - : ; - : : 1 S 4.N = $ o & & : 1 1 ; ; O . o < ",
"< X   # ; ; < 1 - % o $ * 5 0 0 w c N 2 > % + o % = : : ; = = $ $ * = ; > : * % o O * > 2 S j 0 w 8 5 = & o & - 1 < : ; #   . < ",
"w O   # ; : > > * & o % 1 5 3 - - - ; : , + o + = : 2 3 2 2 < 3 4 < 1 3 3 1 : - + o + , : ; - - - 3 5 1 * o & * : > : - #   O u ",
"6 *   # - ; : = * $ $ * } 2.0 - * $ $ O X o X = , 2 3 4 0 c r J J r c 0 5 3 2 , = o o X O $ $ * - 8 2.} % $ # * - : ; - #   * 6 ",
"5 =   # - ; ; = * o % : [ R s , ; * . o $ O * > 5 6 6 6 N P ^ *.*.) W M 9 5 6 5 > * o $ o X * - > d ~ } > & o * = - ; - # . = 5 ",
"5 = X # = ; - * % O $ ; 1 : - - : - + % O O ; 5 r d r y S W [ q.q.[ W S y r d r 6 ; + o % $ - : - = : 1 - # @ & * - ; - #   - 5 ",
"5 - . # = - - & O O X @ O o & = $ o O o $ = 2 M 2.-.-.^ I W [ i.i.[ W J ^ $.$.3.M 3 - + o O X $ = & o # @ X @ O % - - = # . - 5 ",
"5 - . # = - - , 5 N 0 3 : * e 2.) 5 $ o = > e i W *.` @.[ ..*.i.i.*. .[ @.) $.^ r e > = X $ 5 [ 2.6 * : 4 8 m 4 , - - - # . - 5 ",
"e -   # = = * # : 0.6.4.e ; : 3 3.y.e 1 y 3 6 5 < 3 c N 2.2.8.i.i.8.2.2.N c 3 < 4 9 3 y < e y.4.3 ; ; e 4.6.0.> # * = = # . - 6 ",
"6 *   # * ; * # X 5 q.r.F ; = # < 2.w.$.< - : < 3 3 5 J @.2.y.y.y.y.2.@.J 4 3 3 < : - < *.e.2.< # - ; F r.q.5 . # * - = #   * 6 ",
"e $   # = ; = * X $ : t 6 > & @ : A 3 $ % O X O ; > < 2 c [ 2.8.q.2.[ c 2 < , ; O o O % $ 3 N : @ & > 5 w ; $ X & - - = #   $ e ",
"8 # . # * ; - = X # * & * & O @ % < $ X % = - O X % - > 2 J ) w.q.) J 2 > - % X o = - % X $ < % # O % * * = $ . = = ; = #   # 8 ",
"t # . @ - - - * o o & * O o @ o X o X X % 5 S 5 $ o $ ; < 9 [ 4.4.[ 9 < - % o $ 5 S 5 & X X X X o + o O * & X O = - ; - @ . O t ",
"w @ . O ; ; : * $ @ $ o O o X @ $ % +   % 1 N 2.y ; $ : 1 4 P 6.8.P 4 1 : $ : y 2.N 1 %   O % $ @ X o O O $ # # * ; ; ; @ . # t ",
"e # . @ ; ; ; - & # : 1 , < 1 @ o = = O o % 3 [ M , * : 3 4 c *.*.c 5 3 : * , c [ 3 * o O = = o $ 1 < < 1 : # & - : ; ; O . @ e ",
"N @ . # : ; ; - * o @ 2 K d > o X $ ; % o $ $ ; - $ % - 1 0 c *.*.c 0 1 - $ $ - ; $ $ o % ; $ X o : d L 1 # o * - ; ; ; # . @ N ",
"D # . $ : ; : : - O X ; < < = = X X - ; = O * - - * - = , y J 1.2.J r , = - * - - * O = ; - X X = = < < ; X O * : : - : O X O N ",
"m O . O : : > , - O O X - A M 3 = X X $ * & $ * - < : = : 6 R 1.2.P 9 : * : < - * $ % * $ . X - 3 c S - X O # ; , , : : O X O N ",
"d O   + ; > < < > * o . X o O o o X X . O * % $ > M 2 * : 4 ! 1.2.^ 5 : * 2 S > $ % * O . X X o o o o . . o = > < < : : #   O l ",
"s O X O ; > 2 1 , > % X   - > 1 9 9 1 = + X + $ ; M M > : 1 D 1.*.J < : > N N - % O X O = 2 e e 2 , -   X % : , 1 2 , ; O X O y ",
"9 o . # ; < 4 2 , > ; + . O ) @.[  .:.:.) , @ o @ 3 ` 4 ; < M 1.:.M < : 4 [ 2 $ o + < ^ *.>.@.@. .^ O . $ ; > , 2 4 < ; $   O 0 ",
"e X   # ; < 4 3 < , : - $ X O % - < < 3 2 d 4 $ o ; i 5 ; 1 J 1.:.G < ; 5 i ; o $ 3 i 3 3 < < - $ O X $ - : , < 3 3 < ; O   o 5 ",
"M X   O ; , 4 5 < , : : - & X . o o * - < N 2 * X * 2 y : , D 2.3.S < : i 2 * X * 2 N 1 = * o o X X % - ; > , < 5 4 , : O   X N ",
"m X   # : > 5 6 2 2 > > ; - * o o X X + % k 1.6 o + , 0 > , d 4.3.k , > e , + o 6 >.c % + X X o o * - ; : , 2 2 5 5 > : #   X m ",
"c .   # ; , 3 y 5 3 1 , : : ; - * * X O + - 6 1 X O : 1 > < k p.y.j , > 1 : O X 1 e - + O X * * = - : : > 1 3 5 y 4 , : @   . c ",
"m .   # : > 5 c 5 < 3 < 1 1 1 1 : - % $ o * [ 4 o o : < , < H a.a.J < , < : o o 4 ) * o $ & - : 2 2 1 1 1 2 1 6 k 5 > ; +   . m ",
"s .   O ; , 4 f 3 < < 1 2 , > : ; = * O o : t.r @ X ; 3 5 < P a.a.P 1 5 3 ; X O r y.: o O * = : ; > < 1 2 , < 2 j 5 > ; #     d ",
"e     @ ; > 4 f 3 < : , > : - ; ; * = X o - ^ i X # ; 4 J D 2.a.a.:.S G 5 ; O X i W - o X * * ; ; - ; > > > < 3 d 4 > : O     9 ",
"5     + ; > 5 d 3 , : : : ; - ; - $ % X % 3 M > X * - , e >.u.s.s.y.2.e , - * X , N 3 % . % % - ; ; ; ; : : < 3 f 4 , ; #     5 ",
"6     @ : > 5 i 1 , : : - : - * % % $ % j j 2 $ O - > > > V u.s.s.y.N > > , - O $ 2 j d % $ % $ * - ; ; ; : > 2 t 5 > : $     5 ",
"5     @ : , 3 e < : ; ; ; - $ $ $ $ - < j , O % O > 6 > $ < } i.i. .< $ > 6 > O % O , M < - $ $ $ $ - ; ; : : < 9 3 , : #   . 5 ",
"5     + : , 3 4 , : ; ; = O O X - - $ O o O $ * @ < #.w $ ; 5 P W 5 ; $ r $.< + = $ o o O $ - = o O O = - : : , 3 3 , : @     4 ",
"1     O : , 3 3 > : - * # # o # % * % % # % % % # , #.o., # * 1 1 = # , o.o.> # * # & # # * * * @ o $ $ * - : , 3 3 < : o     < ",
"-     o ; , 3 3 : * * * * * $ $ & * % * - ; = # # % 8 =.=., X o o X , *.*.8 * # # * ; - * & * # $ $ & * * * * : 3 3 , - O     - ",
"$     O ; , 3 3 > - - - - - ; - - - ; : , > ; # # # = f =.' > # # : [ =.f = # # % : > , > ; ; - - - - - - - - > 3 3 , ; o     $ ",
"#     O - > 2 3 , > > : : : ; ; ; ; > 4 1 > : = $ # O * 3 8 > & & > e 3 * # & # = : , 1 3 > ; ; : ; : : > : > , 3 3 : ; @     # ",
"$     O - : 1 3 2 4 3 3 1 1 2 1 1 1 5 e 2 > ; - * * $ O O & - & * - & O # # * * - ; > 2 9 5 1 1 1 1 1 1 3 3 4 1 3 1 > - O     $ ",
"$     O : , 2 4 5 6 5 e 8 e e 5 4 4 5 e 4 < < > > : - * = # $ # # # $ * * - : > > , 1 4 5 5 5 3 5 9 9 e 9 9 5 5 4 1 , : O     $ ",
"$     O ; > > , , , < 1 3 2 1 1 1 1 < 3 5 3 1 1 < , : - * * = * * * * = - ; , < 1 2 3 5 2 1 < < < 1 1 2 < < , , , , > ; O     $ ",
"&     X = = = * = - - - - ; - - - ; - ; ; : ; - ; - - - = = = = = = = = - - ; ; - ; ; ; ; ; ; - ; - : ; - - - - = = = * X     $ ",
"%     o X o O O # @ @ @ O O O O O o O X O @ O @ O @ @ @ @ @ # # # $ # # # @ @ O O # O o o o # O O O O # # # O O O O o X O     % ",
"                        . . X .                                                                   X .                           ",
"                                                            .                                                                   ",
"- - - = < 2 < : ; ; - - - - - * = * & * & % # $ o X # # $ $ # & & # X # # @ X o # % & & * * & * - - - - - - ; : : , 2 < * - - - ",
"e 5 5 e 6 6 6 w x K F D T ~ ~ T P H H D D D m f f s y s u w 8 8 e e 6 u u u d f f l Z Z F K P P K ~ ~ T Z Z K x w 6 6 6 5 6 6 6 ",
"9 e e 9 e e e w d b b N D o.} ( } / R R } *.o.} [ / H H U F F F F V Z U F U ~ ' X.o.=.X.P T _ X.( X.o.F Z x x f w e e 9 e e e 9 ",
"9 9 9 e e e e 6 e 6 e 6 g F F N m D R } } *.*.*.*.*.} H F F F F F F V F F ' =.2.=.=.#.X.X.~ N x N D F l e e 6 6 6 e 9 6 6 9 9 9 ",
"s N P K T F D x l l x P T P T T R } _ / } / R R H D m H U U U K F Z x U F m Z F T T ( X.( ( X.~ T U P U T x x l x Z F R U U N d "
};
