/* XPM */
static char *_7b86acf1e154604d6f57fb626d58858TIxPnxWEqHE0Omi4[] = {
/* columns rows colors chars-per-pixel */
"64 64 188 2 ",
"   c #040500",
".  c #0C0601",
"X  c #050900",
"o  c #0C0A00",
"O  c #120500",
"+  c #1C0400",
"@  c #140B01",
"#  c #1B0B01",
"$  c #170B09",
"%  c #1C0C0B",
"&  c #0D1101",
"*  c #141102",
"=  c #1C1103",
"-  c #1D140A",
";  c #240501",
":  c #2B0301",
">  c #230C03",
",  c #2B0C04",
"<  c #2B0E04",
"1  c #2B0F06",
"2  c #2D0F06",
"3  c #250E09",
"4  c #2C0D09",
"5  c #2E0F09",
"6  c #340301",
"7  c #3B0302",
"8  c #340903",
"9  c #350C02",
"0  c #310C04",
"q  c #320C04",
"w  c #370C06",
"e  c #3B0C05",
"r  c #380D07",
"t  c #320E0A",
"y  c #330E0A",
"u  c #3C0E0A",
"i  c #261301",
"p  c #231204",
"a  c #201206",
"s  c #251207",
"d  c #231407",
"f  c #2D1004",
"g  c #2C1204",
"h  c #2E1607",
"j  c #241804",
"k  c #2B1A06",
"l  c #25130A",
"z  c #2E1209",
"x  c #2D100A",
"c  c #2C130B",
"v  c #28160A",
"b  c #2D130C",
"n  c #2A140E",
"m  c #2C170D",
"M  c #24190A",
"N  c #2B1A0D",
"B  c #331204",
"V  c #341007",
"C  c #3B1305",
"Z  c #351B07",
"A  c #301109",
"S  c #31120B",
"D  c #33130B",
"F  c #33130C",
"G  c #31140C",
"H  c #381008",
"J  c #3B130B",
"K  c #3D100B",
"L  c #3C120C",
"P  c #3D130F",
"I  c #34190B",
"U  c #351A0C",
"Y  c #3B1A0C",
"T  c #3C190F",
"R  c #2F1910",
"E  c #2B1F18",
"W  c #351412",
"Q  c #3C1511",
"!  c #321912",
"~  c #361A11",
"^  c #3F1811",
"/  c #3A1E13",
"(  c #3C1A14",
")  c #3D1B18",
"_  c #3D200E",
"`  c #322112",
"'  c #3D2319",
"]  c #440201",
"[  c #4B0201",
"{  c #430B04",
"}  c #4C0D03",
"|  c #430E0B",
" . c #4B0E0B",
".. c #530201",
"X. c #5C0101",
"o. c #540B05",
"O. c #5B0A06",
"+. c #500708",
"@. c #540E0A",
"#. c #580D0C",
"$. c #431206",
"%. c #40140B",
"&. c #43140B",
"*. c #4C130C",
"=. c #461B0B",
"-. c #431B0D",
";. c #4C190C",
":. c #52130B",
">. c #5B130E",
",. c #541C0F",
"<. c #421512",
"1. c #461511",
"2. c #441512",
"3. c #4A1413",
"4. c #441A13",
"5. c #441C14",
"6. c #4C1B13",
"7. c #4E1A17",
"8. c #461B19",
"9. c #461C19",
"0. c #451C1A",
"q. c #4C1B19",
"w. c #4B1E1B",
"e. c #521213",
"r. c #531C15",
"t. c #5B1A13",
"y. c #511619",
"u. c #531B1B",
"i. c #591E1B",
"p. c #630101",
"a. c #6C0101",
"s. c #650906",
"d. c #670A0D",
"f. c #6D0B0A",
"g. c #730101",
"h. c #7B0102",
"j. c #760509",
"k. c #7C0108",
"l. c #740A0B",
"z. c #6E110E",
"x. c #641612",
"c. c #691311",
"v. c #631B17",
"b. c #711312",
"n. c #432314",
"m. c #4A2016",
"M. c #4C2215",
"N. c #472219",
"B. c #45221B",
"V. c #49241B",
"C. c #4C231D",
"Z. c #54231B",
"A. c #51201C",
"S. c #59241D",
"D. c #552A1D",
"F. c #551E20",
"G. c #4E2525",
"H. c #442A22",
"J. c #4A2923",
"K. c #4F2C24",
"L. c #5B2524",
"P. c #5A2F27",
"I. c #552628",
"U. c #5A2B2B",
"Y. c #5B3227",
"T. c #54302C",
"R. c #4D2F31",
"E. c #5F2C31",
"W. c #840102",
"Q. c #8B0102",
"!. c #80060A",
"~. c #8C0209",
"^. c #940002",
"/. c #9C0103",
"(. c #91000A",
"). c #9D0509",
"_. c #840E14",
"`. c #980F17",
"'. c #9E1618",
"]. c #A20004",
"[. c #A90306",
"{. c #A30409",
"}. c #AB0509",
"|. c #A30A0E",
" X c #A80F12",
".X c #A81317",
"XX c #A51D1E",
"oX c #B11B1D",
/* pixels */
". . . # # + @ O @ . X o > ; > > 1 , , M.0 g @ & # # @ o o o . @ . O @ O . . O + > Y w.&.Q o         X o .       o = > K K > 4 2 ",
"o o o @ # + @ O o .   . @ > ; # # p l # # # @ O o @ . O . O O . O O # v @ . . @ = I C.4.J N         O @ O       @ n 2 S S 8.8., ",
"@ @ @ # > l ; % @ . . . o @ @ o X o o & o @ O . . @ @ @ O O O O O O g t % O . O = h m.4.w N X     . @ @ @       @ S 7.s # ! r 2 ",
". O O % > : > , 3 $ o .   . .       o @ o * @ # # # # # O + O O O # 2 w t > p > h K.9 L g p o   o o @ # $ . X X * c u.2 # @ ) > ",
"    O % , , > g > % . .   .         # n = # ; = > # # # + O O O O > , 6 , > > > A.Y s h g $ o o o @ @ # # .   X * S 1.w / # N # ",
"    O > 0 >   @ 2 # O . .       X @ # O . @ O s s > > # # # + + + ; > , : # # i =.> @ p -.@ o . O O # @ @       o c g S > > # # ",
"  . % , Q + X X , 3 O .         o % O o . O O # g Z k p > ; + ; ; ; > : , > # i 0 o o # ( @ o o o @ @ O #     X @ % > J ~ s # c ",
"  W 4 t 5.+ X   3 r > @       . # 2 > M @ O + O = C r.e w : : 6 6 : : 6 B B p C -.O O # i - o @ O O O @ @   X   o @ = > , > > G.",
"% I.Q w u # X X 3 0 S > X     o # , > i I # ; > g Y } @.*.] 7 7 7 7 6 7 9 =.B q N.. O @ s * o o @ O O @ o X     o o o @ # > U Q ",
"<.F.: > 8., $ o - 0 0 > o . o @ O > 2 , B B w $.$.{ t.x.x.....p...] 6 7 { 7 6 : $.g > i l o . O . o o o o         .   @ = # ~ e ",
"| , O . F C.F J 0 0 , # o o . o o # , , , , 0 i.o.[ ....c.p.g.h.g.X.] [ ] ] 7 8 $.r.;.4.O . . . . . o . X X           o @ # t H ",
"0 + o X > G.8.Y 0 2 , + o o       O % : , 6 6 t.o...a.k.b.a.^.(.Q.g.X.s.p.[ 7 6 e $.e S O . O O .                 .   .   o c Y ",
", > @ @ g J ) c S > @ . X .     O . $ ; e 7 | [ s.a.W.h.f.g./.].(.h.X.g.(.p.[ ] 7 q : ; @ O O O .         o X             o - a ",
"O # > m m + . @ # @ .   X     . . . O ; 0 ] ..d.g.W.Q.g.p.h././.^.g.X.g.(.k.p.[ 7 6 ; + % 2 Q > * X . . o o o $ .         o o o ",
"o # > #     X o o . . . O     . . O O ; 7 ..s._.~.(.h.j.p.g.^.].^.g.X.p.h.(.W.p.[ 7 6 ; , H w -.j # = @ o @ @ # o X         X X ",
"o o $ o       X X o . . O .   . . O + ; ] X.l.`.).^.p.a.p.h.^.{.^.h.p.p.s.W.(.h.p.[ 7 ; ; s J J # O # H.J.# $ $ X               ",
"  X X             X o @ @ o .   O O + : ] a.~.)./.h.f.X.p.g.^.].^.g.X.X.X.a.W.Q.g.O.] 6 + # _ L.Q # * > C.% # # *               ",
"l . . .           o = $ @ @ O . O . + 6 +.a.(./.Q.a.s.X.p.g.^./.^.a.X.....X.k.^.Q.p.} { + # = A.8.# * ' Y # = > * X           . ",
"3 R 3 + % O       = > # @ o o   O . ; 6 [ k./.^.W.j.p.X.p.g.^.].Q.g.p.X.X.p.h.^.Q.a.o.@.: + # Z i.4.g U i X = > = o   o o # % o ",
"  - 3 # % # o   o # # # ` = o . O O ; 6 { a.Q./.^.h.p.X.p.g.^.].Q.g.X.X.X.a.W.^.W.z.x.>.6 # + Z S.q.8.B = X * s = o X o @ $ % # ",
"X @ # # # > # . o @ @ + 2 2 # # + O ; : 7 ..a.W./.Q.h.a.a.h.^./.^.g.p.p.a.h.(.W.g.O.o.t.e + + -.> k B Y > X = = @ o X * @ = 4 g ",
"# O 3 3 # # # o o O O # , 2 h g > + ; : 7 [ X.g.!.^.Q.h.g.h.^./.Q.a.a.a.W.~.Q.a.O.[ ] e 0 + 3 2 # i Z Y # X s * o   X * - > 2 4 ",
", ) T.) > + # @ o @ @ > 0 0 w c , + + ; : 7 [ X.g.W.(.^.'.W.^.].^.h.h.W.(.W.a.X.[ 7 e 6 ; ; > > # > g g j * = @ o X o = 3 , , 4 ",
"# 2 5.# > # # @ o o @ > 0 0 p > ; # + ; : 7 ] ..p.g.W.^.^.XX/./.^.W.Q.^.Q.g.p...] 7 6 ; > : > # # > > g i = o   X X @ = # > , ; ",
"3 <., o # > # @ o   o % : 3 @ O O O + ; + : 7 #...p.g.~..X|.|.]./.^.^.Q.g.p...] 7 6 > > ; > > + O # # # > #     X X @ # > , > , ",
"t 3.O o @ , # # . . o . O O O O @ . + + ; : 7 e...X.g.k.Q.{.{.]././.^.W.p.X.[ 7 7 , > > ; > + # # # @ # # .         & % > 2 > , ",
"w 3.O   # J = @ .     . . . . . . O O + + : 6 ] +.X.p.g.h.^./.].].^.W.g.p...] 7 6 : ; ; > @ @ O O O O O .           X - ; % > > ",
", Q O   = # o o     .     .   O O O + + % : 6 ] O.X.p.g.h./.]././.^.h.a.X.[ 7 7 : : ; ; U ` p # O O O .             & @ # # # # ",
"> Q @   @ X X         . . . . . . O O + + ; 6 +...X.p.g.Q.{.]./././.Q.g.p...] 7 : ; ; ; g Y =.C h , > v >           X X . . @ # ",
"# l @ o           . .   . . . O O + + + + ; 7 ] ..p.g.Q./.{././.^.^./.W.g.X.[ ] 7 : ; ; f &.>.;.e # @ N.5.%     X X X X o o X . ",
"@ o * . o       X   .   . . # 3 ; : ; ; + : 7 ] O.a.W.(./.^.^./.^.W./.^.h.a.X.] 7 6 ; ; > , r.6.&.# * C.@ ~ O   o & o &         ",
"X o @ 3 o X o     . . o $ @ m u e e S g : 6 ] ..a.k.Q.^.Q.Q.^./.Q.h.h.Q.^.g.a...] 7 : ; ; + # U M.C -.l X # # . @ @ - . .     X ",
"# % , t 3 @ X     . X @ # # 0 e C t J Q 7 7 [ X.h.Q./.Q.h.h.Q.].W.h.g.h.^./.k.p.[ [ : ; + O + O ( *.r.2 X o @ . @ * # @ @ o @ @ ",
"; w | $., % o .   X @ : O o @ + > I C *.{ ] X.g.Q.^.Q.h.g.h.Q.].W.g.a.a.h.^./.W.X.+.e ; O O O O # ;.:., o X @ o # # # # d l # = ",
"y 3.@. .B # @ . o @ 2 e -.U * # + p B &.{ ] X.W.{./.h.a.g.g.Q.].W.g.a.a.a.W.^.W.X.[ 8 ; + O O O # $.$.&.o N o o # $ # # = # O = ",
"> y &.*.$.# # @ @ 3 Q | r e Y Z ~ Y 5.;.6.[ X.k././.W.g.g.h.^.].Q.h.a.a.g.W.).Q.X.[ 8 > ; + O O L B g Y.4.k * * = @ = ~ 3.%.> I ",
". @ > $.$.> @ @ @ 3 4 , > , g g > 0 6.C &.] ..g.W./.(.W.g.h.(.].W.h.g.g.W.(.^.g...[ 9 : ; 9 > O a s s Z 5.@ * s X X X @ Q e.%.1.",
"  X . F B > # o o # # , e | *.q > > 3.; 6 7 [ p.k.^.^.Q.h.W.^.[.Q.h.g.W.^.Q.g.X...] i Y , , C e # @ # = i = $.e X X     = y.y.J ",
"o @ @ $ l > $ o o % # @ # 2 $.L B , 3.; : 6 ] ..p.W./.(.W.W./.[.^.W.W.(.Q.g.p...[ C > B ;.B B C # o # = = C ;.*.& X   X o 4.&.B ",
"y , 3 > 3 G @ O @ v X   .     O y.w y.; ; : 7 [ X.a.Q.).^.Q.^.}.^.Q.^.^.h.X.O.x.r.6.; # t.$.i i @ O @ @ * k L *.v & X X   4.0 i ",
"u <.~ + # W o O @ , > > @ . . . H B 3.+ ; : 7 7 [ X.g.~./.^./.[./.oXQ.h.p.....>.{ Z.> # r.K > # o o @ @ @ @ = , &.L # X   s s i ",
"O > ) . @ l o o 3 &.H Q J 3   o @ p s + ; ; 6 7 ] ..p.g.Q.].].].]. Xh.a...] o.:.8 L Y 2 =.$.# @ O O o o o o o @ U *.=.# # # # > ",
"O 3 1   o @ O o l S S G Q 6.# o o O # + + ; : 0 ] [ ..p.k.^.{.].].W.a...[ ] e.*.C 4.u $.;.{ # @ O . o . o o @ @ # B D > # # # > ",
"# 3 +   * O . * s # = p , &.J O . O O # # > : 6 7 ] [ ..a.k.(.(.W.a.X.[ 7 ] ;.} K 2 g N.$.2 # o . . . o & L &., @ # * o o @ @ @ ",
"4 3 o X * o o * @ @ = i h K h . O O @ # > > q , e ] ] ..O.l.h.h.a.X.[ 7 7 0 9 :.9 > # M.B i # o . .     * L &.g h s o o o o @ @ ",
", @ o o o O O o o * d N v l @ . o = s g 2 q , B > 8 { { o.b.s.O.O.[ ] 8 : ; B Y + @ s B k # O o o @ = % # Y 8.* @ s c o X @ @ * ",
"@ @ X o o @ o o o o $ a = @ o o # / n.C 9 , B > + 0 { { :.c.O.] [ } { 7 ; > > + O @ v > * @ s c @ = @ o @ # ( = @ @ ~ # @ - a ( ",
"  X X o     X o o o o o X X o & N 6.M.*.B B g + + e $.$.,.v.7 6 e $.$.{ > # # + # = # O * Y &.K V.N.p o o * , f = @ s = @ o p 1.",
"  o * l > # @ # 3 ; 3 # # o o o # &.;.6.S.D.# O + 1  .&.*.P.; ; : *.$.C > + O O O O O O Z C e C.m.<.L @ o & M c N > - = * * = 3.",
"@ l 3 3 s > O # 3 G.7.w.L > & o i ( C $.;.5.. O O , Z.y.=.; + + > ;. .e # O O O O O . @ C &.Z.*.J 7.8.O   & 3 3 # c N.# o o = 1.",
"b S 4 O $ m > # > U.+ > 7.3.F * > g c S S = o O . g t.C M.# @ # f :.} | # O O O .   o @ C *.;.3.u.S.7.+ . X = s # > ~ @ @ o @ s ",
"F r 4 O   3 8.W > 1.) . # q.3.f # @ s g , #   . . g *.B D.C _ > Z :.*.*.= O O O O O o @ Z &.&.B <.<.N.O X o @ ! 2 m c # @ o @ = ",
"t 4 , .   . W 1.| u q.+ X ( e.L @ @ # # g @ . . . v > = = -.Z.*.Z.$.H i @ o . O . . @ % p q , , p p @ o X X * G s # N # @ o o @ ",
"3 t t .   . W ( L u 2.4   N  .C @ . . @ # @ . o @ = - * o o S D.=.g # * @ @ @ . O O @ = j g S , p p o X X & d > p @ s # @ o o o ",
"4 , t       b e : + Q <.n Q 3.# @ O o o @ @ . O @ - * o o @ N l # + @ # @ # @ @ @ O @ @ s g p p # # o o o * > U 3 @ l % . o o o ",
"3 2 c .     4 S 3 O 3 E.) Q $.@ @ o O @ @ @ # O O = o o @ # # @ # O @ @ @ # @ O O . O O = # # = # > @ o o # > 8.> @ J # o o o . ",
"O 4 3 X   $ , 2 + + b + 3 y 4 # o & @ s 4.S C.7.J @ & @ o o o @ @ o @ # @ @ & o . . . . @ o @ # > # # # = @ = ( # v % o       X ",
"+ 3 O   o % 3 3 > c #   % n # @ @ * s D 3.@ . Y N.B = o . . o o . @ @ # # * o @ @ o o o @ o o @ @ @ O @ = # 3 > > s o X X o X . ",
"@ # O o @ @ @ # 3 3     @ % O @ @ # # > 4.c o & G *.c o . o o o @ * p p > 3 # p s # @ @ @ @ @ @ o o o . o # @ # @ o o o & # = % ",
"% % # . o @ @ @ @ .     @ @ @ @ * # # % Y 8.= o l *.r @ . . o o * = p g q 2 n ~ # R ~ 2 > s / o o @ o o o o . o o o @ * @ > s > ",
"2 ; 3 O o . o o @ . o X o o o o E n 4 J.' Q ) g r :.H # O o . o * h B 0 e 0 G Y     @ W u y J # o @ @ O o .     X o % g p p # @ ",
"> t t # @ o o . . o X o o o   X   R.<.4 # # : <.y  .L = o o o @ = L &.*. .w B >       O q.&.| # . o @ @ @ o o o o o g D S , # o ",
"  % L 4 $   X .   X o o @ $ X     @ G.B.v @ b > @ <.L # o @ o & * L =.;.@.*.$.U         m 8.| 0.o o = = # @ o o & @ u u 0 + #   ",
"X o Q u 3 . X X X X X $ 3 n X       + L 1 5 G @ @ ~ = o o o o o * h $.*.:.*.Y r         . r 8.I.O @ % , c # # @ @ @ u %.0 # # o "
};
