/* XPM */
static char *_6b80a293a164599a14464f27822b2abxZ2A9dpUED17Lq3a[] = {
/* columns rows colors chars-per-pixel */
"46 64 224 2 ",
"   c None",
".  c #0A0A0A",
"X  c #12090C",
"o  c #1C090C",
"O  c #110B14",
"+  c #1A0B19",
"@  c #15161A",
"#  c #0F1012",
"$  c #24090E",
"%  c #2D080C",
"&  c #3D130D",
"*  c #2A0812",
"=  c #320711",
"-  c #3A0612",
";  c #310B1D",
":  c #33180F",
">  c #1D0826",
",  c #15172A",
"<  c #220826",
"1  c #280537",
"2  c #231F36",
"3  c #24143C",
"4  c #3A0626",
"5  c #420613",
"6  c #4C0515",
"7  c #4E091A",
"8  c #4E0618",
"9  c #530513",
"0  c #54041C",
"q  c #4B1414",
"w  c #44140E",
"e  c #7A0207",
"r  c #670517",
"t  c #7C0C16",
"y  c #751814",
"u  c #6B0E12",
"i  c #4A0627",
"p  c #570527",
"a  c #55152D",
"s  c #600327",
"d  c #731E39",
"f  c #6D122F",
"g  c #5C233A",
"h  c #390347",
"j  c #3C0156",
"k  c #380865",
"l  c #281469",
"z  c #012E73",
"x  c #0D2972",
"c  c #182974",
"v  c #033579",
"b  c #172F6F",
"n  c #282A6D",
"m  c #42005F",
"M  c #531653",
"N  c #7F0548",
"B  c #7B0D50",
"V  c #5A244B",
"C  c #583453",
"Z  c #6F294C",
"A  c #712342",
"S  c #723456",
"D  c #450264",
"F  c #490C6B",
"G  c #4B1471",
"H  c #52227B",
"J  c #563273",
"K  c #6C356F",
"L  c #3B446D",
"P  c #6B425E",
"I  c #504D6B",
"U  c #6A547A",
"Y  c #71587D",
"T  c #70466C",
"R  c #5D6A71",
"E  c #830102",
"W  c #890204",
"Q  c #9C0001",
"!  c #940305",
"~  c #880D18",
"^  c #A40101",
"/  c #A80707",
"(  c #B30E0D",
")  c #BA1312",
"_  c #B31413",
"`  c #A8151B",
"'  c #B12B14",
"]  c #88063A",
"[  c #91142B",
"{  c #A21F2F",
"}  c #9B202A",
"|  c #992737",
" . c #842B3C",
".. c #A12C39",
"X. c #C31C19",
"o. c #D73511",
"O. c #E32512",
"+. c #FD351A",
"@. c #FA3A17",
"#. c #EF311E",
"$. c #CF2928",
"%. c #D22926",
"&. c #D82B25",
"*. c #CB3930",
"=. c #DE342E",
"-. c #E42F21",
";. c #E63C33",
":. c #E93A2D",
">. c #9A6719",
",. c #A06009",
"<. c #A55C16",
"1. c #D75906",
"2. c #F4490D",
"3. c #EB5B02",
"4. c #E95707",
"5. c #F2570A",
"6. c #E54916",
"7. c #F84313",
"8. c #F75210",
"9. c #E54D12",
"0. c #EC6C04",
"q. c #E86A03",
"w. c #EA7202",
"e. c #E97B02",
"r. c #E97707",
"t. c #CB5B2E",
"y. c #E74823",
"u. c #C86F3B",
"i. c #D16F35",
"p. c #E86520",
"a. c #D96D0A",
"s. c #83294E",
"d. c #853A4C",
"f. c #812B54",
"g. c #963645",
"h. c #BE3E4A",
"j. c #90376F",
"k. c #8B1565",
"l. c #C43A42",
"z. c #974052",
"x. c #AE465E",
"c. c #BE4B58",
"v. c #B14E55",
"b. c #8C4371",
"n. c #9C5B73",
"m. c #904D6B",
"M. c #BB7F69",
"N. c #AE4D68",
"B. c #CD534D",
"V. c #EA8201",
"C. c #EB8B0A",
"Z. c #EE9107",
"A. c #F29603",
"S. c #F29717",
"D. c #EB9214",
"F. c #F8B300",
"G. c #F5A91C",
"H. c #F6AD0E",
"J. c #D7832A",
"K. c #FA9522",
"L. c #F7AB22",
"P. c #F8B424",
"I. c #FCC814",
"U. c #B68D6D",
"Y. c #D6844A",
"T. c #1B3880",
"R. c #273D85",
"E. c #572E84",
"W. c #58388A",
"Q. c #5A3E91",
"!. c #713C8D",
"~. c #024985",
"^. c #074A88",
"/. c #174A8B",
"(. c #234B8F",
"). c #344E94",
"_. c #375795",
"`. c #35438C",
"'. c #386899",
"]. c #5D4487",
"[. c #4C519B",
"{. c #5D519F",
"}. c #564C8A",
"|. c #664381",
" X c #7B5686",
".X c #664B94",
"XX c #62529E",
"oX c #6E5E9B",
"OX c #744E91",
"+X c #716B90",
"@X c #5F52A0",
"#X c #6053A1",
"$X c #705DA2",
"%X c #6C67A9",
"&X c #7366AA",
"*X c #7C73A5",
"=X c #7874B2",
"-X c #6B79BA",
";X c #97318E",
":X c #952E88",
">X c #865896",
",X c #864C83",
"<X c #8A6799",
"1X c #91729E",
"2X c #847BAB",
"3X c #A76D8B",
"4X c #7D88AF",
"5X c #7BB5DC",
"6X c #9F9699",
"7X c #A39199",
"8X c #AFB490",
"9X c #9C98AD",
"0X c #8688BE",
"qX c #9288B5",
"wX c #9592B3",
"eX c #969BB6",
"rX c #928EAD",
"tX c #9AA3AA",
"yX c #858BC2",
"uX c #8C96CA",
"iX c #8C95C5",
"pX c #89B7D4",
"aX c #80CCF1",
"sX c #82C7EB",
/* pixels */
"                                                                                            ",
"                                                                                            ",
"                                                                                            ",
"                                                                                            ",
"                                                                                            ",
"                                                                                            ",
"                                                                                            ",
"                                      A #X                                                  ",
"                                      V d K @X                                              ",
"                                      V e E t .X        .X                                  ",
"                            #XS       ].8 Q X. X#Xd #X  |.f                                 ",
"                            t @X      #Xe Q ) ) ..XXoX    f A K |.                          ",
"                            t Z     #XZ Q _ +.+.+.:.h.@X     .9 p y  X                      ",
"                            A Q f...) -.-.@.2.e.F.A.5.&.b.b.} Q r e W T                     ",
"                              S ^ ^ $.m.+.+.@.3.A.F.w.+.#.%.$.$.%.^ ^ |                     ",
"                                s.Z .Xb.v.p.8.+.4.0.q.+.S Z *.+.#.%.d.C 4X                  ",
"                                  s.#XXX X4.V.V.+.4.g.^.+.;Xv 7.+.*.>.i.b '.                ",
"                                          t.4.e.5.z.L +.7.+.y b +.@.r.P.Y.v wX              ",
"                                        oXt.q.F.0.+.M +.7.+.y n @.9.r.P.P.z wX              ",
"                                      N.+.2.C.I.S.7.@.0.2.+.y ] S.K.L.P.C.3 eX              ",
"                                      c.*.9.V.I.G.V.+.0.5.+.; | L.r.L.D.: i   6X            ",
"                                      x.yXB.0.P.P.G.K.7.+.w i e.0.r.v.f p a.q.p.eX          ",
"                                      iX:.B.@.0.w.w.3.S.,.q ' ' 1.G.H.Z.Z.0.tXeX            ",
"                                      iX&.-.-.w.e.3.@.@.w./ o.. $ 8.L.P.C.q.9X              ",
"                                        B.6.3.0.6.%.X.X.7.. q >.& & 7.0.u.M.                ",
"                                        rXX.+.+.%.r 6 9 e Q $ . = } 9X9X                    ",
"                        R R OXXXiX        n.g.} ~ Q ! 6 g P % @ I R                         ",
"                    pX# +XqXrXeXF ,X          | / Q S qXwX  % + m m *X                      ",
"                  5X}.            K [.              iXP P 7 1 1 . . 4 n.                    ",
"                aXD $X0X          Q.v               >X9 . . . $ $ X e O.1X                  ",
"                %X> > &X          I v               >X6 . . X / O.e W ! < J =X              ",
"                ].. oX          yX1                 <XN = %X; 9 E % . * < k %X              ",
"                W.+X            G O uX                B s &X].6 $ . . 2 F l @X              ",
"                !.yX          yXD O yX=X              / ] %X  #X$ . . 2 F R.                ",
"                                =X1 a B ;X.X{.        ` ~ &X  ;X; . . > c (.                ",
"                                |.p i 5 s s k.;XOX  uX$./ >Xj.i . . . k ~.@X                ",
"                                7 # . . 0 p 6 f k.;X;X$.) X i . . . . , z R.                ",
"                              Y . o 1 O i i $ . . . O u %.. o 6 . . . 2 {.                  ",
"                              Y X * . 1 f . . . . . . . =.. . . . . - 2                     ",
"                              I 6 . $ o . . = = = * . . y.. . X o . 5 2                     ",
"                                7 . . X 6 9 r Q X . . . V.9.% 5 $ $ o G                     ",
"                                7 - - 9 9 _ u e W - . . ,.a.X . - 5 . Q.                    ",
"                              2X7 5 8 9 _ & . , f [ [ r % 1.X o o 5 j #X                    ",
"                              Y 8 r ! ) M . . ].       X X X! 6 r r J                       ",
"                            +X0 t ! [ Y m . X }.            &Xg.` t S                       ",
"                          +X8 Q ! 2X  #Xj . ,               @X@ U X.^ g.                    ",
"                        3X( (  .uX    #Xj . XX              #X. 2 1X` - *X                  ",
"                        uX&./ T       {.D > @X              H O W.  [ o *X                  ",
"                        uX;./ uX      W.D D E.            #Xl D Q.  h.Z                     ",
"                        uX;./ uX      @Xx m G             #Xl F     h.|                     ",
"                        uXy.n.            n F Q.            R.$X  <X%.v.                    ",
"                    wX  uX6.wX            R.k Q.            R.wXU.1X=.c.                    ",
"                    7Xu.u.4.wX        {.@X@Xx G       @X(.T.v wXw.i.;.rX                    ",
"                      7XC.e.eX        )./.z z k @X      ).~.~.).U.q.B.sX                    ",
"                        tXV.eX            /.~.x R.        [.(.wXJ.J.                        ",
"                        pXV.w.6X            [.^.v `.        ).eXA.U.                        ",
"                          8XA.C.pX            /.~.v `.        pX8X/.[.                      ",
"                            aXaXpX              {.#XXX        aX-X$X#X                      ",
"                                                                                            ",
"                                                                                            ",
"                                                                                            ",
"                                                                                            ",
"                                                                                            ",
"                                                                                            "
};
