/* XPM */
static char *_492b262ba7b400df3707702f01c641fpz0bjg9jtUfWGV5i[] = {
/* columns rows colors chars-per-pixel */
"64 64 188 2 ",
"   c None",
".  c #3B1617",
"X  c #3E1B17",
"o  c #321919",
"O  c #3B1A1B",
"+  c #371718",
"@  c #2E2319",
"#  c #2B2C1A",
"$  c #392719",
"%  c #2A301A",
"&  c #263A1B",
"*  c #2F3D1C",
"=  c #39351A",
"-  c #3A1D27",
";  c #560F0F",
":  c #5C0E0D",
">  c #431414",
",  c #4C1212",
"<  c #421C17",
"1  c #4A1916",
"2  c #441C1A",
"3  c #4A1C1C",
"4  c #511211",
"5  c #5A1D1E",
"6  c #581A1B",
"7  c #650C0B",
"8  c #6A0D0D",
"9  c #710E0F",
"0  c #6E100F",
"q  c #6D1314",
"w  c #6C171B",
"e  c #661C1E",
"r  c #681E1F",
"t  c #641213",
"y  c #741415",
"u  c #74191A",
"i  c #7C1A1A",
"p  c #771B15",
"a  c #4D2A14",
"s  c #443512",
"d  c #7E2C0F",
"f  c #74291D",
"g  c #451F20",
"h  c #6E1E22",
"j  c #611E24",
"k  c #751F21",
"l  c #4B2123",
"z  c #48252B",
"x  c #532325",
"c  c #542A23",
"v  c #5A3121",
"b  c #472538",
"n  c #572730",
"m  c #453721",
"M  c #672A29",
"N  c #7C2223",
"B  c #73232A",
"V  c #7E232B",
"C  c #7B2A28",
"Z  c #7D3721",
"A  c #7B3439",
"S  c #23441B",
"D  c #21491B",
"F  c #484425",
"G  c #512C43",
"H  c #572E5D",
"J  c #5B3851",
"K  c #732B45",
"L  c #5B3266",
"P  c #713662",
"I  c #653876",
"U  c #654444",
"Y  c #5D466F",
"T  c #624C6F",
"R  c #67467B",
"E  c #67567F",
"W  c #6B557F",
"Q  c #7C636F",
"!  c #796A77",
"~  c #831D1F",
"^  c #9B2F19",
"/  c #8D1D21",
"(  c #862024",
")  c #892123",
"_  c #8C242C",
"`  c #82292B",
"'  c #8B2A2D",
"]  c #842A24",
"[  c #952328",
"{  c #8F362D",
"}  c #903E2E",
"|  c #8D2E31",
" . c #9D2532",
".. c #8B3334",
"X. c #833538",
"o. c #883538",
"O. c #91393D",
"+. c #96353B",
"@. c #A1242C",
"#. c #A72634",
"$. c #AD2B38",
"%. c #B62835",
"&. c #A3353E",
"*. c #C72F3F",
"=. c #D52C3F",
"-. c #9A5514",
";. c #985219",
":. c #924033",
">. c #B46F23",
",. c #D26F0E",
"<. c #CE7701",
"1. c #C75D2F",
"2. c #DB5E2B",
"3. c #C85B3F",
"4. c #C7662C",
"5. c #8D3B42",
"6. c #A93945",
"7. c #B33845",
"8. c #9B414A",
"9. c #944951",
"0. c #B6414E",
"q. c #AD4752",
"w. c #BA4451",
"e. c #A74C54",
"r. c #A84D60",
"t. c #BA5366",
"y. c #8F717C",
"u. c #B16F73",
"i. c #BD777F",
"p. c #B66963",
"a. c #CE495B",
"s. c #D17057",
"d. c #CD7553",
"f. c #D65B6F",
"g. c #D55D71",
"h. c #C75566",
"j. c #E95E77",
"k. c #D37865",
"l. c #C1767F",
"z. c #D17B71",
"x. c #CF6E7B",
"c. c #EA647E",
"v. c #DE8A1F",
"b. c #DA8310",
"n. c #E48E1F",
"m. c #E0A336",
"M. c #C98F5C",
"N. c #DDB64D",
"B. c #DDA74B",
"V. c #634B80",
"C. c #685685",
"Z. c #7E6F9B",
"A. c #796895",
"S. c #835A86",
"D. c #956690",
"F. c #AF7C8F",
"G. c #9D7EA4",
"H. c #8779A3",
"J. c #D77895",
"K. c #EF6C86",
"L. c #F06A84",
"P. c #A68D9E",
"I. c #AD8DAC",
"U. c #A790AE",
"Y. c #AE96B2",
"T. c #A697B7",
"R. c #B39AB3",
"E. c #B393AC",
"W. c #CD8A87",
"Q. c #CE9384",
"!. c #CA8A93",
"~. c #C28D9C",
"^. c #D19DA6",
"/. c #C3A9BE",
"(. c #DFB9BF",
"). c #D6A8AF",
"_. c #E6C7A7",
"`. c #BFB8CD",
"'. c #CFB7C7",
"]. c #D4BBC9",
"[. c #DCC2CD",
"{. c #E7CBD1",
"}. c #EAD0D5",
"|. c #EDD6DB",
" X c #E5C6CB",
".X c #FEFEFE",
"XX c #F5F1F5",
"oX c #FAF4E4",
/* pixels */
"                                                                                                                                ",
"                                                                                                                                ",
"                                                                                  & o o o o                                     ",
"                                                                                            # o #                               ",
"                                                                                              & o o                             ",
"                                                                                                & n C                           ",
"                                                                                                  @ 5 g.                        ",
"                                                                                                  % 7 7 h.#                     ",
"                                                                                                  o > 7 i | $                   ",
"        o o o o o o o o #.#.                                                      D % % % % % @ o 4 : ; w f.+.` s               ",
"      o o                 o V V _ @                                                 & o l M 6.A 6.q , i ' y y y 8               ",
"    #                         o o #.B m                                                 o g o : 8 C ../ A 7 a   a               ",
"                                  @ o %.g O                                               O ( 4 O > _ A o &                     ",
"                                        O $._ o                                           + i i 7 > ` o                         ",
"                                        . : 2 $.c                                         O ) i 7 u : o                         ",
"                                      @ . 7 : o j B                                       ) ) t y 7 >                           ",
"                                        o , 4 o o o e j o S                             e j w y 7 4 @                           ",
"                                          o o o o . o o                               o K P ~ 7 7 o                             ",
"                                            o 7 7 ; o 6                         o o o o + ..8 7 7                               ",
"                                            , 7 7 ; o h o                             @ O ..7 8 +                               ",
"                                          , 7 7 7 7 o o k                             $ o x : 7                                 ",
"                                            o + o o o o o o                           O l O O 8                                 ",
"                                                  o o o o o                           @ O + : s                                 ",
"                                                    o o o o o           3 + ; + O +.L.L.a.X.O                                   ",
"                                                      o o o o @     7 %.%.8 , [ c.0.y 0 8 w O.M                                 ",
"                                                        o o o o   q [ =.~ y $.*.u J Y V.W T - M $                               ",
"                                                          o o o o i ( y q O.@.n Q P.`.].}.'.I.b +                               ",
"                                                          @ o o o / 7 w y ` n Y..X.X.X.X(.(.{.G.+                               ",
"                                                            @ 1 7 4 t t C q F.XX.X.X.X}.}. X!.U.I                               ",
"                                                            o < < 4 + X I O.z./.'.[..X.X].N.Q.!.A.                              ",
"                                                            , X : b L R y.i.3.^.}.{./.'..X_.N.n.>.                              ",
"                                                            7 7 : G C.Z.E.T.s.'.}.[./.M.B.oXm.4.v.F                             ",
"                                                            0 t a.G C.Y.R.'.p.k.M.!.s.<.b.m.1.^ v.v                             ",
"                                                            7 . i B S.Z.T.R./.I.E.k.;.-.<.,.d Z 2.a                             ",
"                                                          C 7 +.j.K.!.D.H.!.K.J.T.!.-.-.-.;.a ~ -.l                             ",
"                                                          N , o O ).9.5.V.Z.C.E E 5.:.-.-...: ;.]                               ",
"                                                          @ o o + 9.q.f.9.I R ! ! E ( O.{ i } f o                               ",
"                                                          @ o o o 5.o 6 x.!.K.e.R P ' ( | M O #                                 ",
"                                                          @ o o #   = 7.u.t.e.F.z H P b X 1 X.B                                 ",
"                                                          o o o     3 ] U 1 &.&.) , q./ 7 X : 4                                 ",
"                                                          @ o o @         2 7.O . | t O.0.$   +                                 ",
"                                                            o o +         < x   o N $   = 7                                     ",
"                                                            # o o               o e                                             ",
"                                                              o o %                                                             ",
"                                                                h h o                                                           ",
"                                                                @ 5 N o                                                         ",
"                                                                  * @._ D                                                       ",
"                                                                      N M                                                       ",
"                                                                      5 h                                                       ",
"                                                                      # r                                                       ",
"                                                                      % r                                                       ",
"                                                                      # r                                                       ",
"                                                                      @ =                                                       ",
"                                                                      o                                                         ",
"                                                                    o #                                                         ",
"                                                                o D o                                                           ",
"                                                                o o o                                                           ",
"                                                                o o                                                             ",
"                                                              & o                                                               ",
"                                                              o o                                                               ",
"                                                              o                                                                 ",
"                                                              o                                                                 ",
"                                                              @                                                                 ",
"                                                                                                                                "
};
