/* XPM */
static char *a7dc165c801c4e8cbd627a9ac1991586idIDCfOszRSZ8PKR[] = {
/* columns rows colors chars-per-pixel */
"64 64 194 2 ",
"   c #070707",
".  c #0A0703",
"X  c #040A03",
"o  c #0B0A05",
"O  c #0A0708",
"+  c #060B08",
"@  c #0C0B08",
"#  c #130703",
"$  c #190701",
"%  c #130B05",
"&  c #1B0B06",
"*  c #140C09",
"=  c #1B0C09",
"-  c #1E100B",
";  c #230602",
":  c #230C05",
">  c #2C0C05",
",  c #240D09",
"<  c #2B0D0A",
"1  c #350505",
"2  c #340C05",
"3  c #3B0C06",
"4  c #340D0A",
"5  c #3C0D0A",
"6  c #211007",
"7  c #251009",
"8  c #2B100C",
"9  c #34110B",
"0  c #3D100B",
"q  c #3A0F10",
"w  c #3C1011",
"e  c #410603",
"r  c #430C05",
"t  c #4C0C05",
"y  c #440D0A",
"u  c #4B0D0B",
"i  c #570600",
"p  c #530C05",
"a  c #5B0B05",
"s  c #530D0B",
"d  c #5B0C0B",
"f  c #441005",
"g  c #42110E",
"h  c #4B100E",
"j  c #53110E",
"k  c #5B110D",
"l  c #440E11",
"z  c #4C0E10",
"x  c #540E12",
"c  c #5B0D12",
"v  c #441312",
"b  c #4C1111",
"n  c #551113",
"m  c #5D1013",
"M  c #561719",
"N  c #5F1419",
"B  c #581A18",
"V  c #640705",
"C  c #6F0601",
"Z  c #640B05",
"A  c #6B0B06",
"S  c #640C0B",
"D  c #6C0C0B",
"F  c #710703",
"G  c #730B06",
"H  c #7B0A05",
"J  c #770709",
"K  c #7E070B",
"L  c #740B0B",
"P  c #7B0B0B",
"I  c #7E0D09",
"U  c #7C0B0C",
"Y  c #7B0F0F",
"T  c #7D0E0D",
"R  c #64100C",
"E  c #6D1009",
"W  c #6C100C",
"Q  c #630D12",
"!  c #640C10",
"~  c #6C0D12",
"^  c #730D12",
"/  c #7C0D12",
"(  c #760F18",
")  c #7C0E19",
"_  c #641113",
"`  c #6D1112",
"'  c #6D161C",
"]  c #651A1B",
"[  c #731114",
"{  c #791311",
"}  c #7A1113",
"|  c #761816",
" . c #74161C",
".. c #7D141A",
"X. c #72191D",
"o. c #7C1622",
"O. c #751B24",
"+. c #732223",
"@. c #840A06",
"#. c #8C0906",
"$. c #8C0B06",
"%. c #8B0709",
"&. c #820A0A",
"*. c #87090A",
"=. c #840B0B",
"-. c #860A0A",
";. c #870C0A",
":. c #810C0F",
">. c #860F0D",
",. c #8B0B08",
"<. c #880A0B",
"1. c #8D0B0B",
"2. c #8D0B0C",
"3. c #890D0D",
"4. c #910A05",
"5. c #960A06",
"6. c #92070A",
"7. c #990709",
"8. c #920B0B",
"9. c #960A0D",
"0. c #9B0B0B",
"q. c #9C0A0A",
"w. c #9E110C",
"e. c #830C12",
"r. c #8B0D10",
"t. c #890E10",
"y. c #8B0D12",
"u. c #930D12",
"i. c #970C10",
"p. c #950E12",
"a. c #9C0B10",
"s. c #990F19",
"d. c #831213",
"f. c #8B1012",
"g. c #8C1416",
"h. c #82171E",
"j. c #8B141B",
"k. c #86191F",
"l. c #831D1F",
"z. c #8B191B",
"x. c #8B1A1B",
"c. c #8E1C1E",
"v. c #911013",
"b. c #901115",
"n. c #931114",
"m. c #9C1517",
"M. c #941318",
"N. c #93141B",
"B. c #951619",
"V. c #94191E",
"C. c #9A1C1E",
"Z. c #A41112",
"A. c #AA1115",
"S. c #A21D1E",
"D. c #8E211F",
"F. c #8F1521",
"G. c #831B24",
"H. c #8A1E22",
"J. c #8D1A24",
"K. c #991522",
"L. c #971A21",
"P. c #951822",
"I. c #9A1B23",
"U. c #941E2C",
"Y. c #9D1E2A",
"T. c #A31C22",
"R. c #A31F25",
"E. c #832323",
"W. c #8C2023",
"Q. c #872529",
"!. c #8A262B",
"~. c #932124",
"^. c #96242C",
"/. c #9C232B",
"(. c #932D2F",
"). c #9D2A2C",
"_. c #A22326",
"`. c #A42324",
"'. c #A62126",
"]. c #A92126",
"[. c #A42529",
"{. c #A1252E",
"}. c #AA242B",
"|. c #AB2B2C",
" X c #A82B30",
".X c #AF3132",
"XX c #A8363B",
"oX c #B43233",
"OX c #B93331",
"+X c #BD353A",
"@X c #B33838",
"#X c #BE393B",
"$X c #C13534",
"%X c #AF3F43",
/* pixels */
"X . 2.M.`.x.p.Z W t S Z a p d t 3 : & X o 4 s S ,.>.S t > : * = o = = & u t G H p p Z H ;.a V.&.t.2 X X X X < y & o o o $ & % % ",
"X o $.B.`.} v.I D 2 x {.3.I P.Z > & # o X , u D D U S > = > , % X = = * u r I A u U 4.5.'.-.a a k > o X X X # 5 < = $ 5 n c j 7 ",
"X o $.b.g.L Z ,.G % < 5 u Z R G.p ; # . o = y Z D p d < * < < = . = % % 2 3 H u p 2.8.0.p.Z.t d 3 & o X X X o o : 5 -.L S Q k d ",
"X o &.L D `.3 Y -.o o o % < h d p t , o X , 5 s a y h 4 = = 8 7 O , * , < > S u t L t I 9.a.a x t & % X X X X X 9 d -.&.Z D d S ",
"X X ;.Z R 3.: R 9.o X X X X o : r r 5 * X = 4 y 4 4 5 y < + , 4 O & % = & 4 h t D H.e U.D &.I 0 d , # X X X X X & D -.@.H P A S ",
"X X -.a P.3 % t $X% o X X X X & > > 2 & X % , 9 & = < 5 5 o o 5 @ = * * % & u y S y % O.t t k 2 u u = X X X X X u W &.;.I G P Z ",
"X X G Z } @ o 3 $Xd : # X o o S [ r , & X X & % o o * < u O O , X o o % o & < 4 t o o # 5 u 3 > 5 s & X X o X o y -.&.P G G G a ",
"o . Z W.u . # s OXD S G r 2 h `.L g.y 4 X X % % o X o = 5 , X o + X @ * o & & 4 : o X o # < 0 < < > : o X O X * a &.@.f H Z L p ",
"X % s a % X # a |.L D K 5.L z.z.` W W 5 % X X : X X X * , 4 X X O X @ * o = = > # o X o o < 9 < , : % o X o = > -.-.Z p >.a A Z ",
"X 9 u y o X & U H 5 c L 4.3.j.I._.V.k 5 % X X 7 O X o < 5 y 2 N % X o * o * & > # o o o % 2 r : , = * o X o & t 3.U t L > a a p ",
"X 4 r : X X k I H $ z t 4.,.g.T._.[.s 2 % X X = = = 9 3 y s u / D X X * X # & 2 & & @ o % k D , * $ % X X % 7 p L a G > & p s : ",
"X , 3 o o g f.L -.< = Q 3 p S u u < > 9 % X X @ 5 3 y y r p J ) g.y X O . o & < 3 9 5 > n p.I.: o = % X X & 2 D d L * o & Z t % ",
"X & & X % k 8.G ,., % x t r D s r 3 , : X X X o 3 y y r y Z V.J.F.j.r O X o : < a p g 5 L 9./.& o & # X % * 2 s 5 o X o 3 G a % ",
"X X # o h h.q.S ;.: : _ a L t s u 5 = %   X X X 4 5 r y s ,.N.J.Y.F.L $ X o & 4 L ;.U Z <.<.P.& X = % X < = 0 f o o * = k G G & ",
"X X o g &.C.S.3 &.3 y b.>.-.H r f 2 % o X X X % 4 3 y t u t.V.` K.I.t.Z X O = < Z G 4.,.<.A L $ X o * o > : 0 : o < R u D G G G ",
"X X o I S.`.c.d 4.t I OXOX.X|.$.> 5 o o X X   , 4 y u d n ^ d.d L L d.F O X o = t a 5.;.I p G % X X o % 6 : 4 r H A 8.s S Z G G ",
"X X & 3.`.].a A 5.d.`.oXOXoX).0./ . = * X X X & 3 r a [ _ ' e.p C +Xd S d X o % > r H 4.H 4 s @ X X X , : : A Z 7.@.S 3 s 5 Z G ",
"X X & n.} H p H 5.Z ~ p Z p g U -.: # o X X = & 4 d ^ p.Q ~ p.2 4 z ' Q P % o * & & 0 2 3 , 6 X X X O : : : #.-.$.G d s > & a S ",
"X X % :.5 t p H $.> t 3 4 = X u D a o X X X , = 4 @.S p.d H >.y # = l y r o o % % % % & > y u > o X o % : > K -.@.A t G , & a t ",
"X X X : > r y I $.= < : O X X % S p.. X o X , < 2 G 8.u y L L G.o . # : 3 o % # o : s a s ` d.B.n o X o 2 3 t H G t Z Z y t a r ",
"X X X o , & 3 S Z X X X X X X X D i.% X o X , 4 t Z A o % d ^ |.# o X # a # % % & d G S p p d :.x.2 o X 4 3 r H r 3 -.4.} A D 2 ",
"; o o o X o > r f X X X X X X X S r.8 X o X = 3 A U = O = d [ } s 9 = , : . * % s D A r & : 3 c T.r % X & & < 4 t A 5.5.-.G G t ",
"G L r $ o o $ : f X X X X X X X d >.4 X o X : p a 5 o X 5 Q / p d (.} y u . = 4 Z t L u o o = 4 t / 4 o X * O , 2 :.R h 2 t G A ",
"L D p > % X # > 0 X X X X X X X a e.5 X X o > S S * o O c ~ U 2 y d s.j.N.r % d < y U A o + o * , r 5 & o o * < 2 > % % % 4 r G ",
"A L A r & # o , 3 X X X X X X & S e.4 X X X 3 d G O O w Q G.@.% $ A s ].g.h.: Z , u S C.y > > y y z s , o o = y p o @ o @ 7 p W ",
"S L p u < : o % : X X X o = 6 D.a 3.3 o X X 4 t Z O % n ~ I.-.& % U d t d ~ : d # y a Q.G L /./.J.E.y 5 % o X r A o o o @ & & t ",
"A A | p 4 & o X > % X X 5 r (.a 0.2.5 @ X X 4 y s o 8 D U d.%.t L ,.j.u s c : 5 o y s > / G G Y.e.).t 2 4 # X r D o o O % % % 0 ",
"U L a +.2 & = X 4 < X X y G @Xt 0.$.z % X o > y y 8 3 L e.S %.,.8.8.-.G.y 3 > < . e s 3 {.A S Z D U !.5 : = X 5 L # o * o % % > ",
"H D ] 5 : > , % % y > g I b.L n.A.8.x $ X O < 5 2 Z 5 e.b.t 6.,.<.,.G V.t < , , o ! S u k.I.d p S p a y 4 , O 4 K > : 3 : * & > ",
";., % 8 : 2 o % X 4 >.&.U i 2.w.Z.e.y = @ X < 4 3 4.y t._ y 9.H u c 2 L !.< O , < d D S L }.d.a u d 1 x 3 % % 4 $.,.p H L < & < ",
">.= X % 9 2 % % X < ,.;.a 2.8.$.;.^ 4 , o X = < y <.s L 2 k ;.D q   X x u < . = u s x s H [.^.&.u t x > y # = 2 #.4.$.;.I s 7 2 ",
",.$ o X , 4 = * o X u &.S 0.8.;.&.d = , % X X 7 4 L D s 4 ~ U s O X O : 3 o o 4 p p l * ~ a 3 H.d y s , 4 % : 2 4.#.4.4.H W j L ",
"Y L z > & : , o o X < P A t.8.-.S , * < o X X = , y : 4 y D p 2 $ X X o y . O 5 r d # X , 8 % ~ ~.u > : o o o 4 4.4.8.$.L G U L ",
"2 K ....y z : - o X X -.,.Z K a 5 < o : # X X X , > : : u Z p . X X X X S # * & 5 d X X X   X 5 W y y , o o o 4 e.I } U ~ L U L ",
"$ V.e./.^.G.h & = X X L Y y s 5 > < O = * X X   , < < , 4 d r X X X X X L = # * & A X X X X X & p u 3 < X X o = 4 3 y 3 y _ L Z ",
"t C.a 3 d ' Q.: = X X 1 y > 5 4 < , O & o X o X = < < < , u Z X X o X   L 3 o % = S X X X   # = u c : 4 X X X O & 9 4 < < , S s ",
"Z U V.> 3 o g > 8 @ X @ : = 4 , 4 & X # = & & = = & , , : 9 a O o * . = t a o o % 4 ; X O = < y a s : ,     X X @ @ < , , , t 9 ",
"p r f.a 4 o 7 < , o o + * * < * % X * 8 4 < , : < & % # < # h & o * * < t U = o o < y * * y < s Q s & = X X X o % * = = , 8 & o ",
"y 2 3 W 2 % = = - + o X * X , X X 8 = 0 4 < , < < : % o * & t u % % = , t &.z X X * d P 3 :.U <.e.t ; =   X X 2 _ d 5 6 o @ X X ",
"o % & % R & * % * X # X o O @ * , o , 4 4 < : 4 4 > = = o = 1 a 2 2 : > u C A # X X 3 8.a #.-.-.e.t ; *   X y S ^ O. .u % @ X X ",
"X X o o n 6 o o % X * X X X X , X = 4 4 5 w < , : : < & = o > t $.H y t > -.H > X X , :.Z ,.%.=.^ u > * X z ~ ..G. .o.' 4 @ X + ",
"X o o @ % 2 X o % X o X X X , o * < r y y 5 l 2 < : 8 y , X = s A -.a L D #.@.e % X # k Y &.2.,.Q s > . 5 ( ^ ..G.o.o.O.x = X X ",
"X X X @ o p * X % X X X X X , o y D D y s 5 ^ c y y < Q : % # s p ,.8.U G #.H t & X + 4 L / #.,.e y , O Q ) L G.G.G.(  .u < * X ",
"X X o 6 + R - o O X X X X @ = @ -.9.<.~ y p u.t.e.t / 8.d , o u p &.%.L G V r 3 & X X = 0 r f y , , = c ~ ^ D ~ h.G.^ S s 5 = X ",
"o X = 9 7 S 8 X X X X X X = o * %.F S 4 4 Z 8.8.P t.'.#X/ 5 X 5 s Z A r a y > 2 & o X % = y 4 3 , = > J ^ D a d | D [ d r < < % ",
"9 < b u j R 0 o X X X X X , O & &.u.4 O 4 C ,.p.d u { #X2.x X 4 r p < > t : 2 > 2 % X X % 5 8 > = . ~ / A D s i p ` D | s 2 > % ",
": S s 5 W Z y o X X X X X : O & d 5 o X 3 D %.R.: # l ` 8.y X & : y : 5 y : 3 = 4 & X X o 9 < : = O ) ~ s D ~ 4 d u d u u u 7 & ",
"% S s L D A f < X X X X X , o , l o X X y S 8.y.* @ < x 2.< o # : 1 # 5 4 : 2 : 4 & X X o 8 < : = 4 ) S u V Z 3 < 5 s r t r 8 < ",
"o b u A D Z t 5 o o X X o , * 5 * O # : a L 2..X, X o 4 c > .   & 6 & 2 = 6 < 8 < & X X X = 8 - = _ d 5 d S u : = , u s p u 2 < ",
"@ o d W S a u 3 o o o X % % < 4 o , x 2.i G 2.XXc 1 % . 5 5 . X % o % < & 7 > 2 7 & X X X % < % % u < & D D 5 . X O 8 0 a d y & ",
"X X w j h 9 s 5 8 o = X * # S 2 4 Q K.%.p H D 3 a m.p < & > O X % o % < o 8 2 < 6 % X X X X % = o y & % D L 2 X o o o = r D s * ",
"X X % 0 3 > > 5 < X = o X O A 2 / T.8.-.S %.1 * S >.OX%Xt > X X o X : & X < 2 2 = X X X X X X & % r o 4 L ^ 5 o X o X X < a W % ",
"X X X 9 4 4 o * 6 o @ o X 4 5 Z i.q.,.a H $.% % K y ~.x.d.4 X X o o = % o 7 2 > % X X X X X X 6 < < X j D L s O o O o o - r D 4 ",
"+ + % 0 b v y o o * o % o v p ,.2.5.c a ,.%.5 y G 3 r t t.y X X X % = o % > 0 6 o X X X X X X * y o & d s X.t t u 4 w 0 : 9 s d ",
"h j h S ~ S Q 5 % + o % o : L %.A Z 3 A $.$.Q a S Q 2 3 p 4 X X X * * X - 2 9 & o X X X X X @ o y % z s x t s t d X.O.X.M 5 2 d ",
"R R W A ~ Q Q Q b % X X o > S F 5 t y @.-.d d R k Z < < 3 y X X X o o o > 3 0 & o X X X X X o 6 2 4 y y Q 3 S s 5 2 B g y 2 0 > ",
"L H G H L D d Q u s # o X 8 2 t > r r ,.t 3 > 4 y ~ _ & = 2 X X X o o X > > y p : O X X X X o 5 5 z 4 j _ u S S u n _ 4 - 7 = : ",
"A H H H G H a d S r z o X : 7 3 : 3 p D & & 2 f y d I % # o X X o % X X 2 ~ S L S y X X X X   z u u < d L S s S [ c 3 2 : % o & ",
"Z H H @.G H Z d d d s = X : t 6 > t A : X X % f * & ~ 9 o X X X o % % : u Q G ^ G ~ 4 X X X X d x 5 : S D y > 0 u d R 0 < o o & ",
"A F H @.H H G t d d 5 u X % f : > r R X X X o 6 X X d 5 X X X X * o 5 d Q S G A G i s o X o X x y 5 & S S < 8 o , u S r 4 o o % ",
"a H H G H H H t t a d v o X f : $ 3 2 X X X o % X X r y X X X X o n Q Q S V G G L H r 4 o o o 8 & 5 = S t : , X o * u S 4 % X * ",
"p @.G G A L G A 3 u d 2 > o 3 2 % r : X X X X o X X u y X X X o w Q Q Q D Z G H G I S 3 & @ X o o > 7 ~ 3 o o X X X < c u % o % ",
"G H G G a p Z A s 3 f u 3 o 6 3 % r 4 X X X X X X X r l X X . o ~ Q S d A Z A a G A A p : o o o X @ 2 Q 6 X X X X X X s S : o o ",
"A @.@.F p Z D p s u 3 f 2 o % f % r k X X X X o X o p 5 X o o : S Q ~ S G A H p G A A Z 2 & X o * X > Q = X X X X X o 5 S , o X "
};
