/* XPM */
static char *result[] = {
/* columns rows colors chars-per-pixel */
"64 64 79 1 ",
"  c black",
". c #562547",
"X c #60294B",
"o c #4C514D",
"O c #695E66",
"+ c #626461",
"@ c #823F69",
"# c #8B3E68",
"$ c #9C3F77",
"% c #9D3F78",
"& c #84466C",
"* c #8B436E",
"= c #82526F",
"- c #8D4572",
"; c #8B4C72",
": c #934574",
"> c #9A4376",
", c #934A75",
"< c #974579",
"1 c #9C437B",
"2 c #96487A",
"3 c #9C497C",
"4 c #875372",
"5 c #8B5274",
"6 c #8D5A79",
"7 c #905473",
"8 c #945279",
"9 c #925B7D",
"0 c #A1467D",
"q c #A1497E",
"w c #9B4681",
"e c #9D4B80",
"r c #9A5E82",
"t c #A14680",
"y c #A24B81",
"u c #9A6C85",
"i c #9D6F8A",
"p c #9E748D",
"a c #A3738F",
"s c #A17190",
"d c #A47D95",
"f c #878B8A",
"g c #979694",
"h c #999B9A",
"j c #AA829B",
"k c #AE8AA3",
"l c #B38BA2",
"z c #B493A7",
"x c #B897A9",
"c c #B99BAD",
"v c #BA9AB0",
"b c #AFA6A9",
"n c #ADAFAD",
"m c #BCA1AE",
"M c #AFB1AE",
"N c #B0B2AF",
"B c #BFA5B5",
"V c #B2AFB2",
"C c #BEAFB7",
"Z c #BEAFBA",
"A c #AFB3B1",
"S c #AEB9B4",
"D c #AFB8B8",
"F c #B2B5B3",
"G c #B9B2B5",
"H c #B4B8B5",
"J c #B4B5B8",
"K c #BBB4BA",
"L c #B5B9B8",
"P c #BABDBA",
"I c #C0A0B4",
"U c #C4ACBB",
"Y c #C8AEBE",
"T c #C3B3BD",
"R c #C4BABE",
"E c #BEC0BD",
"W c #C5B4C0",
"Q c #C6BAC3",
"! c #CCB9C4",
/* pixels */
"nMnnMMSNMMMMNFNNNFNFFHGFG!j645a!KFFHLLLLHHPHHHHHNHHNHNGHNHHNHNNN",
"MNMMMNMMMNMMNNFNFNFFFH!81qeq01q<y3lLHLLGGHHHHHHHRNNRGNHNHNGNNHHN",
"nnnMMMMMMMNMNNNFNFGFU333e130t03eq3q3aHLLLLLLTNHGNHHHHHHHNHNNNNNN",
"MMMMNNMMMNNNNNNFFNM6>303,YGFFFFKj230q3RHGHLLHHHHRHHHNHHNHNNHNNRN",
"MMMNMMMMMMVMFNFFGA;330uFJFFJFFLJFFWo   o oGHGHHHNNRNNNHGNHNHENNN",
"nMMMNNFNMMMMNFFFF,<0:GFFSJFJSJFFLFoomqq ! ooLHHHNEHHHHHNGNHHNNEN",
"MMMNMMNMMMnFVNNF411*NFFASFJJFFFJFooFLQ3qy!  HGGHHENHHHHHHHHNHNNN",
"nMNNNNMMMFnFFFNU13,FFFASFFSFFFLSo FFJFW3q8GP PLFHNHNHHNHHNNHNNHN",
"MMMFFMFMNMnMVVS<13GGAAFFFAAJLFFooLFLLFJ!y1rH  NHNHHGFHHGHHNHNFFN",
"NNNNMNMMNAFnFnz<<   oHFAFJSJSLLoLFLFFSLF5wqKL  NHHHHGHHFNHHHHFFF",
"MMNMMMMMFMNFFAo  FAFNSooNHSJJFFoAJFLFLFSF009L+ HRNHHHHFHGHHGGFFN",
"MMNMNMMMnnMFMo.<iAAAFAFAoHSLFFF FJSLFLFJJa0qGP LHHGHHHFHHNHNHFFF",
"MNMMNMMNMMVFoo<<VVAAAJAAHoFFJFF FLFFFFSJFGqqYE HHHNRGFFHFHHGFFFF",
"NMMMMMMNNMMAo;<>FFAFFSFFSAE     FSFJSLLFFF205E PHHNNHHGHHHNFFFFN",
"nNNMMMNMFnM  :<:MMASAAJAJA LSJL SJFFFJJFHF7q2g FHHENHHGHHGHFGFFF",
"nnMFNMFNnFF  3>&MAAAFSAAAJ SLFFF JJSLSAFFFc13 HLHHNEHHFHHFHHHFFF",
"FMMNMMMMMMV F1>5FMMAAFADAJAJJJAA FFFFFJLFFU08 LHRNENSSSHHFHHHNNH",
"nNNNFMMMMnn F>>&VAFAFAAFAFA FAJJ LLFSFJFFFT0XLHHNEENSnNSFHFHHGHN",
"NMMMMMMNnFM F:0,AFFFAAAFJSF FLSSH  AFFHHFHZ  JLHENNEnEEnFHHFHNFG",
"NNMNNFMNFAFFhj>>FMnAFAJAAAnAFFFLFFJL f   o80,LLLNENNESnEHHFHHHNN",
"NMMMNMMNnMVV O<>vMAAAAFAAA SAJFSLDFFAAFFFF00rSLFENEnEnEnLFHGHGNN",
"MMMMNMSMMFFFF  >-AAAADAFF MAJAJJFFSLJFFLLL00QLLJNEnEnEnEHFHFHHFH",
"MMNMMMMMMNnFFA &>WAAAAAA AFAAAAJAJFLFJFFH901FLLLEMEMEMEnHHFFHFHF",
"MMMMMMMMnFAAAVF  4nAMD  AFSAAJJAJAJSFFFFV00uLLFLNEMEEnMEHHGHHFGH",
"NMMMMMMMEMnNFAFz1 d   FAASFAFFDFAFFFFFJA-<0FFLLFLLHHLLHHHGFFLHFF",
"SMMMMMMMnnMMNNFF*>$WAAAAAAFASAAFFSSFASAvw1kJFLLLFFLLGFLGFFHFFGFF",
"MMMMNnMMMMNMNNSNF31$YAAAAAAAJAAFAFAFFAW%q;FLLJFFLLLFHHHLGFFHHHFF",
"MMMMMMMMMMMMNFNSAC1<<lnAAAAAAFAAASFFFkwt3FDFJHLLFLHLGLHHHHLGFGFF",
"MMMMMMMMMMNNMNNNFJW<$<#VAAAFFAADSAFK&t1<KFJLFFLLLFLLFLFLHFGFHHJF",
"MMMMMMMMMNNMMNNNFFFA-1w<*UFFAAAFVZ;w1>-FJDFFLJJSLLLFLLLGLHHHFGFF",
"NMMNMMMNNMMMNNNNMAFFDk<>>>1<2-,21w11<lFJFLFLFLLLLFLFLFGFFGHFFHHF",
"MNNNMMMNNEMNNNNNFVFFAAJk311111w1111jFAJDLFLSLFLFLLLLFHLLHLHGFFFF",
"NMNNMFMMNNNMNNNMFAMFFFJAAVB5@@;;11wVJAFSLDFLSLFLLLLSHHHHFFJHFFFF",
"NMFMnMMMMNNVNNNNFFFFFFAAAJAFAFSQ%1>YJJSFFSLFFJLFFLLFLHHHLFHHFFJF",
"MMMMMMNGNMNNNNNNnFFFAAAAADAFFJFL%w1;JSFLFLFHFHHLFSFLHFHHFFJFFLFF",
"NFFMMMNVNVMNNNNNFFFAAJJSAAFAASFM-1%<SJSJFSLFLFHSLLFJFHHSLFJFJFFF",
"MNNMNNMFNNNNNMNNVAFFAAAFFAAAFFFFpw1%FSJAFFFMNHNNFFSSHHENSJSJFFFF",
"MNNNNVNMMNNVNNNNMFAVFFFAAJAJAJSFZ%%wvJFFFKj:0&EEHHHHFSNHFFJSFFFF",
"FNNFMMbMNNNNNMMMnFFAAJFASFAFFSJFF#1%>y11010>>0ENHHHHHHSNJFFLFMFG",
"NMMMFMFNMNNNNMNMMnFFAAAFAFAAAJKk#0%1%>11>0>0;xMSFHSHHNHHFFFFFFFF",
"NMMMNFMNNNnNNNMMFVVFFVFFANFQ&31%w%1%11%%>uTJSEnSENMEENHHFFFFSJFN",
"NNNFMMFNNnFNNNMNnNMFFFAFb*11>>11$%%1%>IJFFFFnESSMSSMNHNFLFFAFJFF",
"AMNMMMMMMNNNMMMNnFMFFFAAK$>>$11%$$-11$FSSNHHnSESEMNESNHSSAJJFFNF",
"MMMNNNFNFNNMnMMVMNMNAFAFN>>0>>&TSFIw11KFHHHHESnnMESSMEFFSJAAFNFN",
"MNMMNMMMNNNFNMNNMnNMFMFFN&*lGHFHFJF111sJHSHNEMnEEEMEFHNFFFFFFFFN",
"MMMMFNMMFMMMMNNMFMNNMFVFNFNNFGFFSJH>01:ASHHHMEEMnMnnFFFFFFFFFFFN",
"MMMNMMMMMMnMMNNNMMMNNVFFHNFNFHHFFJF;%%1GHHNHEnEnESEnFFFFAFFFFFFN",
"MMMMMMMMMMNGMNNMnVNNNNFFNNSHNHHNFFSU%10WHHSHMEMEnnEnFFFFDFFFFFFF",
"FMMNMMMMMMMMMMMMNNNNMNFFFFFNNHNHFFFG>0>4MSNSFFSHSnnESNHHNNNNNMMM",
"MMMMMMMMMnMMMMMNMMNNNFNFNNFFHHHHHHFF:>0>NENEFSSHSEnnNNNNNSSNEMnE",
"MMMMMMMMMMMMNNNNMNNnNGMNNFNNFHFFHHHF6>>0ESHNHHFFnnSnNSNMNEMNMEMM",
"MMFMMMMMMMMMNNNMNFMFNNNFNNNFFNFFHNHFY3=GNMHNNNNMEnEnMMNSNNMNnMMM",
"MNMMMNMMnMMMNMMMNNMMFMMnFNFFNNNFNNNNMMMENNEMMFNNnnMnnSnMMMnEMEnn",
"MNNNMMMMMMMMMMMMAMFMnFFFFNNGFFFFHNNHENNNNNMNNMMMnnnSnnSMMnnMMMMM",
"MNNNMNMMMMNMNNMNbMNnnMnMMMMMNNNNMMNNMMMMMMMMMMMMnnSnnnMMEnMMnnnM",
"nnMNMMMMMMNNNNNNFMFNMNMFFnMMNNNNMNMNMMMMMMMMMNMMnnnnMMMMnnMMnnEM",
"nNMNNMnMMMMMMNMMMoooMooooNoooononoMMMMooooMoooMooooMoMNSnMMMMMMM",
"nnnnNnnMMMMNMMNMonNFMoMMNnoMMNNoMoMMMMoMMMMMoMMoMMoNoNNMnMMMMMEM",
"nnnnMnnMMMNNMMMMoFooMoooNNoooNNooNnnMMoMooNnonFoooMMoMMMMMMMMMMM",
"nnnMnMnnMMNMMMMMoMNoNoFnNNoNnMNoMoNNMMoMNoNNoMnonoMMoMnMnMMMMMMn",
"nnnnnnnnnnnnMMMnMooNMooooNooooNonnonMnMoonNooononMonoooonMMnMMnn",
"nnnnnnnMnMnnMMnMMNFnMMMMnNnnnnnnnnNNMnMMnnMNMMnnMMnMnnnnnMnMMnnn",
"nnnnnnnnnnnnnnnMnMnMMMNMMnMnnnnNNnMNMMMnnnnnnnMMnnnnnnMnnMnnnnnn",
"nnnnnnnMnnnnnnnnMVnAnMVnAMVMnNnnNnMMMMMMNnMMnMMMMMMMMMMMMMnnnnnn"
};
