/* XPM */
static char *e2a35cbcf21b4a3091dde6b5743f04a3hd4bmV0Qkb8VaRbq[] = {
/* columns rows colors chars-per-pixel */
"64 64 162 2 ",
"   c None",
".  c #030304",
"X  c #0A0607",
"o  c #060807",
"O  c #080907",
"+  c #050609",
"@  c #06090B",
"#  c #0A0B0C",
"$  c #110E0D",
"%  c #0E100F",
"&  c #10100F",
"*  c #050616",
"=  c #050B12",
"-  c #0B0E12",
";  c #020E1B",
":  c #0B0F19",
">  c #100F14",
",  c #061415",
"<  c #0E1114",
"1  c #05131A",
"2  c #0D131A",
"3  c #05181E",
"4  c #0A1A1D",
"5  c #121315",
"6  c #191715",
"7  c #181817",
"8  c #13151A",
"9  c #191618",
"0  c #15191D",
"q  c #1A1B1D",
"w  c #100F2A",
"e  c #061223",
"r  c #0E1622",
"t  c #0F1B25",
"y  c #08162B",
"u  c #021F2C",
"i  c #121621",
"p  c #151B23",
"a  c #1A1D23",
"s  c #131C2A",
"d  c #191E2B",
"f  c #0B1236",
"g  c #171F31",
"h  c #191B32",
"j  c #211F27",
"k  c #221F2D",
"l  c #142126",
"z  c #1B2126",
"x  c #16212C",
"c  c #1C232B",
"v  c #132133",
"b  c #1C2634",
"n  c #1E2935",
"m  c #16253A",
"M  c #1D263A",
"N  c #1D2A3A",
"B  c #222326",
"V  c #22252C",
"C  c #24282D",
"Z  c #292B2D",
"A  c #222632",
"S  c #2A2530",
"D  c #242A33",
"F  c #2A2D35",
"G  c #23263C",
"H  c #242C3A",
"J  c #2A2D3B",
"K  c #2A3037",
"L  c #26313B",
"P  c #2B323C",
"I  c #2F383D",
"U  c #313336",
"Y  c #34353C",
"T  c #35383E",
"R  c #523833",
"E  c #1F2E44",
"W  c #1F2848",
"Q  c #1A3B4F",
"!  c #222546",
"~  c #232E43",
"^  c #2B2C42",
"/  c #233343",
"(  c #2B3443",
")  c #2E3943",
"_  c #23334B",
"`  c #2B344B",
"'  c #2B3A4B",
"]  c #313641",
"[  c #3D3644",
"{  c #343B43",
"}  c #3A3D44",
"|  c #333448",
" . c #333D4B",
".. c #3A3F4C",
"X. c #2E3451",
"o. c #2E3D53",
"O. c #313051",
"+. c #343B54",
"@. c #383E5B",
"#. c #3D4146",
"$. c #36414E",
"%. c #3B424B",
"&. c #22415E",
"*. c #2B4259",
"=. c #334353",
"-. c #3B4453",
";. c #3C4954",
":. c #30445E",
">. c #3B4659",
",. c #3A495B",
"<. c #2E4365",
"1. c #334B62",
"2. c #344A6C",
"3. c #3B4B6A",
"4. c #42464C",
"5. c #42484A",
"6. c #414650",
"7. c #444B54",
"8. c #45485D",
"9. c #475053",
"0. c #4B5056",
"q. c #4D525A",
"w. c #50515F",
"e. c #6D5651",
"r. c #444762",
"t. c #424C65",
"y. c #445163",
"u. c #4D5865",
"i. c #445471",
"p. c #4A5270",
"a. c #4C5A71",
"s. c #425878",
"d. c #4E5C7B",
"f. c #586269",
"g. c #5C636C",
"h. c #5B656A",
"j. c #56627F",
"k. c #5F6B7A",
"l. c #616D74",
"z. c #626C78",
"x. c #4E5A80",
"c. c #4E6084",
"v. c #4A6280",
"b. c #516583",
"n. c #5C6C80",
"m. c #556990",
"M. c #596B95",
"N. c #5C7193",
"B. c #5D729A",
"V. c #727E8E",
"C. c #66759B",
"Z. c #647B9C",
"A. c #5873AA",
"S. c #637EA9",
"D. c #6F7CB7",
"F. c #65829A",
"G. c #7F92C2",
"H. c #B3B9B5",
"J. c #95B2D5",
"K. c #CCDAE2",
"L. c #D6DCE2",
"P. c #E3E8ED",
/* pixels */
"                                                                a s P                                                           ",
"                                                              2 N S.i.z                                                         ",
"                                                            F 2 m 3._ :                                                         ",
"                                                            p 2 G x x @                                                         ",
"                                                            5 5 # # H..                                                         ",
"                                                              . + . . .                                                         ",
"                                                              + . R e..                                                         ",
"                                                                # x # =                                                         ",
"                                                              @ . v :.v.$.                                                      ",
"                                                        # p s x : M M.A./ s p c C                                               ",
"                                                      l.- - = 8 # h b = d i  .k.d.z                                             ",
"                                                    2 . 2 b s b 5 p  .C.i.B.2 x p p 0                                           ",
"                                                  < . H p a 2 E i.< s d.x.a.< - ( $.9.                                          ",
"                                                  . 2 2 @ i ( X.Q s J.D.' . e ` 2 D V z                                         ",
"                                                k.. . s = C  .m v d H . y = + M.2 L.0 $.                                        ",
"                                                z . @ <.< u H o.X.= + <.= b . d.M K a.q.                                        ",
"                                              8 # + : t.Z ~ g s.. 8.s r.i.+ . n G.. % + {                                       ",
"                                              8 . . f ( q 8 _ r A a.j.. ` r a + c.+ ( P f.                                      ",
"                                              p . + 2 5 . # d ^ = . >.# ` n ^ . c : A { z                                       ",
"                                            p < + . + = . - + . 1 x p H . n # + i = @ z.# 9                                     ",
"                                            g.@ + . g - ; - . - x 9 w O.d.p.+ @ + n + 4.8 6.                                    ",
"                                          . - # . . = s . : 2 F < ] Z.;.. . + # . d.. { z F                                     ",
"                                          $ + . # v o.X O T 2 = -  .a - i F @ + X 1.. K.U . 5.                                  ",
"                                          F.= + # ` M = + # 2 g d K >.1 . ! . X b m.. y.{ - 7.                                  ",
"                                        < + @ . . 2.i . . . = _ . G ^ < <.. F . s d.+ # q.< h.                                  ",
"                                        p @ . + + 1.2 . . . 8 g d a X ` +.3 | + - =.. + #.z . #                                 ",
"                                        2 # + @ : . . . . + = .  .a 8 A . : k . . K . . + C . a                                 ",
"                                      B . - + @ = : + . 5 : + . -.- p 8 p = 9 . . a . . # 4.: # 7                               ",
"                                      + . # . < 8 # . . # . V . c . X P.M 2 8 + . @ 5 + Y } < @ @                               ",
"                                    . H @ @ @ # 2 . . . - * J . . . . x +.D : X - c 5 + #.4.p # .                               ",
"                                    a + # . # W 2.# X . 2 P H 1 . # 5 # o.+.+ . @ ^ # @ q 0.c + p +                             ",
"                                    c . @ + # ` = = # . + < S 2 . q # d ` | = a s @.@ O 2 } K - C #                             ",
"                                  < c + @ + @ # . + # . . 4 e x : B p i M F + ^ +.N + + *.4.I = @ < #                           ",
"                                  c @ # @ # @ E . p # O + . . 1 - . A 8 b d > = h M + . < { I 8 . C .                           ",
"                                < c . @ . < # # < # . . # a m < - . + p 2 i p i b d + # @ { ) c a D 5                           ",
"                                < n @ @ . # & # . # O O K 8 @ 2 + . . - 8 @ X + c D . # < #.L H < : # <                         ",
"                              8 c . % = # # # 5 - # . # # > a . . . . [ = . j # . . # . # c ) / < - V 0                         ",
"                              5 , + # % < # 5 % 5 # . # . # k + . Z : l X . J X # # + # # z P L z =.) ) <                       ",
"                            - l n @ # + # @ 5 # # # . > X @ : + . . @ a + . . + # + @ # @ % #.' / d p 8 p                       ",
"                            1 < . @ @ . < + 8 < 5 # . # . + - r . X - 8 . p O . # # O # @ 2 ) :.V 2 @ V z =                     ",
"                          - % < @ + < . < . 0 5 # # . # . Z + < . + . L 8.< + O # # # @ @ E #.' %.- =.D z a                     ",
"                          < n ' + @ 8 # 5 @ 0 < - # . % # . N . . . . . l q . @ # # # O + E { ' -.x L r D 8 -                   ",
"                        # 2 b @ @ < 2 < - - 9 < # # O # . . H < < # . +.@ @ @ # # - # + @ b ) $.$.) b - K z l                   ",
"                        x K 8 # @ < . 9 - 8 a 5 # @ + $ . . r.+ . < q F.# . # # < # # # # s 7.{ ,.) 2 ) 5 a 0 0                 ",
"                      @ 2 D E # # 0 . z @ 2 z 9 # # . # . . . + . . 1 > + . . # 5 # @ # # @ { =.=.{ p A x K a z #               ",
"                    < z p n # @ < p . 0 . p C 8 - # + # . + . # 2 + - . O X O % < < # # # O { %.$.%.L l p a a # V               ",
"                    < 2 l l # # 2 z # < + 2 K 8 < # # . # . 7 j < @ @ + C c % % # # X # # # } ;.{ ,.I 8 H l Y p 0 a             ",
"                  # p < p # . < 2 0 # < . 9 c < # # # . . O U d s + . = B t # # 5 # # # 5 # { ;.$. .T 2 F : z q 0 a X           ",
"                # a c P 2 < + # < . # < . 0 C # % # # . . . + 5 p . = . C < # O < # O # 5 % T } ,.( ( F p p t K 0 @ B           ",
"              X 8 i 8 p + @ + < < . # # O a c - # # # . O + O @ a + 0 < q 8 O # 5 # # # 5 # V 7.{ D P D 2 V 2 i z 9 8 V         ",
"              @ a z D A @ + @ @ - @ - # . 5 a < - # + . O . 0 4 a X 8 < a # $ O < # O # 5 # V %.F z V K 8 x p l K p 0 a         ",
"            - 9 0 C z c # + . < . # $ + # 8 c # < # # . # . O 8 0 . 8 0 V . & O # O @ # # O a 6.F n c F z i i - 0 V 0 5         ",
"          # = 8 Z a c . @ @ 2 q . # 5 # - p 0 - < < < . O . O V k . + @ 9 . 6 # # O O O % O 2 ..] z i C S p a p l L z 7         ",
"        # # 8 5 C V x . = - < 2 % @ q = 5 q q : 5 < < O O . . 8 i . < # # O 6 # $ # # O # # ~ { { V 0 A H a 2 < 5 . c c <       ",
"      # # - z V a V . . @ - < . # # 5 + q a 0 5 5 < 8 # + . + O < . + < . # 6 & & # # # # # _ { { V 8 V F D 0 p < + C p q       ",
"    # # > p p 0 D 8 @ # # # # . - - 9 # 9 V 5 8 0 8 8 5 # O . % a . + V . 7 5 6 # % & # # O g F ..F 0 b ( c z < 8 < s C         ",
"      > < 8 a V 8 . + # # # # # # > 5 # 0 B 9 7 7 0 7 z # O X . , . . J . 5 7 6 $ # 5 5 # # 2 4.7.T V z A A V 9 < 5 : 2         ",
"      : < a 9 a . .     # % # $ 5               6 q 5 B # < + > c . @ C # 6 5 6 & # - # # # 7 F 4.T 8 d V ( d i < 8 < <         ",
"      5 < 8 i z                                         X < < = a O # S 5       6 #           F 7.{ D z z ( A V 0 9 8 5         ",
"      5 5 5 B                                                 A p # q ( 9                     T u.4.F p a D J a a 5 c 8         ",
"        # 5 +                                               9 . # # 5 a a                     T q.4.P B l z z B 6 5 5 a 5       ",
"                                                    : . . - . # .   # # .                     Y } } P a q F 0 a < 5 5 > 0       ",
"                                                  X $ X . . . .     . + 2 5                   Y B                               ",
"                                                                  A . . < +                                                     "
};
