/* XPM */
static char *result[] = {
/* columns rows colors chars-per-pixel */
"64 64 160 2 ",
"   c #070605",
".  c #080706",
"X  c #090807",
"o  c #0D0C0A",
"O  c #100F0D",
"+  c #11110E",
"@  c #151412",
"#  c #181714",
"$  c #1B1916",
"%  c #1D1C19",
"&  c #231B14",
"*  c #201E1B",
"=  c #23211E",
"-  c #29231C",
";  c #33281E",
":  c #262421",
">  c #292623",
",  c #2C2926",
"<  c #2E2C29",
"1  c #332C24",
"2  c #312E2B",
"3  c #3D3126",
"4  c #35312D",
"5  c #3A342E",
"6  c #363532",
"7  c #3A3631",
"8  c #3D3933",
"9  c #3F3D3A",
"0  c #42352A",
"q  c #45392E",
"w  c #4C3D2E",
"e  c #503E2E",
"r  c #423B33",
"t  c #4C3F33",
"y  c #423E39",
"u  c #4D4135",
"i  c #44413C",
"p  c #48433D",
"a  c #524234",
"s  c #5C4632",
"d  c #5E4937",
"f  c #54473A",
"g  c #5D4B39",
"h  c #634A34",
"j  c #694E36",
"k  c #614E3C",
"l  c #6A4F38",
"z  c #6A513B",
"x  c #75593E",
"c  c #464441",
"v  c #494743",
"b  c #4C4A46",
"n  c #4E4C49",
"m  c #514C46",
"M  c #514E4A",
"N  c #5F5042",
"B  c #54514D",
"V  c #5C554D",
"C  c #565451",
"Z  c #5A5753",
"A  c #5C5955",
"S  c #5F5D59",
"D  c #6B5541",
"F  c #64594D",
"G  c #755A41",
"H  c #7A5C41",
"J  c #615E5B",
"K  c #7F6043",
"L  c #7D634B",
"P  c #65625E",
"I  c #68635E",
"U  c #736659",
"Y  c #6A6662",
"T  c #6D6A66",
"R  c #6F6C69",
"E  c #776B60",
"W  c #726E6A",
"Q  c #75716D",
"!  c #78746F",
"~  c #767574",
"^  c #797671",
"/  c #7D7A75",
"(  c #7E7C79",
")  c #836345",
"_  c #8C6B4C",
"`  c #906E4E",
"'  c #8E6E50",
"]  c #947252",
"[  c #987453",
"{  c #9C7857",
"}  c #94765A",
"|  c #9E7A59",
" . c #A27D5B",
".. c #897664",
"X. c #807C77",
"o. c #817D79",
"O. c #A7815E",
"+. c #85817D",
"@. c #89847E",
"#. c #A68364",
"$. c #AC8663",
"%. c #AE8866",
"&. c #B18A67",
"*. c #B6906D",
"=. c #AF8E70",
"-. c #AA937C",
";. c #B69270",
":. c #BE9876",
">. c #B3967A",
",. c #C19B78",
"<. c #C6A07D",
"1. c #C8A27F",
"2. c #8A8682",
"3. c #8E8A84",
"4. c #928C85",
"5. c #928E89",
"6. c #94918C",
"7. c #99948F",
"8. c #9A9691",
"9. c #9D9994",
"0. c #9F9D9A",
"q. c #A59789",
"w. c #AF9C8A",
"e. c #A29D98",
"r. c #A6A29D",
"t. c #A8A49F",
"y. c #A6A4A1",
"u. c #AAA6A1",
"i. c #AEAAA5",
"p. c #B1AEAA",
"a. c #B5B2AD",
"s. c #B9B4AF",
"d. c #B7B5B3",
"f. c #BBB6B1",
"g. c #BEB9B4",
"h. c #BDBCB9",
"j. c #C9A381",
"k. c #C7AA8F",
"l. c #CBAA8B",
"z. c #CEB49C",
"x. c #C1BBB4",
"c. c #C2BEB9",
"v. c #C6C1BD",
"b. c #C7C4C0",
"n. c #C9C6C1",
"m. c #CDC9C5",
"M. c #D4CCC5",
"N. c #D1CDC9",
"B. c #D4D1CE",
"V. c #D4D3D1",
"C. c #DAD7D4",
"Z. c #DAD9D7",
"A. c #DEDDDC",
"S. c #E3E3E1",
"D. c #E9E7E5",
"F. c #EEEEED",
"G. c #F6F5F4",
"H. c #F8F8F7",
"J. c #FBFBFB",
"K. c None",
/* pixels */
"K.K.K.K.K.K.K.K.K.K.K.K.K.K.K.K.K.K.K.K.K.K.K.K.K.K.K.K.K.K.K.K.K.K.K.K.K.K.K.K.K.K.K.K.K.K.K.K.K.K.K.K.K.K.K.K.K.K.K.K.K.K.K.K.",
"K.K.K.K.K.K.K.K.K.K.K.K.6.K.K.K.K.K.K.K.K.K.K.K.K.K., f.g.g.c.S.K.K.K.K.K.K.K.K.K.K.K.K.K.K.K.K.K.K.K.K.K.K.K.K.K.K.K.K.K.K.K.K.",
"K.K.K.K.K.K.K.K.K.K.K.K.2 ^ C K.K.K.K.K.K.K.K.K.K.: p Z 5.u.f.f.N.F.n.v.K.K.K.K.K.K.K.K.K.K.K.K.K.K.K.K.K.K.K.K.K.K.K.K.K.K.K.K.",
"K.K.K.K.K.K.K.K.K.K.K.i J M 4.@.N.s.u.F.K.Y $.H j.4 Y Z ^ 4 A.Q s.t.v.u.C.c.6.b.K.K.K.K.K.K.K.K.K.K.K.K.K.K.K.K.K.K.K.K.K.K.K.K.",
"K.K.K.K.K.K.K.K.K.K.K.F.H.c K.K.K.R F -.q.e.] ,.z.: 2.W Z : 2 4 5 @ 6 y g.v.c.c.8.Q 2.v.K.K.K.K.K.K.K.K.K.K.K.K.K.K.K.K.K.K.K.K.",
"K.K.K.K.K.K.K.K.K.K.K.y.7.a.K.K.K.K.K.K.K.J r r a , Y @.~ 8 , : $ $ % @ > > / c.R ( 3.3.@.9./ n.K.K.K.K.K.K.K.K.K.K.K.K.K.K.K.K.",
"K.K.K.K.K.K.K.K.K.K.u.2.8 K.K.K.K.K.K.K.J ! / r.@.i P = 6.> : + % 6 $ = 4 = > 2 4 , 4 3.( r.Y +.Q 3.7.N.K.K.K.K.K.K.K.K.K.K.K.K.",
"K.K.K.K.K.K.K.K.u.6.T / 2 K.K.K.K.K.K.K.4 Q @ X $ b A P M 2 $ # + , + > *.4 > > < > > > > 2 > R 5.Q t.Q 5.7.+.a.K.K.K.K.K.K.K.K.",
"K.K.K.K.K.K.K.K.K.g.5.p K.K.K.K.K.K.K.K.P Z P K.% Y Z n : : o @ < =.< M.{ k 2 2 2 2 > < < , > > , 4 > y u./ T ~ S b A N.K.K.K.K.",
"K.K.K.K.K.K.K.K.K.m K.K.K.K.K.K.K.K.K.K.f / z K.9 % @ O X . . 9 b j.B n.l...4 > > > , < : 4 > > , > , , , , 4 , p./ W W Y W F.K.",
"K.K.K.K.K.K.K.K.K.K.K.K.K.K.K.K.K.K.K.K. .>.) K.$ @ + o . . . .   b u B.%.D : 7 = , > > > < , > > > < , 2 4 2 , 2 2 < : Q W 2 K.",
"K.K.K.K.K.K.K.K.K.K.K.K.K.K.K.K.K.K.K.K.x 1.1.K.K.K.K.Z . X S + + 8 s w.z #.# b < X o 6 6.4 = < < > , > > , 2 , 7 2 , 2 2 , 4 G.",
"K.K.K.K.K.K.K.K.K.K.K.K.K.K.K.K.K.K.K.K.s ,.M.%.K.K.a.. . y $ 6   + @ & @ , 8 Y C @ < n 9 @ $ + # % A 6 : > : > < 6 , < 2 , > > ",
"K.K.K.K.K.K.K.K.K.K.K.K.K.K.K.K.K.K.K.K.8 *.x.:.@ + : $ Y M X d.&   X 8 c $ Z ; 9 F.8 P 8 8.+ $ @ @ + O $ # O + Y % , > : , X K.",
"K.K.K.K.K.K.K.K.K.K.K.K.K.K.K.K.K.K.K.K.1 O.j.O.G H 8 ' q @ 5 o + + = @ 4 7 4 # : 9.i P ( Z K.K.K.K.K.J % o o @ + + @ # @ + K.K.",
"K.K.K.K.K.K.K.K.K.K.K.K.K.K.K.K.K.K.K.K.H ` O.%.k.g.% :.| o = $ $ , : a = 5 W , O 9.A 8 Y / P K.K.K.K.K.K.K.K.K.K.K.~ % e.K.K.K.",
"K.K.K.K.K.K.K.K.K.K.K.K.K.K.K.K.K.K.K.K. .' ] ] O.O.@ O.r o 2 4 B 2 5 a [ Y H.< u - / +.< P % K.K.K.K.K.K.K.K.K.K.K.K.K.K.K.K.K.",
"K.K.K.K.K.K.K.K.K.K.K.K.K.K.K.K.K.K.K.K.K.9.4 | [ H @ h K.= = > i q h O r ] 2.% = h 7 1 A B v K.K.K.K.K.K.K.K.K.K.K.K.K.K.K.K.K.",
"K.K.K.K.K.K.K.K.K.K.K.K.K.K.K.K.K.K.K.K.K.K.K.K.K.K.K.K.K.9 4 w M s w V Z N v Z T e., * T ( Z I K.K.K.K.K.K.K.K.K.K.K.K.K.K.K.K.",
"K.K.K.K.K.K.K.K.K.K.K.K.K.K.K.K.K.K.K.K.K.K.K.K.K.K.K.K.K.Q # = @ j u # u 8 B i 7 < i > 6.6.9.B K.K.K.K.K.K.K.K.K.K.K.K.K.K.K.K.",
"K.K.K.K.K.K.K.K.K.K.K.K.K.K.K.K.K.K.K.K.K.K.K.K.K.K.K.K.K.K.A & 7 ; d + > : % $ $ $ X < b ! s.! c K.K.K.K.K.K.K.K.K.K.K.K.K.K.K.",
"K.K.K.K.K.K.K.K.K.K.K.K.K.K.K.K.K.K.K.K.K.K.K.K.K.K.K.K.K.K.+ 4 0 ) $ > = P Q ! T   X + Z +.D.i J.K.K.K.K.K.K.K.K.K.K.K.K.K.K.K.",
"K.K.K.K.K.K.K.K.K.K.K.K.K.K.K.K.K.K.K.K.K.K.K.K.K.K.K.K.K.K.@ 4 1 + b > a U b < + + o + + 4 4.s.c K.K.K.K.K.K.K.K.K.K.K.K.K.K.K.",
"K.K.K.K.K.K.K.K.K.K.K.K.K.K.K.K.K.K.K.K.K.K.K.K.K.K.K.K.K.Q + . + 4 X B A ! y - % = O + + Q +.W o Q K.K.K.K.K.K.K.K.K.K.K.K.K.K.",
"K.K.K.K.K.K.K.K.K.K.K.K.K.K.K.K.K.K.K.K.K.K.K.K.K.K.K.o % y M 5 & Z + o o o . @ #   o + b R ( +.6 2 K.K.K.K.K.K.K.K.K.K.K.K.K.K.",
"K.K.K.K.K.K.K.K.K.K.K.K.K.K.K.K.K.K.K.K.K.K.K.K.K.K.1 h , . + $ = + < R q L s 4 = + o + 1 i G.& Q i @ K.K.K.K.K.K.K.K.K.K.K.K.K.",
"K.K.K.K.K.K.K.K.K.K.K.K.K.K.K.K.K.K.K.K.K.K.K.K.K.K.3 : @ % w + = 7.0 r b ) g : , + + + % Y J.5.# 4 @ K.K.K.K.K.K.K.K.K.K.K.K.K.",
"K.K.K.K.K.K.K.K.K.K.K.K.K.K.K.K.K.K.K.K.K.K.K.K.6.# < % @ o 5 X p % 5 H W b Z < X + + o = X.v.a.+ * % / K.K.K.K.K.K.K.K.K.K.K.K.",
"K.K.K.K.K.K.K.K.K.K.K.K.K.K.K.K.K.K.K.K.K.2.+ , @ @ @ - X O *   = : } ) K 5.B > + $ + + * W y.J + $ * Z.K.K.K.K.K.K.K.K.K.K.K.K.",
"K.K.K.K.K.K.K.K.K.K.K.K.K.K.K.K.K.K.K.K.K.K.K.= X o @ % + 6 = o 6 < g ] = i v > < + X + # P Y M + > , a.K.K.K.K.K.K.K.K.K.K.K.K.",
"K.K.K.K.K.K.K.K.K.K.K.K.K.K.K., o . . . . X + O @ O . o 5 = > - < = x q $ = p.8 # O @ O % * T o # = : * K.K.K.K.K.K.K.K.K.K.K.K.",
"K.K.K.K.K.K.K.K.Y X o + o o . X o o o + + + + o X o X + = > i = % x d @ : / % I % o @ @ 8 M @ X $ : # : K.K.K.K.K.K.K.K.K.K.K.K.",
"K.K.K.K.K.K.$ $ + @ o $ $ $ $ o o o o X . . . o . X o @ 4 % 8 > : : $ . C +.P / 2 o $ . +.2.v c + : + $ K.K.K.K.K.K.K.K.K.K.K.K.",
"K.K.K.$ $ # $ @ @ % : $ + + + X . . .   . . . . . X + 2 $ < # : < , @ @ : C , Z.A + X 8 1 6.T 5 + 4 @ 4 K.K.K.K.K.K.K.K.K.K.K.K.",
"K.K.Z 3.K.K.@ 5 = % = K.> + + + o + .   . o O o .   o = $ 3., B @ O o O < / B.e./ % $ + @ ~ S.i $ % $ > K.K.K.K.K.K.K.K.K.K.K.K.",
"K.% + K.K., 4 > < K.K.@ $ @ + + + X o . . o + X   . + + $ < * $ $ o % + @ ( 3.6.2.4 + % $ : = + > $ % o K.K.K.K.K.K.K.K.K.K.K.K.",
"K.K.K.K.2 , , K.K.K.$ $ $ # + + + O O O + O o .   K.o X + * < > $ + O I = v 9.a.s.Z 5 % = = O @ % $ Y ( K.K.K.K.K.K.K.K.K.K.K.K.",
"K.K.K.B 8 2 / K.T = = = % c X @ + o O @ + o o . K.$ o X : = 2 % + + . + + % ! a.9.B , = @ o + : + @ A.K.K.K.K.K.K.K.K.K.K.K.K.K.",
"K.K.K.K.K.% K.K.X X $ @ 6 K.% + + K.+ + o O K.K.: + + X 9 : 8 * + + O O o + Z ! 6.Z : $ O + % @ % 4 h.K.K.K.K.K.K.K.K.K.K.K.K.K.",
"K.K.K.K.K.K.K.K.K.@ W A K.% + @ K.+ @ O K.K.K.Z O + + X 8 : % : $ + o O $ O + Q R Z < + + = $ @ : K.K.K.K.K.K.K.K.K.K.K.K.K.K.K.",
"K.K.K.K.K.K.K.K.K.K.O K.% @ % 3.K.$ O . K.K.. o . + o . 8 = < > @ + + $ + + + Z R A : X $ * + $ < K.K.K.K.K.K.K.K.K.K.K.K.K.K.K.",
"K.K.K.K.K.K.K.K.K.K.K.K.K.K.K.K.Q + o : K.c + = K.o $ + 4 y % i @ + @ $ + @ + @.Y b 8 o : Z K.= 4 K.K.K.K.K.K.K.K.K.K.K.K.K.K.K.",
"K.K.K.K.K.K.K.K.K.K.K.K.K.K.K.m.5.+ K.K.K.+ o K.+ + $ + 8 A 8 < K.+ @ % % % % > u.I A X % o K.c K.K.K.K.K.K.K.K.K.K.K.K.K.K.K.K.",
"K.K.K.K.K.K.K.K.K.K.K.K.K.K.K.K.K.K.K.K.+ @ K.o O + p M c 9.8 o K.@ @ P O v % > B Z B : % o K.K.K.K.K.K.K.K.K.K.K.K.K.K.K.K.K.K.",
"K.K.K.K.K.K.K.K.K.K.K.K.K.K.K.K.K.K.K.$ . K.2.+ + + K.8 8 > 2 o + $ = K.K.( + 9 Z r.P 9 = O K.K.K.K.K.K.K.K.K.K.K.K.K.K.K.K.K.K.",
"K.K.K.K.K.K.K.K.K.K.K.K.K.K.K.K.K.K.K.K.K.K.Y o @ K.K.A 8 B $ $ $ % @ K.K.9 . $ $ s.: y : @ : K.K.K.K.K.K.K.K.K.K.K.K.K.K.K.K.K.",
"K.K.K.K.K.K.K.K.K.K.K.K.K.K.K.K.K.K.K.K.K.K.K.d.K.K.v e.! J v @ $ % 6.K.K.+ : O . 8 A > + < * K.K.K.K.K.K.K.K.K.K.K.K.K.K.K.K.K.",
"K.K.K.K.K.K.K.K.K.K.K.K.K.K.K.K.K.K.K.K.K.K.K.K.K.K.$ +./ / ^ X $ @ K.K.K./ $ 5 < % 2.@.8 +.P ! K.K.K.K.K.K.K.K.K.K.K.K.K.K.K.K.",
"K.K.K.K.K.K.K.K.K.K.K.K.K.K.K.K.K.K.K.K.K.K.K.K.K.K.> z  .x _ 4 Z = K.K.K.v * u.* 2 4 d.7 G G.Q K.K.K.K.K.K.K.K.K.K.K.K.K.K.K.K.",
"K.K.K.K.K.K.K.K.K.K.K.K.K.K.K.K.K.K.K.K.K.K.K.K.K.K.$ h j ) j > K.K.K.K.K.6 K.2.M c 2 c O.h u.6 K.K.K.K.K.K.K.K.K.K.K.K.K.K.K.K.",
"K.K.K.K.K.K.K.K.K.K.K.K.K.K.K.K.K.K.K.K.K.K.K.K.K.K.o r s 4 > : K.K.K.K.K.K.K.K.> r a _  .8 9.$ K.K.K.K.K.K.K.K.K.K.K.K.K.K.K.K.",
"K.K.K.K.K.K.K.K.K.K.K.K.K.K.K.K.K.K.K.K.K.K.K.K.K.K.K.$ 4 w B u.K.K.K.K.K.K.K.K.# # s :.) h : K.K.K.K.K.K.K.K.K.K.K.K.K.K.K.K.K.",
"K.K.K.K.K.K.K.K.K.K.K.K.K.K.K.K.K.K.K.K.K.K.K.K.K.K.K.v W 2.c K.K.K.K.K.K.K.K.K.O $ % l H d $ K.K.K.K.K.K.K.K.K.K.K.K.K.K.K.K.K.",
"K.K.K.K.K.K.K.K.K.K.K.K.K.K.K.K.K.K.K.K.K.K.K.K.K.K.K., U U = K.K.K.K.K.K.K.K.K.K.Y , 1 ; 7 0 K.K.K.K.K.K.K.K.K.K.K.K.K.K.K.K.K.",
"K.K.K.K.K.K.K.K.K.K.K.K.K.K.K.K.K.K.K.K.K.K.K.K.K.K.K.> 8 4 2 K.K.K.K.K.K.K.K.K.K.@.. % $ W $ K.K.K.K.K.K.K.K.K.K.K.K.K.K.K.K.K.",
"K.K.K.K.K.K.K.K.K.K.K.K.K.K.K.K.K.K.K.K.K.K.K.K.K.K.K.y 4.p 8.K.K.K.K.K.K.K.K.K.K.K.# $ @.B o K.K.K.K.K.K.K.K.K.K.K.K.K.K.K.K.K.",
"K.K.K.K.K.K.K.K.K.K.K.K.K.K.K.K.K.K.K.K.K.K.K.K.K.6.p H.f.i.c K.K.K.K.K.K.K.K.K.K.K.K.@ W 9 6 K.K.K.K.K.K.K.K.K.K.K.K.K.K.K.K.K.",
"K.K.K.K.K.K.K.K.K.K.K.K.K.K.K.K.K.K.K.K.K.K.K.u.S r.0.2.X.W Y K.K.K.K.K.K.K.K.K.K.K.K.: * -.v K.K.K.K.K.K.K.K.K.K.K.K.K.K.K.K.K.",
"K.K.K.K.K.K.K.K.K.K.K.K.K.K.K.K.K.K.K.K.K.K.6 c B y Y 6.o.R K.K.K.K.K.K.K.K.K.K.K.K.K.7 : b./ F.K.K.K.K.K.K.K.K.K.K.K.K.K.K.K.K.",
"K.K.K.K.K.K.K.K.K.K.K.K.K.K.K.K.K.K.K.K.K.K.p 7 ( J 3.K.K.K.K.K.K.K.K.K.K.K.K.K.K.K.K.7 4 6.B f.K.K.K.K.K.K.K.K.K.K.K.K.K.K.K.K.",
"K.K.K.K.K.K.K.K.K.K.K.K.K.K.K.K.K.K.K.K.K.K.K.K.K.K.K.K.K.K.K.K.K.K.K.K.K.K.K.K.K.K.K.% > m.C V.K.K.K.K.K.K.K.K.K.K.K.K.K.K.K.K.",
"K.K.K.K.K.K.K.K.K.K.K.K.K.K.K.K.K.K.K.K.K.K.K.K.K.K.K.K.K.K.K.K.K.K.K.K.K.K.K.K.K.K.K.v 2 2.Y y K.K.K.K.K.K.K.K.K.K.K.K.K.K.K.K.",
"K.K.K.K.K.K.K.K.K.K.K.K.K.K.K.K.K.K.K.K.K.K.K.K.K.K.K.K.K.K.K.K.K.K.K.K.K.K.K.K.K.K.K.% 2 W @.c K.K.K.K.K.K.K.K.K.K.K.K.K.K.K.K.",
"K.K.K.K.K.K.K.K.K.K.K.K.K.K.K.K.K.K.K.K.K.K.K.K.K.K.K.K.K.K.K.K.K.K.K.K.K.K.K.K.K.K.K.K.% N.a K.K.K.K.K.K.K.K.K.K.K.K.K.K.K.K.K."
};
