/* XPM */
static char *f45dbc2958124712fd9bf83b9d2b9e5foKZ6i2IpyfnFBEHB[] = {
/* columns rows colors chars-per-pixel */
"64 64 151 2 ",
"   c #070605",
".  c #080706",
"X  c #090807",
"o  c #0D0C0A",
"O  c #100F0D",
"+  c #11110E",
"@  c #151412",
"#  c #181714",
"$  c #1B1916",
"%  c #1D1C19",
"&  c #231B14",
"*  c #201E1B",
"=  c #23211E",
"-  c #29231C",
";  c #33281E",
":  c #262421",
">  c #292623",
",  c #2C2926",
"<  c #2E2C29",
"1  c #332C24",
"2  c #312E2B",
"3  c #3D3126",
"4  c #35312D",
"5  c #3A342E",
"6  c #363532",
"7  c #3A3631",
"8  c #3D3933",
"9  c #3F3D3A",
"0  c #42352A",
"q  c #45392E",
"w  c #4C3D2E",
"e  c #503E2E",
"r  c #423B33",
"t  c #4C3F33",
"y  c #423E39",
"u  c #4D4135",
"i  c #44413C",
"p  c #48433D",
"a  c #524234",
"s  c #5C4632",
"d  c #5E4937",
"f  c #54473A",
"g  c #5D4B39",
"h  c #634A34",
"j  c #694E36",
"k  c #614E3C",
"l  c #6A4F38",
"z  c #6A513B",
"x  c #75593E",
"c  c #464441",
"v  c #494743",
"b  c #4C4A46",
"n  c #4E4C49",
"m  c #514C46",
"M  c #514E4A",
"N  c #54514D",
"B  c #5C554D",
"V  c #565451",
"C  c #5A5753",
"Z  c #5C5955",
"A  c #5F5D59",
"S  c #6B5541",
"D  c #64594D",
"F  c #755A41",
"G  c #7A5C41",
"H  c #615E5B",
"J  c #7D634B",
"K  c #65625E",
"L  c #68635E",
"P  c #736659",
"I  c #6A6662",
"U  c #6D6A66",
"Y  c #6F6C69",
"T  c #726E6A",
"R  c #75716D",
"E  c #78746F",
"W  c #767574",
"Q  c #797671",
"!  c #7D7A75",
"~  c #7E7C79",
"^  c #836345",
"/  c #8C6B4C",
"(  c #906E4E",
")  c #8E6E50",
"_  c #947252",
"`  c #987453",
"'  c #9C7857",
"]  c #94765A",
"[  c #A27D5B",
"{  c #897664",
"}  c #807C77",
"|  c #817D79",
" . c green",
".. c #A7815E",
"X. c #85817D",
"o. c #89847E",
"O. c #A68364",
"+. c #AC8663",
"@. c #AE8866",
"#. c #B18A67",
"$. c #B6906D",
"%. c #AF8E70",
"&. c #AA937C",
"*. c #B69270",
"=. c #BE9876",
"-. c #B3967A",
";. c #C19B78",
":. c #C8A27F",
">. c #8A8682",
",. c #8E8A84",
"<. c #928C85",
"1. c #928E89",
"2. c #94918C",
"3. c #99948F",
"4. c #9A9691",
"5. c #9D9994",
"6. c #A59789",
"7. c #AF9C8A",
"8. c #A29D98",
"9. c #A8A49F",
"0. c #A6A4A1",
"q. c #AAA6A1",
"w. c #AEAAA5",
"e. c #B1AEAA",
"r. c #B5B2AD",
"t. c #B9B4AF",
"y. c #B7B5B3",
"u. c #BBB6B1",
"i. c #BDBCB9",
"p. c #C9A381",
"a. c #C7AA8F",
"s. c #CBAA8B",
"d. c #CEB49C",
"f. c #C1BBB4",
"g. c #C2BEB9",
"h. c #C6C1BD",
"j. c #C9C6C1",
"k. c #CDC9C5",
"l. c #D4CCC5",
"z. c #D1CDC9",
"x. c #D4D1CE",
"c. c #D4D3D1",
"v. c #DAD7D4",
"b. c #DAD9D7",
"n. c #DEDDDC",
"m. c #E3E3E1",
"M. c #E9E7E5",
"N. c #EEEDED",
"B. c #F6F5F4",
"V. c #F8F8F7",
"C. c #FBFBFB",
/* pixels */
"                                                                                                                                ",
"                        1.                          , u.f.f.g.m.                                                                ",
"                        2 E V                     : y Z <.0.u.t.z.N.j.h.                                                        ",
"                      i H M <.>.z.u.q.N.  I +.G p.2 U Z Q 6 n.W t.9.g.q.v.g.1.j.                                                ",
"                      N.V.c       Y D &.6.8._ ;.d.: >.T Z : 2 2 6 @ 7 r f.g.g.g.4.T >.g.                                        ",
"                      0.3.y.              H r r a , I >.Q 7 , : $ % % @ , , ! g.T ! ,.<.X.5.! k.                                ",
"                    q.>.8               H Q Q 9.o.y I * 1., : + % 6 $ * 4 : : 2 2 < 2 ,.| 9.I | R ,.4.z.                        ",
"                q.1.U ! 2               4 T # X $ v Z K M 2 $ # + < O > *.2 , : 2 : , > > 2 : Y 1.R 9.R 1.3.X.r.                ",
"                  f.1.p                 H Z H   % I C n : : O @ < %.2 l.' k 2 2 2 < : < < < , : , 2 : y q.! U W A b Z z.        ",
"                  m                     f ! z   9 % # O       9 b :.N j.s.{ 4 > , , , < : 2 , : , : < , < < 2 , e.! T T U T N.  ",
"                                        [ -.^   $ @ + o           m t x.@.S > 6 * < , : , < , , , : < , 2 2 2 , 2 2 2 = E T 2   ",
"                                        F :.:.        Z X X A + O 7 s 7.z O.# b 2 X X 6 1.6 % < 2 , , , : < 2 < 6 2 , 2 2 < 2 B.",
"                                        h ;.l.@.    r.  X y $ 6   O @ & @ , 8 I V @ 4 b 9 @ $ + @ % Z 6 : , : : 2 2 < 2 < , , , ",
"                                        7 $.f.=.@ + : $ I M X y.*     q c % C ; 9 N.7 K 6 4.+ $ @ + + O $ @ + + I % , : : ,     ",
"                                        1  .p...F G 7 ) q @ 7 o + + = @ 4 6 4 # : 5.i K | Z           H $ o + + @ O + # @ O     ",
"                                        G ( [ #.a.f.% =.' o = $ $ > > a * 5 R , O 5.Z 8 U Q K                       W % 8.      ",
"                                        [ ) _ )  ...@  .r o 2 4 N < 3 a ` I V.2 u - ! X.2 K %                                   ",
"                                          5.2 [ ` G @ h   = % , p r h + r _ >.% - h 5 2 C N v                                   ",
"                                                          9 2 e N s u B C S v C U 8., * U ! C L                                 ",
"                                                          R $ = @ h w @ p 6 N y 6 < i > 2.2.4.V                                 ",
"                                                            Z & 8 ; h + , : % % $ @ o 2 b E t.Q c                               ",
"                                                            @ 4 0 ^ $ > = H R R U   X + C o.M.y C.                              ",
"                                                            @ 4 3 + b , a P n , O + o + + 4 1.t.v                               ",
"                                                          T O   @ 2 X n Z Q r > % = O + + T X.R o T                             ",
"                                                      o % y M 5 $ C @ X o X X @ + X o + b T ! | 4 2                             ",
"                                                    , h 1   O % % + 1 T r J h 4 > + O + 2 r V.& E c O                           ",
"                                                    3 = @ * q @ > 3.0 r b ^ g = > + + + $ I C.2.# 4 @                           ",
"                                                2.# 2 * + o 5   p $ 6 x T b C 2 X + + o = | g.r.+ * * !                         ",
"                                          >.@ , @ + @ - o o *   = : ] ^ G <.N , O # + + : T 0.H + $ * b.                        ",
"                                              * X + + * + 6 : O 6 < g _ = i b , 2 + o + # H I M + : , u.                        ",
"                              , o         o O O + O   o 5 * , & < * F q $ = w.7 @ + + O $ * U o # : = *                         ",
"                I X o + o o   X o o O O O + + o o o X + = , y : $ F d O , ! $ I % O @ @ 8 M + o # : # :                         ",
"            $ # @ @ o # $ $ @ O o X o X   X X X     o # 4 % 8 > , = $   V X.K ! 2 o #   X.,.b c + : @ $                         ",
"      # # # % # @ * : # + O @ X X X X   X       X X + 2 $ < @ : < < @ @ = C < b.Z + o r , 2.U 4 + 2 @ 4                         ",
"    Z ,.    @ 4 * % :   , O O + o +       o + o     o = $ ,.< N @ O X O < Q x.8.! $ # + @ E m.y $ % $ ,                         ",
"  % O     , 2 , <     @ $ @ + + + X o X X o + X   X + + $ , * $ $ O % + @ ! <.2.,.4 O * $ : : + , $ $ X                         ",
"        2 < ,       % % $ $ O + + + o + + O o X     o X @ % < > % + o L : v 5.e.t.C 4 % = * + @ $ $ U ~                         ",
"      N 8 < !   U * * * % v   @ + o O # + o o     # O X > * 2 % + + X + + % E r.5.N < = # o + : + @ n.                          ",
"          *     X X # # 6   $ + +   + + X +     : + + X 9 > 8 * + + O + o + C E 2.C : $ + + $ @ % 2 i.                          ",
"                  @ T Z   $ + @   O @ O       C O + + X 7 : % : % + o O $ + + R Y C < + + = $ @ >                               ",
"                    +   % @ $ <.  $ o X       o   + o   8 = 2 : + + + $ @ o @ C U Z : X $ * + % <                               ",
"                                T + o :   c + =   o % + 4 y % i # + + % @ @ o >.I n 8 X : C   * 4                               ",
"                              k.1.@       + o   + + # @ 8 Z 8 <   + # % % % $ , q.K A   % o   c                                 ",
"                                        + @   o O + p M v 5.7 o   # + K o v $ , N Z M : % o                                     ",
"                                      # X   >.+ + +   7 7 > 2 O + $ *     ~ @ r C 9.K 9 : O                                     ",
"                                            I o @     Z r N $ $ $ $ @     y X $ $ u.: r : @ :                                   ",
"                                              y.    v 8.E H v @ $ % 2.    @ : o   8 Z , O , %                                   ",
"                                                    # X.} Q E X $ #       Q $ 6 < % >.X.8 X.I R                                 ",
"                                                    > l [ x / 4 C =       v = 0.* 2 4 u.7 F B.R                                 ",
"                                                    % h j ^ j ,           6   >.n v 2 p [ h q.6                                 ",
"                                                    o r s 4 > :                 > 8 a / O.r 4.%                                 ",
"                                                      # 2 t M q.                # # s =.^ s :                                   ",
"                                                      v T >.c                   O $ % l G s %                                   ",
"                                                      , P P :                     I , 1 1 7 0                                   ",
"                                                      > 7 4 2                     o.  % & T $                                   ",
"                                                      y <.p 4.                      @ % X.M o                                   ",
"                                                  1.y V.t.w.c                         @ T y 6                                   ",
"                                              q.A 0.8.>.| T I                         : % &.b                                   ",
"                                            6 v M p I 4.| T                           7 : j.! N.                                ",
"                                            p 6 | A >.                                6 4 2.N y.                                ",
"                                                                                      % , k.V c.                                ",
"                                                                                      v 2 o.U y                                 ",
"                                                                                      $ 2 U | v                                 ",
"                                                                                        % x.a                                   "
};
