/* XPM */
static char *result[] = {
/* columns rows colors chars-per-pixel */
"64 64 248 2 ",
"   c #1A161B",
".  c #1B161C",
"X  c #27181B",
"o  c #361A1B",
"O  c #3B211C",
"+  c #1C1C23",
"@  c #181B26",
"#  c #181F30",
"$  c #261D22",
"%  c #351C21",
"&  c #1D222C",
"*  c #1A2635",
"=  c #1D3938",
"-  c #272229",
";  c #392725",
":  c #3C2B2C",
">  c #232A37",
",  c #392D32",
"<  c #2B323B",
"1  c #223C3C",
"2  c #3D3336",
"3  c #461A1D",
"4  c #5A1B1D",
"5  c #6A1E1C",
"6  c #43241D",
"7  c #76281C",
"8  c #561C22",
"9  c #6A1E22",
"0  c #482925",
"q  c #442E2C",
"w  c #4B2E2B",
"e  c #552D25",
"r  c #592A28",
"t  c #49312E",
"y  c #58332B",
"u  c #432E32",
"i  c #572836",
"p  c #443334",
"a  c #4A3333",
"s  c #4B3939",
"d  c #593A37",
"f  c #533C3C",
"g  c #692426",
"h  c #782625",
"j  c #633B37",
"k  c #723131",
"l  c #23443E",
"z  c #5A413E",
"x  c #64413D",
"c  c #69443A",
"v  c #784F34",
"b  c #18304A",
"n  c #1A2956",
"m  c #2C3844",
"M  c #1B3668",
"N  c #4D3E42",
"B  c #254241",
"V  c #2B4544",
"C  c #2B4A47",
"Z  c #344B47",
"A  c #29574A",
"S  c #38534C",
"D  c #335452",
"F  c #306956",
"G  c #194968",
"H  c #25657C",
"J  c #564344",
"K  c #5C4443",
"L  c #515050",
"P  c #634542",
"I  c #674947",
"U  c #6C4A45",
"Y  c #724B44",
"T  c #744D4A",
"R  c #6C514C",
"E  c #77544A",
"W  c #73534D",
"Q  c #7B544C",
"!  c #674E57",
"~  c #695755",
"^  c #765853",
"/  c #7C5B53",
"(  c #7A5E5A",
")  c #4B675C",
"_  c #6D6A55",
"`  c #7A615B",
"'  c #6E5D63",
"]  c #4A6E6A",
"[  c #577E66",
"{  c #786666",
"}  c #706A70",
"|  c #8B231E",
" . c #8C2E1C",
".. c #8B2523",
"X. c #872827",
"o. c #8C2B2B",
"O. c #952928",
"+. c #893926",
"@. c #92352A",
"#. c #952E32",
"$. c #883334",
"%. c #983638",
"&. c #A13534",
"*. c #954A24",
"=. c #904F2F",
"-. c #985625",
";. c #A35927",
":. c #A94C3B",
">. c #9A6528",
",. c #956B39",
"<. c #A46324",
"1. c #A76A27",
"2. c #AB6C26",
"3. c #B16C28",
"4. c #AB7426",
"5. c #AB742A",
"6. c #AA782A",
"7. c #A3683D",
"8. c #A87734",
"9. c #893D43",
"0. c #963C42",
"q. c #9B3C41",
"w. c #A33D44",
"e. c #8C4C4E",
"r. c #9D4247",
"t. c #9F5C41",
"y. c #835B57",
"u. c #825C54",
"i. c #A54249",
"p. c #A95641",
"a. c #A54A55",
"s. c #A8555B",
"d. c #956A4C",
"f. c #84645B",
"g. c #88665A",
"h. c #A76942",
"j. c #AB7442",
"k. c #B77B47",
"l. c #A76D55",
"z. c #845868",
"x. c #A85765",
"c. c #856A63",
"v. c #866A66",
"b. c #8B6C63",
"n. c #926C65",
"m. c #8A7267",
"M. c #8D736C",
"N. c #92756B",
"B. c #95776A",
"V. c #956B79",
"C. c #8A7875",
"Z. c #967974",
"A. c #947C74",
"S. c #997D73",
"D. c #937E79",
"F. c #A56F75",
"G. c #2E946A",
"H. c #37936E",
"J. c #399872",
"K. c #36A277",
"L. c #4D836B",
"P. c #4B886C",
"I. c #538269",
"U. c #548368",
"Y. c #4E9171",
"T. c #489671",
"R. c #479975",
"E. c #4EA27C",
"W. c #AF8630",
"Q. c #AD8636",
"!. c #868047",
"~. c #BA8747",
"^. c #BC9545",
"/. c #AF8A50",
"(. c #8E817C",
"). c #9D8175",
"_. c #96837A",
"`. c #95827C",
"'. c #9B827C",
"]. c #B39069",
"[. c #A4867A",
"{. c #C38B48",
"}. c #C69749",
"|. c #C48B55",
" X c #CA9757",
".X c #CC9656",
"XX c #D0A75F",
"oX c #205590",
"OX c #196988",
"+X c #157696",
"@X c #107897",
"#X c #2D6D92",
"$X c #5F7186",
"%X c #467DA3",
"&X c #947B86",
"*X c #A67787",
"=X c #1789A6",
"-X c #1B91B1",
";X c #2785A0",
":X c #728992",
">X c #57A484",
",X c #669FA0",
"<X c #73AFC5",
"1X c #948582",
"2X c #988885",
"3X c #9B8A85",
"4X c #948B8F",
"5X c #9B8C8B",
"6X c #9D908D",
"7X c #9B9598",
"8X c #A58986",
"9X c #A9948A",
"0X c #B2958A",
"qX c #AF9095",
"wX c #A59998",
"eX c #86B39D",
"rX c #B4A49C",
"tX c #8B9BA8",
"yX c #999CA5",
"uX c #A49CA6",
"iX c #8CACAA",
"pX c #9AB7AD",
"aX c #9AA8B5",
"sX c #9CBAB3",
"dX c #A7A5A9",
"fX c #B4A9A7",
"gX c #BEADA3",
"hX c #A6ABB6",
"jX c #ABADB3",
"kX c #ACB1B2",
"lX c #A4BCB3",
"zX c #ACB3BD",
"xX c #A9B8B8",
"cX c #B5B5BA",
"vX c #C6B38C",
"bX c #A7C1B9",
"nX c #ABC3BB",
"mX c #B1C4BE",
"MX c #8CB8CC",
"NX c #ACB9C7",
"BX c #B2BAC6",
"VX c #B4BFD1",
"CX c #B0C7CD",
"ZX c #A3C8DB",
"AX c #B8C8D6",
"SX c #C1CFDD",
"DX c #C5D5E3",
"FX c #C9D7E5",
/* pixels */
"p.p.p.p.:.7 ..#.o...X.o.X...o.o.%.w.a.a.x.*X*X*XuXz.VXVXBXi o.h #.VXxXpXlXlXlXkXpXlXpXpXlXeXE.>XE.T.H.H.T.T.Y.E.Y.Y.L.L.L.l 7.k.",
"p.p.p.p.h | #.O.o.o.X.o...o.o.#.q.a.a.x.x.*XuX*XhX&XNXVXhXo.o.*X9 o.zXkXkXbXlXlXnXlXlXlXiXsX,XeXE.T.T.T.T.T.U.E.E.U.U.U.L.l t.k.",
"p.p.:.&.h #.o.@.@.X...X.X.#.#.q.w.a.x.*X*XuXNXNX*XuXNXNXi #.h zX*Xh i hXnXgXnXkXlXlXbXlXsXCXeXeXE.K.K.T.Y.T.Y.E.Y.T.T.U.[ L._ k.",
"p.p.:.| X.o.#.o.X.o...X.#.#.%.r.w.a.*X*X*XuX*X..#.uXVXhX9 o.z.BXVXz.8 hXbXnXnXbXlXbXbXbXnXiXbXsXeXE.G.T.T.T.E.E.Y.Y.T.T.[ L.P.B ",
"p.:.;.5 #.X.#.o.......O.#.&.#.w.a.x.x.x.x.O.O.O...! BXzX9 9 cXBXNXzXi pXlXkXmXlXnXmXnXbXCXA CXCXnXpXE.E.R.R.T.Y.P.P.T.T.R.[ [ L.",
":.;.-.| o.o.o.....| ..#.#.w.w.w.w.w.a.#.O.O.O.O...i VXhX9 i hXNXNXzXhXpXpXpXpXpXbXmXmXbXnX= A A F mXbXE.E.T.T.R.I.P.[ T.R.[ [ [ ",
":.<.5 ..$.o.o...| ..O.O.#.q.q.w.w.q.O.O.O.O.#...h 9 VXuXi i hXNXhXhXiXA A A l Z xXmXnXbXbX1 C C F F F ,XE.E.T.T.R.U.[ P.T.T.[ P.",
";.2.7 O.o.o.o.| | ..O.O.%.q.q.%.O.| &.O.&.O.O.....h hXNX*Xi hXNXzXNXeXG.F F l 1 bXnXbXnXbX1 V V S S ) F >XE.T.T.R.U.[ [ [ R.[ [ ",
"<.-.h #.o.O...| ....O.#.q.q.q.X.X.#.O.o.O...O...X.h z.NXtXtXaXuXaXaXtXA A A l = bXbXbXnXbXm C C C S A S S E.E.T.T.T.[ [ [ [ [ [ ",
"2.g ..$.#.........| O.q.q.h 9 h O.X.X.X.......X.h 9 8 &XuXz.0.s.a.s.s.pXpXpXpXlXpXbXbXbX1 B B C S A S S A A E.T.T.T.T.U.[ [ [ U.",
"4.5 X.#.#.o...| | | w.q.9 9 9 h h 9 9 g 9 h 7 9 9 9 w.w.w.w.a.x.F.8X8XeXpXpXpXsXsXsXbXCX= B B B C C Z Z S S l R.U.R.T.T.[ [ U.[ ",
"4.g #.#.#.o.| | | q.q.o.4 9 9 4 4 4 8 8 4 9 9 #.w.w.w.w.a.*X*XhXBXVXNXsX<X:X>XJ.H.R.eXl = m B l B l l Z Z Z Z L.U.U.T.T.T.[ [ [ ",
"4.7 $.%.#.o...| ..q.9.3 4 4 4 3 3 4 4 8 8 $.w.w.q.&.&.w.F.BXVXVXSXVXNXpXpXiX<XeX,X>XH.G.H.b l 1 B B B V V Z L Z Y.U.[ T.T.[ [ [ ",
"4.h $.%.#.O.| | q.0.3 3 3 3 3 3 3 8 8 g w.&.#.#.#.F.zX*X*XV.T k j k y = = = l C ] ,X>XJ.G.G.G.G.F B V Z V Z C S D T.] [ T.[ U.[ ",
"6.$.%.%.q.| | ..w.i o o o o o o 3 0 %.&.O.O.#.q.w.9.i i $ $ # $ + $ $ V l = = = B 1 B B F G.G.G.G.G.A V Z Z S L Z Y.[ P.R.[ [ U.",
"6.k %.%.#...| q.9.X X X X o X o 6 %.O.O...$.$.i - X $ @ + + $ - u , , b = = = = 1 1 1 1 V B A A J.G.H.T.V Z C Z S S P.[ [ [ [ [ ",
"6.$.%.0.%...O.w.% . X X X X X g O.O.O.+.r % $ +   + - d j j j j j d 2 z L ~ ~ ~ ~ J 1 B B V B V l A H.J.J.C C Z S C ] P.L.I.[ [ ",
"W.$.0.0.#...#.e.. X . . X $.$.O.O.O.h % $ $ + @ @ + + $ p K I j j z s z / ^ ^ ( , < < < < < 1 1 Z B B A J.J.C C S S Z L.U.I.[ I.",
"W.k r.0.#.O.q.X X   . X X.O. .O. .r X . . 2 . + + @ + + # N K P z j y s u.u.u.J < < > < < < < < 2 m S B C J.K.B Z Z V [ P.[ L.[ ",
"6.$.%.:.%.#.0.. . .   k O.X...X.o     J P . + @ + + + - $ - K P c j z z u.u.f.< < _ S.).S.)._.B.2 m Z M.L V J.K.Z Z Z S ] L.I.B ",
"6.$.q.0.q.w.i X     o O.O.h h X   - d d p @ + : I U U J @ $ , P c j d f y.g.g.; Z.B.C.~ } C._._.S.D.Z v.b.' B J.J.Z Z V F P.P.m ",
"6.k %.%.q.w..     & &.%.k   & . K j d q . + K c c Y E / ^ $ $ x c j j K g.b.R S.S.aXDXDXDXDXAXAXm.S.(.~ g.{ _ l K.F V V ) ] P.B ",
"4.=.r.r.0.a.      $.i.%.X $ X x P d t u + J x z K z I I W R $ P P j c f B.n.p S.NXAXSXDXDXDXDXFXDX} ).f.B.` m.) C K.l Z F P.P.m ",
"4.6.k :.%.V.    X s.a.  ; c U I P d p q - j N f s s N J P K u N j j U K B.B.B.} ;X=X=X-XMXFXDXDXDX4X).).).B.m.R B H.H.Z ] P.B  X",
"4.W.k =.q.*X    ( *XN - : I I I x d a p d s p N aXaXaXyXN N I P U P I P B.B.Z.#X=X=X=X=X=XDXFXFXFXAXB.).).).).W L V J.V F B m  X",
"4.4.=.n.a.*X    uXuX% u : W R c z d f f f 2 < tXtXaXaXaXyXN K ! P T T I Z.B.C.=X=XG b ;X;XZXDXDXFXDX_.S.).[.[.R R V G.F V m  X X",
"2.6.6.M.*XV.. . NX: u u q W Y E R x z z s , tXtXtXtXMXOX,XtXN I Y T R ! B.B.#X=XH * * - =XMXCXAXFXFX).).).[.[.U R ~ l J.Z .X X.X",
"2.4.6.k uXuX. } 7Xi r i w E E E Y Y R R s J aXtXtX,XOXOXOX+XtXR W W ^ W B.B.;X=X> - @ # G <XAXAXFXFXS.).).[.).Y R C.l R.C .X.X.X",
"2.5.6.8.V.aX. NXi r r j e u.u.g./ / E E z tXNXhXaXOXOXOXOXOXOXI ( ( ( ^ B.B.=X#X> NXtX- +X<XAXAXFXFX_.'.[.8X[.g.g._.L C ) rXwX.X",
"3.5.6.jX5XyX. BXy r y c e u.u.g.g.u.` / I xXVXVX,X@XoX@ @ * OX] ` ` ` ( B.B.=Xb b AXaX# @X<XAXAXFXFX).[.8X].[.F.m.m.~ L gXgXgXgX",
"3.3.[.6X1XQ . ' r g y Y e E E n.g.g.` g.` kXCXVX@X@X+X# * & G OX( ` ` ` m.B.=X* b VX:X& =X<XDXDXDXBXS.).[.[.9Xy.g.b.u.0XrXgXgXgX",
"3.1.N.5X1XS.k y r y y v e u.f.1XB.B.m.m.` dXCXCX@X@XoXD ZX> & H ( ( ` ` f.B.=X& m ] & * =XZXDXDXDXC.S.).[.[.rX/ f.f.u.0X0Xg.gXgX",
"2.8.d.` kX).[.e y e y E e _._.wX_.).).C.b.1XVXCX@X@XOXb AXb @ OX~ ~ ~ ^ { ' +X* < & & b =XAXFXDXAXm.).).[.0XgXn.e.g.u.].N./ u.gX",
"3.8.m.z 6 ` ).e e e j c e '._.yX(._._.(.M.{ NXVX+X@X@X& & :X@ H { ` ` ~ ~ CXCXBXyX> & +X=XDXDXFX&XC.A.).8XrXgXrXu.u.e.0Xu.e.Q gX",
"2.,.b.c 0 O !.e e e y y e 6X5XCXM._._.1XC.{ NXCXMX@X@X& + # & b } } C.1X} cXcXBXAXAXdXH #XCXAXAXm.M.A.[.rXgXfXR T E Q [.Q Q u.gX",
"3.5.b.Y y O z e e e e e z hXhXm.)._._.1X(.m.uXVXCX@X@Xb - > aXNXsXhXdX7X4XjXxXxXcXBXAXBX7XtX` ' v.M.[.rXfXcXfXI T e.Q y.Q Q / gX",
"3.5.b./ c O o e e e e k c.f.` c.m._.(.(.1X(._ CXVX+X+X$XNXNXNXNXNXNXpX7X7XkXhXkXjXjXkXcXfX6X` ` f.Z.0XfXcXAX! I Y T e.T Q Q Q gX",
"3.5.d.g.c O O e e j c e '.M.M.m.z M.(.2X1X(.{ kXNXZXaXCXzXNXVXVXNXhXhXyX7XjXjXkXjXkXjXkXfX9X_._.c.8XqXgXBXfXK I I Y Y g.e.Y / gX",
"4.4.d.m.c O X e e k y e 1X_.2XD.; m._.4X7X1XC.~ NX7XNXaXhXNXNXVXCXNXdX7X7XdXdXdXfXjXjXxXdX0X9X0Xc.8XrXkXgX! I I K I u.0XT T Q gX",
"4.4.d.c.c O o O e c y b.1X6X4XqX; ; (.6XyXaXaX' kXdXaXyXuXdXhXhXNXhXhXwX7XwXwXwXwXdXdXkXkXrX0X0XA.[.qXwXI I U I K P B.0XY Y / gX",
"3.4.1.g.W 0 O O e e e B._.yXyXU.; ; O _.7XyXpXyXyXyX7X7X6XuXdXyXyXyXwX4X1XwX9XwXdXcXuXkXkXrX9X0XgX8X( P P I T I K K S.F.T U y.gX",
"3.4.4.f.^ 0 O X 0 e m.B.2XyX7X~ 6 0 ; ; ~ 7X7Xd wX6X8X`.1X5X5X5X5X2X1XD.C.9X6X6XwXwX7XwXdXfX0XrXcXx N P I T ^ U ! K N.Q U Y gXgX",
"2.3.2.,.g.z O O yX(.B.m._.7X7XR ; w 0 0 ; q q w wX).)._.'.3X1X1X1XD.`.A.M.5X5X5X5X6X6X9XwX9X9X0X0Xj P P U Q e.U K J N.Y Y u.gXgX",
"2.3.2.2.u.E e 6 &X_.A.N._.7X4XC.0 0 d t w a t y 9X'.).A._.D.A.D.D.D.A.M.M.3X3X2X2X1X3X5X6X9X[.8X0Xd x I ( n.T U P J M.f.Q c.gX.X",
"<.2.2.2.>.^ c y P 6XN.M.N.3X4X1X0 ; t c c ~ ! c ^ '.).N.N.N.b.C.A.C.N.M.V.2X2X2X1X(.C.&X1X`.).).9XJ W &XwXM.U U P K B.S.n.B.).}.",
"<.2.<.4.W.,.g.` v pXM.v.m.D.`.2Xw ; q w U D.7X7X4X).M.g.b.N.N.f.c.c.b.v.v.S.C.V.M.C.D.D.C.M.S.B.9X' 4XhXBXU U P K N S.[.B.F..X.X",
"2.4.4.1.4.4.d.d.E (.f.g.f.N.N._.N.q % w y d { hXkXm.n.g.f.g.g.g.f.f.c.f.f.M.M.M.v.v.v.v.( f.).[.` } jX6XU Y I K J f ].].XX}..X.X",
"4.6.4.4.4.4.W.,.d.,.m.Y ` c.c.N.A.^ q ; w w a a y j d g.u.f.f.u.u./ / u.f.b.M.v.v.{ v.( f.N.5X5Xf U U I U P P K J K }.}..X.X.X.X",
"2.2.6.2.4.4.4.4.W.6.Q.z c f./ b.m.B.c : q q t w w y t w ` f.u.E E Q / / f.v.v.c.c.c.v.c.)._.s a s P P P K P z J z v  XXX}..X.X.X",
"<.1.1.1.2.2.2.4.6.W.W.d.c c v ` g.m.m.W q : q t w y w w w f u.u.g./ E / u.y.y.f.{ M.).8X! 2 p a f f N j z J z f K ^. X X.X.X|..X",
"<.<.<.1.<.-.>.6.W.Q.Q.Q.c j x Y ` m.B.m._ ; ; 6 t w w q q a u p w z W ^ W W y.v.Z.D.J p , 2 s s d f d K J z z z }.}. X X|.|.XX X",
"<.<.<.>.;.-.>.6.Q././.Q.,.c c c v ` m.B.b.y ; ; ; ; ; q q q q t q t a p p a f u q : : , p s f f K N f s 2 s z d.}.XX X|.|.|.|.7.",
"6.2.<.-.;.<.>.6./.[././.Q.v ,.z c E c.B.B.b.P : ; ; ; 2 : : p q a a a a a w w : : : u p s s s s f s s s s s n./..X X|.|.|.|.k.p.",
"W.<.<.-.*.-.>.>.!.Q./.Q.Q.Q.Q.v c c E ` N.D.N.m.R q p } yX: : u q a a a a p wXu u , u a s p 2 p a a s a b.b.g.}.{.|.|.~.k.k.k.p.",
"<.<.;.-.-.-.v >.6.6.Q.8.Q.Q.Q.Q.v c c E ` A.D.).`.7XyXdXdXyX: : : t a a a a Z.&Xn.w p p a s s s N R b.b.n.n.l.}.{.|.|.{.{.k.k.p.",
">.-.*.*.*.*.>.>.>.>.,.Q.Q.Q.Q.Q.W.v v c R g.N.D._.1X5X5X7XyX1X: , , , : u a f.f.( W T Q uXdXuXuXwXZ.n.b.b.g.}.{.|.~.{.{.k.k.l.d.",
"*.*.*.*.*.-.-.>.>.>.8.6.8.W.8.W.W.W.,.E v ~ f.M.D.D.'.'.2XyXjXv.g.M.s a &XuXY R E T f.N.jXdXwXuX9X3XS.N.S.^.{.{.]./.~.k.k.j.h.t.",
"*.*.+.7 7 =.>.>.>.6.5.Q.W.W.W.W.W.W.^.Q.E E ^ ( v.M.A.&X2XuXhXBXb.b.b.n.&XjXE Q f.n.n.dXjXwX5X9X2X1X5X9X^.{.{.].vX|././.j.h.t.t.",
"*.7 7 *.-.-.-.>.>.>.6.6.W.W.W.W.W.Q.d.g._ J E Q ( ` v.N.D.6XuXdXuXb.g.c.g.g.N.M.Z.n.n.zXuX6X8X'.Z.S.).Q.{.~.~.].].].~.h.j.p.t.t.",
"*. .v +.*.-.<.1.>.6.4.6.6.6.W./.$X#X#XoXG b b / ^ W W / c.V.3X8X8X8Xc.y.u.c 8XD.A.n.n.uXwXD.N.V.N.B.}.{.{.Q.k.~./.~.j.,.d.t.t.t.",
"*.*.*.*.-.;.2.1.1.4.5.7.l.n.s.M.aX%X#X#XM n n n * u.T Q T ^ z.B.S.8X8X8XS.b.D.D.M.n.8X6X'.B.n.N.B.}.}.^.Q.{.8.k.j.j.7.7.7.t.=.t.",
"*.-.*.-.;.1.1.5.6.1.:.=.@.o.@.% <X%X%XoXoXM n n n n > ! u.Q u.y.n.Z.S.S.*X'.C.M.Z.5X1XS.B.b.b.N.^.Q.^.^.~.~.k.k.8.h.7.d.t.7.t.t.",
"*.;.;.;.<.1.4.6.+.@.@.@.@.7 7 & %X%X%X#XoXM n n n n n n b X f.e.^ y.z.b.n.v.uXzXuX5XS.Z.N.g._._.}.Q.}.^.~.~.k.j.h.h.h.t.t.h.p.t.",
"-.;.;.<.2.2.5.X. . .$.%.@.O 3 @ %X%X%X#XoXM n n n n n n @ + + { y.y.y.y.( y.C.dX6X1XD.n.n.S.M.m./.^.}.Q.~.~.k.k.j.j.8.h.7.j.j.t."
};
