/* XPM */
static char *b8caa110fce44d0e8724a9ccd3d33fc0JnZhOrpGR20Lc0xV[] = {
/* columns rows colors chars-per-pixel */
"64 64 132 2 ",
"   c #120307",
".  c #160409",
"X  c #1B050B",
"o  c #23060C",
"O  c #2B070E",
"+  c #26080E",
"@  c #2C080E",
"#  c #32070E",
"$  c #3B070E",
"%  c #33090F",
"&  c #3A090F",
"*  c #2D0711",
"=  c #260910",
"-  c #2D0910",
";  c #350710",
":  c #3A0710",
">  c #340911",
",  c #3C0A12",
"<  c #3B1017",
"1  c #3B1018",
"2  c #41090F",
"3  c #430B13",
"4  c #4B0C15",
"5  c #450E18",
"6  c #4C0F18",
"7  c #530C16",
"8  c #5A0C17",
"9  c #540E19",
"0  c #5B0F1A",
"q  c #5F0D18",
"w  c #5C0E19",
"e  c #5F0E1A",
"r  c #451016",
"t  c #4B1017",
"y  c #411118",
"u  c #461119",
"i  c #48101A",
"p  c #4C111A",
"a  c #4E111A",
"s  c #4D121A",
"d  c #501017",
"f  c #531019",
"g  c #50101A",
"h  c #52111A",
"j  c #53111A",
"k  c #54101A",
"l  c #54111A",
"z  c #54111B",
"x  c #56121C",
"c  c #57131D",
"v  c #5B111A",
"b  c #5C101A",
"n  c #5B121E",
"m  c #5D101D",
"M  c #5C121C",
"N  c #5F121C",
"B  c #5F131F",
"V  c #5A141E",
"C  c #5B151F",
"Z  c #610D18",
"A  c #630C18",
"S  c #630D18",
"D  c #610F1B",
"F  c #630E1A",
"G  c #640E1A",
"H  c #6B0F1C",
"J  c #60101A",
"K  c #60121C",
"L  c #63121D",
"P  c #60131E",
"I  c #65111C",
"U  c #67121C",
"Y  c #65131E",
"T  c #63161F",
"R  c #69111D",
"E  c #6B101C",
"W  c #6B121E",
"Q  c #73111F",
"!  c #79101F",
"~  c #5F1521",
"^  c #5D1621",
"/  c #5C1922",
"(  c #621521",
")  c #631621",
"_  c #671520",
"`  c #651722",
"'  c #6A1521",
"]  c #6B1521",
"[  c #6A1723",
"{  c #6C1723",
"}  c #671925",
"|  c #651A24",
" . c #6A1824",
".. c #6A1B27",
"X. c #6D1825",
"o. c #6C1925",
"O. c #6F1C28",
"+. c #741522",
"@. c #7B1423",
"#. c #701823",
"$. c #731A25",
"%. c #731A26",
"&. c #741B27",
"*. c #761A26",
"=. c #7A1927",
"-. c #761B28",
";. c #701C28",
":. c #751D29",
">. c #7B1C29",
",. c #7C1C29",
"<. c #7D212D",
"1. c #7F2430",
"2. c #841323",
"3. c #891626",
"4. c #801927",
"5. c #811B28",
"6. c #831D2C",
"7. c #8B1E2E",
"8. c #911627",
"9. c #931D2E",
"0. c #961F31",
"q. c #85202E",
"w. c #822331",
"e. c #8A2332",
"r. c #942333",
"t. c #9B2435",
"y. c #942937",
"u. c #9E2738",
"i. c #A22637",
"p. c #A32C3C",
"a. c #AB2A3E",
"s. c #AD3545",
/* pixels */
". . . . . X . X X . . . . . . . . . . . . . . . . . . . . . . . . . . . . . . X . . . . . X . . . . . X . X X X . . . . X . . . ",
"@ @ @ % O o o o X X o . . X . X . X X . X . . X X . X X X X X . X o o o o X . . . . . . X X o + * * * * + O + O @ % O + @ @ @ @ ",
"9 b b f 9 6 3 5 ; X o X X X * : 5 , , 3 1 , 1 5 5 5 5 5 3 3 6 n N X.:.%.| c > . . X X o 1 4 8 0 e e 0 0 6 4 Z U Y J N f f 7 f v ",
"Y Y N K ~ 9 9 N 9 , * X X O 3 X.{ G A H A e G q.,.K 3 4 0 e e ( ~ 9 5 6 9 ( > . . X X , b 8 9 ~ |  .;.$.$.#.4.Y Y $.&.X.f 9 K K ",
", 3 , : , , 3 4 7 3 O . X > x 9 4 2 $ 3 4 2 $ x ] %.0 e Y 9 e 6 9 9 6 ^ ^ ^ : . . X X p ( 6 3 y 1 > 3 7 4 4 7 8 8 8 8 7 3 2 2 2 ",
"& : , , , 3 4 8 8 4 # . o > ` 0 4 3 $ $ % $ 3 8 A A A H A 6 3 6 e e ^ ^ | ^ 1 . . X - | $.9 , & @ O O 3 7 7 8 7 7 8 7 7 7 3 , : ",
": : : , 4 8 e 8 4 , #   X ,  .0 $ & 3 4 $ & 3 v 8 e 8 8 v 9 6 6 5 9 7 ( ( ^ 1 . . X - ` X.x 4 8 0 8 4 4 4 4 4 7 7 7 7 7 4 8 7 ; ",
"> > > : , 4 8 8 x 1 o . X , ` 7 3 2 3 7 3 , , : 4 4 7 4 3 6 f 5 5 3 7 6 X.| , . . X o ~ <.` e @.2.H 7 7 7 7 7 4 7 3 4 7 4 3 3 : ",
"@ > - - @ & 2 3 | p # . X & 4 3 7 3 3 7 3 , : 3 3 , 3 , , 3 , > 3 3 6 , ` r @ . . X o p %.Z A H Z 8 3 3 7 3 4 2 2 2 3 3 3 & & % ",
"@ - - - - @ & & ~ 1 O . X O 4 6 6 3 3 d 3 3 > > > % % > > > , 3 3 6 ; , C t @ . . X o > 0 Z 0 7 8 7 7 7 7 8 Z 4 3 2 2 $ 2 & @ + ",
"> ; : , > - + # , > @ . . % 4 3 3 , , t 4 , % @ @ @ - @ > > > - * * * 1 C t - X . X X @ 4 0 8 8 ! ! q 7 q Z Z Z 7 4 2 $ % @ @ @ ",
"% @ @ O O O O @ # : @ . . @ > , , 3 , , 3 4 3 , > - @ @ - - - > - > , 5 p s o X . X X o 3 x 0 9 7 7 7 U E U Y A 4 4 7 2 3 , , 3 ",
", , & O @ O # % : @ o . o @ % > & : , , t r , 3 , - @ > > , y > > , 5 x 3 , - X . X X X - 1 > > & & & t v v v v J b t , & , , , ",
"# > O o + + @ @ o X . . X @ % > # O - @ @ @ > O @ - > > , p c ~ | c x 6 > o o X . . X X o - - > # # % % # % & 3 & % @ @ & % & & ",
"X o o X X o X X X . . . X > : > O O o o o o @ & % , , , , 3 y 3 3 , : > # o o X . . . . X X X o o o o X X o o o + X X + o o o o ",
"X       . . .   . . . . . . X X o o o o o o o o X . . X X X X X o o o X X X X . . . . X . . . . . . .   . . . . . . . . . . . . ",
"    . . . . .     .   .   .   . . . . . . . . . . .   .   . . . . . . . . . . . . . . . . . . .       . .             .   .     ",
"O & & $ $ # @ o . . . . . . . . . . . . . . . . . . . . . . . . . . . . . . . . . . . . . . . . . . . . . . . X . X . X . . . X ",
"3 7 4 3 4 7 7 4 , 3 , 3 3 3 , 3 1 , 1 1 - = o o = = = o . . . . o . o @ @ @ o O o @ @ @ @ @ @ @ @ o = o o X X X X X o o X . X - ",
"7 e b K 8 ` $.=.<.6.e.e.q.:.,.e.e.e.1.| s 1 - 1 u u p > o . . . o @ 3 * 3 4 7 7 7 7 7 7 8 7 7 9 9 7 7 x 7 3 , $ 5 > o o X . X , ",
"4 8 7 7 e =.t.e.q.W T T f b K b 0 3 , % < , > > , 3 , % O X . . ; , % , 8 e A E +.+.@.,.,.,.=.#.%.6.q.7.,.X.] #.Y 8 r @ o . o - ",
"7 Y $ % $ 6 K W e E W 8 3 2 2 2 # & 3 $ > > @ , , & % # O o . X ; O & 4 8 0 e  .H ,.6.6.6.,.6.e.y.y.y.e. .N N :.J A 3 # o X o % ",
"A W $ % $ 4 +.6.@.3.2.Q 3 & 3 3 2 3 $ , > - @ @ $ # # O o . . . @ O # > , 3 3 4 4 7 0 A 2.2.2.2.7.9.X.E 0 7 ` =.A 7 r @ o . o % ",
"e K 4 3 3 9 @.q.Q E A A A 4 2 3 $ 4 3 3 > > > $ , $ # O o X . . X X O o o O > : , 3 7 e A Z A H i.9.Z v 0 b ~ 4 4 4 y - X X . + ",
"b 7 2 3 3 4 e @.! ! A H Z 7 $ $ 7 4 2 2 , : > : , > % @ o X X . o O O o @ O @ > : ; $ 7 7 8 8 Q 9.t.H G A X.e 8 8 2 , @ X . . o ",
"t 4 & $ 2 3 4 7 Q H H A 8 4 $ , 2 3 2 3 : ; > ; , , : @ o o . . o o O o o o - > 5 5 , 3 3 3 3 8 ` X.8 4 4 N 0 8 7 2 , @ o X . > ",
"3 : % & 3 , 3 4 J E H 8 8 8 0 4 3 , $ % * * = * > : > O + X . . . o @ - o = - > > > ; , 3 $ > 9 X.e 9 n 4 3 4 4 , & & o X X X < ",
"& & @ > > : $ , 3 4 3 4 3 4 $ , & $ > @ X = = * > > - @ = X X . . o > , * o o * * * > > # O O 3 6 6 6 3 , > # 3 3 , & @ o . X + ",
"o o O @ - - > : $ 3 f c 6 3 5 6 t > - - > > > > , , * X X o X . X o = * > - > 1 > 1 , > > 5 4 5 4 5 > > * O * , , , , @ o   X o ",
"o X X @ > , 5 p N Y ( ( N n n 9 p f 5 5 5 > , , > , - X o X . . . = - > , , > > > 3 9 5 5 9 0 5 , > + - o o @ @ @ > > @ X X X o ",
"X X . O > > , 1 3 , , > - o - 1 3 5 - - o = o = - - = o X X . . X X = 1 > 1 > - = = = * > > > > * * = = o o o o o @ - = o X X X ",
"o X o X X = o X X o = X X X X X X X X X X X X X o = = o = X X . X . X X X o o X X X X X = X X X o o = o = o - = o o o X . X X o ",
". . . X X . X X   X X   . . . . . . . . . . . . . . . . . . . . . . . . . . . . .   . . . . X . . . X . . . . X . X X X . . X X ",
"o o X . X X . X o + o X .   . . . . . . . . . . . . . . X . X . . . . . . . . . . . . . . X X X X o o + @ o o . X . . X X X X X ",
"+ + + + @ @ + + @ % y + X . . . o - > 3 K ~ 3 5 p p r 3 > - - = * , , > % @ % % o . . X X o + % 3 t f x b p > @ @ > > @ @ @ + @ ",
"& < < , + o + O % & f @ X . . X - : 3 0 ,.<.X.^ c n C t < < 3 > 5 p p i 3 p t , @ o . . X @ u v x b t t 6 5 , & , 3 y , 1 1 > @ ",
"% @ & > @ o o o @ 4 8 % X X . X @ 3 p x ~ 0 ~ 4 f E E b 4 & @ @ X - > @ , u x , @ o . . X + 3 f b 4 3 @ @ @ O O & , , , , + @ @ ",
"y 9 9 4 6 , & # % 6 8 @ o .   X o 1 3 3 4 0 8 0 A 2.H 0 6 , % > - u s r , c C u @ o . . o % d C Y 0 , # O # # & & % % & $ > % & ",
"e H H H 4 & , , & Y 9 O o . . . X , 4 4 A E @.2.0.8.@.4 3 , @ @ > % & , i v ( y @ + . . X % Y W 7 3 # # 4 4 6 4 , & 2 3 3 3 3 7 ",
"8 8 A 8 4 r s 4 3 K d + o . . . @ 3 4 Z A Z @.] ] #.e , : , : : > , % & % , x , @ @ X . X @ f { v 3 $ , ~ b 4 3 3 3 3 3 2 3 t Z ",
"A E H K n ; * 6 T E t o X X . X % 3 7 Z A $.%.4 4 3 : , , ; - @ $ : > @ @ , v < O O X X o + y v %.E 5 , 3 3 , : , , $ ; : 3 4 9 ",
"#.=.#.H , * - 6 ;.J 3 o X X . . > y $ 7 4 K +.6 # @ @ o * * * > , > - = > y p , + + X X X O & n :.0 | / , > : > > $ , , 3 , : 0 ",
"] 6.] 4 , , 3 ^ n f y X o . . X - y % 2 3 x w.( 3 @ O O O ; ; : > > - > > , C > o @ o X o + , ( r.%.| ~ 3 > : 9 7 9 4 4 4 , 4 7 ",
"H -.` A +.` K ( T  .n + o X . . + 1 3 p 4 b K Y Y 9 7 0 9 3 , , > > > , , r T , O o o X X + , T r.@.J 7 p 4 4 e Y Y E E v 9 A H ",
"q.6.@.] { Z e e J N t % o . . . o , 3 0 4 , 3 3 p f ] #.{ C u u 3 , y f t 4 K 3 # + . X X + & f  .Y E 0 A #.2.,.,.,.5.$.~ X.5.,.",
"3 4 3 , ; > O * @ # @ @ o o . . X @ : > @ @ @ @ - - , 3 , - - o % , y p t r d , O o X   . X o , ( O.~ N %.:.&.N 9 7 7 2 3 4 6 4 ",
"@ @ o o o X X X X o X o X X . . X X - o o o o X X o X X X o o X o @ @ @ @ @ % @ o X X X . X + @ % > > @ > % % # @ @ # @ @ @ - @ ",
". . X . X . X X X X X . . X . . . X . . . . . . X . X . X X X X X X X o o o X o X X X X X . X . X X X X X . . X . X . X X X X . ",
". . . . . . . . . .       . .   . . . . . X . . . . . X X X X X . . . . X X X . . . . . .   .   . .   .   . . . . . X . . . . . ",
"- @ X X o X X o o o o o X o X o X X X X X X X . X X X X o X X X . . . . . . . X X X . X X o @ @ @ o o o o X . X . X o . . X o O ",
", , , 3 4 7 9 7 6 9 9 d 9 N A N N 4 3 3 , > - - > > - o o X X . X o X + o o + + @ > , , 3 f 0 e b b b b 7 4 3 3 2 $ # o X o & & ",
"& : 3 d x N E :.<.%. .%.=.$. .f 4 3 3 y 3 y u 4 4 , , = X X X X + & f p r t t t p r r 3 x C x x 4 t 3 b 0 9 9 Z H 4 O o X o % : ",
"% % & > > > 3 / p t f T ~ 3 : : & @ % % % & 3 3 3 3 : - X X X . O # r t r t v b 4 4 t x x f p 3 t p 3 3 , r 4 n 9 t < O . X O % ",
", 3 3 & : 3 2 $ $ t <.e 3 : , , 2 3 2 3 , 3 : $ 3 > : @ o X X . . @ O @ % 2 4 2 $ 4 7 I G A b 4 3 p 4 4 4 6 4 3 9 | r @ . . o % ",
"7 7 4 2 3 3 2 2 4 b 8 4 , $ 3 & 2 3 3 3 , : , , 0 7 3 O o X X . . o O # & 2 2 2 2 2 3 7 e Y J 6 6 7 6 2 4 3 4 4 E q.p o   X X % ",
"9 8 8 7 7 8 7 3 7 7 Z 8 U E 4 3 3 3 2 , # # $ 3 4 3 3 # X o X . . o @ % 3 2 2 4 v 8 4 4 7 9 9 ` e t 4 7 7 0 Z Z %.<.t o . . o & ",
"4 e 8 7 7 e H Q U E W +.Q A 4 , : > , # @ & 4 4 0 0 7 & o X X . X o o % & & , 7 8 A x 4 7 [ { K Y K Q ! A A A ` T | 3 + . X X > ",
"& 4 4 4 7 E Q H H @.@.@.H 8 3 # % $ 3 $ 3 , 3 8 ,.@.7 @ X o . . X + O @ - - : 9 A 2.! H 7 7 0 0 E t.t.Q J e 3 ( x p > X . X X @ ",
"3 4 7 8 8 A I @.@.3.8.3.Z Z 8 4 4 4 4 0 e e 7 9 b { 6 O o X . X + % % % : 3 7 8 8 Q e 8 7 8 A E #.p.p.,.G 9 ` 6.Q 9 # X . . X @ ",
"4 8 8 e 9 v e.i.t.2.#.J J J 8 9 7 H @.Q #.Q H ] e 8 9 , @ X . X O % 2 v e #.@.$.=.$. .| ` ,.6.,.e.s.s.q.,.6.e.6.6.%.p o . . X > ",
"3 4 4 4 , f ( | x x C K ` n f x 7 7 8 7 4 7 8 3 , 3 $ , @ . . . @ > 6 A 0 6.u.w.<.q...:.<.w.t.s.a.0.@.K E E C x f y = X . X X - ",
"o % o o o o o o O o + + o o @ o o O o o o X o X o o o o o X . . @ & & , & : , : % , $ , , : : , $ 3 , $ O , % @ @ X X . . . X o ",
"X X X X X X X o . X X X X X X X X X X X . X X X X X X X . . . X o @ @ @ @ @ o @ o o o o o X o X X o X X X o o o X X X X . . . X ",
". . . . . . . . . . . . . . . . . . . . .     .       X . . . . . . o X X X X . X X X . X . . . . . . . . . . . . . X . . . . . "
};
