/* XPM */
static char *a0089bf790c047f19f4d767323497f27cJV3rz4r6Aliqqjj[] = {
/* columns rows colors chars-per-pixel */
"64 64 47 1 ",
"  c #170000",
". c #190000",
"X c #1C0000",
"o c #230000",
"O c #270000",
"+ c #290000",
"@ c #2C0000",
"# c #330000",
"$ c #340000",
"% c #3A0000",
"& c #3D0000",
"* c #420000",
"= c #440000",
"- c #4B0000",
"; c #4C0000",
": c #530000",
"> c #560000",
", c #5A0000",
"< c #5C0000",
"1 c #620000",
"2 c #660000",
"3 c #6B0000",
"4 c #6C0000",
"5 c #700000",
"6 c #760000",
"7 c #780000",
"8 c #7E0000",
"9 c #820000",
"0 c #860000",
"q c #8B0000",
"w c #8D0000",
"e c #920000",
"r c #970000",
"t c #990000",
"y c #9E0000",
"u c #A30000",
"i c #A50000",
"p c #AB0000",
"a c #AF0000",
"s c #B30000",
"d c #B60000",
"f c #B80000",
"g c #BE0000",
"h c #C30000",
"j c #C50000",
"k c #C90000",
"l c #CC0000",
/* pixels */
"irusu91-##%#&10asetyq995>$#O+*30,24706=@oO$-;;;;-=*%#++OO+O+$&-4",
"apdy6>-#+$$%-7ufytttrw81=$+o#-5e9q9q0<$Oo@*===*&%$#@+++#==$%;:,8",
"fsy5:-$+#%%&<rfpttytr02>*#Oo%>8teere6=@OO$&&&%$##@+#&==;<***;220",
"ft4:-%@@#&&-7afytttw83>;&$Oo&<0yetr6*@oo+%%$#+#%-==,>=;2>&=*:67w",
"t3:=%@@#&&=1rgsyuiw61,:*&%Oo&3que02&@Ooo++@+%=352<43,:271=-%>968",
"3:=%@@$%&*:9pfapiq4<::;*;%oo-5wy6<$OOOOO@$*,6qw71873<189,==%<w54",
"-*$@#$$%&=2tsgdy92>;;:=*=@..:8wr1;#oo+@%-17erur48q5,17e6==*%3e<>",
"&$@#$$#$&>8iiuw4:---=&&#$O X>7w9,:@XO$=18ettyu99w7>>6qe2=*$%15=&",
"+o+%#+$%-29w72;=**&$$$$##X o>8w7:*OO&17qerrryrqe6;:59rw<-&@@*&##",
"Xo$*@O@#&*;-%$#@@+O+$*$$+X.#;793-@O-5qww09qyuew7;-39euq,*#O+@#Oo",
"o@%=*+oooOO+oooXoO#%=&##OXX$;671&O@<709089riyq6=%>9tue5:%+OO+OXX",
"@&-,>&o...XXo+@@#$$%%@++OXO$:63>$o%<66778eair6;%&2we082-$+oXoo.O",
"&=2083-@oOOOO+@$&*&&#@+OXX+*<5<;+o&,3678wppe6:*%=<<>>:=%@oo. .o+",
"*:7erw04,;%@@@@#$&*##%%OXX@=31;%o+&><57qpar6:&%%%$#$%#@@+o. .O@&",
">49tyiit95<:---*&$#O@=$OXo&:2=#+O+%;,30upr7:&&&$+OOO+OOOoooo+#*=",
"470paddsssirq952<-$$$$+Xo@:<;+oO++$->3tir7:&$%$+oX.oO+@##@@#%-;>",
"78qttttttuiuyyrq75>&%+ooo#;>&+o#$@#*>4ee5:$@+@@+oO@%%$%**%$%-:>4",
"79eeqqqetupurre645,&#oXoo#;-@XX#$@@&<565:@OXO+##$;<>*%&-*##*->47",
"89qetiaaaiyrre0212:%+oXo+*=+oXO@+O+&21:=@o.X+&=:,31:*%&&$@&==278",
"rypaspur055863332>*#OXo+#@OoO+@#XXo#=&&+X.O&,14861;*&&&#@%-=<60e",
"wwe051<,<<<111<>=%$+oX++oXo@%*,<+.XO+@@oo#,80962:=*&*%@+#&&-,3qr",
"<24333322<;=&%%$#@@o.XoXXO%--,89%OXoOOO+:0tr72:***&$+Ooo+@@$$&:,",
"48841>-*&&$@++++++OX. XO$:23,5ww,$oXO@=7uy01:=&&&$#+OoXo@@#@$*-<",
":>;=**%$#+OoOO++@@OX.O$;6w074wuw3=+o#,eyr3:==&*%#OO+oXO#&*=====;",
"$##@@@@++OO+#%&%$OXO@;6eiy066ryw4,#o$3e7,-==*&$OXo+OX.O#$@#%%%%%",
"OOoO+@$%%*;<1:&$+oo+*8iapw750ryw42=+@;3,-*-=%#oXoXoX.XooOooooooO",
"++#%&;;:,355,*$@oXo@<yfpe8777qrq52<#O#-,;--$OXXXXXXXXOOO+OXoooO+",
"--:,39wrqq82=$#OXo+>rdatw00828e0954-++$::*+X..XoooO+@@##$&&&*--=",
"5680tppiw86:$$@XXO$3eteqqww922909621$@@##o....o++@@#&=:,12468865",
"90qwwre974<&##+Xo@*2654444562>477734=@oXX..XXO#$%$&>480qqq86wrw0",
">:;;;---=*$@+++oo#*:::;;:;:<11<<34<;@X....Xo#*:-==:,11>:;=&&:<<,",
"#######$%$#@+++o+$=;;::;--;>,>>:;=@XX. ..X+@%*&%$#@+OoOoXOO+####",
"$$%$%%&&&**&@OoO=<:-=*&&%&%$$%&$@oXXXXXXXXooXXXXXXXX.XXXXoo+####",
"--:>:>,,,,,-+oXo+ooOOO+O+++OOoX..XX+#$#@+@@$#$###$%%+oOoXX+@#$*=",
"47890985553%XXX........oOOOX..oo+$&*&*&&*-;,<>1543>$+oooO@%=:,13",
"ruitw962,,%o.....XXXoOO++OOXX@&;-:,<354<,3556875>$OoXoo#&>24349w",
"753,:*&$#@o...XX+$%*-;:;@oXX@:1538qweeq988873<;%o.XXo+$=>22<:>28",
"&&&&&&*%+XXXo+%->158009,#Xo$,59rqtttteq0094>=&#oXXXO@%*--;;;*%&=",
"&%$&-=$OXX@*:1570euppw5=Oo$<8wrrqerrtre95,-$@+oXO@@#%&&&=>22<&$-",
"$&*$$#OO+*2579wyaiiiu8>@o#:4qtr00qeytw4>*%@OooO@&*$$$&;2570e7=+#",
"&&%@###%:377wissyett8>$O#-<8eue9wwrw7,&#@+OOOO@&&#$*:260wwr0<@+@",
"%%$+@$=,58quastq9er8>&+@*>4qyt90ww91*@OOO++O+@$&&*>46900etw:+o+$",
"&#@+%>370tasuq778w7>%+@$*<30iq8ewq2&+XXXOOOO#%*:125568wydi1OXo$&",
"$@%-,67eyuuw75421<-$OO#%=24er89e7,#oXXXXO+O$&-,3<:15qtsgs8$O+%&&",
"#->>37qre841<,>:;*&#O#%*<46663<>%oXXXooO+@&*-:>,:>7tpdgdq-@@*-&#",
"&;:134652,>>>>>:*%#@@&-;,,:-=%OoX.XXooo++$*;::>,50pfgfdy>$%->1:$",
"%*>>;>,,,<1<>-*%#@$$$&%#@@OXOOX.XXooOoO++&;::>20pgsipay1#$*:3q2&",
"+#=-:,12<:=$++@@@@@@#$$@+oX.OX.Xo.O#+O@@%;>>>5uhksr9iy2@#*-1et5*",
"++*=;;*$@OoooO+@#%%&&%%@X.oOO.XoXX@+oo@@&;:,8aljpeq0w4$#-13eiy2&",
"#@$$#+ooO#%**=-:;-=&%$+..o@$%+++ooOOOO##%=,0fhatwwew2$@=38eypi4*",
"$++@@#$=>1443>*****%+oXXo#=;*@Ooooo+Oo+$%:qdgtqwqet6$+$19rrwpt2=",
"#+@*,4790872:-*%%&$+ooOO#=>2*OXX+@##OXO$&3adw870qr8&+@:9tyqeaw1&",
"+#>6qtyr93,-=***&$@@++O+%-3<#oXo&*&$O.+%-6ye8770t0=+@%4titqip9,%",
"@*19ut93>-&&=-:;=&$$@O+&>15>+Xo@-=%@oX@&;7eq768wq;@+#,9uy0epy4-#",
"=23663:=&%&=;><,;=$@+#&,673=+O+&;=%@oo#&;6w06345;@+@;8tt08ry0<$+",
"24,-==%#$&=>5q91;&#@%=,805,$oO$*>>*@oO@&:605<>:*#O@-9uuq57rr5-+#",
"11=%$##&-:39te7:&$$*;17eq<-#o+&-<3,%+o@&-13<,;*@@@=7iie9<3e0>@O=",
",-%@$%=,26eie7:##%-<58we8:&+XO&;485-@X+$&--;:=$@@&6pawq9;>83%O@-",
"&#@#=<359rpr6>$@$:260ew05:%OXO*,789>&Xo+#$$$#@@#&4psr809;-<;@O$&",
"+@$:3669yar6:%$#=38qeq874;$@XO-10rq>&Xo+@@+OX+#&2ise88q0<==%++##",
"%:15780ypr4-$$#&29trq9775;$#oO=3q02=%OoOOOXX+$=,ruw99908>&$+O@++",
"59777qipe3=#$#&<8tywq0875;@+o@;882-&&#+O+#++%*;5ewq863<:*&$Oo+#=",
"ew89rspq3=###$>7euwqe0775=@+o#1q9<-*==%@++O#*-2wq83,:;;=*=#o+@%,",
"te0yspq3=$#@#-4epywrw8774*#++&202:=:36=#OO+*-;261>;;-*$##@oo@$&<"
};
