/* XPM */
static char *_4248ae582e1454fc3eaade059f10d9eU0MW5mUl57q5dVq5[] = {
/* columns rows colors chars-per-pixel */
"64 64 178 2 ",
"   c #020202",
".  c #0A0A0A",
"X  c #150406",
"o  c #1B0407",
"O  c #170709",
"+  c #1D0608",
"@  c #17080A",
"#  c #1B0A0C",
"$  c #1E0F11",
"%  c #131111",
"&  c #1F1113",
"*  c gray11",
"=  c #240609",
"-  c #2C070C",
";  c #220A0D",
":  c #2D090D",
">  c #32070D",
",  c #34090E",
"<  c #39090E",
"1  c #210F11",
"2  c #2E0F14",
"3  c #360710",
"4  c #360A10",
"5  c #3C0A11",
"6  c #241315",
"7  c #2C1013",
"8  c #251718",
"9  c #2E1619",
"0  c #241A1B",
"q  c #2B1B1C",
"w  c #331A1D",
"e  c #2D1F21",
"r  c #232323",
"t  c #2B2424",
"y  c #2A2A2A",
"u  c #322324",
"i  c #382427",
"p  c #362729",
"a  c #352B2B",
"s  c #3A2B2C",
"d  c #3C2F30",
"f  c #333233",
"g  c #3D3233",
"h  c #3D3C3C",
"j  c #440B12",
"k  c #4C0D15",
"l  c #4F0F18",
"z  c #520E17",
"x  c #540E18",
"c  c #590E19",
"v  c #451016",
"b  c #4D1119",
"n  c #551017",
"m  c #55111A",
"M  c #5B111B",
"N  c #63121D",
"B  c #6C131F",
"V  c #6A141F",
"C  c #5D1520",
"Z  c #5C1720",
"A  c #5F1822",
"S  c #641621",
"D  c #691521",
"F  c #6D1520",
"G  c #6C1621",
"H  c #641923",
"J  c #6C1A25",
"K  c #6F1D28",
"L  c #721622",
"P  c #771724",
"I  c #741624",
"U  c #731623",
"Y  c #791724",
"T  c #781724",
"R  c #731A25",
"E  c #7A1824",
"W  c #7F1927",
"Q  c #7A1926",
"!  c #741D29",
"~  c #7B1F2C",
"^  c #7E1F2C",
"/  c #7B1D2A",
"(  c #422A2D",
")  c #4B2D31",
"_  c #423436",
"`  c #433738",
"'  c #4A3739",
"]  c #4B3D3E",
"[  c #443A3B",
"{  c #553A3D",
"}  c #75222D",
"|  c #7C212D",
" . c #7F2331",
".. c #4C3F40",
"X. c #464646",
"o. c #4E4445",
"O. c #4C4243",
"+. c #4B4B4B",
"@. c #524345",
"#. c #5A4346",
"$. c #534748",
"%. c #504F4F",
"&. c #574F4F",
"*. c #544B4C",
"=. c #5C4D4E",
"-. c #574F50",
";. c #5B4F51",
":. c #505050",
">. c #555555",
",. c #5B5354",
"<. c #5C5C5C",
"1. c #635556",
"2. c #645C5D",
"3. c #6A5D5E",
"4. c #6A5E60",
"5. c #626262",
"6. c #6B6364",
"7. c #6F6768",
"8. c #6B6B6B",
"9. c #726C6C",
"0. c #7A6C6E",
"q. c #766F70",
"w. c #757273",
"e. c #797474",
"r. c #7B7576",
"t. c #7C7979",
"y. c #811A27",
"u. c #851F2E",
"i. c #821D2B",
"p. c #8C1D2D",
"a. c #84202C",
"s. c #83212E",
"d. c #89212E",
"f. c #852431",
"g. c #8C2533",
"h. c #8D2936",
"j. c #912534",
"k. c #932936",
"l. c #962B39",
"z. c #9C2D3C",
"x. c #9F303F",
"c. c #A22E3E",
"v. c #A0313F",
"b. c #A33241",
"n. c #AA3444",
"m. c #B03848",
"M. c #817678",
"N. c #827D7D",
"B. c #887F80",
"V. c #848484",
"C. c #858383",
"Z. c #898586",
"A. c #8C8A8A",
"S. c #928C8C",
"D. c #928E8E",
"F. c #959393",
"G. c #9C9798",
"H. c #9C9B9B",
"J. c #A39E9E",
"K. c #A3A3A3",
"L. c #A8A7A7",
"P. c #ACA6A7",
"I. c #ACACAC",
"U. c #ABAAAA",
"Y. c #B5B5B5",
"T. c #BBBBBB",
"R. c #C2BCBD",
"E. c #C3C2C3",
"W. c #C4C3C3",
"Q. c #CCCCCC",
"!. c LightGray",
"~. c #D3D3D3",
"^. c #D8D7D7",
"/. c #DBDBDB",
"(. c #E4E4E4",
"). c #ECEBEB",
"_. c #F4F3F3",
"`. c #FCFCFC",
/* pixels */
"m N M M M l > + + + - > , , < j j j 5 k k c z j k j j < < k k k k k z k k k j j j 5 5 4 5 4 5 4 , , : : - > - > 5 k l n N B V M ",
"V N N k : X X X # @ X = : : j k z k j j j j j j k j j < < j k k k k j j j < < < > 4 , , , , > > : : - : : > 5 k M N B N z k k c ",
"M k < = X X & &.J.S.g o - > < k B N k c j k c j j j < j < k k k j < > > > > > > : - = : 5 5 5 4 > > , 5 5 5 k N N z k j j k M B ",
"j < = o X # e.W.E.%.* 8 = - , k I T c k N Y c j k j j < < j j j > > > - - - - > 4 m N m j j j 5 j 5 j 5 z N m j < 5 5 j k N V c ",
"< - o X X O.I.~.e.    % o > < k Y Y L U u.s.R M < j 5 > 5 < > > > - : > > < M  .| N k v 5 5 v 4 j j z m x k 5 5 5 5 j 5 k P k j ",
"> = o X X 9.Y./.V..   t @ > < z / E u.! m j 4 < < > - - - - - < 5 5 5 k S g.| m k j 5 4 5 5 < k S M j j < 5 5 , , < 5 j k k 5 < ",
"- = o X X X.L.T.U.8.%.g + , k V a.~ m < , , > > - - - > , 5 j k k k S f.f.m j 5 5 5 5 5 k m V M k 5 5 5 5 k k k j 5 5 5 j 5 < , ",
", = = o X # ,.F.K.A.*.# = j N j.M j < , > > : : > > < j z x c k x J f.M 5 j 5 j 5 j k M M M j < , 5 j c N E ^ U M j 5 5 5 5 > , ",
"4 = = = o X o # 6 # X + j G G k 5 < , , : - > , 5 j k M k z c z N N j j j j < < j n M m < = = , < < f.| k z v.i.U z j 5 5 5 5 5 ",
"4 = - = + o o o o + : n B M 5 5 < , , , , : - - : < j z R M M S k c k k j j j j c j < - = X O o = - , H v.! g.v.M c j 5 , k k j ",
"< > - - - = = = = j x x 5 < , , > > : = o X X O X + - 4 k g.M D x c j j < 5 k j 5 < = + # w t # X + = 5 ! n.l.z.N z < > j m j 5 ",
"< < > > : , 5 5 k x k 5 , , , > > - o X O t ` g 6 X o = 5 ! f.G M M j j < j j 5 j - + 6 7.~._.J.8 X = : z x.n.z.N j , , M k j , ",
"5 5 5 5 < < j k k j 5 4 , , 4 , = + X 6 t.K.<.8.9.0 o + - n k.I V z j j j 4 5 k < - @ $.5.8.Q.).6.X + = k K n.S k 4 , n n j < > ",
"< 5 j j n N M z j j 5 4 5 5 j : o X X N.(.+.    :.2.o + - v b.! G k j 5 k 5 j j < = 8 h .   <.(.D.X o = j C g.l < 4 M N j , > > ",
"j j z U I c j 5 5 5 4 j j c j = X X 0 (.(.r     f 9.# + - b n.Q D j j j k j j 5 m = e t     +.Q.Z.@ o = 5 m C > 4 | J j , > > > ",
"z D E V x k j < 4 5 5 k N M > + o X a ^._.Z.r y t.1.o + = M n./ M k j k k k 5 4 H v 6 %.f h A.L.O.X + = 5 n , 5 s.| k , > , , 5 ",
"U G V z j 5 < 5 < < k c E n : = o X t H._._./.Y.Z.u o o - h.z.T M z j M k j < > c J - u 6.A.A.-.@ o + = - : l f.s.j , > > < z D ",
"c B z j j < 5 j j j k N g.k = = + X # ] D.I.H.e.s o o = b z.y.U k j b b j k j 5 5 h.5 - 2 2 1 + o + = = 5 M ! H j , > > 5 l V c ",
"c z j j 4 > j k j j z N h.n = = = + X @ e u q ; o + = : b./ T z j j A k k j j 5 5 b S 5 = o = + + = , j l b 5 5 > , , 5 j j j k ",
"c j j < , 5 k M j j k N g.! = : = = + o o o + @ + = , R R M z j j H M z j 5 < 5 4 3 - - - - = = : , 4 , , > > 4 > > , j j j j j ",
"z j 5 5 < 5 N V 5 j k M / z., - > : , - - - : < j k m z k j j j ! J c j k j 5 5 > , , > - - > 5 5 j j < < 5 j j 5 < < < < < 5 k ",
"z , , < 4 j N ^ k < k M N s.| - - - - 5 < j j 4 < j j j 5 5 j J R x k k j 5 < , > - : , < 5 j j M c j j c z x z z k 5 < < < > 5 ",
"5 > , 5 < 5 z l.J j < k l l z.| j - = = = = - : 5 5 5 5 j H g.R z k j < < 4 4 > : , , 4 5 5 5 5 5 j x R | f.g.y.Q T I L j j 5 < ",
"5 > , < , < z R k.N < < j j k J m j , - : : , < 5 5 j J l.u.c j < , > > 4 j 4 5 5 , > > - 5 5 j z H l.g.y.N j < > > > k k 5 < 5 ",
"< > > 5 , , k N u.l.J j < 5 5 < j j j 5 5 j j 5 M  .k.| z j < < < 5 j z z z z z k k j < - > 5 k n k.R n < - + + = = = = 5 5 5 5 ",
"5 , > 5 > < k c N f.k.E z j 5 j 5 5 j b M H | h.h.! n 5 < , 5 5 j x c z k N N M c z N j < - - k N s.v - o + $ # o + - = - > , , ",
"4 5 , 5 > > < k N N / g.l.d./ ! K K H M m C f.M j 4 4 : > < j M N M D R R G Q T I B R N k < - 5 j > o O ` t.D.A.6.s ; = = > > , ",
"5 5 5 j > - > < k z N N V R R G N M M M b 4 > - : : > 4 j k M M c k j 4 j ! b.u./ y.g.m z < > > - o $ 4.^.I.F.Q.).J.p = - - : > ",
"< 5 j j j < > - > > j 5 5 5 5 4 4 > - - - : : > , 4 < k j z M z : @ = w 9 7 b b.b.k.z.M j 5 - - = # $.W.G.% . X./.Q.3.; = = : > ",
"5 j k k j j < > - - - = = = = = = - - - > > 3 5 j j j j k N j + # s a y w.N.' 2 f.m.c.R k < = = + 8 Z.!.>.    % T.T.M.9 o + - > ",
"5 k k k k j < > > - > - - = - = = : , 5 j x c z j j j k c j = o $.f     a T.D.s 5 s.g.z j > = # o u D.Q.U.* . >.!.L.0.6 o = > > ",
"k k k k j j < < 4 , < < < < , > 4 - 4 j j M N N j k k k c - X @ J.X.    * U.K.$.= l l.k j - = = X 0 t.Y._.Q.L./.Q.D.@.@ o = , > ",
"k j j j 4 < 5 5 < j j j j j j 5 < 4 , , k H z M j j j M n = o # J.Y.>.X.D.T.K._ = 4 h.j 4 : - = o X ` A.Y.W.W.T.D.$.& X = k 5 5 ",
"j j 5 < > 5 j j j j N N M c c M k 5 4 > 5 M m m j j n s.M + o X e.Q.).)./.I.N.6 + > j 5 < : - = = o @ s 3.e.w.,.a # X = j j > , ",
"5 j j 5 j c N M N N N V j.j.W Y M < 4 < 4 m ! c j l c | ! = + X u C.T.W.L.C.s o + = 5 , 5 > j < - = o X @ $ $ @ o o = j j 4 4 5 ",
"< k k j k z j < > > < 5 m v.b.p.a.n > , > l | M j l x M l.v + o X 8 _ O._ 0 @ + = > > 5 , 5 j 5 j j : = + o o + = : j j j < 4 5 ",
"c M V N < = = = = - - > 5 m n.n.g.z > , , k | D j z M k a.g.j - = + + @ + + = = : , > > > j j j j N c k j 5 5 j j k k k 5 4 j n ",
"I U z > = = = = + o o @ = < J k.B k - , , j ! ! j j c x k ! / n j 5 , > : : - - > = , j z k z z j 5 N G V D N N M c j 5 5 , k N ",
"V j , = + + [ S.P.r.u X o = v b.N j - > 5 j R ^ j j j z z k z c k j 5 4 , > > > 5 j z k k c k k j < 5 5 k z M k n j j j , , m L ",
"k , > = o 2.!.`.`._.G.u X # > h.N 5 = 5 < j | J z j j j j 5 5 j k j 5 4 , < < < z z k k k j j j k k k z x c k j j < 5 < > , S G ",
"k 4 = + s R./.E./.`.W.6.X o 4 h.m 5 - 5 5 j g.c c c j j j 5 4 5 < > , , 5 z M m x c j j j k M I I U V N x x z j 5 5 j 5 > 4 M R ",
"k , = X 7.T.+.. y Y.!.Z.@ : H H j - 3 5 j M f.N M j j < j < 5 > , j k M N x k z j j k D u.E F k 5 5 5 5 j 5 j 5 5 5 j 5 > < n E ",
"j 4 = X e.A..     <.^.A.@ # = < > - < j c N S 5 < 5 j 5 5 < 5 j M S J M k k k z m N u./ z 5 3 5 < , > : - > , , > > , 5 , , < U ",
"M , = + ,.F.y   % N.Y.*.X = > > - 5 k j 5 5 , 4 , , > > < 5 k N R M j k k c x z G / z < , 4 > - = - > > , , , , , : : , < < < k ",
"z 5 - = q q.C.<.9.G.5.6 = = - > j j < < < , , , > 5 j j < 5 C M k j j k z c J u.! < 4 , > - : 5 k j j j 5 5 j j 5 , - : > 5 5 , ",
"4 > - - - 7 ' 1.=.s = # = > 5 j 5 < , - : - > , > < j x j < < j j k k z U T f.M , : - = > 5 j z z k j z M c z k j 5 > : : > 5 5 ",
"> - - > - - - = = : , 5 j j , - = = = = = = = , < < 5 M N j j < j k M L ^ | v 2 = = > 5 j z C c < c N c x c M z j j j , : > , 5 ",
"4 : - - - - - 4 4 j k j < > = = = o o # 6 ; # = : 5 j H D N k 5 j M T ! J j = = - 5 j k x M z j m m c N G D N z 5 j 5 j 4 > > < ",
"5 4 4 , > 5 4 , j 5 , , > = = = o # O.t.V.t...; + - k k g.U M k k x J J 4 = = - < 5 l n c n k c M W p.i.R V M M m j , z 5 < , 5 ",
"5 5 5 5 j k 5 < > > > 5 4 = = = # 2.t.h +.I.^.1.+ o 4 k | ! V k 5 j 5 > = + - 5 j m M N N M M P j.d.c j < , 5 k < < > j j 5 5 j ",
"j j z j j , - - - 3 j l , = = + g K.h     +.).R.7 o = z n f.D c 5 5 > = - = 5 j z M n B M N j.c./ z < , 4 , 4 5 k k > 5 5 5 5 z ",
"m m M z j , - - > 5 c k , = = o 5.Q.f     f (.Q.) = = k j c.U c 5 , = 2 = 5 5 j N m R B R d.b. .k : = + = ; = : : < 5 k z j 5 z ",
"N N z j , - - > 5 k V / < = = O t.~.L.f f K._.T.{ + # k M b.R k > - - : = 4 4 M n N u.^ g.b.f.j + o o p 6.Z.t.@.2 : > k b 5 5 k ",
"G z j 5 > = - 5 j k G d.N - = @ 6.W._.(.)._.^.G.( o - j J R j 5 - > 3 : = < j N l S g.E x.v.n = + 8 q.Q.)._.(.Q.=.= > j M j 5 k ",
"M j < , - = > j z k S j.} H : + s H.E.Q.W.T.J.1.6 = 4 H M j 5 - : > : : = j x N k M I / b.| : = 1 6.^.`.(.K.H.Q.F.= = j N 5 > N ",
"k j , < : = 4 C m c M g.a.s.} : ; d 7.C.V.6.` 8 = 5 v m j 4 4 : 5 4 5 5 - j x k j M M z b.G = = _ J.(.).w.% . X.Z.= = j M 5 5 M ",
"z 5 , < , = 5 k ! V M G x.v.g.K , = # ; ; + + = 4 5 j j > > > < j l j j > < 5 j j z z z c.G # + O.K./.Q.y     % 4.= = m k > 5 j ",
"j < , < < = , j G s.s./ | | v.n.} Z v = = : 5 k k 5 , > > - < j x x k j < k k < j k z k l.^ - o _ F.T.!.8.* % f #.= : k 5 > , j ",
"5 5 5 5 5 - = j k M G | s.k./ Q i.d.f.K m l j 5 4 , - - > < j c I N k < j j k j j z k z N s.5 = 6 $.D.L.I.H.Z.3.w = : 4 : > 5 l ",
"j j 5 5 5 < = > j k M N N n c M M m k j 5 5 5 4 : : > > < j k c I d./ N k j j k j j k k 5 j k : + 1 s -.6.1.' 9 @ = - > > > j j ",
"j j 5 5 5 < > - : 5 5 k n k j j 4 5 4 < < , - : : > > , j k z M B V i.p.I c j k j j j j 5 5 5 5 - = o X + # o + = - > > , , j j ",
"< 5 5 5 5 < < > > - - - : > , > > : > : : - - > 4 j j 4 j z M N N N V B p.p.E N z z z z b z j j 5 > - = # = = = - , > 5 j j 5 5 ",
"< < j j k z k k j 5 j 5 5 5 , , > > > > , < < j j j k < < k c M c N z c c N N N N M N M c z j 5 < , > > > , , , > 5 j > , 5 5 5 ",
"c c N N M z M M M k j < 5 < 5 < 5 j k k k c M c z j 5 5 < k k k k z z k k k k z z k k j j 5 5 5 5 5 4 4 , , : , 5 4 4 5 j j j k "
};
