/* XPM */
static char *a39019e3df41479b962adcb0383850f8k9DgPZWZHq1PuOWH[] = {
/* columns rows colors chars-per-pixel */
"64 64 198 2 ",
"   c #3F121A",
".  c #3D1D23",
"X  c #2C2E2F",
"o  c #3B2326",
"O  c #36262C",
"+  c #3D2529",
"@  c #372A2E",
"#  c #3A2B2E",
"$  c #362D31",
"%  c #3B2D32",
"&  c #2D3333",
"*  c #253936",
"=  c #283936",
"-  c #273C39",
";  c #2B3E3B",
":  c #343335",
">  c #3B3335",
",  c #373A37",
"<  c #343739",
"1  c #3B3639",
"2  c #343C3C",
"3  c #3B3C3C",
"4  c #43141D",
"5  c #4B171F",
"6  c #47181F",
"7  c #49191F",
"8  c #451621",
"9  c #4A1721",
"0  c #471A22",
"q  c #4D1A23",
"w  c #4D1C28",
"e  c #511C26",
"r  c #581A27",
"t  c #531E29",
"y  c #5C1D2B",
"u  c #601E2D",
"i  c #681F32",
"p  c #412327",
"a  c #432228",
"s  c #4E222A",
"d  c #42292C",
"f  c #55212B",
"g  c #5C242E",
"h  c #5D282E",
"j  c #422F34",
"k  c #522732",
"l  c #5B2532",
"z  c #552A35",
"x  c #5D2A33",
"c  c #562C39",
"v  c #5A2E39",
"b  c #423335",
"n  c #443638",
"m  c #433C3B",
"M  c #5C323D",
"N  c #62232E",
"B  c #62292E",
"V  c #622531",
"C  c #6C2534",
"Z  c #642C34",
"A  c #692D34",
"S  c #662D39",
"D  c #6C2D39",
"F  c #722736",
"G  c #762B3A",
"H  c #722E3A",
"J  c #663031",
"K  c #6C3136",
"L  c #60333D",
"P  c #6B323B",
"I  c #703337",
"U  c #73353C",
"Y  c #79323F",
"T  c #76393D",
"R  c #7A3B3E",
"E  c #2D423E",
"W  c #32443E",
"Q  c #3C423D",
"!  c #44413E",
"~  c #49413F",
"^  c #2B3F41",
"/  c #363E40",
"(  c #383F42",
")  c #453D40",
"_  c #5E3642",
"`  c #5A3B41",
"'  c #633742",
"]  c #6D3343",
"[  c #623943",
"{  c #6C3A44",
"}  c #663E48",
"|  c #6A3E49",
" . c #733544",
".. c #7B3344",
"X. c #753B43",
"o. c #7D3D43",
"O. c #773E4A",
"+. c #7D3B49",
"@. c #2E4542",
"#. c #2F4845",
"$. c #2F4A48",
"%. c #324643",
"&. c #3B4543",
"*. c #334A45",
"=. c #3A4C46",
"-. c #304749",
";. c #344D4A",
":. c #3A4E49",
">. c #375047",
",. c #3A5147",
"<. c #36514D",
"1. c #3B534C",
"2. c #3F584F",
"3. c #365050",
"4. c #3B5551",
"5. c #3E5952",
"6. c #434542",
"7. c #494341",
"8. c #444A45",
"9. c #434D4A",
"0. c #4A4E4A",
"q. c #524D48",
"w. c #42554D",
"e. c #49544C",
"r. c #43594E",
"t. c #4A5B4F",
"y. c #51534D",
"u. c #55594F",
"i. c #415751",
"p. c #435B53",
"a. c #495D53",
"s. c #455F59",
"d. c #4B5E59",
"f. c #535C53",
"g. c #6D444D",
"h. c #7E4145",
"j. c #74454D",
"k. c #7B424B",
"l. c #754952",
"z. c #7C4A54",
"x. c #466056",
"c. c #4C6256",
"v. c #466159",
"b. c #4B645A",
"n. c #4C645A",
"m. c #4B645C",
"M. c #4F695D",
"N. c #516657",
"B. c #5A6257",
"V. c #52665A",
"C. c #52695D",
"Z. c #536A5C",
"A. c #556B5E",
"S. c #586D5E",
"D. c #58715F",
"F. c #556D60",
"G. c #566E61",
"H. c #5B6F62",
"J. c #577161",
"K. c #5A7163",
"L. c #5B7264",
"P. c #627767",
"I. c #842C40",
"U. c #813D45",
"Y. c #8B3E46",
"T. c #973548",
"R. c #913E4D",
"E. c #8B3B51",
"W. c #A23E4F",
"Q. c #834244",
"!. c #86454C",
"~. c #8B444B",
"^. c #89484B",
"/. c #94474E",
"(. c #834752",
"). c #8D4454",
"_. c #834950",
"`. c #8E4E54",
"'. c #894E5A",
"]. c #934552",
"[. c #944B51",
"{. c #9B4C53",
"}. c #924858",
"|. c #875458",
" X c #935254",
".X c #90565F",
"XX c #9D555B",
"oX c #9D5C5D",
"OX c #A54758",
"+X c #A1565C",
"@X c #8D5C64",
"#X c #985C63",
"$X c #A55662",
"%X c #9A666B",
"&X c #AC6267",
"*X c #AC646A",
"=X c #A46F74",
"-X c #B07071",
/* pixels */
"h l t f l V g y w h *.1.2.s.v.i.s.p.4.%.( / =.i.f.C.F.i.i.4.p.2.;.;.>.$.>.4.4.b.F.F.b.F.A.3.:.q l T h._ M M t N T t y w 6.s.5.m.",
"h ' q w k f t w w f l *.M.M.m.m.a.&.1 n w 9 q w t t a.r.r.i.C.2.3.;.;.;.3.4.x.M.a.L.A.A.V.;.&.6 X.o.c t 7 e q h f K U t k i.r.m.",
"h o.9 0 h t w w f t *.:.n.M.V.e.i.y f N z t t w w t 6.w.w.p.F.5.<.3.>.$.<.<.b.b.c.K.K.A.c.x.< e x A s q K e s e M t Z K t 1.i.m.",
"h V q w f f L V S z *.=.x.a.1.6.e.V (.). .' _ t f x e 6.c.n.c.c.*.3.;.3.1.1.p.C.F.P.K.K.m.p.; z e f f f e 5 q q _ f e e f 8.p.M.",
"t 0 h Z  .k.XXk.h 1 *.:.2.1.0.7.w t C h Q.Q.c q g.%Xh w c.c.p.a.<.$.<.4.#.5.m.A.F.L.H.c.5.#.< & f `.~.Q.f 7 M f w h K U f &.a.b.",
"q 0 l +.&X&X$XP e ; &.=.=.p.> q S M Q.V T R B h Q.=Xz.e V.n.a.>.<.$.<.4.<.1.m.F.J.L.C.i.#.;.2 O e +X{.U.4 6 N h q f l x t 8.a.v.",
"8 l V S ..E.C f t *.:.:.>.c.b t ' Q.Q.v q t t N Q. X{ q V.c.*.;.>.#.4.4.4.1.2.A.A.L.m.;.#.;.#.@ q C E.D 4 e U.o.B t x L f 2.i.5.",
"d t V y t w g :.=.2 ,.x.b.r.~ r F Q.T 0 t M B l g Q.v e c.r.*.@.<.;.4.4.4.<.2.L.K.C.p.<.5.;.E 2 # q r r 9 t ..T S e e f f ;.i.1.",
"b n 0.t f f 2.4.1.1.5.p.C.p.8.! P y q 0 f e t _ M _ 7 e a.;.>.>.>.<.;.2.>.<.>.L.L.x.1.<.$.@.@.#.2 , b 1 3 t t f f f Q Q Q ,.2.5.",
"i.w.u.t.C.p.v.2.:.4.5.b.c.p.e.m f 7 f K B x | T f t 6 ~ 2.:.*.5.:.5.4.>.#.#.;.L.M.1.#.<.4.;.E ;.=.&.=.1 1 > ! , 1 , , =.=.>.5.2.",
"4.n.F.m.n.2.5.>.:.5.5.b.a.n.V.Q ! e f M X.k.'.f g f 0 r.1.*.1.>.<.p.4.*.W >.W M.r.#.v.<.4.;.*.:.;.1.;.1.,.a.;.E w.W =.=.;.1.x.1.",
"s.n.M.m.2.>.4.;.:.5.p.p.2.x.m.p.Q d e f '  .X.f z 9 q 1.>.:.;.1.5.>.<.>.>.*.*.x.1.@.p.>.;.;.:.%.%./ :.*.p.p.=.;.1.*.W ;.*.:.p.1.",
"p.c.b.v.4.:.;.:.5.>.p.:.5.v.p.1.W =.# % q 0 q q q e 8.*.;.i.;.4.5.4.;.>.;.*.W *.*.>.>.*.@.*.&.w e q e 1 W :.=.:.=.*.E W ;.,.;.1.",
"m.C.p.4.;.4.*.1.p.;.2.*.;.p.r.>.2.2.,.9.&.m : > 1 W p.*.:.p.5.a.5.5.>.1.W W W W #.>.;.-.^ > e g ' g.M f 7 Q 2.w.W W W =.1.;.*.;.",
"b.M.i.:.4.<.;.:.4.1.@.4.;.;.:.>.1.>.;.2.,.x.W : 4.1.%.*.-.i.2.*.*.p.*.*.W E W W *.2.;.W 3 % f Y  XoXoX~.s f g Q *.W *.W >.1.;.;.",
"m.v.<.#.4.<.1.%.=.*.%.@.:.; :.>.>.*.>.=.>.;.*.<.1.:.-.2.1.=.*.z c f ;.W *.E E W =.>.>.@.4.3 z ..H l g l g f f , *.E *.;.*.1.;.>.",
"p.2.;.5.>.<.;.=.: q f e N t t *.E E ;.>.,.@.2.;.4.;.#.4.1.1 k e x t h f h *.W ;.1.@.%.;.3 g t t e k k e q f e q *.*.1.*.:.:.$.;.",
"p.;.$.x.4.<.( *.q S Z q X.L f f E E =.;.>.>.:.<.;.@.1.*.< s z e P ' h A U N *.W *.*./ m e F I 5 e w 5 5 h N f e f r.w.*.;.@.<.;.",
"3.4.$.4.3.$.=.l x @X/.h C X._.e f W W E 1.<.@.<.#.;.<.1 t w q t f f h K I.Y g =.%.4.6.( t ~.T e q e e q l f  ...g a.e.*.<.#.3.>.",
"3.3.E $.3.;.;.S k.{.h.f [ P Z g v f ; 2 @.3.>.@.<.4.&.s V F K g Q.J e f X.OXh ' >.:.3 0.U I.v t s h B t Q.V ].G f S.p.E ;.3.;.;.",
"*.-.1.- 4.;.$.D l.Q.t f Q.B e U T f E = @.>.;.@.<.#.# e W.~.h _ T A t [ P ~.' h i.1.9.6.K ..B h h h e s V D T r y.A.4.:.$.3.;.<.",
"1.*.i.1.>.:.-.y h f f f t e f l Q.f N *.@.#.#.E <.4.o f ].Q.f r f g h [ g T [ h w.v.e.q.t H w g } S h 5 C g e e.N.b.i.;.;.<.5.p.",
"p.*.4.p.*.( u u v f h q f f _ l ` e h E :.@.@.E >.<.@ z D o.h h [ [ [ [ g T Q.N 1.w.m.e.f.f t f !.|.~.g v q 0.S.H.i.1.;.1.;.5.v.",
">.p.-.p.( 3 r P Z g f q q t l S h f *.=.*.E E @.$.W ;.k q t h g h [ [ Z C P x [ p.x.C.c.A.K.p.w.f Y D f g 0.V.D.C.=.1.i.4.w.3.x.",
"v.C.p.n.8.3 n B X.Q.l M M f ..U.V h =.1.;.@.E @.E w.w.u.M g [ [ V V V U.E.e l =.*.c.n.V.H.n.r.1.5.=.%.<.r.A.A.L.p.%.;.n.4.n.4.p.",
"i.r.p.r.1.&.q h l.| l B f P {...t l t.w.E W *.w.,.,.*.2.=.N Q.Q.F ..Y.R...q E ; *.n.A.C.c.r.w.%.3.-.1.1.a.H.L.p.:.-.;.d.i.n.p.4.",
"#.2.>.1.1.=.> f t v t o.K E.].q r N.N.e.*.; E w.c.Z.L.K.A.' h h C C Y.f e : E E @.F.A.V.p.w.;.%.;.-.5.4.b.D.F.p.-.1.;.i.:.s.p.:.",
"p.p.p.i.i.*.W : q t e f x c f f t.N.N.,.W E *.=.S.a.S.t.a.r.a.[ _ x f f 2 E E E W b.V.a.r.=.*.-.-.;.;.5.m.K.F.1.-.:.;.*.@.b.s.4.",
";.5.>.>.*.#.E E 3 Q ! h g g h c.S.a.t.%.=.%.*.*.a.r.c.W 2.,.E e.*.W ' %.%.E E %.:.2.c.p.w.=.-.4.-.4.4.1.n.C.a.*.:.:.;.;.4.v.p.4.",
"4.>.;.2.E E E W *.r.r.=.W =.t.t.C.t.w.*.*.E ;.1.1.a.L.c.c.r.*.r.*.*.*.*.*.W W *.<.2.a.2.i.-.;.:.%.5.5.4.6.d.i.1.4.*.<.1.2.4.1.4.",
"5.;.>.>.W W E W ,.c.2.=.W ,.c.N.N.t.=.=.=.@.*.1.1.>.a.1.1.;.W @.:.=.=.E W *.2.%.5.1.c.i.:.-.-.-.4.4.5.=.b t f &.l l ;.1.>.p.4.p.",
"<.#.;.*.E E W ;.*.t.W W W =.t.c.w.r.W =.%.E 2.1.1.:.5.1.*.=.>.1.i.*.*.W =.1.2.2.1.1.1.1.*.:.*.;.5.5.3 % t M f f ' P h ;.;.5.5.1.",
"#.>.>.W - E E >.W w.=.W W ,.r.9.a.p.E :.-.^ % % % 1 ) w w q f 9.e.1.1.=.,.N.,.c.;.*.1.:.:.<.3.4.4.:.O y l L q U R { f e f 2.1.1.",
"#.3.:.E E E E E W =.W W *.,.w.w.r.1.%.*.W :.@ O % 1 ) q w q f e.e.1.,.9.9.A.a.b.:.-.*.1.;.3.3.;.;.=.9 v U h 6 t x K 0 f f f 4.>.",
";.<.W E - W E * >.,.*.W ,.*.w.w.,.*.%.%.%.1 % f t e e f f v } h l 6.a.a.N.S.2.2.;.3.-.4.@.;.<.;.*.:.w g f l 0 M f 5 f R ' V h 2.",
"#.4.*.E E W ; ; >.E W W *.W ,.1.%.1.*.< 2 $ t X.X.l.U.h h h X.x v D c.c.V.c.c.=.w.1.-.@.@.3.5.;.4.f g A q t 6 h s 0 h [ ' 6 h 1.",
"3.;.$.#.@.$.E ;.#.E E =.*.*.=.*.%.x.*.O > . e | g.h t f l U.N v v N f.S.S.N.a.p.:.5.;.@.$.;.@.3 < l h f f R f f B t [ h  .8 l *.",
"4.;.1.;.>.E ; @.W #.E >.@.*.W *.*.=.2 # % p t f f f f g f M g H H w B.V.S.r.a.w.;.:.@.@.4.;.@.1 % x ^.V f U z f U [ f D C 9 h -.",
"<.1.2.;.#.E @.;.@.E %.*.E E ;.;.*.@.; # # o r f f f g g f L f H H q f.n.V.C.a.p.4.:.@.$.;.$.$.; # h.&XP f q q h h h r ].r t =.-.",
"4.5.1.;.;.#.$.<.E * *.@.E *.*.;.1.;.2 O @ h L g g g t g h h N h h q 0.N.V.C.i.a.:.4.%.;.@.@.$.@.5 z.*X XU 6 s h h [.f ..f *.=.-.",
"%.9.w.-.*.4.;.@.#.E @.E E #.*.;.*.-.;.> $ D [ l h Q._ T T h x h g 7.9.a.i.a.:.*.-.-.%.1.@.E $.<.q w k. .A   g N U.$Xf N :.*.1.;.",
"b n b 3 ; E @.$.$.W #.E E <.E *.=.E >.> > r Z [ ' l t V V Z U r r 7.r.c.p.1.4.1.@.-.@.*.@.<.;.<.f 0 q y 4 4 t V ] +.f h :.&.*.4.",
"g N x f t / @.@.;.*.- W ,.E E >.=.E E , 3 + e t t t h o.o.K l w e m p.i.4.=.@.1.$.@.$.@.;.#.@.@.* 2 &.; > 0 0 t t f g N *.=.:.4.",
"..[.+X Xf O ; ;.E #.E >.E W ,.,.;.* E 3 & + e t f t f Q.h.K f w q m p.a.:.*.@.1.;.@.<.#.@.$.- E @.*.*.%.%.1.6.e.a.c.w.1.=.*.4.-.",
"C T h P h t t *.E *.W #.W ,.,.,.W W - E @.: $ 1 $ 1 n f f j b > j w.w.w.4.:.#.#.#.@.3.;.* @.;.@.;.@.; 5.E 2.a.V.a.a.1.=.*.*.4.-.",
"` [ Q.U.l N t e ;.W E *.=.,.w.Q W %.; E ; E @.=.& 3 b ! 1 : 3 *.-.%.i.2.;.@.$.;.@.*.;.#.#.- >.@.@.E ; :.%.*.r.A.a.C.=.=.%.^ 4.*.",
"V [ h Q.N g Q.w 2 *.W w.,.r.=.w.- E #.- ; ;.@.- ;.2.i.w.*.1.E *.*.;.;.1.@.*.1.E @.4.@.#.>.<.%.@.*.@.E ;.@.a.r.V.=.A.=.%.*.%.p.f ",
"l h h h h g _.w f ,.*.t.w.t.=.=.E W E E @.@.@.E s.a.p.2.4.4.#.-.:.*.*.*.@.*.1.E E 4.;.@.<.<.-.@.*.@.<.*.;.i.c.w.=.N.=.W *.-.2.V ",
"Q.N [ h h h @Xk w *.,.a.w.r.%.W *.2 f l l N ;.>.M.x.c.;.>.4.>.;.@.*.#.;.;.;.E *.*.@.^ %.:.*.@.4.@.#.3.$.E ,.2.w.,.N.=.E =.>.r.x ",
"h h N l v g.'.z t *.w.a.,.N.W : Q f f M [ S J h i.c.1.:.;.>.;.$.>.>.4.>.,.@.@.*.*.- %.;.;./ :.<.@.>.;.1.;.;.w.w.r.w.W *.;.w.w.h ",
"g.[ h { U z.K e f %.;.r.1.e.*.> e J T Z S  .XXL t h *.*.2.$.#.2.<.;.2.2.-.*.*.E 4.%.%.1 e q q 0 1 2 >.4.p.:.2.r.2.=.W 1.a.1 6.h ",
"@X!.C I.K x k g W ; p.w.=.=.B r D |.XXK K h k.XXt t *.*.<.W ;.4.<.4.r.w.W E =.$.*.*.$ r l k.j.h f e :.9.n.1.1.r.%.W W ,.x.! n l ",
"_. XT.R.e w f 1.E E 4.:.W W C N @Xk.Q.I f f [ `.f d *.E @.;.W r.1.p.2.w.W E *.w.%.=.d y K  X X@Xg.f e f d.s.w.5.W =.*.*.r.e.% r ",
"f t w 5 6 h W ,.*.; 1.:.=.E A e K _ X.t h A l ..f 5 *.E ; 1.E ;.2.a.2.1.*.:.*.*.%.n e t o.h l ^.j.`.L q =.v.w.a.W E 1.p.r.c.a &.",
"1 d a o : ; W ; E #.*.2.1.@.{ f M A w V l e f ' N q f %.- W *.;.=.w.,.=.*.*.%.*.&.` y l v T f f g  Xf f &.p.a.:.w.; r.c.r.C.n &.",
"&.3 *.*.*.; ;.= #.1.1.:.=.E B f t e t g z t g V C M g -.W E ;.=.w.2.=.%.-.*.*.*.8.F S f e e t t g Q.Q.r %.i.b.*.W E W r.p.4.p.:.",
"=.*.%.@.; ; @.; E p.:.=.;.; f ~.l h t t f R  .f h g @.@.E W *.1.=.=.*.%.@.*.-.=.f F  XT q z t x t h l M f 5.5.E = @.- p.r.1.<.;.",
"=.@.W @.@.@.;.;.@.4.1.*.-.; C }.S } k t V A H z h -.;.@.%.*.*.w.=.;.%.%.@.^ *.4.f  .oXT e f q f f Q.V l q <.<.@.*.@.2.p.:.;.@.;.",
";.*.@.W @.@.@.@.2.1.*.*.*.@.t ..h.P q f U (.'.z h %.; ; @.%.=.r.,.*.%.-.@.@./ 9.! h -Xh w k k q M [ P x o &.@.@.1.@.@.W <.<.;.$.",
"*.%.%.^ %.-.@.@.5.:.:.;.*.@.< 2 f L e h .X#XO.t h ^ %.E E -.:.w.*.*.-.*.@.^ :.i.d m #Xj.A w w y V D k.t 9 %.* E *.@.@.*.*.<.<.@.",
"*.-.E %.@.;.-.1.p.;.;.;.@.$./ ; f w f l l l l ;.%.@.-.- @.*.p.i.-.-.-.3.^ ^ s.i.1 d t h v h e C ] '  .0 < E @.$.@.@.* $.;.$.<.$.",
";.@.@.;.;.3.;.5.4.:.;.;.@.-.-.@.^ @.; @.p.p.;.3.^ *.; ;.*.-.p.p.%.-.-.-.-.^ n.:.< n b f e q f g t 9 q 1 $.E $.E $.@.E >.<.;.#.<.",
"3.^ @.*.3.@.-.d.3.;.;.$.<.-.-.@.;.;.@.@.p.i.3.;.$.@.@.*.;.@.p.4.%.*.-.-.@.@.i.*.@.t.&./ : : X 1.: > 3 ;.@.@.<.<.@.@.<.<.3.#.#.<.",
"3.-.;.;.;.-.-.i.4.:.$.;.;.3.-.-.3.3.#.@.s.p.;.;.;.@.3.:.:.-.p.3.3.4.-.;.-.4.*.*.;.i.:.^ 3.@.;.@.<.$.;.<.E <.$.<.<.$.$.$.<.;.;.<."
};
