/* XPM */
static char *bcb7b9e461344467bb90d9a21a077875kL5ah4fa56mWAgsg[] = {
/* columns rows colors chars-per-pixel */
"64 64 201 2 ",
"   c None",
".  c #010102",
"X  c #0A0406",
"o  c #050309",
"O  c #0B050B",
"+  c #0B0A0D",
"@  c #07090C",
"#  c #14050D",
"$  c #14080F",
"%  c #030714",
"&  c #040815",
"*  c #0D0C11",
"=  c #0D0F1A",
"-  c #0A0712",
";  c #1B0712",
":  c #120E13",
">  c #1C0A14",
",  c #0F1014",
"<  c #141215",
"1  c #1A1315",
"2  c #151419",
"3  c #1A161B",
"4  c #17181B",
"5  c #1C1A1C",
"6  c #200C17",
"7  c #220E19",
"8  c #28121D",
"9  c #221D1E",
"0  c #24131B",
"q  c #121521",
"w  c #161A22",
"e  c #1C1C23",
"r  c #1A1C2B",
"t  c #0F1725",
"y  c #221E22",
"u  c #1E222B",
"i  c #1C2127",
"p  c #232124",
"a  c #292425",
"s  c #25242A",
"d  c #2A262B",
"f  c #26292B",
"g  c #2C292C",
"h  c #322522",
"j  c #312629",
"k  c #312B2E",
"l  c #3A2C2A",
"z  c #33322E",
"x  c #242731",
"c  c #2D2B32",
"v  c #2C2E39",
"b  c #232831",
"n  c #322E33",
"m  c #322F3A",
"M  c #2A3039",
"N  c #333135",
"B  c #35333A",
"V  c #39363B",
"C  c #3C3A3D",
"Z  c #3C3137",
"A  c #513D3A",
"S  c #433229",
"D  c #3E3B42",
"F  c #3C3E49",
"G  c #373742",
"H  c #403E44",
"J  c #433F49",
"K  c #3E434B",
"L  c #434145",
"P  c #4C4343",
"I  c #45434B",
"U  c #49464C",
"Y  c #474848",
"T  c #4C4C4C",
"R  c #454651",
"E  c #494651",
"W  c #4C4B54",
"Q  c #4D4E5B",
"!  c #474B54",
"~  c #504D56",
"^  c #524F59",
"/  c #4D535D",
"(  c #54535C",
")  c #5B555C",
"_  c #64544F",
"`  c #605E5A",
"'  c #63605E",
"]  c #515361",
"[  c #5C5E69",
"{  c #575C66",
"}  c #625C64",
"|  c #6C5D67",
" . c #5F6067",
".. c #5E616A",
"X. c #60626B",
"o. c #6A6465",
"O. c #756866",
"+. c #6F706C",
"@. c #79716F",
"#. c #666973",
"$. c #777577",
"%. c #756C74",
"&. c #82746D",
"*. c #807D74",
"=. c #9A7D6A",
"-. c #A27D6C",
";. c #89867D",
":. c #9C887D",
">. c #958276",
",. c #A2806D",
"<. c #A58372",
"1. c #A58977",
"2. c #A48679",
"3. c #A28A7A",
"4. c #AA8C7C",
"5. c #A88775",
"6. c #797784",
"7. c #6D7484",
"8. c #837C84",
"9. c #838185",
"0. c #8A8587",
"q. c #9A8F87",
"w. c #9D9488",
"e. c #8F8F9B",
"r. c #9B9A9A",
"t. c #AD9484",
"y. c #A2948A",
"u. c #AB9589",
"i. c #AE988A",
"p. c #A59588",
"a. c #B39787",
"s. c #B59887",
"d. c #B29B8C",
"f. c #AC9E92",
"g. c #B49E91",
"h. c #ADA799",
"j. c #B5A395",
"k. c #BCA294",
"l. c #BCA59A",
"z. c #BBAD9C",
"x. c #BCB09F",
"c. c #999FAD",
"v. c #BCAEA0",
"b. c #B0A5A4",
"n. c #BEB3A3",
"m. c #BBB4A9",
"M. c #BCB6B4",
"N. c #ACA4A5",
"B. c #C1A79B",
"V. c #C4AC9E",
"C. c #CBAE9F",
"Z. c #D2B09F",
"A. c #C3ACA3",
"S. c #CDAFA4",
"D. c #C2B6A7",
"F. c #CCB2A5",
"G. c #C3B8A6",
"H. c #C6B2A9",
"J. c #C4BBAA",
"K. c #CBB9AB",
"L. c #D3B5AA",
"P. c #D8BAA8",
"I. c #CCB6B1",
"U. c #CDB9B9",
"Y. c #C5B7B2",
"T. c #D2BDB4",
"R. c #DBBDB4",
"E. c #D6B7B1",
"W. c #E1BCAE",
"Q. c #CCC5B1",
"!. c #CFC4B8",
"~. c #D2C1B9",
"^. c #DDC4BE",
"/. c #D4CDBA",
"(. c #D1CCB7",
"). c #E0C5BC",
"_. c #C1C2C1",
"`. c #DCC5C4",
"'. c #D9C9C6",
"]. c #DBD3C2",
"[. c #DED8C7",
"{. c #DECED1",
"}. c #E2CAC3",
"|. c #E3CFCA",
" X c #E2D7C0",
".X c #E2D9C7",
"XX c #E5D2CD",
"oX c #E9D2CE",
"OX c #E5DDCA",
"+X c #E9DFCD",
"@X c #E5D4D2",
"#X c #EAD6D3",
"$X c #E9DAD6",
"%X c #E9DEDC",
"&X c #EAE2CD",
"*X c #F4EED2",
"=X c #D6D4E0",
"-X c #E0DDE7",
";X c #EBE4E5",
":X c #ECE6E9",
">X c #E4E1E8",
/* pixels */
"                                                                                                                                ",
"                                                                                                                                ",
"                                                                                                                                ",
"                                                                                                                                ",
"                                                                                                                                ",
"                                                                                                                                ",
"                                                                                                                                ",
"                                                                                                                                ",
"                                                                                                                                ",
"                                                                                                                                ",
"                                                                                                                                ",
"                                                                                                                                ",
"                                                                                                                                ",
"                                                                                                                                ",
"                                                                                                                                ",
"                                                                                                                                ",
"                                                                                                                                ",
"                                                                                                                                ",
"        8 8 2 : - - o o o o X o . X o o =     K.D.J.Q.Q.!./././././.(.Q.K.n.u.4.    . . . . . . . . . . . . . . . . .           ",
"        8 8 7 7 7 O o O o o o : * - o o @     '.J.z.z.x.n.n.J.G.J.n.z.j.i.3.5.4.    . . . . X . . # . . $ . . . . . .           ",
"        8 8 7 7 O o o o o o o - o o o o .     %X^.~.F.V.B.g.P P i.t.2.>.<.<.5.a.    . . . . . . o > $ X ; X . . . . .           ",
"        8 8 6 7 O o o o o O O . . . . o @     ;XXX^.P.F.C.k.d.d.t.1.-.-.-.5.4.a.    . X . . . . . > : . 6 X . . . . .           ",
"        ; 8 8 ; o o X o o O O X o X O o o     ;X#X}.R.F.S.k.s.s.4.<.-.-.,.<.4.u.    . . . o o . . . . ; . . . . . . .           ",
"        ; 8 8 o o o o o X # O o @ @ X o o     :X#X}.R.L.Z.k.s.s.4.<.-.-.-.<.4.u.    . . . . X > . X ; . ; # . . . . .           ",
"        ; 8 X o o o X o o X o o X o @ o o     :X$X}.R.L.S.L.&X&X*X5.,.-.,.5.3.i.    . . . . . . 6 > # . $ . . . . . .           ",
"        > > X o o o o o o o o . . o . o o     >X@X`.R.L.L.g.l.j.k.,.,.,.,.5.4.u.    . . . . . . . > ; 7 $ . . . . . .           ",
"        o o o o o o o o o o o o o o o o o     >X{.^.R.L.S.A.g.g.k.=.<.,.<.<.4.t.    . . . . . . . X 7 ; # . . . . . .           ",
"        o o X o o X o o o o o o o o o . o     -X{.^.E.L.S.A.g.g.j.>.:.1.5.1.4.t.    . . . . . . . o . . . . . . . . .           ",
"        o o o o o o X o o O % & % o o o o     =X`.I.H.v.l.g.y.y.k.y.j.d.g.a.4.a.    g.d.d.d.g.j.o.p p n N N A f k V N N a       ",
"        } X.~ E H Z n g s e e T.U.U.Y.Y.m.    '.Y.H.y.d.g.A.q.y.l.w.h.x.x.z.s.s.    t.d.i.d.d.>.V D C V N C Y B N z k l a       ",
"        L R I L I L H H D V f l ~.~.~.U.Y.    Y.H.D.n.v.f.A.g.k.l.w.h.x.J.K.J.x.              +.V L D K L N N N N j a a a       ",
"        B W W E I I L H D N f w                       & % A.g.g.k.% % % %                     $.g V C V C N V C N z d g e       ",
"        B E E E U I U L D D N 4                       & % S.u.d.B.@ + & &                     ( f U N C V N N g V N g g p       ",
":.2.q.:.v Q W ~ W I I H C B I s d.d.d.#X$X$X$XXX].]./.k.j A _ _ S l O.d..X.XOXOXOXOX&X+X&X&X].@.y Y H D C H C V N g a a p  X X X",
":.:.:.:.v ! W ! I I I L D B g s d.d.d.d.H.).^.^.`. XQ.d.d.d.d.d.d.g.d.XX|.XXXXXXXXoXoXoX@X Xd.@.+ 5 C H B N N N C a d f 9 a. X X",
"U.U.U.U.v W ^ ! E E I I D B B f &.&.p.d.d.P.}.}.}. X).{.}. X X X). X/.&XXXXXXXXXoXoX#X#XoX X X8.@ N f V G N Z n d a 9 9 p s. X X",
"`.`.`.`.#.b I ( ( W E I J N c s P Y u.Z.W.}.oXoXXXXXXXXX@X@X@X@X@XXX@X@X@X#X#X#X#X#X$X#X#X#XY.U + c B N @ 9 n y p k 5 5 9 g.P./.",
"        [ ] c G W ~ J H B c N s e e   H 5             * e 2 o @ * , 2 i 3 5 5 $.2 : < o 2 2 h.K 2 L B B g p 9 a a a p p 5 4.V. X",
"        ..! [ m m J J m V Z B y e e   N N         m.  K r < = = * o + @ , 2 3 * : : * c 4 3 ;.I 5 Y V V c a y a 3 9 N l T 1 h /.",
"        [ ^ ( #.} ^ E D c C c . . .   5 p             +.d y 4 4 * * o - + @ * o 4 2 : y       ( c C G N y y 9 9 9 y 5 9 <       ",
"        X.R Q X.o.) J H k Z B . . . . s Y             e . * : : @ * O : X . o o * 3 : V       K J V D s g d 9 p 9 j + * 5       ",
"        I J ( 6.8.} E H d G J e . . . s s                   n k 1 X O : * *     p 3 < e.< : 4 p { 1 y + n N H c 1 9 2 4 1       ",
"        H m } c.%.} E H y Z s w . . B y                     o o n y d +         n e < / 2 2 < 5 v 0 1 V C C V B k : n k p       ",
"        } x s ] J ~ E c G Z d G e i i a                         D 4 <           z 4 3 t y e + < 5 5 3 N N D N l n e 9 9 +       ",
"        6.G q J ( ^ E J D c x b w w 5 j                         y               c 9 3 1     y Q I C 5 5 a V V N z 4 ' ' .       ",
"    _._.= #.w G ~ ~ E ^ D e s e e e f j                         k               N y p   g g   ] ] ] g X < : @ + @ 9 C C X       ",
"        E v m k J E I J s m s e 2 2 *.k               N Y Y K Y s C 5 . o @ ,   f p 1   h h : . W Q ~ P < 1 5 < + 9 p p *       ",
"        6.G m | | ` E V @.s g N ;.;.< 9               %   y A K : N 4       & . g p 5         s i 4 f 0 9 4 9 1 . 1 a a         ",
"          ^ b N E E F 7.s d c & B B n [.            .       & & 4 f c       . . f p y             4 p p .     @ . X z z         ",
"          Z W r v L $.O.s e G                     .             w     F         k p X               N g z       f d             ",
"              = q M.0.E C $.                              %             u       k s o               f R <                       ",
"              ( v b.0.Q C e                             < &               B     g p .                 ! <                       ",
"                c b.r.U f n                           . .                 .     p 4 + . . . * s       R 2       . .             ",
"                I 8.0.I x G % & % %                   .                   .     g 4 3           . 4 o./ * & & &   . . .         ",
"                F r W e y r y y % % %                                           c y 2         . . & & { p z r.      . .         ",
"          ] . . D ~   . . x y M.' ' . %                                         g y p         o % ) . . + 4 < . . .     .       ",
"          . .   . .   . .           . .                                                     .   . .               .       .     ",
"          .     .   . .               .                                                     .   .                 . . .         ",
"          .     .   .                 . .                                                   . . .                   . . .       ",
"          .         .                   .                                                     . .                       .       ",
"                    .                                                                         . .                       . .     ",
"                    .                                                                                                           ",
"                                                                                                                                ",
"                                                                                                                                "
};
