/* XPM */
static char *_0ee5ad8840b436bdddef73729ab232f9aJ4DPcfwjpU9x5u[] = {
/* columns rows colors chars-per-pixel */
"64 64 73 1 ",
"  c #160A1F",
". c #170B21",
"X c #1A0C24",
"o c #1D0E2A",
"O c #1B1027",
"+ c #1E102C",
"@ c #1F1330",
"# c #210F2D",
"$ c #21112E",
"% c #240F31",
"& c #290F33",
"* c #251233",
"= c #291436",
"- c #261438",
"; c #2C163B",
": c #2E183D",
"> c #31173E",
", c #31183E",
"< c #2E1740",
"1 c #2E1941",
"2 c #321741",
"3 c #331A43",
"4 c #391B46",
"5 c #361C49",
"6 c #3B1E4B",
"7 c #3E1F51",
"8 c #3C204D",
"9 c #3E2151",
"0 c #3E2558",
"q c #401F4E",
"w c #431F52",
"e c #41214E",
"r c #412051",
"t c #402253",
"y c #462352",
"u c #472253",
"i c #432452",
"p c #452356",
"a c #422454",
"s c #472455",
"d c #472557",
"f c #492357",
"g c #482454",
"h c #4B2456",
"j c #422358",
"k c #452559",
"l c #472558",
"z c #46265A",
"x c #4A2458",
"c c #49255A",
"v c #48275B",
"b c #4D255A",
"n c #4A265C",
"m c #4B275F",
"M c #4A285C",
"N c #49285E",
"B c #4F285D",
"V c #52275D",
"C c #50285E",
"Z c #52285F",
"A c #492860",
"S c #4D2960",
"D c #4F2962",
"F c #4F2B62",
"G c #4F2A64",
"H c #532963",
"J c #562962",
"K c #512B66",
"L c #512C66",
"P c #522F6A",
"I c #592F6A",
"U c #5B2F6D",
"Y c #5C3172",
/* pixels */
"6pDs5gyy4qbbgebVbmuutHh666cCpeqraNHgtgVBVHHHZgCUUNzz9510z5566565",
"57c658te56ccu8ccughq8HVr6eCc956r8HSh6rgHbxtmr66HH559551aa55666A9",
"6595968856qpu9bgeer66rg658gs756559pr66tug85y4w6t85551318355545L9",
"t635cse4tq6r6tsy66q666p656e88385658t66r666466w6655511851*565:8z8",
"PA55AN85gpttegagt666g8648s556555t866eg6486t66s645531188-@838-8t8",
"YD36zs85zpmA9NcLb656Ds>5gz555615Nj65gBq644656e65141550N@;88;:6A6",
"P955j85666LbppsDc616Ng43w66556:5N053t664533136655:35;91+118-;6G5",
"9709555655cpt6ts861368555;355333935386q4,,355;555:55<5*--55**6t*",
"59tz83582385856864;:5365-:3::;555;18t653,:543;:353::1;+3;,;:51;-",
"565t8,8i;5,86s8635,35;5t$1:4::96<58AL5;::36r3;:655*;5**56:-55-@*",
"3::63:1834::3cct5365:+33*:38;,56118Nm3;*365e:-3951;;1$*19=*11*+;",
"3**3:;;;333*;7663,651*;:3*;3;*:1-;595;**:343-;15<;;=:$**:*o*;oo*",
"1**1;;+*;<5*;63:-;:;-*@*3***-;-;*3371:**==-**--;;;%-**@**#=$-#-$",
"**=1-*+;-*1**;:*1::#*;o%;*=$<***:<<3;<***#**;*-*;;%;***$o+*;$o;$",
"=*=;;++<*---;;*%;;**-<oo=,*#;;#$:=3-;1***==*-*;**<;;:***X**;%*=*",
"%**;;o%:&%o-5;o=;3*--;$o*2*$#;=$==:21<;;**=;***;;1;<1***++*<%:=1",
"*3=;*o#=*=$;5$$*;,*$;;-$#$=;#*=;$=::3=,4$*;,*=;,;;;1:*;-*#$=$,,:",
"$;:;*+**;*$*3$$$:;*%=*;$$O=:*$=4*=34,$8,*$;,==;:1;-1==*11*$==4,:",
"*;**+-*#$X;**%:==**:=;;:=X=;4$;=;;:,,*,=,*$==&=>5*-1=,=43=;$>4;;",
";;***;;*$#2:$*::*$==;;$;=$#=3*&*:,=;,***;;=*:**=*;;==>;;=33;;;*;",
"$==***;;#$2:#=;;;$**;=$=;,#$:#=*::=*=;$=,,;$;*;==,,=*34>=,,>;*,;",
";$*$;*%=#$==#$=;$=*=;=&=,;$$%*;*:;:=*;*=:,>$>;,==:;$=:,>=,,,;=,;",
";$***;#***$$#;*;=:===$=>,;=%*;==*:,=;;==,,;;*:>;;;;=*;,=,=48,;:,",
";;=;:**%=:=#=,==:,:;==>=;=;,*;=;=;;=,*;>=:$>=:==;;=;;=,;,,,,,3,,",
";=*=,;**-=;*;>>*:;;=*;;>3=;,==;,:*=;,*=,===,=*=*2**;,$=;44=,,,,=",
":;=*=;**;;;;;>;**;>;&,;2>>,3;*:,:;*:,;34=$>>,;$;:::::>=4,4,==,>=",
";::=*;%*;:22;>,;*=,=;:,2:;;>:**;:;$>;,,;*$=;>=$;*:;;,:==,4==>;,;",
":;;;:***;;;;;;:=;===2,;:;;;,;;**,=;;,,,,=,*>:>;:<;,:,3=;,,==;>:*",
";=::;;=:2:;3:,4>,,=*,>3,3;;=::;*;;;,334=;>>>=;,,<;;,>,,4=;=:,,::",
"*;2:;=;2:2=2433;22=;;,>23=,;:;33;>>>33>=>33=%;2:2<,3,>4,>=;,3,:;",
";,3::;;4:=*2;54>2;;>=4;5;;2,2;22=3>>>4,=233=;2:2,2,;,>,,:=4,4>::",
":52,;;422==444342=>>,=>4=,44,>424,4>;4&=;2;==:2&>,>>;,,>=;3,>>;:",
",>>4>=,3>&=,64;44=,,>&32=244;333,344>,*,=>=;;=:>;,>:==3:$;22==:;",
",;=2=;=,;;=>44&4>>>4>=>=*;4,==:,,;,4,==>;*&;,;;;;=;:=*2=$=,,=*;-",
":>$;=,==;=;;>,*4=4=>>;>=;=>>;;;;,=,,,=;,,**,,:;=;=:=**:==$;;*%*;",
",;=*=2;=;>3=2==&,4;&;;*=:,;;,2,>;,*,>*=,,=$>:,=$;*;*;%*==**=;;**",
"4,;$=,===,>===;&44,=;,%;,,>=522>=>;,*$$,;**$;;**=;==;=#*;>==:;;=",
"3,>$=,==&>=>*=;=,4;=:,=>25>#22>=#;=;*,,=*=:$***;*;*=:;#*>,>=:22;",
",,;&$$=$===,$===:<*;,;&=22;=;,;;=$>==,,=$=:=$$;::;#=;;=#;:,>*:2;",
",,*=;+$$$==$#;=>;%%;>==;=;=;;%;;:>>==>>=$>::=$;,,:=*;%==#:;:=;;;",
">=$,=$#$%*;$$==3;o$,;#*:%#%,>&*;=;===,,=%*,;*$-;;;=;#=:,*=;;:*;=",
">$$2$*#==*=*$=>3***;*o%;;#;2>;==$;======:#;%$-*,*=2:=;>2;#=;;=$;",
":X=3=#=;=$#o==>$o*%$$#&=;#*3>=&=$==,$==:3=*#$:=*;:22:&2:=&#=*-**",
"=#$,$=$**oXo=;=$o*;*o##=*==;>=*$=$=;*;=:;;;#*;-*;,43;*===;$#****",
"$$#*==$$XoX#&:=oX%%;X#$=#&==*$*+*;;**:-=*;*+**;$*,22*;**;==*****",
"$$$O$=$Ooo###;=oo%@oo$$$##=$$**+$;;+$***#=****;-**3*$-***#=*$*+-",
"*=$.O=$$oo*###+*%*oXo*$Xo**++***$*$++$*-o*o-*$***@--@-$-oo***+$-",
"*$#OX$OOXo#%o%Xo**oX$*oo+*o*o+++$$$+$$*=*$$*--$-**$$*+***%***+**",
"$$XX*.X##X$$$*XX$*+X$*#.#%%o$X$**oo%+*$**o*--*#-*-*$-$$*$$#**o**",
"*XX$*X.X+$o#*$++OXXX++oo##*#$X+***o*$*$#+*%*-%%@****$+*-*$X*o$+$",
"$.X#*o.XX*$X#+$+$..+*$Xo#%*$$+X$-+%o$=*$o**%**-%$-o*$$o%o$o#X=o+",
"$XXX*X..X*+Xo*=$XXX$$oX%%*o#$++o+$*Xo%%oo$*#oo-o$o*++o*oo#X.o*oo",
".XoXX.XXXXXX#$**X..o#X.o*#oX*o*ooo@o#**oo***o-%o+#*#o**o$o$.o#$o",
".X-X..XoXXXoo+*.XX$XX.X$*#o++o*@X@oo###X+**#o@@oX$*X.o@o.$oXX.#o",
" o*o..X+X..++#oX.$%...oo*oX*ooX+o.o+*oX.-X*Xo+X%oo*Xo@oo.#XX..o.",
"..oX. XX+..X###..**#.X%##.#*o+X*+oo@*$.o*@XX@%X@*oXXoooX.#.$XXX.",
"o......oX..X$$ .o-+..o*o..**Xoo@ooO+*@.+%-..%+oo@@oX%XX..X $ X O",
"oX. .o..X. Xo+..oo+X.o@;..**o.o@oX..*X.X--..@@oXo*XXoX#.X.$XX. #",
"o....X.. ...+XX.o.o.X.oo .oo-.oXo+O.*X+.+%..Xo%.ooXoXoX.X $ X..#",
"+X. X... .X...XXX.o.o....X.oo.o..Xo...*$..oo.oXoXoo*oX.XX..O#XX ",
"XX.  ......o...o.X..oo..X*.XXX@oXoo+ .;=X.+-XXX-o.%-oo.XXX..XX#.",
"XX .......o@. .*o...-oX.o*o..-@.Xo-o .;*+.o%oXX%o.@*@X.XXo.XX$+X",
"XX.X......o+X.Xo%..o%@X.o@oX.*@oXX*XX.X-oX.++Xo%oX.%%.oXXo.XX+XX",
"+..XX..X..X+..Xoo..Xo@...o@.Xo++oooXooXoX+oo@oX@o@oooX@XoX.XXoXo"
};
