/* XPM */
static char *d0404fab8a204f55b54844a21611ed9elePOVbNsdZRVAyZB[] = {
/* columns rows colors chars-per-pixel */
"64 64 140 2 ",
"   c #4E0204",
".  c #540204",
"X  c #5C0104",
"o  c #630104",
"O  c #6C0103",
"+  c #730003",
"@  c #780205",
"#  c #7A0104",
"$  c #7E0104",
"%  c #7E0105",
"&  c #7B0003",
"*  c #800003",
"=  c #810003",
"-  c #810103",
";  c #820003",
":  c #830003",
">  c #840003",
",  c #850003",
"<  c #860003",
"1  c #870003",
"2  c #800004",
"3  c #800104",
"4  c #830105",
"5  c #840004",
"6  c #850004",
"7  c #840104",
"8  c #850105",
"9  c #860104",
"0  c #860105",
"q  c #830003",
"w  c #880003",
"e  c #890003",
"r  c #8A0003",
"t  c #8B0003",
"y  c #8C0003",
"u  c #8D0103",
"i  c #8F0003",
"p  c #880004",
"a  c #890004",
"s  c #8A0004",
"d  c #8B0004",
"f  c #8B0104",
"g  c #8B0105",
"h  c #8C0004",
"j  c #8D0004",
"k  c #8D0105",
"l  c #8E0004",
"z  c #8F0004",
"x  c #8E0105",
"c  c #8B0004",
"v  c #900003",
"b  c #910003",
"n  c #930003",
"m  c #960003",
"M  c #900004",
"N  c #910004",
"B  c #900105",
"V  c #910105",
"C  c #920004",
"Z  c #930004",
"A  c #930005",
"S  c #920105",
"D  c #940004",
"F  c #950004",
"G  c #960004",
"H  c #970004",
"J  c #940004",
"K  c #980003",
"L  c #990003",
"P  c #9A0003",
"I  c #9B0103",
"U  c #9C0003",
"Y  c #9D0003",
"T  c #980004",
"R  c #990004",
"E  c #9A0004",
"W  c #9C0004",
"Q  c #9D0004",
"!  c #9E0004",
"~  c #9F0004",
"^  c #9B0004",
"/  c #A00003",
"(  c #A00004",
")  c #A10004",
"_  c #A20004",
"`  c #A30004",
"'  c #A30104",
"]  c #A30105",
"[  c #A40004",
"{  c #A50004",
"}  c #A40005",
"|  c #A50005",
" . c #A60004",
".. c #A60005",
"X. c #A70005",
"o. c #A30005",
"O. c #A80004",
"+. c #A90004",
"@. c #A80005",
"#. c #AA0004",
"$. c #AA0005",
"%. c #AB0005",
"&. c #AD0004",
"*. c #AD0005",
"=. c #AE0004",
"-. c #AF0004",
";. c #AE0005",
":. c #AF0005",
">. c #AB0005",
",. c #B00005",
"<. c #B10005",
"1. c #B20004",
"2. c #B20005",
"3. c #B30005",
"4. c #B40005",
"5. c #B60005",
"6. c #B70005",
"7. c #B30005",
"8. c #B90005",
"9. c #BA0005",
"0. c #BB0005",
"q. c #BC0005",
"w. c #BE0004",
"e. c #BE0005",
"r. c #BF0105",
"t. c #BD0005",
"y. c #C10005",
"u. c #C70004",
"i. c #C60005",
"p. c #C70005",
"a. c #C30005",
"s. c #C80004",
"d. c #CD0005",
"f. c #D60006",
"g. c #D70006",
"h. c #D70006",
"j. c #D90006",
"k. c #DE0006",
"l. c #DD0006",
"z. c #E90006",
/* pixels */
"+ O X X o o O + X o o O + + + + + + O o + X O O o X $ $ $ $ ; ; $ $ $ $ # + + O O o o O + + + + + + + + + O + + + + + + + + + O ",
"O . . o O O . . . . o . X + + + ; ; o O X . X.# + X o $ ; b +._ U P r $ + O O o X o o O O . X b U , + + b $ + O o X . X X X o O ",
"X . o o X . . X X o o O o X O r $ ; + o o . X O X X o $ &.5._ r $ $ + O o O + + + # O o O O .   + &.y U P m o . X X o o X . o X ",
"  O a + O X o X O P y + + o o + y + o O + S O O o + X , 1.P , $ O o X + b { _ y # # # + o o O   . O r _ , . X o O _ _ # + o X o ",
"  3 + + + + + b +.{ P + O o X + $ O . # # + O $ O o + ; _ , + o O O ; 0.y # # + O o O + + X . . o X O + o X o + &.&.P , # + o o ",
"X   O o X , 1.{ u.+.$ + + O O O + O . # o o + $ $ X + ; ; O o + O # # r , O X O + + + + + O X . b + . O . . + P w.u.+.# + + O o ",
"+ . . . o O # &.s.+.+ o o ; y ; # # . b # X + # $ O + # O o + + + + + + o X O P y + + + + O X X b , X O X . + ; 5., U _ U # O + ",
"5 o .   X + + r d.U + O O X o + # m # b $ X + $ # O O O + O + O # + O o o # U 7._ + O + O . X o , # X O . O . o y # o U r # + + ",
"6.o . .   . o O P , + + + + O X o ; P 8._ O o # $ O o # o + $ + # # o o O @ % + + O o o X X o + t.o + + + X .     . O r U ; # $ ",
"6.+ . X X X X . . . X O + + + + O o + $ y ; o + $ o + + X # r $ # + o $ O X O O o X . . . o $ ` ~ X + + X X @ + O X O # $ U $ $ ",
"; , X X O o X . O o X X . . X o o O O + $ $ + o + o # o O ; 8.; # O + O O X . . . . . . . . ` ~ S X + + . X o + @ o o $ ; b $ # ",
"+ o + O o X o + # # + O o . X X X X o + # # $ # O O # o O $ 8.r , + X . + O S k o + X . o 5 S #.o o + + + O + + + + + b { , $ $ ",
"o + + # $ $ # $ $ O X + O O + o O $ $ O O O + + $ # O o o $ m 8.w.m O X X X o O o X X # O , + o o + o o o X o o o + ; &.P _ $ $ ",
"+ # O O O O # $ + X o + O o + O X X X o X o O O + ; + + X # # $ _ &.$ o X o o O O X . . . X o + o . . o . . . o X . o $ # m # # ",
"O o o + O # , ; o o + + O X . . X o + + + + O o X o o O O X + $ $ b m $ O O + + O + + + + + + o . X X o + + . . X . . . . X + $ ",
"X X O o ; U m O o + ; o . o + # $ # $ $ + # # # # # O o o o X $ # y P # o O o + % # # # + o X X o O X o k 3 O O + # O + O . + # ",
"X o O O 1.r + + r + X X + $ $ # # # ; y $ $ $ # $ $ $ $ + o X o + $ { , o $ + + $ $ # + X O { m O $ + ; + O o o o . . . . X + + ",
"O o O P r # o k + . X + O O o o O + ; U { b +.+., $ $ r b $ o X o O $ , O O y ; $ + # . o + _ y + O o X o o O O O O o o X o X X ",
"O + # U $ O X O X o O $ + O O o o X o + $ b 8.1.; i.d.+.r ; # X X O O $ + o # ; + + o X O + O . . o + # y P P r ; # ; $ + X X o ",
"+ + + , + X o X o + + $ ; # $ # o X o o X + _ w.j.f.m o X o o O X X + $ # + O + o o + X o . . . X . + $ $ , 1.1._ , U U a +   . ",
"+ + + + o + o X + + O + $ 3 + % # o X . X o O r y O X X X o O + + X X o o o X X O + O O X o . . X . o $ # $ $ ; k y.7.U a ;   . ",
"+ $ r # X o o X + # + # + k + + # + X X r O X O O X . o + + + # # + O O o X X O O + O . X O o X . . . + $ ; $ , ; P &.7.; +   . ",
"# _ ; O . O o o @ # + # $ r k O # # o X b + O X o o X # + O + + # # # + + . + $ $ $ X . o # + o X . X X ; ; r ; # ; H # @ o     ",
"y _ # . O . o + #.-.R H #.U R 5 + # O X o .   X X X + + ; O O # + + O O X O + # # + . X # $ + O + o o $ X # $ # # + O O O .     ",
"y P + . # @ o X ; -.3 k :.@.9.S + + o X O o o . . . o + O . X # + # + O . # # + # o o o + + + O O X . b . O # # O O + O . X . o ",
"$ m +   o @ $ O . + m y.k.z.f.+ + o o . X o O . . . O X X O o # m { # + X O + + O X O # # + + o X O + U o O # + X     .   . o + ",
"+ X.$ . o ` - + O o o $ 5 3 + O . o X . O o . X . . . . X O o $ { 8.r + + + + X o   O # # O o X O + $ + X O + X . O + X . o + + ",
"# ` #.X o ] + O O O X X O o . X X   . . . X . X X X   . o o o + + b 1._ m $ o + # . O # P + . .   3   . o + + . . X . X O # # # ",
"# b y o O + X.+ O O X . . . . .   .   X .   o + + O o X o o O o o X X O # , # + + . O + y O O . . .   X + + O o X o + + # # # # ",
"# $ $ + X . O 7.#.@ + + O O O . O , O X o X O # O o o + O o X X o X X o O $ O X O . O + $ + , + O + O + + O o o + # + # # # # + ",
"$ $ $ # o O X ; ` -.~ ` k ^ ^ >.y w., X X . + + + . . X o X X X o O o o o o o X . . . O + # ; $ + + + o X o O O o + # # # $ , $ ",
"$ + + O o O O X . X o X 3 O ] >.o .   . o + + + + X O + . . . X X o o o o X X . X .   o O o O + + + O . X O + O o # o X X o +.+ ",
"O + X X O + + # + O o X X X   . X X o O O O X o X X . . . o O # O o + + + X X o o X       X   o O + + . o o + O O # o o X o X X ",
"$ . X $ m P 7.P # # $ # + O O + + + X X o O     . . . X O $ + O + # + + . . O o O o o .         . o + X . o # r $ # o { + . X . ",
"+ X + ; R R t.$ # # + o X + + + X   . o O O . . $ . . + O + + ~ r O + o   O + O O o O + # O X . . .   . . # b , # r O O $ X H O ",
"o X o 3 ` a r ; + o O O + + X     . X O O X . o X . X $ r a H + + $ # o . o O O + + # ; + O + + O X .     . . O O # # + + O o X ",
"X O . . X o X o X X o O + o X . X O + + O . X # . X O ` 9 9 % # + + + + . . o o O + $ r O + + + o X X X . .   . X o + + # o X o ",
"X . X ; $ % + O + $ + o . o O . + + o + + o O # . O + ~ O O + # + + + + O O + O + O y # O o o . . X o O o o o .   . X # $ O X X ",
"O o ^ R y.S r y # o o X O O O + O X O O X o X # . O O # O + o O O + + + O + # , # + $ O O O O . O # # + , # + O . . . X + + . . ",
"+ X o @ -.R 1., X o X o O O + $ O o # o # 1.o o . o # # + k 9 + X + # + + + # w.$ O o ; O + + . X # ; P { # + + o . X . . X . o ",
"$ # O o o o + o # + X o ; P $ # O o O O O O o X @ X o + + o o + X O + # + , y $ O X X $ . O O o . X $ m P _ r $ + . . o X o + # ",
"$ &.U $ + O X O # . o $ b $ $ $ $ # + + . O U o % @ X o o . . . o o , r m , + O o X o .   . . + + O + + , _ ; $ + . . o O + # $ ",
"1.-.$ + # . . X o X + $ # # + o X . X + X o O + o o o + X .   . X # +.m + o o o . O r # o . . + + O + + , { m + + . X @ $ # # $ ",
", y # + X . X X X $ ; # $ O X . .   . X + + + o + f.H # X . . X X r +.# X O O . o X . . X . . . o o O O X O o o o X o r ; # # $ ",
"# $ + X o + + + . ; ; $ + . X O O O O X O # # O . o r ; + O .   X ; + X X + . . . . X . O + O X X O X . o + O o o X o $ ; # $ # ",
"# @ o o y + o + X $ ; $ o O + $ # $ ; X o + $ ; # + X . # + # + + o % o o . . . X O + O o # o . . O . # b m o O . X O O # # # # ",
"# +   k + . X o X P 1., o # # o 6.+.U o o o # # ; + o O # # + # o X O X X . X O + + O O X ; m ; o o o + o +.o O . X . X X O + # ",
"+ + . + X O X X . + b $ O # + $ b + ; o o X O # # $ O + + + # + . . X o . . O + + $ # O . ; O m + X X O o o O X X O X o o X . + ",
"+ + O X . . . o . O + + + + $ $ $ X #   . . X + O X X o + # # O . . O o   O H r # @ @ . o  .o O O + O + O O O X X + O X X o o . ",
"+ + r o X o o + . o # + X O # + O o O # O + X O o X . . o # # X o a O X . O #.; O o . X O -  .O b r , $ # # X X o # + o .   . X ",
"+ O + + y X . X + o X + O X X X # O O b + + X + O o . o o # # X . o + o . @ R O o o . . . @ w.O + y y # # o . X O O O O o o . O ",
"+ + + X $ $ # w.r O X o X o o o O + b , + + X + r + o X + # # O . X o o . O ; . + . X O + o , . + ; { 6.+ X X o _ m + X + 5 o X ",
"+ o + . # O X 6.l.7 @ y X X X o , + X . o X O ; m # o m # + + O . k -.% o O @ . o .   % $ O o O $ # #.R + X . o # O o . . X X o ",
"o o # o o O O X @ + O O r y $ X , O . . X O + # O o o m $ P $ + X X o -.! O O $ o . . . . X + $ $ { #.# O . . X o X X . X o + + ",
"X + # # X O o + O + o . . . . X X X o + o X . X . o + # # $ $ + . o o O 9 + + # 9 O o o O O + $ +.5.+ X .   . o O X . o o + + + ",
"o + X # + o X X o O # + O o o O + # O . X + O O + o X o O O # O X o . + 3 O X + $ 5 O O # , r P m X     . o + O + , # O o O + + ",
"+ X . X o o + O X O + O X X o + @ $ $ . X O O O o . . o O o O O o o O # o # O . o O + o X o X .     . X O O + X X . o $ X X + + ",
"X X . o O # P +.9 + O . . O o . . o O # # # # ; + o o . o ; # + o . X o X X + + o X X o X X X X     . o o O   . . X . X $ o . O ",
"# X . + + # # _ ` + X o o . . . O + o . + # b &.` R ~ ; o X o + % O X o . . X o $ + O $ # # O X   . O O O +     . O + X m + . o ",
"O X X o o O + &.H 3 + o . o o . + , o X X O $ $ $ $ m b $ o . O 3 3 5 @ @ + X . X . X O o X O X . o + + + + O O + + +   . o   X ",
"O , . . O O + + a r # + + O o o o X o y r o # $ $ $ ; , $ # X o m &.+.+.0.5.b ; $ + O O + + O X . X X + # + O + + O X X X o . o ",
"O . X   . o o O O + + + + + + + + O X + + # O $ # $ ; # + o X X # b m m S , $ $ b b r ; # + O . . X . . X X X X . O +.U . O   o ",
"X . o O X o + O O + + + + + + + + + O . . . + # $ + + O X X X X # $ $ $ $ # $ # # + + # + # + X   X o o X . X X X , # X X . . + ",
"X . X X . o X X o + + O + + o X X o + o o o o $ $ + o o O X o + ; $ $ $ $ # $ $ $ + # + + + + O   . o X .   . O O .     . o # + "
};
