/* XPM */
static char *result[] = {
/* columns rows colors chars-per-pixel */
"64 64 243 2 ",
"   c #3D3F3A",
".  c #3C433C",
"X  c #44443E",
"o  c #654B3B",
"O  c #3D4A43",
"+  c #3C5249",
"@  c #444641",
"#  c #474844",
"$  c #444B44",
"%  c #4B4A45",
"&  c #4E4E49",
"*  c #524D48",
"=  c #44534C",
"-  c #4A544E",
";  c #47584F",
":  c #53534D",
">  c #5A544D",
",  c #59574D",
"<  c #4A5550",
"1  c #445954",
"2  c #455B54",
"3  c #4B5B54",
"4  c #4B5E59",
"5  c #555651",
"6  c #575A55",
"7  c #545C54",
"8  c #5A5C55",
"9  c #5C5F58",
"0  c #64574A",
"q  c #725E4F",
"w  c #635650",
"e  c #645C52",
"r  c #6A5D53",
"t  c #477A4A",
"y  c #4B7C4C",
"u  c #4C625B",
"i  c #48655A",
"p  c #556558",
"a  c #54645A",
"s  c #5C635B",
"d  c #536A5C",
"f  c #4E7650",
"g  c #55765B",
"h  c #686049",
"j  c #76674E",
"k  c #686357",
"l  c #63645C",
"z  c #6B655A",
"x  c #7B6554",
"c  c #746758",
"v  c #74655B",
"b  c #7C6A5B",
"n  c #7A7658",
"m  c #4D6E63",
"M  c #556C62",
"N  c #5B6C63",
"B  c #4C7566",
"V  c #537265",
"C  c #54756A",
"Z  c #557B6C",
"A  c #5A7868",
"S  c #646C63",
"D  c #7A6D61",
"F  c #677467",
"G  c #797467",
"H  c #617F71",
"J  c #747B73",
"K  c #876B57",
"L  c #836C5B",
"P  c #85775A",
"I  c #8D735C",
"U  c #91745D",
"Y  c #846E60",
"T  c #837363",
"R  c #8C7866",
"E  c #947B63",
"W  c #9B7C64",
"Q  c #977C69",
"!  c #A37F67",
"~  c #4D834C",
"^  c #4C8756",
"/  c #548B52",
"(  c #578A58",
")  c #538C5C",
"_  c #5A955B",
"`  c #76885B",
"'  c #62995E",
"]  c #4F8C6F",
"[  c #598A66",
"{  c #579666",
"}  c #5B9C6C",
"|  c #578775",
" . c #5C9B73",
".. c #6D876E",
"X. c #688A69",
"o. c #659767",
"O. c #629B6C",
"+. c #6C9B6B",
"@. c #759867",
"#. c #7A8375",
"$. c #689C72",
"%. c #749A76",
"&. c #5DA972",
"*. c #5BAF74",
"=. c #66A367",
"-. c #6CA56B",
";. c #6CAC6C",
":. c #73A46D",
">. c #62A573",
",. c #68AA76",
"<. c #73A373",
"1. c #76A976",
"2. c #68B27C",
"3. c #73B373",
"4. c #79B576",
"5. c #73B37D",
"6. c #7CB57B",
"7. c #7BBA7B",
"8. c #85845D",
"9. c #888866",
"0. c #988669",
"q. c #869869",
"w. c #92976C",
"e. c #858779",
"r. c #988873",
"t. c #899479",
"y. c #9B9879",
"u. c #A5856C",
"i. c #B2896D",
"p. c #A78B72",
"a. c #B38E73",
"s. c #A6977A",
"d. c #B8957A",
"f. c #85A66C",
"g. c #87A777",
"h. c #84AC7C",
"j. c #96A77B",
"k. c #83B77D",
"l. c #A4A37D",
"z. c #C59B7B",
"x. c #699A82",
"c. c #7EAA86",
"v. c #6BBB82",
"b. c #78B885",
"n. c #78C48C",
"m. c #78CB90",
"M. c #908D86",
"N. c #8A9885",
"B. c #96988A",
"V. c #999C93",
"C. c #A89985",
"Z. c #B79C84",
"A. c #A29E95",
"S. c #86A983",
"D. c #98A885",
"F. c #84BD83",
"G. c #88B788",
"H. c #94B384",
"J. c #97B78B",
"K. c #9CA394",
"L. c #87B494",
"P. c #98BA96",
"I. c #A6AA87",
"U. c #B7A68C",
"Y. c #A7B28B",
"T. c #B9B58F",
"R. c #A4A296",
"E. c #A4A49A",
"W. c #A9A89C",
"Q. c #B8AB96",
"!. c #A4B894",
"~. c #B7B498",
"^. c #ACA7A1",
"/. c #ACABA3",
"(. c #A8ABA4",
"). c #B2AEA5",
"_. c #B4AFA8",
"`. c #ABB5A4",
"'. c #B2B1A6",
"]. c #B7B9A6",
"[. c #B5B3AA",
"{. c #BAB6AC",
"}. c #BCB9AE",
"|. c #B8B9B1",
" X c #BDBBB2",
".X c #C9A687",
"XX c #C7AD96",
"oX c #C6B39D",
"OX c #D3B295",
"+X c #C9B8A4",
"@X c #C2BBAE",
"#X c #D2BDA8",
"$X c #C2BDB3",
"%X c #C6BFB8",
"&X c #88C686",
"*X c #8CC58A",
"=X c #89C795",
"-X c #8ECF93",
";X c #97CA96",
":X c #99D198",
">X c #AEC39B",
",X c #A4D59D",
"<X c #9CD3A4",
"1X c #ABCDA9",
"2X c #B7C4A7",
"3X c #A7D6A7",
"4X c #BBC5B6",
"5X c #B8D9B6",
"6X c #B3E2B1",
"7X c #CCC5AE",
"8X c #C5C1B6",
"9X c #C5C3B9",
"0X c #C7C4B8",
"qX c #CAC5BB",
"wX c #CDC9BE",
"eX c #D2C9B9",
"rX c #CECAC0",
"tX c #D2CDC2",
"yX c #D5D1C6",
"uX c #D0DDC7",
"iX c #D9D6C9",
"pX c #DBD5CA",
"aX c #E1DACF",
"sX c #E3DDD1",
"dX c #C8E4C3",
"fX c #D6E6CC",
"gX c #DFE9D4",
"hX c #E5E1D4",
"jX c #E7E6D6",
"kX c #ECE6DA",
"lX c #EDEBDC",
"zX c #F0E6DC",
"xX c #F1EADE",
"cX c #E9F1DB",
"vX c #F4EDE2",
"bX c #F8EEE2",
"nX c #F5F3E3",
"mX c #F9F2E6",
"MX c #FBF9E7",
"NX c #FCF5E9",
"BX c #FEFAED",
"VX c #FEFEF2",
"CX c #FEFFF9",
/* pixels */
"{.{.{.{._._.{._.^._.{._.^.^.^.^.W.^.).).).).).).'.'.{.@X{.{.[.[.{.{.@X@X{.{.'.U.# + 1 4 4 4 4 i 1 1 1 1 4 < 4 < < 1 = < ^.^.^.^.",
"{. X[.{.$X%X{._.^.^.^.^.^.^.^.^.)._._.{.{.{.{.@X@X{. X@X$X$X{.$X$X@X@X$X@X@X{.6 + $ + 4 4 1 1 1 1 4 1 < < 4 4 4 4 < = & S %X|.^.",
"$X%X$XqXqXqX{.@X%X X_._.^._.)._.{.}.$X X$X$X@X@X$X$X$X$X$X$X@X$X@X$X$X@X@X{.R.= + 1 1 1 1 1 1 1 4 1 4 4 u 4 4 s 4 4 < < 4 %X%X%X",
"%X%X%XyX%X%XrXtXrXrX%X%X$X%X%XqXqXwXwXqX0XqX%X%X0X0X$X%X$X$X X@X@X$X$X$X}.'.3 = 1 1 1 4 m i i + # @ @ # & # 4 N u 4 1 < < 6 %X%X",
"qXqXrXrXrXpXaXsXpXaXpXyXpXaXaXpXaXpXpXtXtXrX%XeXqX0X%X$X$X$X@X@X@X@X@X@X@XJ ; ; 1 4 4 + % X #   @ # # & * % : 5 4 M 4 < < < yXrX",
"rXtXzXyXpXzXsXsXkXbXbXbXvXvXzXkXsXsXsXaXpXpXtXrXqX0X%X@X$X$X%X$X$X8X8X@X].3 ; 3 4 & & # % # X # @ @ % & & & * : & : 4 4 1 < < yX",
"tXzXtXaXaXzXzXNXNXNXBXBXNXNXmXmXvXvXsXsXsXpXtXtXtXeXtXtXeXeXrX%XqXqXqX0Xl u M i # # % * o % % * * * * > * * * * 5 > * 3 < < < rX",
"sXpXtXsXzXbXNXNXBXBXVXVXVXVXBXNXmXvXvXsXsXsXsXaXaXpXpXtXtXtXrX%XqXqX0X].p m B % # % w r U Z.U.U.Z.! a.! Q Y Y v v v 8 < < < < rX",
"sXrXsXmXNXBXBXVXVXVXCXVXVXVXVXVXmXmXvXkXsXzXsXsXaXaXaXyXtXtXqX%XqXqX8XW.i B = % # * w x i.XX+X#X#XoX.Xi.! U Y x v v w 5 4 - = yX",
"yXsXmXNXBXVXVXVXCXCXCXCXCXCXVXBXBXNXvXvXkXvXkXsXaXpXpXeXeXqX%X$X@X@X7Xp m 4 & % & > q I a.XX@X#X#XXXi.! U L Y v v z w 6 m - < yX",
"zXmXNXBXBXVXVXCXCXCXCXCXVXVXVXBXBXBXmXbXvXkXsXkXaXpXpXtXtXtXeXqX0X8X$XV i & : * * w x ! a.OX#X#X#XoXa.! Q Q R L v v w 6 C = = < ",
"bXmXmXBXBXBXVXVXCXCXCXCXVXVXVXBXBXBXbXxXkXkXsXsXaXaXpXpXtXtXtXeX0XqX`.m & : 5 : * w v ! Z.OXoX+X.XXXd.i.a.z.a.R Y D w 5 6 < < < ",
"mXmXNXNXVXVXBXCXCXCXCXVXVXVXVXBXMXmXvXxXlXkXlXkXsXpXyXeXwXqX%X0X0X8X] 3 & 6 8 : > w e R Z.XXOXXXZ.z.Z..X.X.Xr.x D D e 6 6 < < - ",
"mXNXNXBXBXBXVXVXCXCXVXBXVXVXMXNXnXjXkXkXmXbXzXhXaXpXtXwX0X%X$X@X$Xc.B & 5 6 5 : * : w > w 0 v C.! Z.Z..X.Xp.c z v D w 9 8 4 - = ",
"bXbXNXNXVXVXVXBXVXVXVXBXMXMXnXxXhXjXnXMXnXxXkXhXsXsXyXeXwX0X%X X!.Z 5 : 5 6 8 5 5 8 w w r r e > w Q ! Y q e e e r S e 9 9 4 m = ",
"vXvXmXBXBXBXBXVXVXBXMXBXnXnXkXfXhXMXnXlXjXlXlXjXsXpXpXyXtX0X$X[.| N 7 5 5 6 6 5 > w w w T T r : w i.r w > r S D S D z S 9 4 H = ",
"zXvXmXBXBXNXNXnXnXcXcXcXcXgXdXdXcXcXgXfXjXjXjXhXaXpXiXwX8X9X$XS.H 8 6 6 8 8 8 5 5 r v b r r z e r.oXv > w z D D D D r S N 4 C = ",
"zXvXmXmXnXvXcXgXcXdXfXdXdX6XdXfXfXdXdXfXfXdXuXuXuXuXrX9X9X8X].Z 9 9 9 6 8 8 8 5 : r D Q C.y.r.r.+XeXD r v v r z G D e S S 4 m = ",
"zXvXvXvXcXgXgXdXdXdX6X3X3X<X<X6X3X6X5XdX5X5X5X4XwXrX|.[.'.].B p s 9 s 9 p 8 8 8 8 r Y C.U.Q.Q.~.eXeXT Y W ! W W Q R 8 S S 3 = = ",
"zXlXcXgXfXdXdX5X6X<Xm.=Xm.<X<Xm.<X<X<X<X<X;X;X1X1X].9X|.].|.Z 8 S e s e 8 8 8 6 6 r R Z.+X%X7XoX7XeXR T d.z.a.u.Q G r e N 4 4 = ",
"kXjXfXdX5X3X<X-Xm.-Xm.n.v.2.v.v.b.n.L.n.L.L.=XP.P.>X4XrXrXL.7 9 l l 9 9 9 8 8 6 8 r R C.oX@X7XQ.7XeXr.R d..Xz.p.Q z S S M 4 - = ",
"jXfXdX5X3X<Xm.m.m.2.} o.dXS.+.J.%.1.<.$.v.c.b.b.L.;X1X5XV.| 6 9 9 l 9 9 9 8 8 8 5 r D C.oX+X+X+XXXOX0.n i.z.z.p.R r v e N < < 4 ",
"fXuX5X<Xm.m.m.n.} } %.o.1.+.:.+.+.6.<.h.$.$.,.b.b.L.;Xd u | 5 9 9 l 9 e 8 s 8 8 8 5 z p.U.Q.7XeXeX0.z k E a.p.u.T S S 8 N < < 4 ",
"uX5X<X=Xm.m.*.] X.o.+.g.1.<.:.:.o.1.<.J.%.o.{ >.v.b.[ g d ] 5 s l l e N 9 8 s 6 6 5 8 R d.T.T.oX~.XXG b E Q Q T r S l N N < < u ",
"5X<X=Xn.n.*.) { c.<.h.;Xf.4.k.:.1.<.-.1.6.+.+.{ ,.>.O. .Z | 6 8 9 9 s l 9 9 9 9 p 5 , 0 s.U.r.G T r.T Y b c T k l S 9 N < - - 4 ",
"1X<Xn.v.*.{ } o.:.6.4.J.k.k.k.4.4.:.k.1.%.1.+.%.{ } >.O. .x.u 8 9 l e N s 9 l 4 a 6 8 , Q Z.d.r.r.R D D z v b l z l 9 H < < < 4 ",
";X=Xv.2.{ O.X.-.:.6.*X:X:X*X&Xk.k.4.6.6.6.6.<.<.O.{ >.,. . .Z 6 9 9 s l S 9 9 6 6 7 > 0 > Z.U.R e r r e e c e l S l 6 H 6 < < 4 ",
"=Xm.2.&.) o.+.<.1.&X*X;X*X&X&X&XF.6.6.b.*Xb.;.+.o.)  .&.&.$.| 6 9 l s M N M 6 N p p 5 r r w oXT.r.b k r T T e s S S N N M 3 < u ",
"=Xn.2.{ ) +.-.6.7.&X&X:X:X*X,X;X*X7.7.7.&X4.3.>.o.{ { &. .}  .a 8 8 a s 9 N 9 9 p p : r k w > +XU.C.s.0.0.> 9 S N s H s N < < < ",
"=Xv.*.) o.{ :.F.k.-X:X,X,X;X,X*X*X:Xk.k.&Xk.4.b.=.O.{ }  .[ | | 6 6 6 s 9 M M 6 6 p 7 G x j 0 0 r.r.u.R 0 5 N A N M a M M < < < ",
"n.v.*.( o.' @.F.&X*X-X,X6X:X,X*X*X:X*Xk.k.k.3.7.=.( )  . .[ A x.a 5 6 a N s a 6 7 p p G E L v e 0 > : , , p A H N H 9 7 4 4 < < ",
"b.v.*.{ o.' :.k.&X&X-X,X,X,X;X,X6Xk.6X&X7.k.4.b.<.^ ) } } [ g g ] 3 5 6 a M M a u 7 s z a.i.E L r > : : 5 N | N Z a N 4 4 < < 4 ",
"n.n.*.o.=.' ;.;.&X&X&X:X:X:X:X:X,X&X&X7.7.7.3.2.{ ) ^ {  .[ g d V | - - 7 M M a u 7 p l OXOXa.i.Q 8 : , N Z Z A d p d d < - < < ",
"v.7.2._ ' ' ;.;.4.&X&X&X&X&X&X-X:X&X&X7.3.4.3.;.-.{ ) ] ] ^ g g d m ] i 5 p V d u a < p > I Z.K * * - a Z | Z A p d a a ; ; < < ",
"*Xb.;._ ' / ;.;.4.4.&X&X&X&XF.&X*XF.7.3.7.3.;.=.o.{ ) } { [ g d a 3 3 Z M 3 M C d u 3 p 8 * * * * * & V | M ] 7 s d N a < 2 - < ",
"=Xb.;./ ' / _ =.;.4.4.&X7.7.7.4.F.4.3.7.3.3.;.=.) ^ } &. .[ g d u p 3 u B Z u C Z a u 5 p % % % & - 6 Z B C : d C A d 3 < < ; R.",
"=XG.v.{ / ~ / ' ;.;.3.3.4.3.3.k.*X3.3.3.3.;.=.=.) ) } 2.,.[ A d p < < u 7 i Z i V m a 3 5 , % % - & p Z B , a Z C N a 7 < ; - R.",
";X=Xb.*.~ / ~ / ' ;.;.;.;.;.;.4.3.3.3.;.=.;.&.=.^ ) >.} c.P...d < - = < < 3 4 C i B u 3 - 3 % % % - u A - 3 M m M 3 3 < < - R.R.",
"<XG.v.,.' / ~ ~ / ' ;.;.;.;.;.;.;.;.;.O.=.' _ ^ ^  .O.%.S.%.K.P.].K.J + $ $ < 2 i m i < : - & # % - 7 - - d u < - < J F a R.R.R.",
"P.b.c.5.3./ ~ ~ ~ / _ ' =.=.;.;.=.=._ _ _ { ) ^ } } %.S.$.t.#.B.K.(.(.(.|.`.. = 2 2 i i < : & @ X & X $ 3 ; $ $ V.J F J R.R.R.rX",
"P.G.L.v.5.,.y y t ~ / / _ _ ' ' ' _ _ ( / ^ / { } O.O.S.V.e.S J t.M.#.V.(.(.|.4XO + 1 # i < - # # 5 . O + = 4X[.#.S J B.rXtXrXtX",
"P.P.L.c.5.5.5.{ t t t ~ / / ( ( / / ^ ~ ^ ^ { ,.O.{ $.%...F N.M.(./.[.(.V.(.|.(.(.(.O O @ O & % X   . O 5  X[.B.J M./.rXtXrXhXyX",
"1XP.N.S.1.v.5.,.{ ^ t t y y ~ ( y t t ~ ^ } *.2.$.X.X...S.K.B.e.x.E.(.4X|.9XE. X|.|.(.S O   . @ .   . 9X/.(.R.W.[.E.rXrXrXhXR.R.",
"W.D.D.c.S.1.} { [ ) ) y y t [ y y ~ ) { &.>.,.v.h.f F ..e.#.e.(.@X X%X(.|.rXrX/.9X[.9X%X|.hXM.@ J iXE.[.(./.{.).rXtXV.rXrXR.R.R.",
"K.y.N.S.%.( [ [ O.[ [ [ A ( [ ) [ { >.} &.,.2.v.S.P.p B.K.W.(.(.^.%X9X9X X XrXrX|._.9X(._././.(.M./.'.[.).W.).).B.W.{.E.'.R.hXyX",
"K.B.K.e.p g %.J.G.J.J.<.%.$.{ [ { O.{ O. .,.c.%.G.P.F J K./.`.'.%X^.E.%X4X X%XqX9X|.(.|.%X X9X9X X[. X^.).{.B.).}.'.'. XR.hXyXrX",
"!.!.Y.!.H.J.!.J.!.H.H.H.J.1.<.$.+.X.X._ $.<.1.%.D.B.W.e.K.Y.Y.~.)._.wX). X$X X|.|.[.[.V.E.[.|./.rX).^.'.V.A. X}.$X%X0XR.R.tXrXtX",
"k.G.H.H.J.H.H.H.h.h.F.F.H.H.G.t.%...[ g g N...B.#.N.W.D.D.D.J.!.~.).W.qX9X/. X|.|._.(.[.[.[.9XrX[.).[.R. X$X$X$XqXwXE.tXrXrXtXrX",
"h.H.H.D.j.f.f.:.@.:.h.k.g.j.k.j.h.G.h.<.@...D.t.#.e.B.j.g.D.2X2X~.@X}.'.qXqX'. X(. X|./.(.E.|. X[.'.'.0X9X9X0XrXyXrXrXtXrXrXyXyX",
"j.D.I.j.j.f.@.@.@.' :.f.g.g.g.k.f.j.j.k.F.J.J.h.t.e.t.<.%.~.2X2X~.8X8X7X'.4XqX9X X X[.`.(.(.W.[.'. X0X0X8XrXtXrXrXtXtXtXtXyXyXyX",
"s.l.l.l.l.w.` ` ` ` f.j.j.k.g.g.g.g.j.F.b.&XJ.>X!.D.<.:.q.~.oX7XR.].W.W.~.^. X8X X9X8X8X$X{.'.[.8X8X8X0XrXtXtXrXtXrXyXyXyXyXyXyX",
"0.w.s.s.l.8.` ` q.q.f.j.l.l.H.j.H.l.k.4.G.!.!.>X>XH.;.@.` U.~.Q.I.D.S.D.Y.].}. X9X%X X$X}.$X8X$X8X}.0XwXtXrXyXyXiXyXyXyXuXyXyXyX",
"U 0.0.0.p.P P 8.w.j.D.I.Y.Y.j.j.Y.j.4.G.,X>X>XT.>X3.q.` k n p.@XD.h.t.J.>X]. X8X[.$X9XqXqXqX%X[.$X8XrXrXrXtXtXyXyXyXyXyXyXyXtXyX",
"P U E U K j P p.y.h.6.G.Y.Y.Y.Y.I.k.k.;X>X>XT.T.f.f.@.` j j C.{.D.S.D.!.].]. X9X9X%X X X$X[.{.9X0X0XqXrXyXtXuXtXyXyXyXyXyXtXyXtX",
"R 0.T b C.Z.d.I.h.6.k.j.H.Y.Y.T.j.g.j.T.l.l.l.l.f.q.` P n b ~.D.D.t.V.W.`.`.'.{.qXqX0X0X%X X9X9XqX0XtXyXyXyXtXrXyXyXyXiXyXtXrXrX",
"= $ $ X U.XXQ.Y.S.F.>X2XD.D.I.Y.w.q.` 8.w.0.l.j.q.8.8.U x p.U.D.N.R T I.qXwX0X X0X0XqX9X0X X X9XrXyXtXtXrXrXrXtXyXyXyXyXtXrX9XyX",
"O + + O X Q.XXh.J.>X2X>Xw.j.U.y.8.8.n j 8.8.l.w.w.0.0.K c U.C.C.r.b b 8X X0XqXqXqXqX%X%X9X%XqXrXtXyXyXtXrXrXrXyXyXyXtXrXrX%XrX%X",
"= O + O . X Q.g.Y.Y.~.D.w.C.s.w.8.n n P P u.0.8.8.0.U q r.y.y.M.T c %XeXtX$XqXtXyXtXtXtXrXrXrXyXyXyXyXtXrXrXrXtXrXrXtX9X X X$XqX",
"(.= + O O e.y.q.t.U.~.r.0.0.s.8.8.P K I 0.0.n P 0.U K K 0.r.r.R c ].qXeXtXyXeXtXtXyXtXrXrXtXyXyXyXyXtXtXtXrXrX9XrX%X%X X%X_.{.^.",
"W.x.+ O . C.t.9.n n P 0.p.I 0.8.8.K I ! u.j j 8.W U x r.Q 9.E x r.%XqXeXyXyXyXyXtXpXtXtXtXtXyXyXyXyXtXrXrXtXrX%X4X|.|. X|.^.^.^.",
"A.^.N + X I.9.R x n U U U K 9.8.K I U U U 0 x U U K Q I Y Y Y b %X%XeXtXyXyXpXyXtXpXtXrXrXtXyXrXtXyXtXrXqXqX%X X$X|._._._.^.^.^.",
"A.A._.M.e I.p.Q P K 0.u.o U U W U I ! ! 0 0 x K I K K q L Y Y @XqX%XeXtXyXeXyXyXpXpXtXtXrXrXrXyXyXtXrXyX%X%X%X X{._._._.^.$X^.^.",
"A.M.V.A.).s.p.u.W W i.u.o W K I K U W W o q q L q x q K L Q %XeXeX$XqXtXtXyXyXyXtXtXrXrXrXrXrXyXtXyXrXrXqX$X%X|._._.^.^.^.^.^.^.",
"M.B.M.G ~.Z.0.U W u.a.K K W U U I E p.K 0 h x K L K I r.+XeXtXtX%X%XeXyXeXtXtXeXrXrXrXrXrXrXrXyXrXtXyXrXqX$X$X{.%X^.^.^.^.^.^.^."
};
