/* XPM */
static char *_4810cc7f2c7411cf8248bca262f897dDl3cdTYzi112iLc9[] = {
/* columns rows colors chars-per-pixel */
"64 64 168 2 ",
"   c None",
".  c black",
"X  c #1D0F26",
"o  c #1C0D29",
"O  c #160B27",
"+  c #1C1126",
"@  c #1E1229",
"#  c #1F1030",
"$  c #210F2C",
"%  c #201327",
"&  c #22142C",
"*  c #251434",
"=  c #2A1635",
"-  c #291836",
";  c #2C153A",
":  c #291938",
">  c #381637",
",  c #301837",
"<  c #33163B",
"1  c #331B3D",
"2  c #3A1B3E",
"3  c #321537",
"4  c #43283D",
"5  c #2B1742",
"6  c #2F1845",
"7  c #341741",
"8  c #341A44",
"9  c #3C1D44",
"0  c #361C49",
"q  c #3C1B4B",
"w  c #1F2B40",
"e  c #1F2D4B",
"r  c #282B46",
"t  c #372049",
"y  c #3A224F",
"u  c #322945",
"i  c #213147",
"p  c #21334E",
"a  c #29364F",
"s  c #233750",
"d  c #223D54",
"f  c #2A3D53",
"g  c #421E45",
"h  c #421D4D",
"j  c #4A1D49",
"k  c #451E50",
"l  c #491F50",
"z  c #442145",
"x  c #44204C",
"c  c #4B224E",
"v  c #422D40",
"b  c #50234F",
"n  c #463444",
"m  c #5A3644",
"M  c #5A334D",
"N  c #4D2456",
"B  c #542553",
"V  c #552857",
"C  c #5C2C57",
"Z  c #5C255B",
"A  c #552858",
"S  c #5D285A",
"D  c #562359",
"F  c #6F3C4A",
"G  c #61275C",
"H  c #632B5E",
"J  c #62315C",
"K  c #652A60",
"L  c #6A2D62",
"P  c #6F3268",
"I  c #703067",
"U  c #73326A",
"Y  c #334641",
"T  c #345047",
"R  c #26425A",
"E  c #28455D",
"W  c #32425A",
"Q  c #376B58",
"!  c #2A4B60",
"~  c #2D5566",
"^  c #2E5C6B",
"/  c #315F6F",
"(  c #3B5C69",
")  c #336474",
"_  c #356B72",
"`  c #386E7F",
"'  c #357176",
"]  c #36777A",
"[  c #56424A",
"{  c #58444B",
"}  c #6C434B",
"|  c #654E54",
" . c #6C4A54",
".. c #735259",
"X. c #745B5F",
"o. c #475D69",
"O. c #775D63",
"+. c #407E64",
"@. c #7B6167",
"#. c #825A5D",
"$. c #97565F",
"%. c #85605D",
"&. c #96675E",
"*. c #895E64",
"=. c #8C6567",
"-. c #956C66",
";. c #9B6E6E",
":. c #9D7360",
">. c #8F7173",
",. c #9D7474",
"<. c #9F7F7E",
"1. c #A46261",
"2. c #AA7C67",
"3. c #AC7E69",
"4. c #A87572",
"5. c #B07771",
"6. c #C7506B",
"7. c #458968",
"8. c #4D9A6F",
"9. c #4B956D",
"0. c #4D9F71",
"q. c #4EA372",
"w. c #50AB76",
"e. c #B0826A",
"r. c #B5847A",
"t. c #B98777",
"y. c #C6887D",
"u. c #C9927F",
"i. c #3D7887",
"p. c #3A7384",
"a. c #407F8B",
"s. c #41828D",
"d. c #458B94",
"f. c #479298",
"g. c #48959A",
"h. c #4AA0A3",
"j. c #AA8887",
"k. c #AB8888",
"l. c #B28C8B",
"z. c #B6928F",
"x. c #BA9591",
"c. c #BE9993",
"v. c #CD8088",
"b. c #C98A8D",
"n. c #C7818C",
"m. c #CC9382",
"M. c #C89584",
"N. c #C29C95",
"B. c #D59492",
"V. c #DEA186",
"C. c #C9A097",
"Z. c #C7A098",
"A. c #D3AA9E",
"S. c #D7A59C",
"D. c #E5AA8C",
"F. c #E0A68A",
"G. c #E1A79B",
"H. c #EBB190",
"J. c #DAAFA1",
"K. c #DAB1A2",
"L. c #E3B8A7",
"P. c #EDBDA9",
"I. c #ECB5A3",
"U. c #ECC2AE",
"Y. c #F4C7B1",
"T. c #F0C5B0",
"R. c #F5CAB3",
"E. c #F5CAB3",
/* pixels */
"                              : +                                           + +                                                 ",
"                              : +       d d R d h.d                       : + : +                                               ",
"                            + + +   d d w.w.w.w.h.d d d d                 + + : + :                                             ",
"                          : + U + d d w.h.h.h.h.] ] ] ] d d d             + U + y +                                             ",
"                        : + : U + d ^ ^ ^ ] ] ] ] ] ] ] ^ ] d R         : + U + y + :                                           ",
"              d d ^ ^ h.+ + U U + h.h.] ] ] ] ] ] ] ] ] ^ w.w.d d       + + U + y + +                                           ",
"                d w.w.: + y U U + h.] ] ] d.a._ ] ^ ^ d d d w.w.d       + U U + y y +                                           ",
"                    d + y y U : + + ] h.f.) / p ] ] H.E.E.^ ] w.d       + U N + y y + +                                         ",
"                      + y N U U : X h.0.7.s e ' ] D.D.6.E.^ ^ ] d     + + U N + y y y @                                         ",
"                      + y + U U : X 0.7.E e d ] ] o.I.Y.E.^ ^ ] h.: + + U y N + y y y + :                                       ",
"                    + : y + N U : = o E ! s ] ] h.( P.Y.H.d ^ ] h.d + U y N z + y y N y +                                       ",
"                  d + : y @ N U L - o o s d ' _ g.d H.R.d d ~ ~ h.d + y y x , + y y N y +                                       ",
"                d d + : y + N N I I : + + d.p.i.~ D.H.d d p E d d.d d y y - + + y y N y @                                       ",
"              d p g.+ y t + @ N N y : o o ~ T u 2.E.H.E.d 3.&.r f 8.d d 9 $ + - y y N + +                                       ",
"              d f.+ + y t & + N N N - X ) Y F 1.Y.E.. E.E.. e.&.W ~ 7.s & X X y y y @ @ + +                                     ",
"            s i _ + : y y * + + N - - e Q u $.G.% . . E.E.. . . . a.s.i * * - y y : + N : +                                     ",
"            p ^ d.+ : y y x & o + * p p i a : + . . . E.E.E.. y + + + @ + + y y : + y N : +                                     ",
"            i.d.q.+ : 0 : N * & + & s d - + + + y . . E.E.E.. + N N N : 8 y : : + o 0 N : +                                     ",
"          p +.9.d + y q : : : o & w s + + + y y N + E.E.e.H.+ & & U N t N y : : o q y N y +                                     ",
"        d p p d d : y y * = = @ & & + + + y N V : + e.e.. . e...+ + + c N N + o h N y N y +                                     ",
"    d d d d d     : y y 0 * X o + + + + y N N U & + . . . . . M + + + + U + o k N N y N y +                                     ",
"d d d d d         : y N N * o o t N N N N N N S : . . + + . + . ;.+ + + + o 6 l N U t N y +                                     ",
"                  : y N l 6 * * t N N N N N & @ @ . + + + . + . . ;.+ + o 6 x N N L & N y +                                     ",
"                  : y N N k 5 * y N N N U @ + @ @ . . + + . + . + + X - 5 q N N B : + x y +                                     ",
"                R - y N N N q 5 o y y U X O X 3 & . . + + . + . . + * 8 q l N K z & + c y +                                     ",
"          d d d h.- y N N N k 8 O + y + O X & . . . . + + . + . . + 6 q l N x z - + z x U +                                     ",
"        d d w./ ] : y N U U N N 0 o + + $ % j + e.+ . . . . . . . + h N x z x 2 + + 1 N U +                                     ",
"        d d d w.^ : y N N U N N h 0 * X o 2 M =.H.R.e.+ . . . + * q h 9 x * + + + - u N U +                                     ",
"              d R - y + + U U N l h 7 # $ 4 m =.R.R.R.e.e.+ + - 9 N 9 9 - & + + : - t N U +                                     ",
"                  - y y + + + U I l q 7 l 1 * y.R.R.R.R.+ + + 9 9 N = $ & &     * : c N U +                                     ",
"                  : : y + + + + U I l k q 6 o X R.R.R.+ X ; 1 8 8 : * o M.U     & : N N U +                                     ",
"                    + y N + + + o U U N h h h o + R.+ + 8 g c # * 1 X N r.K.U   @ 5 A N y +                                     ",
"                  ^ + y y N y + + + : : y x h 8 o o X 7 0 t * * n S   9 #.M.I   * u N y : +                                     ",
"                  ^ + y N N N + + U E.: - * & 8 * o o % : ; N.@.v H   z S #.L   # N N y + +                                     ",
"                  ^ + y N A N @ : U E.:.z + + & o * * o + % U.X.4 L     K l.L   - N N y +                                       ",
"                  ^ + 5 y N N + : U E.c =   + X X o % X - + + @.z       K L   - y A N :                                         ",
"                    @ + y N A @ : H.t.2 X     + 9 -.o X + + + & L             : N N y :                                         ",
"                      + y N N @ - H z %         > 2 -.D.+ X + + + +           : N N : :                                         ",
"                      @ : N N + :                 = 9 u.R.R.N & + + + + +   : : N A :                                           ",
"                      + : y N + :                 o = #.P.G.S.B             : N N : :                                           ",
"                        + y N y %                 k : O.B.v.b.S             : N N :                                             ",
"                        + : N A +               ; B t.l.b.n.y.A           : y N : :                                             ",
"                        + + y N +               9 J L.P.u.C B             : y y :                                               ",
"                          + y N +             2 c J.U.R.5.q L             : y : :                                               ",
"                          + + y + +           , ,.E.E.F.1 ..I           + : y :                                                 ",
"                            + y y +           1 ;.E.T.l m =.U           + y : +                                                 ",
"                            + + y + +       1 7 J.E.t.> } u.U         + + y : +                                                 ",
"                              + + : +     O ; A E.m.2  .5.D.I         + : + + +                                                 ",
"                                + : +     1 j L.E.N < ,.V.m.L         + + +                                                     ",
"                                + + + + 7 7 A.E.V l Z J.A.x.        + + +                                                       ",
"                                  + + + 1 G R.U N   Z E.N.Z         + +                                                         ",
"                                      + + E.R.t   9 x.T.N.G                                                                     ",
"                                      x K.E.9 1   ; J.A.Z                                                                       ",
"                                      J K.c 9   B q P.G G                                                                       ",
"                                      L B x   K l A.N.D                                                                         ",
"                                      c x     h 3 x.j.h                                                                         ",
"                                        N   L < { j.c.L                                                                         ",
"                                            N M | z.P                                                                           ",
"                                            l { r.K U                                                                           ",
"                                            = | K.P                                                                             ",
"                                          Z O.>.P U                                                                             ",
"                                          G l.l U                                                                               ",
"                                          U N U                                                                                 ",
"                                          U U                                                                                   "
};
