/* XPM */
static char *d7a99f625b8245d489cf3970f22315bcqUeJnaxkSqID0HWs[] = {
/* columns rows colors chars-per-pixel */
"64 64 249 2 ",
"   c #1F0512",
".  c #190D2B",
"X  c #02033D",
"o  c #09083A",
"O  c #0A0B3D",
"+  c #130B39",
"@  c #0A113E",
"#  c #18173A",
"$  c #2F152B",
"%  c #281837",
"&  c #182337",
"*  c #24243A",
"=  c #572A2E",
"-  c #040443",
";  c #060A45",
":  c #0C0B44",
">  c #090548",
",  c #040C49",
"<  c #0B0C4A",
"1  c #120C47",
"2  c #081446",
"3  c #0D134B",
"4  c #161946",
"5  c #11134D",
"6  c #141C4B",
"7  c #090952",
"8  c #0D1451",
"9  c #121552",
"0  c #161C55",
"q  c #261C47",
"w  c #19244B",
"e  c #0F324C",
"r  c #1B2357",
"t  c #272747",
"y  c #2E2C4C",
"u  c #383449",
"i  c #272B59",
"p  c #253456",
"a  c #383855",
"s  c #393966",
"d  c #482840",
"f  c #483948",
"g  c #57394A",
"h  c #463956",
"j  c #683F4C",
"k  c #0B4247",
"l  c #124953",
"z  c #195858",
"x  c #2F5158",
"c  c #364E6E",
"v  c #326E6F",
"b  c #4B445B",
"n  c #564A53",
"m  c #584956",
"M  c #644F4E",
"N  c #6A4957",
"B  c #774D56",
"V  c #65535C",
"C  c #775559",
"Z  c #4B4968",
"A  c #575369",
"S  c #4F4F70",
"D  c #685966",
"F  c #785A68",
"G  c #705B72",
"H  c #696467",
"J  c #776A75",
"K  c #73717C",
"L  c #803644",
"P  c #8F5659",
"I  c #8A585B",
"U  c #A65759",
"Y  c #97645D",
"T  c #A5625D",
"R  c #B0675F",
"E  c #855A66",
"W  c #935D64",
"Q  c #AA5166",
"!  c #876567",
"~  c #8C626B",
"^  c #976568",
"/  c #956B6A",
"(  c #9C726B",
")  c #866775",
"_  c #976973",
"`  c #89747B",
"'  c #997775",
"]  c #A86867",
"[  c #B26C66",
"{  c #B86C66",
"}  c #A6756C",
"|  c #BA7369",
" . c #A96977",
".. c #A77777",
"X. c #AC7C73",
"o. c #B37D72",
"O. c #B77678",
"+. c #C87365",
"@. c #C47569",
"#. c #C57B6B",
"$. c #CC7D6C",
"%. c #CA6F71",
"&. c #C77B76",
"*. c #3E867E",
"=. c #7C837B",
"-. c #8F8278",
";. c #AB847B",
":. c #B2847B",
">. c #B8877A",
",. c #CD816E",
"<. c #CB8273",
"1. c #C6887B",
"2. c #D38475",
"3. c #D3857A",
"4. c #D88678",
"5. c #DB8C7C",
"6. c #C6947C",
"7. c #DB937F",
"8. c #E1907B",
"9. c #3E7184",
"0. c #575B82",
"q. c #50748F",
"w. c #766F85",
"e. c #8F738B",
"r. c #8A7989",
"t. c #977686",
"y. c #A57983",
"u. c #BA7B83",
"i. c #A57E90",
"p. c #D07983",
"a. c #4E8C8E",
"s. c #609B9C",
"d. c #62A49F",
"f. c #6FB198",
"g. c #5E9AA4",
"h. c #69B2A7",
"j. c #7BB9A5",
"k. c #77BCB7",
"l. c #6AC4A8",
"z. c #76C9AD",
"x. c #6CCEB3",
"c. c #77C9B4",
"v. c #7CCEB2",
"b. c #72D1B4",
"n. c #7CD2B5",
"m. c #7DD3BA",
"M. c #7FB8CB",
"N. c #7DC2C0",
"B. c #968B8F",
"V. c #A98886",
"C. c #B78984",
"Z. c #BB8E82",
"A. c #A79A88",
"S. c #BA9787",
"D. c #A98994",
"F. c #B78D98",
"G. c #B09797",
"H. c #85AA95",
"J. c #96AA94",
"K. c #A7AB9A",
"L. c #BFA895",
"P. c #B9A998",
"I. c #AD9FA0",
"U. c #85BBA8",
"Y. c #93BCAE",
"T. c #B0B2AA",
"R. c #C78985",
"E. c #D68B84",
"W. c #C39384",
"Q. c #CA9987",
"!. c #DD9383",
"~. c #D79788",
"^. c #D39D8B",
"/. c #D58891",
"(. c #C69594",
"). c #D89892",
"_. c #E48C8D",
"`. c #E19788",
"'. c #C6A28A",
"]. c #CAAB97",
"[. c #D8A696",
"{. c #D3AD95",
"}. c #E3A78F",
"|. c #E4A697",
" X c #DAA5A8",
".X c #D7B7A5",
"XX c #CAB7B2",
"oX c #E9B8A8",
"OX c #F0B4A9",
"+X c #87C9AE",
"@X c #8FCDAD",
"#X c #82CDB4",
"$X c #83CEBB",
"%X c #98CAB4",
"&X c #84D2B6",
"*X c #8AD3B5",
"=X c #84D4B9",
"-X c #8BD4BA",
";X c #8DDAB8",
":X c #91D2B7",
">X c #ABC3AD",
",X c #A4D1B5",
"<X c #A7D5B8",
"1X c #D7C5A8",
"2X c #DAC6AC",
"3X c #DECBAD",
"4X c #CACCB3",
"5X c #D9C7B5",
"6X c #DCD5B7",
"7X c #E4CDAD",
"8X c #E9CAAB",
"9X c #F1CEAE",
"0X c #ECD3A5",
"qX c #E4D2AE",
"wX c #EBD1AD",
"eX c #F0D1AB",
"rX c #E5CDB2",
"tX c #E6C9B4",
"yX c #EACCB5",
"uX c #ECCEB9",
"iX c #F3CDBA",
"pX c #E6D1B3",
"aX c #E9D1B3",
"sX c #E5DAB4",
"dX c #E5D2BA",
"fX c #EDD0BA",
"gX c #EED1BB",
"hX c #EDD2BB",
"jX c #EED2BC",
"kX c #EED3BC",
"lX c #ECD8BE",
"zX c #F3D6BA",
"xX c #F1D3BD",
"cX c #83BAC9",
"vX c #B4AECB",
"bX c #86CBC6",
"nX c #89D4C4",
"mX c #95D9C7",
"MX c #93D3D3",
"NX c #A7D6C3",
"BX c #A6E0EE",
"VX c #E6CCC5",
"CX c #FACCC3",
"ZX c #E5D5C4",
"AX c #EDD4C4",
"SX c #EDD9C1",
"DX c #F3D5C1",
"FX c #F6D6C3",
"GX c #E7E4CB",
/* pixels */
"2XXX1X1X2X2X2X3X3X7X3XqXpXyXpXeXpXdXpXaXuXtXaX{.3X3X0X8XyX8XaX3X1XL.P.].tX.XuXuXhXhXhXuXhXuXuXjXxXuXtXtXuXuXuXdXtXuXtXtXtXtXtXoX",
"5X1X1X1X2X2X7X3X3XrXrXwXpXwXaXdXhXaXeX8XuX7XXXXX@ 0.w.b K 2XL.8X2XP.P.].tX.XjXuXxXhXuXjXuXjXhXiXxXuXyXtXuXhXuXuXuXuXyXuXtXyX8XtX",
"5X2X2X3X3XrXrXrX7XqXdXpXaXwXwXwX8XwXqXA.T.m + > : O @ - 4 % J -.V.P.P.].tX].jXuXhXuXhXhXhXuXuXjXhXjXuXtXuXuXuXuXuXuXuXyXyXyXtXtX",
"6X3X7X3XrX7XpXwXpXpXrXrXeXaXdXwXaXT.H w 5 < X < ; < ; 8 8 < 6 H x B.A.A.tX'.xXjXhXjXuXjXjXuXjXuXiXjXyXtXuXhXhXhXuXuXuXuXuXuXuXyX",
"dXtX7X7XrXpXrXpXwXwXpXwXwXpX2XXXn w 6 , : ; , r 9 3 > < : : 3 6 @ p K ` .XQ.jXhXaXxXuXuXuXjXuXxXxXiXyXtXiXuXjXhXhXjXhXhXuXuXuXuX",
"ZX3XrXrXrXpXpXaXpXrXdXqXhXZXH s 6 r r p 6 3 - 9 0 < : X - - > < ; ; w Z ` G.xXjXzXxXxXxXhXjXjXuXhXjXyXtXyXuXjXjXhXuXjXuXuXuXuXuX",
"hXrXrXqXaXwXpXaXpXpXdX7X6Xm T.- : X - - - - - 9 5 - < 9 - - - ; - 5 w p * G.jXdXdXxXhXxXjXuXjXjXiXhXyXyXuXuXxXjXuXjXjXuXjXuXuXuX",
"lXrXdXpXaXrXpXrXpXaXhXdXA.A i 8 - X X - - - < X - - < 8 0 - ; ; ; ; 2 w & I.jXjXuXjXxXxXuXxXjXxXhXiXyXtXyXiXuXjXjXhXjXjXxXjXuXjX",
"SXaXpXpXaXaXaXaXaXaX7XdXT.O 3 , : - - X - - ; : - X X 3 r ; r - 3 9 3 6 4 D.xXhXiXiXjXjXzXjXhXuXzXxXuXtXuXhXhXhXuXhXxXuXjXuXhXxX",
"jXpXaXwXaXaXpXpXaXpX0XZXq - - 9 > : 5 : @ 4 1 w 4 O o 4 3 o 9 3 < , , 0 0 B.zXzXZXzXjXjXjXjXhXuXiXiXuXyXuXxXuXjXjXuXuXhXxXjXxXuX",
"lXyXaXaXpXaXpXpXaXaXjXB.> 7 < 2 2 t f B P ^ P Y ^ I N B V u # 3 , 0 6 6 q B.aXCXrXjXxXjXhXxXjXiXxXuXuXtXuXhXdXhXjXxXjXxXjXuXhXuX",
"lXpXyXaXpXpXdXaXpXpXuXA - > X a b N ~ T [ [ [ | | [ O.] ] ~ F m t + - > O A hXiXlXuXzXjXxXjXjXjXxXiXyXtXhXhXhXhXjXhXxXuXjXhXjXlX",
"lXrXpXaXaXaXaXaXpXrXuXD > , 6 g B P [ +.+.@.$.$.#.#.@.+.+.[ U I E n + 7 0 t hXzXhXhXjXxXhXxXxXxXxXxXuXtXyXjXdXhXxXxXjXjXjXhXhXdX",
"SXpXrXpXaXpXrXaXaXyX6Xm 7 - a N B U { %.#.$.2.2.3.<.<.,.$.| T ] W E * , ; + jXzXdXhXjXuXjXjXuXxXxXiXuXtXhXhXxXjXuXhXhXxXjXxXxXxX",
"SXaXrXaXaXpXpXaXaXpXdXJ 7 3 h B E [ @.$.2.2.2.5.7.5.2.2.$.@.| T ] ^ m 3 9 1 lXhXlXzXjXjXxXjXuXxXiXxXyXyXhXuXjXjXhXjXuXjXjXxXzXjX",
"SXaXaXpXaXrXaXpXpXaXqXy 3 4 V C W [ | $.4.4.8.`.7.5.4.,.$.+.+.R ] Q V 0 - : ZX9XlXhXjXjXhXjXdXzXxXxXuXtXhXdXjXjXjXjXjXhXjXuXjXjX",
"DXdXrXpXpXrXaXaXaXaXpXt 3 w D I P +.+.$.2.4.5.7.7.5.4.$.$.+.| [ T T G 0 - 1 hXhXdXlXhXlXhXhXhXjXxXiXuXuXuXhXhXjXhXhXjXlXhXuXjXjX",
"SXpXwXpXrXpXaXpXaXaXpXh < w m I W { @.<.<.4.7.7.7.!.!.4.,.#.@.| [ [ ~ # < 1 ZXuXjXhXjXjXhXhXhXjXxXxXtXuXyXlXlXhXZXhXhXlXhXjXjXjX",
"SXhXrXpXrXwXaXpXpXpXdXr.- 4 M ^ ] | ,.<.5.!.5.`.8.`.~.8.4.2.$.@.O.[ } f 7 : 5XDXhXhXhXhXlXhXlXuXxXxXuXtXuXdXkXjXhXjXkXkXjXjXjXxX",
"SXaXpXwXrXrXaXpXpXpXaXI.> 1 C / B F ' (.~.}.|.|.oXoXoX^.E.C.V._  .[ ] F > 1 5XxXjXhXjXjXZXhXhXjXxXiXyXuXyXlXkXjXjXjXkXkXkXuXxXhX",
"SXaXpXaXwXpXrXpXpXrXyX5Xo 4 E Z u b # a J  XoXoX8X.X(.t.H b a D n ) ] _ : 5 5XhXzXjXhXhXjXhXhXhXDXiXuXuXyXjXhXkXhXlXhXlXkXkXjXjX",
"SXqXrXaXpXpXaXpXwXrXiXpXo q W g D.(.F.w.a Z C.[.}.E._ n n H D.D.` F W _ 1 + VXaXiXjXhXlXlXhXhXjXxXxXuXuXuXuXhXhXhXjXjXkXkXkXhXjX",
"SXpXpXaXwXaXpXaXrXpXhXpXq + ) e.F.y.y.t.e.e.;.S.^.(.B.r.% % q $ . % y S vX% E.FXxXuXhXhXjXhXjXhXxXxXuXuXuXuXjXjXlXhXkXkXjXjXxXxX",
"SXpXpXyXpXaXpXaXpXrXwXuXXXt 1   G r.S 0.r.w.D Z u . b t.G i 7 0.h i.% s u t.@.iXlXjXZXhXlXjXjXuXDXjXuXuXuXjXlXjXkXjXkXkXkXjXuXhX",
"ZXpXpXaXwXpXaXaXaXaXzX].| t o J F D + . i.W  .  ).P e.] O.V...' _ [ $ X.% ~ E.CXzXhXhXhXhXkXjXhXDXxXuXuXuXuXhXlXhXjXkXhXjXhXuXjX",
"SXdXrXaXpXpXaXpXpXaXiX{. .# w.B _ y.D.(.u.y._ $ o.} f  .R.R.W.W.R.O.$ y.q t.p.CXzXjXhXhXhXkXjXhXDXiXuXuXuXhXjXjXlXhXZXhXjXjXhXxX",
"SXaXpXrXpXaXaXrXaXpXwXoX,.h t.$ u.E.E.E.).%.F.g $.&.$ %.4.&./.3.E.F.g C.+  .W.DXAXhXjXjXkXhXxXjXxXxXyXzXuXjXjXjXjXhXhXhXhXlXjXjX",
"lXaXaXrXpXaXaXpXaXpXyXZX<.G J $ D.(.C.R.(.(.j ) 8.&.I j y.(.C...j = S.&.. y.CXuXVXzXjXxXkXxXkXxXxXzXuXuXuXhXhXjXhXhXhXlXhXjXjXjX",
"SXaXwXrXpXaXaXaXpXaXaXpXoX) D t.t.B N j B ^ ) E 4.$.P _  X X X X|./.1.>.% y.DXxXZXSXjXjXxXxXDXxXDXzXuXuXuXjXjXjXlXkXlXkXlXkXhXjX",
"SXhXaXaXpXpXpXaXaXaXaXhXdXV.Z [ 2.`.|.OX).E. .%.`._.#.] E.E.}.oX|.8.3.:.# D AXzXAXDXjXjXjXjXuXuXDXzXiXuXuXuXkXjXfXkXfXkXhXjXlXhX",
"SXdXpXrXpXaXaXaXaXaXpXeX6XVXy ..R.`.|.).$.>.] p.`.|./.O.p.E.p.|.`.`.6...@ A ZXzXAXjXjXjXxXjXxXxXxXxXuXuXuXzXfXlXjXfXjXjXjXjXjXhX",
"SXpXwXpXpXaXaXpXaXaXaXaXZX7X% } R.~._.O.R.O._ _ >.o._ _ } X.' ^ ^.!.R.F 4 r.DXAXuXhXjXjXjXjXuXzXFXiXhXjXuXjXjXkXkXkXjXhXjXjXjXjX",
"SXpXpXwXaXpXpXwXaXaXaXaXhX6Xn ( X.E.R.~ ) W m h C ! F B ^ ~ ! f C.6.>.g 3 r.xXAXxXxXkXkXhXkXhXxXDXxXxXuXuXzXjXjXhXjXhXxXjXxXjXjX",
"SXaXrXaXaXpXaXpXdXaXwXyXpXpX=.V ' O.C.f N E y.u././.p.] ^ I _ I ~.} J p 3 r.DXAXxXlXlXkXkXkXxXxXzXxXxXiXuXxXjXjXjXjXxXuXxXuXxXxX",
"lXhXwXyXaXdXpXpXpXpXwXuXwXhXXX* B.! (.~ _ E  X.XtXoXiXoXO.T E.!.R.H x 4 5 r.SXAXxXkXlXkXkXlXjXjXDXuXxXuXuXxXjXjXxXjXhXxXjXjXuXxX",
"lXaXwXaXrXpXhXwXaXaXqXhX0XqXqXp c M y.&.p.Q j ).{. XE.Q Q p.6.Q.! Z t 9 : e.DXAXxXkXkXkXkXkXxXhXDXjXxXiXuXhXjXjXuXxXxXjXjXzXjXjX",
"SXaXwXaXaXaXaXhXhXaXaXaXaXaXsXT.& S ` ^.Q.O.Q { %.%.p.%.&.E.1.Z.n i < 9 G -.xXxXSXxXkXkXSXkXkXkXDXzXxXuXuXxXjXjXxXuXxXxXjXxXuXxX",
"SXhXaXwXqXaXaXsXaXaXaXaXaXpXhXsXT.r x >.E.>.O.p.E././.p.E.Q.>.) * 5 o x D ` DXzXkXxXkXxXxXkXkXxXDXDXiXuXuXxXjXjXjXxXhXxXhXxXhXjX",
"lXaXaXwXaXaXaXaXaXqXaXaXaXhXhX9XsXw.6 ) 1.1.| O.p.O.%.&.4.R.( a : , w D _ ..DXxXkXSXkXxXkXkXkXkXDXxXiXhXuXxXxXjXxXxXxXuXxXhXxXjX",
"lXyXaXaXaXaXaXaXaXaXaXhXaXaXaXaX8XZXS * ! X.1.{ O./.&.%.| X.d o > p t ) X.:.DXDXxXDXlXlXkXkXkXxXDXxXxXhXuXxXuXxXjXxXxXjXjXxXuXxX",
"lXaXaXwXpXpXaXaXaXpXpXaXhXpXaXsXsXeXkXt 2 S t.T >.W.R. ./ Z , < 3 A f A >.>.hXlXzXkXkXkXSXxXkXkXDXxXxXuXhXxXkXkXxXxXkXxXjXhXjXxX",
"SXaXhX9XaXaXaXaXaXaXaXaXaXhXaXrXdXdXK.J s , a n ( X.' D t 2 < : h N m N ;.:.hXlXkXxXlXkXkXkXkXxXxXhXxXuXhXDXkXkXjXxXxXxXxXxXjXxX",
"SXaXaXaXaXaXaXaXpXpXaXaXqXhXpXsX4XJ H ! ! m 3 < p w s 6 8 ; : % ` ~ N F ^ V.DXlXxXDXxXlXlXxXxXxXDXhXxXuXuXjXxXkXxXjXxXxXxXxXxXxX",
"FXhXaXaXaXaXaXaXpXaXpXzXeXdX4XH.=.F E / -.C.B.D 4 < : : 1 t p V _ W C F ( V.DXFXlXlXxXxXkXkXkXxXxXjXxXuXhXxXlXkXxXxXxXjXjXxXjXxX",
"SXaXaXaXhXyXaXaXaXaXaXdX6XH.f.Y.=.<.] ' ( >.>.>.D.m Z J t.' _ ! O.W ~ I ' ;.DXSXFXlXkXkXSXxXkXSXxXyXiXxXuXjXjXhXkXxXxXxXxXxXxXxX",
"lXaXyXaXaXaXaXaXaXaX9X4Xf.h.h.J.S.1.;.:.( ;.W.6.>.;.:.>.6.>.( ( o.^ / ~ ..C.FXDXSXxXjXDXkXkXkXxXDXuXhXjXhXxXjXjXxXxXxXxXxXjXxXjX",
"SXaXpXpXpXdXiXrX6XpX4Xf.j.x.x.K.P.R.1.>.X.;.>.W.W.:.;.Z.(.W.Y } ;.} ]  .;.A.zXkXzXDXzXxXxXjXkXxXxXuXiXiXhXjXkXkXkXkXlXkXkXSXkXkX",
"SXaXwXqXaXrXqXwXdX4Xf.f.x.l.m.v.K.'.'.W.:.} :.S.W.6.;.} ( ( ..X.>.} ' } >.S.CXSXzXDXDXxXDXxXkXkXxXuXxXxXhXDXkXkXkXSXkXkXxXkXkXkX",
"SXpXpXpXqXaXpXqXK.U.l.l.b.b.n.nXmX].}.'.W.( :.Z.>.Q.W.C.X.X.;.>.1.o.O.>.;.].DXSXDXDXSXxXkXDXkXxXxXuXxXuXhXxXjXjXlXxXkXkXlXSXkXkX",
"SXpXpX7XpXpXSXJ.l.b.l.v.&Xz.m.m.n.*XP.).].>.:.W.6.Q.^.Q.6.6.Z.6.1.>.:.' %X,XSXDXCXDXzXxXxXkXkXxXDXuXxXuXuXDXjXjXkXjXkXDXkXkXkXxX",
"jXpXpXwXqXpXH.j.z.h.b.v.&Xv.m.*X&Xm.#XP.].'.:.W.W.6.^.Q.7.'.7.~.E.Z.A.:X;X,XDXlXzXDXxXxXxXxXkXxXFXtXxXuXhXxXjXjXkXkXkXkXkXkXkXlX",
"GXiXwXqXpXH.l.z.+Xl.b.n.n.n.n.=X-X-X#X&XJ.].>.Q.[.'.6.!.7.^.^.'.P.%X-X=X-X<XDXDXDXFXxXDXSXkXjXxXxXuXiXuXhXxXjXSXlXxXlXkXSXkXxXkX",
"SXdX8XdXJ.j.l.n.&Xl.n.n.=Xn.=X=X=X&X=X-X#X+XJ.S.'.[.'.~.Q.S.L.T.%X;X=X;X-X<XDXDXzXDXxXlXSXxXkXDXxXuXjXiXyXxXjXjXkXkXkXkXkXkXkXkX",
"zXdX6XJ.j.+Xn.n.&Xz.b.b.&X&X=X&X&X=X-X-XnXn.z.&X>X>X>XT.>X@X*X=Xn.m.=X*X:X,XFXDXFXlXSXxXkXkXSXzXxXuXjXyXyXxXhXAXkXxXSXkXkXkXkXlX",
"GXdXJ.j.z.z.#Xv.n.b.n.n.n.=X=X;X=X*X*X*X*X*X;X-Xm.=X=X=X&Xm.=X&X-X-X;X-X-X,XFXSXFXkXxXkXkXkXDXxXxXyXzXuXuXzXxXSXkXlXlXkXkXkXkXSX",
"SXK.%X+Xz.z.+X&Xn.b.n.n.n.=X=X*X=X-X*X;X*X:X%X%X-X&Xn.-X*X*X&X-X-X-X-X-X;X<XDXxXxXxXlXxXlXkXkXkXDXtXuXhXzXxXjXjXkXxXkXkXkXkXkXxX",
"T.+X+X:Xv.z.&X=X#X#X#X=Xm.=X&X-X-X-X*X*X-X-X-X-X*X-X=X=X=X&X;X&X#X-XnXMX*.%XVXDXDXDXDXDXxXjXxXxXxXtXxXuXjXxXSXkXkXlXkXkXkXkXkXjX",
"Y.U.%X:X;X*Xz.*X=X&X=X=Xm.=X-X-X-X-X-X&X*X-X-X-X-X*X&X=X=X;Xn.n.nXU.*.9.v %XSXkXDXxXiXxXxXxXxXxXDXtXxXyXjXxXxXkXkXxXlXkXkXkXxXjX",
"Y.#X*X:X*X;X#X#X-X&X&X=Xm.n.-X-X-X-X-X-X-X-X-X;X=X=X&X&X=Xv.v e h.M.q.M.v H.SXxXDXxXxXDXDXxXxXDXxXyXxXuXhXxXlXxXkXkXkXkXjXhXjXjX",
"U.#X#X:X:X;X*X*X=X-X&X=Xm.=X-X-X*X-X-X;X-X*X-X=X=Xm.=Xd.$X$XbXa.BXv c 9.a.f.DXlXDXxXxXxXjXxXkXxXjXtXxXuXhXxXkXjXSXkXkXxXjXhXjXxX",
"j.z.#X*X=X*X*X*X=X=X=Xm.m.m.=X-X-X-X-X-X-X&X&X&X&Xc.$XnXm.c.*.bXg.z l x a.NXSXlXFXDXxXxXjXxXxXxXxXyXxXuXuXxXjXjXlXkXkXlXkXxXkXxX",
"U.k.n.#X=X*X-X&X=X=Xn.=Xm.m.=X;X;X-X-XnX-XnX-X-X&Xc.k.k.a.a.z h.g.l s.g.e x FXFXxXDXxXDXjXhXxXDXSXyXxXyXhXxXlXxXkXkXkXkXkXkXkXkX",
"U.z.n.z.=X+X*X*Xn.n.b.=Xn.=X=X;XnXmXa.v z z l l k z l h.k.bXN.nXcXe k v cXv SXzXxXzXSXkXjXkXxXxXDXyXxXyXhXuXhXSXkXkXkXkXkXxXkXkX",
"j.n.=X=Xl.#X#X&Xn.n.m.m.m.m.;XnXz a.nXbXbXnXm.m.=XnX&X&XmX*.$XM.9.l s.q.s.NXDXxXxXlXxXDXkXSXjXxXxXyXxXyXhXxXkXjXhXlXhXkXkXdXkXkX"
};
