/* XPM */
static char *_05080ec438d4179ba0fd28f328c0fcbmygWsoSt1XBNl8Oy[] = {
/* columns rows colors chars-per-pixel */
"64 64 249 2 ",
"   c #0B0604",
".  c #150C06",
"X  c #1A0C04",
"o  c #130E0B",
"O  c #1E1106",
"+  c #14110D",
"@  c #1C140C",
"#  c #1D190D",
"$  c #161412",
"%  c #1B1612",
"&  c #1D1915",
"*  c #1F1D19",
"=  c #231306",
"-  c #24150B",
";  c #29160B",
":  c #25190D",
">  c #2B1B0D",
",  c #311E0D",
"<  c #211610",
"1  c #241C14",
"2  c #2A1D13",
"3  c #221E1A",
"4  c #291F18",
"5  c #311F12",
"6  c #2D200F",
"7  c #32220D",
"8  c #282317",
"9  c #2C2215",
"0  c #25211C",
"q  c #2C231B",
"w  c #332415",
"e  c #342916",
"r  c #3A2A15",
"t  c #32251B",
"y  c #392719",
"u  c #34291D",
"i  c #3B2B1B",
"p  c #3E321E",
"a  c #262521",
"s  c #2B2621",
"d  c #2E2923",
"f  c #322720",
"g  c #342B23",
"h  c #3A2D23",
"j  c #342E29",
"k  c #392F29",
"l  c #363027",
"z  c #3C3125",
"x  c #35322B",
"c  c #3C342B",
"v  c #3D382E",
"b  c #353633",
"n  c #3D3731",
"m  c #3D3A32",
"M  c #3A3C39",
"N  c #412E1E",
"B  c #44341E",
"V  c #412F21",
"C  c #433525",
"Z  c #4A3524",
"A  c #453926",
"S  c #4B3B25",
"D  c #42362B",
"F  c #493729",
"G  c #44392C",
"H  c #4A3C2C",
"J  c #523C25",
"K  c #523D2C",
"L  c #443933",
"P  c #443C33",
"I  c #4B3E32",
"U  c #433E39",
"Y  c #503E32",
"T  c #3F423F",
"R  c #47442E",
"E  c #4D422C",
"W  c #53432C",
"Q  c #584328",
"!  c #554A2E",
"~  c #5B4A2E",
"^  c #5D502D",
"/  c #464134",
"(  c #4C4235",
")  c #45433C",
"_  c #4C443B",
"`  c #4E493E",
"'  c #534434",
"]  c #5C4534",
"[  c #554B35",
"{  c #5B4C34",
"}  c #52463A",
"|  c #544A3C",
" . c #5B4C3C",
".. c #5E5136",
"X. c #5D523C",
"o. c #614C34",
"O. c #624E3A",
"+. c #694F3C",
"@. c #714D34",
"#. c #645334",
"$. c #63533B",
"%. c #69573C",
"&. c #66593C",
"*. c #6B5B3D",
"=. c #755B38",
"-. c #715E3B",
";. c #77643D",
":. c #4A4741",
">. c #4B4A43",
",. c #484845",
"<. c #534C42",
"1. c #534C47",
"2. c #5A4E42",
"3. c #4E514E",
"4. c #555145",
"5. c #5C5243",
"6. c #54534B",
"7. c #5B544A",
"8. c #57584F",
"9. c #5E594D",
"0. c #4B5251",
"q. c #535552",
"w. c #5C5B53",
"e. c #595B58",
"r. c #635543",
"t. c #695544",
"y. c #655943",
"u. c #6B5B43",
"i. c #63564A",
"p. c #695749",
"a. c #6A574A",
"s. c #645A4B",
"d. c #6A5C4B",
"f. c #735A44",
"g. c #795C46",
"h. c #715C4B",
"j. c #645D53",
"k. c #6C5E52",
"l. c #625F58",
"z. c #6C6246",
"x. c #6D624D",
"c. c #736342",
"v. c #786745",
"b. c #7C6A45",
"n. c #73634B",
"m. c #7B654E",
"M. c #7B6B4B",
"N. c #7F714B",
"B. c #656154",
"V. c #6D6253",
"C. c #65635A",
"Z. c #6C655A",
"A. c #6E685C",
"S. c #736453",
"D. c #7B6653",
"F. c #766A55",
"G. c #7B6B54",
"H. c #746659",
"J. c #756B5C",
"K. c #7C6C5A",
"L. c #7D7353",
"P. c #76715E",
"I. c #7B715D",
"U. c #5D6361",
"Y. c #696B65",
"T. c #746E62",
"R. c #786B63",
"E. c #6E726E",
"W. c #7D7363",
"Q. c #787467",
"!. c #74726B",
"~. c #7A7973",
"^. c #816A3D",
"/. c #835E44",
"(. c #83644D",
"). c #85694A",
"_. c #85744C",
"`. c #8B774D",
"'. c #957449",
"]. c #836B53",
"[. c #876A56",
"{. c #8B6B54",
"}. c #826D5A",
"|. c #837353",
" X c #8A7554",
".X c #857854",
"XX c #8D7B53",
"oX c #83715A",
"OX c #8A735B",
"+X c #8B7A5B",
"@X c #967A57",
"#X c #93745B",
"$X c #9D795C",
"%X c #A37C5E",
"&X c #827462",
"*X c #857963",
"=X c #8D7B63",
"-X c #887B6A",
";X c #937C65",
":X c #9C7C63",
">X c #947C6A",
",X c #837C71",
"<X c #907F70",
"1X c #A37F64",
"2X c #918157",
"3X c #978556",
"4X c #93825B",
"5X c #9A8A5D",
"6X c #A18C5E",
"7X c #8B8269",
"8X c #938363",
"9X c #9D8C64",
"0X c #998469",
"qX c #9D8A6B",
"wX c #9B926A",
"eX c #8B8577",
"rX c #948773",
"tX c #969376",
"yX c #A88669",
"uX c #A28A6B",
"iX c #B48A6B",
"pX c #A6946A",
"aX c #A88B73",
"sX c #A79577",
"dX c #B39670",
"fX c #B79677",
"gX c #C49A7B",
"hX c #8F8D82",
"jX c #98978C",
"kX c #AC9E86",
"lX c #B79E85",
"zX c #B4A387",
"xX c #B1A78D",
"cX c #A9A499",
"vX c #C5A486",
"bX c #D2A382",
"nX c #D6B58B",
"mX c #C6B998",
"MX c #D3B895",
"NX c #D1BFA9",
"BX c #DFC09B",
"VX c #D8C8B1",
"CX c #D8CBB6",
"ZX c #E9CAA9",
"AX c #F2CEAE",
"SX c #E6D8B9",
"DX c #EADEC9",
"FX c #F7EDDA",
"GX c #F9F0DC",
/* pixels */
"*Xn.R.sX} u VXkXq uXcXmXH u FX} | GXh D mXcXqXq zXCXi | sXR.n.K.*Xn.J.sX} u CXkX9 uXcXmXP u FX| | FXu D mXcX0Xw kXSXh } sXR.n.K.",
"> > ; r y r ; ; > i i i i ; ; > O 5 > w u = r w ; ; 5 e > > i u 6 > ; e i y ; ; > i N p u ; = > = w > y u : r 9 : ; , w > ; i i ",
"> i F = w 4 2.2 i = y C A = w # = u = F C u = i 2 5.4 e = D i : > i G = w 4  .> i = w C F = w O = t O F C t = i 2 2.5 e = S i > ",
"i 6 r.w 4 u > y  .S $.' [ ' h O O h '  .[ X.F  .y ; i 2 y $.6 i i 6 $.w 2 u 1 y  .S X.'  .W h @ @ i '  .' $.H  .e 2 h 2 y $.9 u ",
"9 v =Xh ' S f k.y.2 C  .} =X} y u ' =X} 5.G 2 u.V.g S } h =XD 9 q z =Xh [ Z t V.t.: C X.} -X| u e ' =X} 5.c 2 y.h.g S | z =Xz 2 ",
"kX[ E 9 r.f.}.t K.X.rX_ ' G G D H k.G.G.n.xXr.y.2 } C / 4  .d.kXzXK.D.q | t h - G G 8Xs.F.G.G.f. .I : 4 z  .C 5.y }.*.H.t $.X.V.",
"v. XXXG.} g 2 t p.K.I !.>.1.} <.h.C t 4 q t.L.@X&Xu.$.I 2.S.y 4 q y k.l.E.|.z.W.wXL.h.q 4 i z k.' ` _ _ ) } x.i.3 2 u ' h.+XXX> ",
"c.|.'.pXj.eX` eX>.} <.i.I ( ` 7.| 9.| 2.o.o.R 5XoX4 I.~.!.( y p.2.0 cX1.Y.P / b.uXL.u.j.r.k  .` } 6.<.I _ ( } i.A.I ' 6.XXmX[ ).",
"` 3X5X^.H eXL U D h !.Q.h C ,Xz I Y Y } |  .5XsX[ 4.:.T.P.g Z.I j 1.0 W.T./ [ *.2X&.j [  ._ b :.u ` J.G F 1.3.I ) L n &.M.XX5X> ",
"B #.xX#.g.p.D D h ~.z w w e h 5.k I j } I L z..X*.*._ hXC I C.g b C./ 5.9.U.X.E 4X_.} 5. .x U g } R w w w h ~.<.` D z I XX9XXXP ",
"5.e uX3X$.2.( D D c t 6 _.n.4 2 D I v } | O..X+Xq 5.i.U q C.e.t.2.>.9.a hXY.U z XX4 . z ` c L !.y 2 Q { , > W.P D z h z.#.5X-.*.",
"` 7 @Xu.O.,XI I l.5 , W c...%.4 g :.D D G = xX[ | 0.} v C.w.Q r.r.J.B.6.:  .6.D z +X$.[ P h _ _ > #.Q *.B > G 1.D z L / ^.|.u 5.",
"B.9 &.`. .W.P } v w ..;.;.^.E 2 g ) z L ( b.|.c.z.0.T.q M w.8.n g 6.4.L q 6.6.W.; `.~ ' ( f D t > S =.*.&.~ > z D D v u |.8 W 4.",
"9.eXA N.J K.I n h 9 { `.q -.! > z / c c ] M.5X/ / 9.E.y.jXq 1.:.b >.q n F.8.w.m O b.v.G v t j f 9 H ;.9 4X$.6 u I G G $.2XoX*.w.",
"jX) O N.=.y.` z G g e E _.`.W 6 A.) l h h u E E m ` >.,.,.T.< :.b d S.) 3.) c M S *.z.: C s n h 9 S `.b.S 7 5.G h D x.X.M.) ) G ",
"x.e.[ *.; g t G G u 9 *.B p w 8 z P q t = M.- ( 9 X.2 [ u w.3.I h b ) I G v > c C ; G.e g ; g t h 7 B C { 8 u L G t 0 ..$.X.0.! ",
"0 ,.) = $.8 -X4 z U | 2 6 2 8 z n q p.-Xv > : w F._.v.u.> D g T.Q.f c m ' c.[ -.{ z K z l.2.4 q 7.> < > 2 t U c y hXd.i t v q.0 ",
"8.9.,.z u *.J.-Xz s L q P q <.u t 5.W.rXk.q G M.L.;.# N.*.C g.-XeXV.u #.v.u.E v.c.I I :XoXW.p.t q u 9 2 <.c u G yXeXeXh z 6./ q.",
"e.0 ) z { $XC.Q.T.q g h g _ g L z :XgXx.W.y.z E 2 h N o.X.H $XyX| Q.' X.{ A v 4 r.X.i.:XX.' H.h g g n q U L g ) lXV.<.,Xl U.3 ,.",
"b T w.6.S.bXi g W.( s g u n u q j.K '.@.[ T.i A z G G C p j.vXAXgX9.J.z q g q D h h i.dXZ iXr.2.q g q u h f ' V.%XF K J.s.a ) x ",
"l d G A.| B AXy gXiXq t q t y G Q.I zXiXu iX#X2 u t h 9 } 9.z N iX[.yXf.4 j t h 3 <.5.V ; '.vXyXY t f f f f i.<.N aXyXyX6XD h g ",
"w.q.} B.aXgXfXN yX .| _ i.7.eXD l.gX/.%XvXfXG O.6.2.<.d.v j.$XyXiXgX#XC } j.} } } ` h /.g.g.%X1XI U 5.7.s.I 5.= iX#X, vX] F Y.8.",
"C.b j >.h %X(.ZX/ 1.1 $.+X&Xg { s.2 @X, +.' D H 2.( 2.] z s.m.(.o.e i.F n <.( I :.c / yX, #Xh y.| | +XK.z p I _ fXg.{.I i.j.M E.",
"C.{ 6.I lX> ] yXn I 8Xt.M.XXXX7X( fX[.o.1X_ C >.C.` Y P } h G.+X+X|.I / <.k.z ,X2.D D sX(.(.[.` $.r.&.b.).qXm sXi yXyX; 4.0.z.q.",
"x 8.3.c f.> :Xh | D _.5X_.4XXX{ Y :XaX= h 2.z I I r 9 ~.y.p q q q q N y.C.e w 2 L F g.0X[.; q z $.c.b.XXXXL.} ].2 aXy c L m T.g ",
"X.Y./  .H 2 i lX5.R H $.M.w $.A h ( #XK %._ c 6.4 #.> t.V.dX5.S A 2.dXS.z.r ~ 2 C C Y z (.(._ D v $.&.W [ X ' ! z y :X5.I t.m 5.",
"F.Z.*.u.7.G L :X` X.Z $.( <.W ` ' | w K ].D | 9.G t.;.l G.- c : - z : K.g v.*.G k L l [ L g._ _ n ' $._ r.X 0Xm ` G m. .V.] E s.",
"j.( b.~ U G v t.I X.N.H 1.) 6.s.!.P L D ] z c u g } u.( I o #.sXpX .+ I I d.' g h ( z c z V c q _ ` w.1. .M.c.h L c u.} X.$.( 4.",
"v { ;. .G  .5.' 4 q .X: ,.~.n u n H I ' H h l @ oXV.& zX2 rX8XS H =XrX4 zX& V.oX: c z W ' | ( j q eXw.w.@ wX: 2 5.5.y.| G ! r 9.",
"8 u z G H H H ' W ' ] $.r.M.G.v.qX@X XuXuXvXn.z 0 i G O h l zX| | vXz g X P u q D n.zXuXuX+X@XqXb.M.D.r.X.] } W ' F G G A z u 0 ",
"3 a j l z L v v P U L h z U l c n I ) U G z D s 5.Q + & d.$ $ =X7X$ $ k.& + Q X.d D z U G / P v v l L x h L U L c m / z j l a 0 ",
"h n c 0 s & d.$ ' } $XnX#X>X' L H.J h.y.M./ i.g c d v & $ G * u u 3 G $ & n d c j i.I m.u.d.K F.L ' ;X#XnX@X| } + d.& q 0 c v h ",
"g o 2.% + z s d.3 n ].z } Y p.k h.lX3 W.j s z u + h.} 3 ' wX0 s t q wX' 3 | d.+ h z d j &X3 lXn.h p.I } z ].c 3 a.g h + + } o g ",
"j p.k ( c g j z C j 0 n } k z F.l.v r.h 5.1 n 2.q t.& $ c c v & 3 v v c $ < u.q 2.c 3  .g r.c l.D.z z ' n 3 k h z j g c ( k p.h ",
"f d D s I % q a $ Y ( Y @ ` @ h 1 f O g 4 $ ' V.%   g $ $ $ aX$ $ aXo $ $ h   @ V.( + q h @ f 1 c < } + ' } ' $ 0 q $ I d h s g ",
"g 3 % } j.z q & 3 2.h [ i.h rXJ.s.q | q <.g u   % 7.& j n 3   0 q   * b h % 8.$ . u j | q <.q r.J.rXz i.( z 2.3 % s z l.} % 3 g ",
"g 2.@ 1 G 1 3 Z.h.& 3 OXk.g f I Y i.. 1 H.& o ;XG 0 kX .5.+ $ + + $ $ X.| kX3 G +X+ 1 F.3 X p.( I f j k.OX0 & n.H.3 < L & : 6.h ",
"2. .y.G.H.G.K.: 8XyX}.uX}.}.OXsXOXqXqXMXMXpX$ *X=X0 G $ 0 $ | $ $ | + 0 & L 0 *X-X$ aXMXnX0XuXOXaXoXoX].qXoX0X0X: L.F.F.D.r. .| ",
"0 h g g g l c ` I ( _  .' } I I I ' } }  .[ l + <XpXU q & $ $ $ $ $ $ & q L uX0X$ z [  .( } ' I ( ( ' }  .I I I / v l f h j h 0 ",
"OXD.t.3 :.& < z q s P q O OXg.] z $. .W &.y.z b q | 3 + d x $ * & + x j $ & <.s D.q G E [ { W E v q : }.=X}.q q < % : ) 3 n t > ",
"yXbXr.v g h G 7.v I <.{.Q g.fXr./ #.X...[ L.<.l h +X0 0 3 3 q & $ a 3 3 0 q +Xj ZX2.z.#.+.! [ ! 2.fX1X$XMX] A b !.f 7.G D s.:XfX",
"].(.Z.| g c f c g L I ] , {.> k.G q  .u.E @ 6.L 0 3 u v o 3 + 3 3 $ 0 o D f 3 3 _ 7.4 0 | r.P I 7.i #X> MX4.9.x g j G f <.5.4 o.",
"1X1X7.| q 0 0 q q z :X0X(.f.1X2.y.c q q 0 h / {.5 {.3 & d.v % $ & < v s.3 3 (.#X; i.h q 3 s 1 _ [.(.-.g.).C x.* 8 q h q c (.1X$X",
"r h i.D H.H.V.S. .Z (.w 1X}.C k.c F.F.V.u.r.O.OX8 :Xo >X$ o S.*.t.S.+ $ <X4 }.t / /  .p.p.p.p.t D.aX(.= g j.G V.W.S.n.$.D :XD.1X",
"lXlX(  .*.7Xs. .$.i.P D Z /.S v ( <.V.} <.I h ) q w ].& 1 T $ $ % $ 0 3 & i 4 /.<.h I 2.' 2.<.2.f <.{.y aX|  .>.J. .u.X.r.G / aX",
"}.(.G +X].W H q u.z.P ( L =X%.5.i.:.Z.I ` } M q _ G %.8 % BX0 * 0 # MX& q u I f.f / <.<.D 7.I 2.} L x D OX_ tXqXg | X.5XdXe _ m ",
"I D } `.5X: @X4X@X{ F q I L D L v j.h 4.z 1.I F.g _ e l z $ & q 0 0 +  .I v } I 2.F ) H.2 D V U } g / 7.] W.z.5XdX;.4X9X2X5.l <.",
"l } ` ; z.oX5XI.r 2 r d.k z m ,.P y y i 8 s.7. .} z # .X- 0.3.+ + 6./ i M.t c I :.1.g 2 , > 5 Z.g F z l u.L./ b._.-.3X*.} &.} q ",
"H.w.j.p ' : r.q | > 7X, r.5.6.L 8 r Q Q N.6 c _ u.u z : b...U.L...7.*.v.M.c 3 k.4.l 9 &.S ! 7 C C Y G p.C wX2 E ( 7 ( ! <.q.e.J.",
"U 2 J.6.` 1.6.` } [ g D G z _ A.8 ~ 2X3X! e C ` P ' 5.b.N.X T hX/ I } .Xc.@XD L >.B.7 ! `.5XS w D _ n n 1 .XL.! _ L 4.C.6.7Xb ,.",
"v <.q jX[ Y.9./ ` 4X5Xx.I x G z > ! M.w 5X*.e C I I K.A _.S T.w.e.*._.@X*. .D } c > *.4X8 -.E > h I z v / _.v.= / Z.w.P.G 9 e.:.",
"l 7.B.P u P._ $.z..X_.| 2.g P g > E ;.;.&.&.e c  .H J.I _.| t 3.3.W w M.h ( z n b : ^ *.%.-.S > h P h L [ S b.1 *Xw.4.w L 4.w.p ",
"5.Q s.w.x [ >.R H rX= P <.c ) u 9 ~ ! %.E : 4 k._ ( Z.' ] c.: M 8.8 F.;._ P z v 8.A : B ~ W #.: I I n I I } L.p S 6.| : 0.w.V.t.",
"y.<.9.0 M 4.) 8 M.*. .'  .b v z : 2 $.$.7 4 h c h I L ( b.L.e _  .X.5X~ v.( z z x T.: > W B > 2 l.m z _ u = : ).z T e.7Xq 8.` t.",
"q >.c r ~.l { ~ c.[ z P r.q z q ` q 9 8 ; u j.j v I >.{ W tXR 0 x z.7Xv.n c z n U B.u 6 : ; D z 4 g d ( L h #.c.p ' q.,.( v e.v ",
"x >.0 7.6.v l c x.c.G P 2.g c v q C.u q Y.w.s v m L !.g { c.;.c # M.-.! } h z s f M l h t 6.k 9 z j c ' u q E &.E C l 6.X.8 ) d ",
"_ # 0 ) ) A 1 [ X.e i w ( 3 d q l d d g m x u d _ G v g X.~ [ S E p W.E h q u t u s s h d c c t q u 8 c q u C r.W u t b x 7.: I ",
"s.s.q q % 1 4 q 8 q 8 S.- G H l 1 % 3 3 q & g 1 x.G u 2 q 9 q 9 8 8 8 t 8 p.4 h.: q @ % < % $ : u z 7.2 H.2 9 9 q 8 8 3 0 g 5.U ",
"sXG }.2 C N } w C e u.' 5.}.5.%.$.' W.| q ! u $.z S.o.| 6 n.t S.V.W.| O C K S.D d.C f.Z r.2.} t C ( G.5.} M.C O.7.V.' : # u.c sX",
"< h =Xs.d.D.| r.I.l &Xg z =X7X' ( -X=XD u W.c K.r.2.n.d.j.=Xq : @ g =Xj.p.D.| r.K.z &Xg c ;X-X' ( 7X;XD u &Xc K.r.| D.d.l.=Xu : ",
": S y.Z.= 8 h h u.} E D h } u.q 9 d. .i F E ' u.h h t - H.t.H ; ; G p.V.: 2 h i d.} E A h [ p.q 9 d.| i G E } u.h C 4 - H.t.F : ",
"G i y w 5 X : > ; r z V y ; ; ; : : ; y h C y = ; > X 2 5 y y G A i i w 2 X > > ; y p p r > - - > ; ; i i p r ; ; > X 2 5 r r G ",
"= - ; ; 2 > 1 ; ; 4 X 2 ; 2 - : = : ; ; 4 O 1 ; - = 2 w > 2 = X ; = ; ; 2 > : 2 < 2 X 4 - 2 - ; ; = > ; 2 @ 4 ; ; ; w 5 ; ; = X ",
"H.*Xk.SXh y NXK.t sXo mX  X DXD C DXO   NX@ kXt }.NXy h SXj.*Xs.F.*Xk.SXh t NX}.t sX. mX  X DXD D DXO   NX% sXt }.NXt h SXj.*Xs."
};
