/* XPM */
static char *result[] = {
/* columns rows colors chars-per-pixel */
"64 64 161 2 ",
"   c #070605",
".  c #080706",
"X  c #090807",
"o  c #0D0C0A",
"O  c #100F0D",
"+  c #11110E",
"@  c #151412",
"#  c #181714",
"$  c #1B1916",
"%  c #1D1C19",
"&  c #231B14",
"*  c #201E1B",
"=  c #23211E",
"-  c #29231C",
";  c #33281E",
":  c #262421",
">  c #292623",
",  c #2C2926",
"<  c #2E2C29",
"1  c #332C24",
"2  c #312E2B",
"3  c #3D3126",
"4  c #35312D",
"5  c #3A342E",
"6  c #363532",
"7  c #3A3631",
"8  c #3D3933",
"9  c #3F3D3A",
"0  c #42352A",
"q  c #45392E",
"w  c #4C3D2E",
"e  c #503E2E",
"r  c #423B33",
"t  c #4C3F33",
"y  c #423E39",
"u  c #4D4135",
"i  c #44413C",
"p  c #48433D",
"a  c #524234",
"s  c #5C4632",
"d  c #5E4937",
"f  c #54473A",
"g  c #5D4B39",
"h  c #634A34",
"j  c #694E36",
"k  c #614E3C",
"l  c #6A4F38",
"z  c #6A513B",
"x  c #75593E",
"c  c #464441",
"v  c #494743",
"b  c #4C4A46",
"n  c #4E4C49",
"m  c #514C46",
"M  c #514E4A",
"N  c #5F5042",
"B  c #54514D",
"V  c #5C554D",
"C  c #565451",
"Z  c #5A5753",
"A  c #5C5955",
"S  c #5F5D59",
"D  c #6B5541",
"F  c #64594D",
"G  c #755A41",
"H  c #7A5C41",
"J  c #615E5B",
"K  c #7F6043",
"L  c #7D634B",
"P  c #65625E",
"I  c #68635E",
"U  c #736659",
"Y  c #6A6662",
"T  c #6D6A66",
"R  c #6F6C69",
"E  c #776B60",
"W  c #726E6A",
"Q  c #75716D",
"!  c #78746F",
"~  c #767574",
"^  c #797671",
"/  c #7D7A75",
"(  c #7E7C79",
")  c #836345",
"_  c #8C6B4C",
"`  c #906E4E",
"'  c #8E6E50",
"]  c #947252",
"[  c #987453",
"{  c #9C7857",
"}  c #94765A",
"|  c #9E7A59",
" . c #A27D5B",
".. c #897664",
"X. c #807C77",
"o. c #817D79",
"O. c green",
"+. c #A7815E",
"@. c #85817D",
"#. c #89847E",
"$. c #A68364",
"%. c #AC8663",
"&. c #AE8866",
"*. c #B18A67",
"=. c #B6906D",
"-. c #AF8E70",
";. c #AA937C",
":. c #B69270",
">. c #BE9876",
",. c #B3967A",
"<. c #C19B78",
"1. c #C6A07D",
"2. c #C8A27F",
"3. c #8A8682",
"4. c #8E8A84",
"5. c #928C85",
"6. c #928E89",
"7. c #94918C",
"8. c #99948F",
"9. c #9A9691",
"0. c #9D9994",
"q. c #9F9D9A",
"w. c #A59789",
"e. c #AF9C8A",
"r. c #A29D98",
"t. c #A6A29D",
"y. c #A8A49F",
"u. c #A6A4A1",
"i. c #AAA6A1",
"p. c #AEAAA5",
"a. c #B1AEAA",
"s. c #B5B2AD",
"d. c #B9B4AF",
"f. c #B7B5B3",
"g. c #BBB6B1",
"h. c #BEB9B4",
"j. c #BDBCB9",
"k. c #C9A381",
"l. c #C7AA8F",
"z. c #CBAA8B",
"x. c #CEB49C",
"c. c #C1BBB4",
"v. c #C2BEB9",
"b. c #C6C1BD",
"n. c #C7C4C0",
"m. c #C9C6C1",
"M. c #CDC9C5",
"N. c #D4CCC5",
"B. c #D1CDC9",
"V. c #D4D1CE",
"C. c #DAD7D4",
"Z. c #DAD9D7",
"A. c #DEDDDC",
"S. c #D4D3D1",
"D. c #E3E3E1",
"F. c #E9E7E5",
"G. c #EEEEED",
"H. c #F6F5F4",
"J. c #F8F8F7",
"K. c #FBFBFB",
"L. c None",
/* pixels */
"L.L.L.L.L.L.L.L.L.L.L.O.O.O.O.O.O.O.O.O.O.O.O.O.O.O.O.O.O.O.O.O.O.O.O.O.O.O.O.O.O.O.O.O.O.O.O.O.O.O.O.O.O.O.O.O.O.O.O.O.O.O.O.O.",
"L.L.L.L.L.L.L.L.L.L.L.O.7.O.O.O.O.O.O.O.O.O.O.O.O.O., g.c.h.v.D.O.O.O.O.O.O.O.O.O.O.O.O.O.O.O.O.O.O.O.O.O.O.O.O.O.O.O.O.O.O.O.O.",
"L.L.L.L.L.L.L.L.L.L.L.O.2 ^ C O.O.O.O.O.O.O.O.O.O.> y A 6.u.g.d.B.G.m.b.O.O.O.O.O.O.O.O.O.O.O.O.O.O.O.O.O.O.O.O.O.O.O.O.O.O.O.O.",
"L.L.L.L.L.L.L.L.L.L.L.i P M 5.@.B.g.i.G.O.Y %.H k.2 Y A ^ 4 A.~ g.t.v.i.C.v.6.m.O.O.O.O.O.O.O.O.O.O.O.O.O.O.O.O.O.O.O.O.O.O.O.O.",
"L.L.L.L.L.L.L.L.L.L.L.G.J.c O.O.O.R F ;.w.r.] <.x.: 4.W A > 2 4 6 @ 7 r c.v.v.v.9.Q 3.v.O.O.O.O.O.O.O.O.O.O.O.O.O.O.O.O.O.O.O.O.",
"L.L.L.L.L.L.L.L.L.L.L.u.8.s.O.O.O.O.O.O.O.J r r a , J 3.^ 8 , > $ % $ @ > , / v.W / 4.4.@.0./ M.O.O.O.O.O.O.O.O.O.O.O.O.O.O.O.O.",
"L.L.L.L.L.L.L.L.L.L.i.3.8 O.O.O.O.O.O.O.J ^ ^ y.#.y Y = 6.> > + % 6 % * 4 : > 2 2 < 2 4.o.y.Y o.Q 4.9.B.O.O.O.O.O.O.O.O.O.O.O.O.",
"L.L.L.L.L.L.L.L.i.7.T / 2 O.O.O.O.O.O.O.4 W # X $ b A J M 2 $ @ + < O > :.4 > : 2 > > > > 2 > R 6.Q y.Q 6.9.o.s.O.O.O.O.O.O.O.O.",
"L.L.L.L.L.L.L.L.L.h.6.p O.O.O.O.O.O.O.O.J A J O.% Y Z n : > o @ < -.< N.{ k 2 2 2 2 > < 2 , > > > 2 > i i./ T ~ J b S B.O.O.O.O.",
"L.L.L.L.L.L.L.L.L.m O.L.L.L.L.L.L.O.O.O.f / z O.9 $ @ @ X     9 b k.B m.z...4 : > > < < : 2 > > < : < > < , 4 , a./ W W Y W G.O.",
"L.L.L.L.L.L.L.L.L.O.L.L.L.L.L.L.L.O.O.O. .,.) O.$ @ + X           m t V.&.D > 7 % < > > : 2 > , > > < , 2 2 2 , 2 2 < = ! W 2 O.",
"L.L.L.L.L.L.L.L.L.L.L.L.L.L.L.L.L.O.O.O.G 2.2.O.O.O.O.A X X S + O 7 s e.z $.# b 2 X o 4 7.6 * < 2 > , > : < 2 , 7 2 < < 2 < 2 H.",
"L.L.L.L.L.L.L.L.L.L.L.L.L.L.L.L.L.O.O.O.h <.N.&.O.O.a.. . y $ 7   O @ $ @ , 7 Y C @ < n 9 @ $ + @ % S 4 > > > : 2 2 < 2 < , > , ",
"L.L.L.L.L.L.L.L.L.L.L.L.L.L.L.L.L.O.O.O.7 =.c.>.@ @ > $ Y n X f.* . . q c * Z 1 9 G.8 P 7 9.+ $ @ @ + + $ @ O @ Y % , : : , . O.",
"L.L.L.L.L.L.L.L.L.L.L.L.L.L.L.L.L.O.O.O.1 +.k.+.G G 7 ' q @ 7 o + + = @ 2 6 4 # : 0.i P ( A O.O.O.O.O.J $ o o @ @ O @ @ @ O O.O.",
"L.L.L.L.L.L.L.L.L.L.L.L.L.L.L.L.L.O.O.O.H ` +.*.l.c.% >.| o = $ $ > > a = 0 W , O 0.S 7 T ^ P O.O.O.O.O.O.O.O.O.O.O.~ % r.O.O.O.",
"L.L.L.L.L.L.L.L.L.L.L.L.L.L.L.L.L.O.O.O. .' ] ] +.+.@ +.r o 2 4 B 4 3 a ] I K.< u - / @.< P % O.O.O.O.O.O.O.O.O.O.O.O.O.O.O.O.O.",
"L.L.L.L.L.L.L.L.L.L.L.L.L.L.L.L.L.O.O.O.O.0.4 | [ H @ h O.= * > i r h O r ] 3.% - h 5 2 A B v O.O.O.O.O.O.O.O.O.O.O.O.O.O.O.O.O.",
"L.L.L.L.L.L.L.L.L.L.L.L.L.L.L.L.L.O.O.O.O.O.L.L.L.L.L.L.O.9 2 e n s u V S k v A Y r., * T / Z I O.O.O.O.O.O.O.O.O.O.O.O.O.O.O.O.",
"L.L.L.L.L.L.L.L.L.L.L.L.L.L.L.L.L.O.O.O.O.L.L.L.L.L.L.L.O.Q $ = @ j w @ p 8 B y 7 2 i > 7.7.0.B O.O.O.O.O.O.O.O.O.O.O.O.O.O.O.O.",
"L.L.L.L.L.L.L.L.L.L.L.L.L.L.L.L.L.O.O.L.L.L.L.L.L.L.L.L.O.O.A & 5 ; d + > : * % $ # X 2 b ! d.^ c O.O.O.O.O.O.O.O.O.O.O.O.O.O.O.",
"L.L.L.L.L.L.L.L.L.L.L.L.L.L.L.L.L.L.L.L.L.L.L.L.L.L.L.L.O.O.+ 4 q ) $ > = A Q Q T   X + Z #.F.y K.O.O.O.O.O.O.O.O.O.O.O.O.O.O.O.",
"L.L.L.L.L.L.L.L.L.L.L.L.L.L.L.L.L.L.L.L.L.L.L.L.L.L.L.L.O.O.@ 4 1 + b > a E n , + + o @ + 4 5.d.v O.O.O.O.O.O.O.O.O.O.O.O.O.O.O.",
"L.L.L.L.L.L.L.L.L.L.L.L.L.L.L.L.L.L.L.L.L.L.L.L.L.L.L.L.O.Q O   + 4 X M A ^ r > $ = o + + W @.W o W O.O.O.O.O.O.O.O.O.O.O.O.O.O.",
"L.L.L.L.L.L.L.L.L.L.L.L.L.L.L.L.L.L.L.L.L.L.L.L.L.L.L.o & 9 M 7 & S + o o o X + # . o + b R X.@.4 2 O.O.O.O.O.O.O.O.O.O.O.O.O.O.",
"L.L.L.L.L.L.L.L.L.L.L.L.L.L.L.L.L.L.L.L.L.L.L.L.L.L.1 h ,   + % = o < R r L h 4 = + o + 1 i H.% ! c O O.O.O.O.O.O.O.O.O.O.O.O.O.",
"L.L.L.L.L.L.L.L.L.L.L.L.L.L.L.L.L.L.L.L.L.L.L.L.L.L.3 : @ % w + = 8.0 r v ) g = > + O @ $ I K.6.# 4 @ O.O.O.O.O.O.O.O.O.O.O.O.O.",
"L.L.L.L.L.L.L.L.L.L.L.L.L.L.L.L.L.L.L.L.L.L.L.L.7.# < % @ o 5 X p % 5 H W b A 2 o O O X = @.b.s.+ * * / O.O.O.O.O.O.O.O.O.O.O.O.",
"L.L.L.L.L.L.L.L.L.L.L.L.L.L.L.L.L.L.L.L.L.3.+ , @ @ @ - X O *   = : } ) H 6.B , + $ + O : W u.J + $ * Z.O.O.O.O.O.O.O.O.O.O.O.O.",
"L.L.L.L.L.L.L.L.L.L.L.L.L.L.L.L.L.L.L.L.L.O.O.= X o @ % + 6 = o 6 < g ] = i b , 2 o X @ # J Y M + > > d.O.O.O.O.O.O.O.O.O.O.O.O.",
"L.L.L.L.L.L.L.L.L.L.L.L.L.L.L., o         X @ o @ O . o 5 = > - , : H q $ = p.7 @ @ o @ $ * T o # = : * O.O.O.O.O.O.O.O.O.O.O.O.",
"L.L.L.L.L.L.L.L.P o o + o o . X o o o + + + + o X o X + = > i = $ x h + > ( $ P # @ @ @ 7 M @ X $ > # : O.O.O.O.O.O.O.O.O.O.O.O.",
"L.L.L.L.L.L.$ # + @ o # # % # o o X o X . X X X     o @ 4 % 8 > > : $   C @.P / 2 o # X @.4.b c O : @ $ O.O.O.O.O.O.O.O.O.O.O.O.",
"O.O.O.# $ # $ # @ * : $ + + + o X X X   X     . . o + 2 $ < @ : , < @ @ : C > A.S + X 8 , 7.T 5 + 2 @ 4 O.O.O.O.O.O.O.O.O.O.O.O.",
"O.O.S 4.O.O.# 4 = % = O.> @ O + o +       o + o     o = $ 4.< B @ O X o < ^ S.r./ % $ + @ Q D.i # % $ > O.O.O.O.O.O.O.O.O.O.O.O.",
"O.% O O.O., 2 > < O.O.@ $ @ + + + X o X X o + X   . + + $ < * $ $ o % @ @ ( 5.7.4.4 o % $ > = + , $ $ o O.O.O.O.O.O.O.O.O.O.O.O.",
"O.O.O.O.2 , , O.O.O.% $ $ # + O + + o + + O o X   O.o X @ * < : $ + o Y = v 0.s.d.Z 4 $ = * + @ $ $ T ( O.O.O.O.O.O.O.O.O.O.O.O.",
"O.O.O.B 7 < X.O.T * * * % c . @ + o O # + o o   O.# O X : * 2 % + + X + + % ! s.0.B , : @ o + > + $ A.O.O.O.O.O.O.O.O.O.O.O.O.O.",
"O.O.O.O.O.* O.O.X . $ # 6 O.% + + O.+ O X + O.O.: + + X 9 > 8 % + + o + o + Z Q 7.A : $ @ o $ @ $ 2 j.O.O.O.O.O.O.O.O.O.O.O.O.O.",
"O.O.O.O.O.O.O.O.O.@ W S O.% + @ O.O # O O.O.O.Z O + + X 7 > % : % + o + $ + + Q T A < O @ = $ @ : O.O.O.O.O.O.O.O.O.O.O.O.O.O.O.",
"O.O.O.O.O.O.O.O.O.O.+ O.% @ % 4.O.$ o . O.O.  o . O o . 8 * 2 > @ + + $ @ o @ A T S :   # * + % < O.O.O.O.O.O.O.O.O.O.O.O.O.O.O.",
"O.O.O.O.O.O.O.O.O.O.O.O.O.O.O.O.W + o : O.c @ = O.O $ + 4 r % i @ + + % @ @ o 3.Y b 8 X : A O.* 4 O.O.O.O.O.O.O.O.O.O.O.O.O.O.O.",
"O.O.O.O.O.O.O.O.O.O.O.O.O.O.O.M.6.@ O.O.O.+ o O.+ + $ + r A 9 < O.+ # % % % % > i.P S . % o O.c O.O.O.O.O.O.O.O.O.O.O.O.O.O.O.O.",
"O.O.O.O.O.O.O.O.O.O.O.O.O.O.O.O.O.O.O.O.O # O.. O + i M v 0.6 o O.# + P o b $ > B A M : % o O.O.O.O.O.O.O.O.O.O.O.O.O.O.O.O.O.O.",
"O.O.O.O.O.O.O.O.O.O.O.O.O.O.O.O.O.O.O.# . O.3.+ + + O.7 7 > 2 o + $ * O.O.( @ r Z r.P 9 : O O.O.O.O.O.O.O.O.O.O.O.O.O.O.O.O.O.O.",
"O.O.O.O.O.O.O.O.O.O.O.O.O.O.O.O.O.O.O.O.O.O.Y o @ O.O.S 8 B $ % $ $ @ O.O.y X $ % g.: r : @ : O.O.O.O.O.O.O.O.O.O.O.O.O.O.O.O.O.",
"O.O.O.O.O.O.O.O.O.O.O.O.O.O.O.O.O.O.O.O.O.O.O.f.O.O.b 0.^ J v @ $ % 7.O.O.@ : o   8 J > O > = O.O.O.O.O.O.O.O.O.O.O.O.O.O.O.O.O.",
"O.O.O.O.O.O.O.O.O.O.O.O.O.O.O.O.O.O.O.O.O.O.O.O.O.O.# #.X.^ ^ X $ # O.O.O.^ $ 6 < % 3.@.8 @.P Q O.O.O.O.O.O.O.O.O.O.O.O.O.O.O.O.",
"O.O.O.O.O.O.O.O.O.O.O.O.O.O.O.O.O.O.O.O.O.O.O.O.O.O.> l  .x _ 5 Z * O.O.O.v * u.* 2 4 g.7 G H.Q O.O.O.O.O.O.O.O.O.O.O.O.O.O.O.O.",
"O.O.O.O.O.O.O.O.O.O.O.O.O.O.O.O.O.O.O.O.O.O.O.O.O.O.% h j ) j > O.O.O.O.O.7 O.4.M v 2 c +.h i.6 O.O.O.O.O.O.O.O.O.O.O.O.O.O.O.O.",
"O.O.O.O.O.O.O.O.O.O.O.O.O.O.O.O.O.O.O.O.O.O.O.O.O.O.o r s 4 > > O.O.O.O.O.O.O.O.: 8 a _  .8 9.% O.O.O.O.O.O.O.O.O.O.O.O.O.O.O.O.",
"O.O.O.O.O.O.O.O.O.O.O.O.O.O.O.O.O.O.O.O.O.O.O.O.O.O.O.# 2 w M i.O.O.O.O.O.O.O.O.# # s >.) h : O.O.O.O.O.O.O.O.O.O.O.O.O.O.O.O.O.",
"O.O.O.O.O.O.O.O.O.O.O.O.O.O.O.O.O.O.O.O.O.O.O.O.O.O.O.v W 3.c O.O.O.O.O.O.O.O.O.O $ % l H s % O.O.O.O.O.O.O.O.O.O.O.O.O.O.O.O.O.",
"O.O.O.O.O.O.O.O.O.O.O.O.O.O.O.O.O.O.O.O.O.O.O.O.O.O.O., U U : O.O.O.O.O.O.O.O.O.O.Y , 1 1 7 0 O.O.O.O.O.O.O.O.O.O.O.O.O.O.O.O.O.",
"O.O.O.O.O.O.O.O.O.O.O.O.O.O.O.O.O.O.O.O.O.O.O.O.O.O.O.> 7 4 2 O.O.O.O.O.O.O.O.O.O.@.. % & W $ O.O.O.O.O.O.O.O.O.O.O.O.O.O.O.O.O.",
"O.O.O.O.O.O.O.O.O.O.O.O.O.O.O.O.O.O.O.O.O.O.O.O.O.O.O.y 5.i 9.O.O.O.O.O.O.O.O.O.O.O.# $ @.M o O.O.O.O.O.O.O.O.O.O.O.O.O.O.O.O.O.",
"O.O.O.O.O.O.O.O.O.O.O.O.O.O.O.O.O.O.O.O.O.O.O.O.O.7.y J.f.p.v O.O.O.O.O.O.O.O.O.O.O.O.@ W 9 6 O.O.O.O.O.O.O.O.O.O.O.O.O.O.O.O.O.",
"O.O.O.O.O.O.O.O.O.O.O.O.O.O.O.O.O.O.O.O.O.O.O.i.S u.r.3.X.W Y O.O.O.O.O.O.O.O.O.O.O.O.: * ;.b O.O.O.O.O.O.O.O.O.O.O.O.O.O.O.O.O.",
"O.O.O.O.O.O.O.O.O.O.O.O.O.O.O.O.O.O.O.O.O.O.6 v M i Y 9.o.R O.O.O.O.O.O.O.O.O.O.O.O.O.7 : m./ G.O.O.O.O.O.O.O.O.O.O.O.O.O.O.O.O.",
"O.O.O.O.O.O.O.O.O.O.O.O.O.O.O.O.O.O.O.O.O.O.i 7 X.J 3.O.O.O.O.O.O.O.O.O.O.O.O.O.O.O.O.7 2 7.B f.O.O.O.O.O.O.O.O.O.O.O.O.O.O.O.O.",
"O.O.O.O.O.O.O.O.O.O.O.O.O.O.O.O.O.O.O.O.O.O.O.O.O.O.O.O.O.O.O.O.O.O.O.O.O.O.O.O.O.O.O.% > M.C S.O.O.O.O.O.O.O.O.O.O.O.O.O.O.O.O.",
"O.O.O.O.O.O.O.O.O.O.O.O.O.O.O.O.O.O.O.O.O.O.O.O.O.O.O.O.O.O.O.O.O.O.O.O.O.O.O.O.O.O.O.v 2 #.T y O.O.O.O.O.O.O.O.O.O.O.O.O.O.O.O.",
"O.O.O.O.O.O.O.O.O.O.O.O.O.O.O.O.O.O.O.O.O.O.O.O.O.O.O.O.O.O.O.O.O.O.O.O.O.O.O.O.O.O.O.% 2 W o.v O.O.O.O.O.O.O.O.O.O.O.O.O.O.O.O.",
"O.O.O.O.O.O.O.O.O.O.O.O.O.O.O.O.O.O.O.O.O.O.O.O.O.O.O.O.O.O.O.O.O.O.O.O.O.O.O.O.O.O.O.O.% B.a O.O.O.O.O.O.O.O.O.O.O.O.O.O.O.O.O."
};
