/* XPM */
static char *b78c1673d9c24123f763d177104952d4lTNvqOokmzkCfkQR[] = {
/* columns rows colors chars-per-pixel */
"64 64 256 2 ",
"   c #010100",
".  c #070700",
"X  c #150301",
"o  c #1A0102",
"O  c #190C02",
"+  c #071501",
"@  c #031C01",
"#  c #0C1B01",
"$  c #171A03",
"%  c #1C1C10",
"&  c #270A05",
"*  c #3A0A02",
"=  c #261508",
"-  c #391807",
";  c #321811",
":  c #032301",
">  c #0B2302",
",  c #022C01",
"<  c #0B2B04",
"1  c #172905",
"2  c #043402",
"3  c #0B3706",
"4  c #033B01",
"5  c #0A3B02",
"6  c #173506",
"7  c #133B02",
"8  c #1B3C03",
"9  c #193414",
"0  c #262807",
"q  c #362609",
"w  c #263708",
"e  c #36370A",
"r  c #292B14",
"t  c #342516",
"y  c #2B3A16",
"u  c #373916",
"i  c #383622",
"p  c #481705",
"a  c #421C0B",
"s  c #4C1C0B",
"d  c #531D0B",
"f  c #511F11",
"g  c #48250C",
"h  c #58260C",
"j  c #473B0E",
"k  c #4A2717",
"l  c #542412",
"z  c #572916",
"x  c #5B2B13",
"c  c #5C2C1B",
"v  c #473518",
"b  c #58371A",
"n  c #6C320F",
"m  c #632A12",
"M  c #622E1A",
"N  c #653313",
"B  c #683817",
"V  c #63341B",
"C  c #6C341B",
"Z  c #6D3B1B",
"A  c #733D1E",
"S  c #492F24",
"D  c #4A3424",
"F  c #583625",
"G  c #5D3B2B",
"H  c #633422",
"J  c #643B24",
"K  c #6C3C23",
"L  c #663929",
"P  c #6C3C2A",
"I  c #6A382C",
"U  c #713C25",
"Y  c #713C28",
"T  c #094505",
"R  c #044B01",
"E  c #0B4B02",
"W  c #194706",
"Q  c #144B04",
"!  c #0C5403",
"~  c #095803",
"^  c #175807",
"/  c #1A4811",
"(  c #175715",
")  c #274906",
"_  c #36470C",
"`  c #265809",
"'  c #365808",
"]  c #274714",
"[  c #394716",
"{  c #285715",
"}  c #375815",
"|  c #0C6704",
" . c #136303",
".. c #1A6806",
"X. c #0B7100",
"o. c #1D7205",
"O. c #176812",
"+. c #1D7816",
"@. c #266709",
"#. c #35690A",
"$. c #237404",
"%. c #28770A",
"&. c #34770D",
"*. c #276614",
"=. c #386817",
"-. c #277914",
";. c #367715",
":. c #394F23",
">. c #2F6926",
",. c #3B7B26",
"<. c #42430E",
"1. c #474819",
"2. c #58461A",
"3. c #4C5613",
"4. c #47571A",
"5. c #76421E",
"6. c #4C6A11",
"7. c #476619",
"8. c #467A18",
"9. c #62621E",
"0. c #474823",
"q. c #594727",
"w. c #495926",
"e. c #585827",
"r. c #554C33",
"t. c #585935",
"y. c #684529",
"u. c #734223",
"i. c #75472A",
"p. c #7B442C",
"a. c #7B4A2B",
"s. c #65552B",
"d. c #76542E",
"f. c #694835",
"g. c #734432",
"h. c #784634",
"j. c #734A33",
"k. c #7B4B33",
"l. c #744B3B",
"z. c #7B4D3B",
"x. c #685736",
"c. c #775637",
"v. c #7C543C",
"b. c #496A26",
"n. c #546528",
"m. c #477726",
"M. c #567629",
"N. c #586834",
"B. c #517834",
"V. c #68692C",
"C. c #656738",
"Z. c #76643A",
"A. c #667839",
"S. c #724840",
"D. c #6B5544",
"F. c #7B5846",
"G. c #7B6545",
"H. c #787647",
"J. c #70704D",
"K. c #81492D",
"L. c #84532E",
"P. c #834D34",
"I. c #824D3B",
"U. c #855233",
"Y. c #85543B",
"T. c #87573A",
"R. c #8B5B3B",
"E. c #935C3A",
"W. c #91633E",
"Q. c #845A43",
"!. c #855847",
"~. c #8B5B44",
"^. c #83554A",
"/. c #8B5C4B",
"(. c #925C44",
"). c #925E4B",
"_. c #836444",
"`. c #896846",
"'. c #84644C",
"]. c #8C634A",
"[. c #936344",
"{. c #94634B",
"}. c #9B654C",
"|. c #996848",
" X c #8E744C",
".X c #886755",
"XX c #936452",
"oX c #946A54",
"OX c #9C6B54",
"+X c #956D5C",
"@X c #996A59",
"#X c #8B755A",
"$X c #967559",
"%X c #9D725B",
"&X c #A16C4C",
"*X c #A36D57",
"=X c #A37353",
"-X c #AA7853",
";X c #A3735C",
":X c #A8795C",
">X c #966C64",
",X c #887564",
"<X c #977767",
"1X c #9B7462",
"2X c #9C7B6A",
"3X c #A47564",
"4X c #AB7B64",
"5X c #A67B68",
"6X c #B07F67",
"7X c #1A8408",
"8X c #1E8F14",
"9X c #29840B",
"0X c #36860D",
"qX c #34980B",
"wX c #298616",
"eX c #338413",
"rX c #3A8D14",
"tX c #398719",
"yX c #389618",
"uX c #3DA30F",
"iX c #308922",
"pX c #39A521",
"aX c #458618",
"sX c #56851E",
"dX c #459516",
"fX c #46A717",
"gX c #468725",
"hX c #4E8E2C",
"jX c #528428",
"kX c #648739",
"lX c #4BA029",
"zX c #4E8141",
"xX c #718649",
"cX c #90835E",
"vX c #AB815F",
"bX c #96826B",
"nX c #9C8777",
"mX c #AB8269",
"MX c #B68568",
"NX c #A58373",
"BX c #A88978",
"VX c #B38B73",
"CX c #B58979",
"ZX c #A9927D",
"AX c #B99276",
"SX c #C49277",
"DX c #C4957D",
"FX c #A99584",
"GX c #B59988",
"HX c #B59D94",
"JX c #B2A190",
"KX c #C59B87",
"LX c #CAA692",
"PX c #E5B392",
"IX c #C9B4A2",
"UX c #E3C1B0",
/* pixels */
"FXJ.H l u.A |.L.A n m &XE.M * * I ).I * p p .XFXD.d p.K.K.H d f s ^.}.K.d 5.5.E.E.Z Z A &X*XY p p I /.I.* * * S.>X.X* V U y.F   ",
"ZXBXY h p.L.-X&Xa.A K.*X*XK.f I {.CXXXz p p ,XFX/.x C p.E.I.I d f *XSX(.d 5.5.&X=XK.Z Z }.*XY c f ^.CX3XM * * S.BXCXG U u.Q.D.  ",
"6X6X>X).XX{.;X|.|.=X}.;X3X}.(.@X@XCX1X/.XX.X>X2XXX(.(.).}.XX/.XXXX3X5XOXQ.@XE.*X3XOX+X'.OXOXXX#X>X3X6X6XXXOX{.@X3X5X/.{.oX$XJ.  ",
"S.I./.XX{.j.j.f.oXVX~.P.P.~.*XCXg.F.S.'.BX2XF.Y Y ^.3X).!.l.F.CX5XS.g.Q.XX2Xg.l.F.'.FX.Xz.g.^.2XHX/.h.Y z.SXMX).Y ^.K.1X#XF.G   ",
"s a H S.z.g g g c.NXf.l l L +XCXk - - G 2X,Xz d c I 3XS.F s G BX.Xc g F Q.'.k a l G FXD.F l I J.HXI ; ; f 5X3XP s g z ,XF.F =   ",
"G F f.'..XF F D F.ZX.Xf.G D.bXLXG F k D.GXnXI I I S.BX^.f.G l.2XF.l.y.k.Q..XF F F l.FX.X!.^.^.,XHXD.G D D.HXZXf.b f.f.2X.Xr.t   ",
"HX2X>X1X2XGXHXnX,X2XGXGXGXGXFXnXIXIXGXZXHXGXAXDXFXNXNX6XNX5X2X2X2XHXVX%X+X.XNXGXCX1X<XZXCXKXCXFXFXHXHXHXHXHXFXNXNXNXNXBXBXnXF.  ",
"KX(.h.p.z.5X3Xz.c F U 4X{.Y.h.G CXGX/.J k.k.4X:X).E.E.-X|.U.i.a.p.AX:XL.u.Z }.4XXXP V U ).}.P.h.c 5XKX5XH H Y *X4X{.|.{.{.XXf.  ",
"DX(.m d M *X;XH a l m (.p.C m f 6X6XU d d h -X|.u.n n E.E.Z p p Z SX&Xn h h E.3X!.s z h P.K.m m h {.mX].h h h [.=Xa.N Z U.R.G   ",
"DX).Y U Y 3X4Xv.L Y p.R.K.P.P.g.3X*X^.H i.g.;X Xk.Z u.U.T.k.J y.a.MX=X5.Z Z W.:X).H k.k.].k.u.a.a.oX%X[.K Y U (.}.a.U u.U.E.G   ",
"6X&X}.&X).|.`. X$X$Xa.k.k.}.MX*XY.Y.Y.oXmX!.Q.R.].OX$Xk.i._.vX$XZ.vX=XW.&XE.E.{.XX*XMX~.Q.v.Y.3X3X].Q.~.).6X(.I.a.Y.OX&XR.I.G   ",
"Y.Y.*X:XP.b b _.AXAXh x z /.DX4XV x h.6XKXV z z c.VXCXb l T.AXAXd.c.R.W.:XL.A V z.MXLXK c b j.VXVXy.g H oXPX!.c h H :XMXp.H G   ",
"U K ~.(.V g g h.3X3X* * * I 2X>Xs a F XX6Xh - - b .XNXk b P Y.;XV b K L.R.N N g G >XBXz - a F <X<XF a c ^.SXI s s f ).5XH l F   ",
"}.OX4XMXOX:X:X@X3XCX>X>X>X>X2X5X1X1X1X6XSX}.F.D..X2XNX2X2X$X{.4X;X%X=X-X-X=X=X4XNXBXFX/..X>X1X2X1XNXNX2X}.KX@XXX/.XX6X6X3X1XD.  ",
"SX-X|.|.&XLXVX^.I ~.).;X(.I.h.I BXCX/.g.~.I.1X.XF.i.j.OX%XT.K u.].VX:X|.|.[.AXSX@XU Y.P.@X}.I.Y Y 2XGX+XH ^.^.2X2X/.z.l.@X5XF.  ",
"DXW.p.5.K.KXMXY f M K.*Xp.m x z CXKXF.l V M $X'.F h h U.R.u.h x y.VX:Xa.A 5.-XMXP.d m U }.(.C h p oXGXXXd c c /.@XI f s z.].L   ",
"DX&Xu.5.a.3X4Xv.G y.P.-XY.K K k.AXDXOXj.l.f.oX!.y.F b U.E.d.B b 2.mX$Xh.K U oX;XY.V J v.OX).Y f.G 3XCX1Xg.S.j.T.Q.i.b z z.Q.G   ",
"&XW.Q.F.z././.`. X XR.=X/./.oX=X-XMX:XVXJXJ.T.U.T..X.X|.&XW.N.e.Z.A.G./.!.I.!.'.].'.#X'.XX).Q.,X,X4XMXmX2XLX;X`.Y.R.[.].].].f.  ",
"y.b Q.].H d s f.#XcXZ Z V ^.5XR.u.k.`.VXIXD.V N h.#X$XL.E.d.4.C.xXe.b P {.g.c z f.bXZXf.L H l.nXJ.i.K.[.2XUX].K b y.;X%Xz.i.r.  ",
"2.e q.C.v & & F  X$Xp p - i.NX'.g g b $XIXf.a p b .X#Xx n j ` jXjX=.e F '.G g & k ].ZXv z f F nXnXB d x '.UXF.l g z $X%Xy.h q   ",
"0 v s.J.G././..X#X$XT.T.z.oXVXNXQ.f.c.<XFXJ.^.P.c.'.#XK.a.V.=.#.` 3 u f.'.F.F.'.#X$X#XF.Y.I.^.FXJXoXa.a.<XLX@XF.g.z.+X%Xv.v.q.  ",
"_ } e.y.d.%X%Xv.i.~.|.|.R.k.h.l.5X<XF.P F.x.$X].i.y.s.R.R.d.2._ < ` 4.t.x.p.XXOX{.Y.Q.oX).I.I.!.v.1X3X/.y.^.z.~.'.x.e.j.c.`.y.  ",
"m.;.2.N N ].$Xu.h K P.(.p.C x g BXCXz.a l l '.G.y.h x R.R.y.g - + *.7.0.1.m T.&XP.m C U.(.K.C N d @XGXXX- b s ~. Xe.[ j c.Q.G   ",
"jX=.9.U V v.].z.Y C C T.u.C Z B mXVXY.z c x G.G.s.2.q._.c.q.- - 6 =.7.e.b m K.(.Y.V C U Y.a.V C f oXVX@Xc c k S.`.N.2.q.G._.G   ",
"hX7.C.W.U.v.k.[.;X|.i.U.a.L.E.E.=X-X}.W.XX!._.x.x.C.J.J.C.x.d.2.;.;.7.e.Z.P.P.R.].].oXz.v.c.c.`.c.`.vXvX[.`.T.Y.d.s.N.G._.T.G   ",
"jX{ 3.U.a.J g k.4XMXN N N P.|.L.5.L.&XvX4XK b b q.C.N.1.0.s.c.x.8.tX' 1.e.Y.U V g.@XmXK B 2.y.].`.y.d.`.:XAX{.U b w.V.c.q.y.G   ",
"e $ u s.q.l s l.3X4Xh l l h.*XY.N h K.&XMXx q 1.e.6.n.1.e u t.cX0.[ 6 6 4.P l s H +XCXc k z P %X/.b g b R.MX2.g j 1.e.n.4.j 0 . ",
"1.1.1.e.e.f.l.l./.XXH h.P h.).R.k.a.R.W.|.a.2.0.4.9.3.n.w.r.N.J.t.r.[ { =.z.Y h.l.F.>XI y.Y Y XX~.l.f.d.W.&Xd.q.2.e.e.e.4.4.u . ",
"aXgX;.{ u .XXXg.H I Y ~.p.I P g.OX;X!.i.R.R.x.w.4.3.3.N.A.A.B.b.=.m.m.m.} H !.OXI.M I I Y.I.U U K '.#X`.a.R.c.c.s.e.e.4.n.C.r.. ",
"8X8X| 4 9 1X1XP d m Y E.K.C m M 3XVXI.M u.i.G.N.3.3.3.N.H.xXyXo...-.;.m.' s /.*XI.d l C Y.P.C m x oXBXoXN u.d.G.x.0.3.4.M.H.t.. ",
"~ R 5 < i #X1Xl.I l.k.(.P.p.Y P ;X4X^.M N b H.C.4.6.M.M.kXhXtX%. . .^ ` _ b /.*XY.U k.g.T.Y.i.p.K oXbX XZ N s.G.Z.n.n.M.M.A.t.. ",
"6 # y N.J.F.F.,X<X,X(.).(.(.}.*XR.}.(.v.C. XxXA.m.yXyXyXeX-.{ / Q 2 # r e.H.H.G.oXmXmXQ.Q.R.'.1X<X/.XX@XG.x.Z. XH.iX,.dXdXaX[   ",
"6 [ N.A.w.k k D.,X.Xp x d L {.Y.x h B v.cXC.4.4.*.O.yX| T / >.,.=.3 y t.H.e.<.q F {.mXz a g b #XF.H l H D.bXs.2.6.=.^ $.o.Q $   ",
"^ &.aXrX=.G k x.,X,X- q - q.`.!.z k H F.cXe.4.' } *.;.3 : 9 b.xXkX:.;.dXdXO.Q 0 F ,XZXu q - c #X.XF s c D.2Xs.2.<...*.o.! 5 #   ",
"$.$.$.$.@.G G D.J.nXx.s.s.Z..X]./.Q.^.G.H.C.n.4.=.;.hX{ / ` ' M.kXm.-.9Xo.X.T y r.J.cXD.s.5.d..X.X^.!.F.G.#XZ.s.7.*.,.rX..) w   ",
"m.=.) W W u e.w.t.C.jXjXkXm.w.g.5X5X~.f.x.s.e.n.b.;.gX;.-.@.` #.b.B.=./ E 4 4 } b.:.N.V.A.kXA.d.q.XX4XXXP l.V.e.n.b.,.tX9X;.}   ",
"J.r.0 = 0 E -.#.` ` 7X8X8X| 3 l 1X5Xz.l 2.b s.Z.n.$.9X9X9X$.%.&.7.B.e.e # + W #.6.' ) #.0XqX&.e q `.6X/.s c 1.w.N.N.4.%.0X-.(   ",
"D.0.y q [ eXeX8.' W R | ~ R / c @X3Xz.z b 2.W.`.n. .o.o.@.$.0X&.7.M.w.e 0 W 8.jXaX6.^ ) ~ | ! e e .X4XXXH H 1.C.H.N.<.$.$.%.(   ",
"8 [ 4.N.M.eX&.8.' W 4 R 4 ( ,.W.W.G.W.Z.x._._._.e.) ' ' ) ^ ..@.) 7 w 3.V.jXsXaX;.%.! 4 4 4 W 9.A.W.Z.H.G.e.R.[.[.T.h @...! ,   ",
"1 _ n.H.A...-.@.) < ( ( ( >.>.s.2.j 2.x.c.2.j b <.) ) 6.6.#.$.$.7 7 w 4.cXjX` @.%.! 4 R ~ | @.9.V.2.<.j s.Z.Z N N n h @.o.*.(   ",
"j 1.B.zXB./ =._ w 8 { { ` O.*.' aXe v c.3Xy.w 6 ) ' ' &.&.&.&.` 1 w [ e.N.m.W ..^ T ) ] ......#.' b.} e y.5Xe.j e ) ' ` #.;.O.  ",
"q.s.:.>.>.y :.w.w.n.) ] W Q ..0X0X_ j l.;Xh.)  .@.6.) $.o.@.` Q e [ w.3.3.=.{ ..$.=.N.[ / ! ! ^ &.gX{ w V 3XC.4.' #.#.` ` @./   ",
"q.F ] ! ^ ` =.M.kXjX) ) W 5 ^ rX! 0 g 2.h.L O.9XaX7.8 ! ~ ^ ` ^ :.w.4.3._ ` { *.rXhXJ.} W E T W tX` 7 0 M z.e.4.b.aX#.W Q ( T   ",
"v j 1 5 ! ..9XdXdX&.} b.#.Q 5 ! : 0 q q s p  .9XrX} 7 E %.tX;.` [ 1.e e w / { tXdXdXN.[ ` +.^ : Q > # 0 c l e 4.m.8.#.< 7 *.*.  ",
"v e $ > ( ....$.$.^ ) b.8.&.Q @ : v 1.g s d ^ X. .) 8  .tXgX;.@.y [ [ w 1 { { @.o.@.[ [ ( tXiX/ @ + W 1.c c e [ ' ` Q Q ` ;.O.  ",
"] ] ] ] { ] ) 8 < , R O.O.! 7 q & v y.x.N.4.' } ;.%. .} } ` | ~ Q ( ] [ u 4._ W R 4 @ 2 ( >.>.T 3 0 q F f.f.q.0.{ -.%.~ ^ ^ T . ",
"W 3 3 / { w w 0 w y T < < , 1 v & = q 1.4._ ) } m.lXyXw 6 T ~ ~ ! T 3 0 e 1.w 7 T R T 4 2 < @ @ ( = & t G l.v u } -.hXgXW : @ + ",
"1 # 6 w y W ` ^ T W 6 1 $ 9 [ 3.0 0 e 1.n.[ _ ' =.yX-.w 1 W 9XqX*.3 @ % u _ e ^ ~ R ( 4 < % % i t.% # 1 { n.[ :.} O.iX8.w > # . ",
"$ 0 u D ] ^ -.+.E 2 0 u 1.0.w.n.} 3.} 9.M.n.} ' ' %.| ) [ #.qXfX>.3 1 u 1.u _ ;.-. .3 , y i [ r.t.{ / ^ -.tXb.r.] T -._ _ _ ] . ",
"0 [ 0.[ _ -.wX;.{ > 0 n.N.w.[ _ n.7.M.M.M.w.] ` @.9X~ } 7.=.%.&.O.5 ] [ w._ 4.m.tXO.@ # :.N.n.1.:.=.8.tXyXyXw.:.y T -.` ' 4.0.  ",
"7 8 ) ) ) | eXgX:.< 4 0XdX@.1 - z 3.6.8.*.@ @ ^ rXpXyX` W w 0 e 3 , 5 ) ) ) ' -.8XwX1 w #.eX&.j = 0 1.7.yXqX< + 5 o.rXrX+.W 1   ",
"' 6.6.` W  .-.=.9 : ..aXdX&.) a b w ) 6 @ @ T @.rXyXdXaX8 $ $ 0 , ( =.6.' 7 ' wX+.R + _ aXlXgX1.w e e 6 4 4 @ 2 ..rXrXyXrX` O   ",
"$.aXaX&.R  .9X` 6 3 -.;.;.O.W g b <.) T T ~ | O.wXyXyX@.) w u r ( ^ eXdXtX5 ^ wXO.@ 1 4.;.0X;.j 0 <.1.y 4 4 ( +.o.%.rXrX-.W =   ",
"| $.9X$.R R ! < < ) 5 T ! T < - a w ' ` | +.+.| | o.^ < W w u u ( ^ @.0X$.4 E T , @ _ e ^ | Q 0 = 0 e ) ~ ~ +.-.O.! $.^ T 8 y   ",
"5 ` W 5 , > 1 + $ 0 + , , : > w _ W W 6 T +.+.( 2 3 # $ 8 8 8 =.*.! Q ) 7 < : # . O w $ < 2 , # W ) 8 5 R R O.-.( 2 T > # w y   ",
"w w 1 # $ - * & o & > / 3 # 5 o.rX*.3 , 2 O.( 3 + = = w e ) ^ &.eX^ 7 0 = 1 $ = O o O = 9 T , , -.eX@.5 : , ^ O.3 + : 0 = r w   ",
":.w ) } _ v v q O $ @.,.>.*.@.;.eX#.^ E R R @ @ 1 v u e 1.=.@.&.gX..W w [ y y e 0 O O 1.tXwX| ~ -.tXeX( , E R : @ < R u u u w   ",
"~ ~ eXyX%., *.Q , 5 7Xo.uXqX| , ! ! Q Q O.O.@ 9 { v ; 1.1.] T *.*.Q ^ iXlX+.5 ( ^ : , *.yXpXyX-.R ~ ^ ! R O.{ 1 > } } q D 4.w   ",
"R | %.eX%.Q -.*...E ~ qXfX9XT 2 eXgX;.*.( + . , 1 = O e w 1 @ @ @ 3 ^ -.-.-.! ..&.@.! ! wXpXwXR : ^ iX;.O.+.> . + 1 + O t y #   ",
"] } } [ ) ! >.*.Q 4 , ;.%.Q 5 o.yXdXdX;.y % % t i S S q = 0 y r r ] { *.( E ( *.+.Q 0 0 *.-.! < W rXfXfXtX~ $ ; t i i S v t O   ",
"e e r $ $ 2 ( T < , 2 / Q W Q o.qXuXqX&.r % ; t S D D - & % 0.:.[ y 9 < < @ 5 ( T @ = t ) ! E Q *.qXuXfXwXR % ; t S i S t = o . ",
"& O O O O . < # + + 3 3 8 { { R ..wXo.W % O ; = ; ; ; = & $ r D r = O X X . # : + . O ; 3 T ( *./ ^ 9X-.T 2 O = ; & ; ; & & o   ",
"o o o o o o o o o o + > 9 y 9 . , T < .     X X X o o X o X o = o o o o o o o .     X = # 3 / 9 . : T 3   . . o o o X X o O o   ",
"                                . . .                                                               .                           "
};
