/* XPM */
static char *fc27b5ce9da44166a9edbdc558198aea8R0gKLkMkME4xP0X[] = {
/* columns rows colors chars-per-pixel */
"64 64 29 1 ",
"  c #10161A",
". c #11181B",
"X c #11181C",
"o c #12191C",
"O c #12191D",
"+ c #131A1E",
"@ c #141B1E",
"# c #141B1F",
"$ c #141C20",
"% c #151C20",
"& c #151D20",
"* c #171E22",
"= c #171F22",
"- c #171F23",
"; c #182024",
": c #1A2226",
"> c #1A2326",
", c #1A2327",
"< c #1B2428",
"1 c #1C2529",
"2 c #1C2629",
"3 c #1D272B",
"4 c #1F292D",
"5 c #1F292E",
"6 c #202B2F",
"7 c #212C30",
"8 c #222C31",
"9 c #232E33",
"0 c #253136",
/* pixels */
"9999999999999999400409009999609099999999999999999999999999999999",
"0000000000000000000000000000000000000000000000000000000000000000",
"0000000000000000000000000000000000000000000000000000000000000000",
";;;;;;;;;;;;;;;;;;;;;;;;;;;;;;;;;;;;;;;;;;;;;;;;;;;;;;;;;;;;;;;;",
";;;;;;;;;;;;;;;;;;;;;;;;;;;;;;;;;;==;;;;;;;;;@;;;;==;;;;;;;;;;;;",
"111111111111111122<22222<;2<<33<1112<222;32233332222111111111111",
"0000000000000000000000000000000000000000000000000000000000000000",
"0000000000000000000000000000000000000000000000000000000000000000",
";;;;;;;;;;;;;;;;;;;;;;;;;;;;;;;;;;;;;;;;;;;;;;;;;;;;;;;;;;;;;;;;",
";;;;;;;;;;;;;;;;;;;;;;;;;;;;;;;;;;;;;;;;;;;;;;;;;;;;;;;;;;;=;;;;",
";;;;;;;;;;;;;;;;;;;;;;;;;;==;;;;;;;;;;;;;;;;;;;;;;;;;;;;;-;=;;;;",
">>>>><;<;++#<<<;>>>>>>>>o@@>>>>><1;;>>>>@@>>>><;;2;2;<; # <<2;<<",
"><>>;<<<<o@@;<<>>>>>>>>>ooo;>>>>;2<<;<>>=@;<;<;<2<>>=;2ooo;2;2;2",
"233233231@@;333333333333oo@3>66231333333;@4113331333416#@@333311",
"333333333@@;333333333333ooo26>6233333333@@1461333333141=@=333333",
"333333334@@;333333333333ooo3>6>633333333@=6126333333414@=@333333",
"440447476;;>696966669966;;;6606996666066;;6669699669666=;;666966",
"409440476;;>666669966669;;;6666666966666;;96666666669662;;666696",
";;;;;;2;;;;;>;;;;;;;;;;;;;;;;;;;;;;;;;;;;;;;;;;;;;==;;;;;;;;;;2;",
";;;;;;;;;;;;;;;;;;;;;;;;;;;;;;;;;;;;;;;;;;;;;;;;;;;;;;;;;;;;;;;;",
";;;;;;;;;;;;;;;;;;;;;;;;;;;;;;;;;;;;;;;;;;;;;;;;;;=;;;;;====;;;;",
">ooo>>>>>>>>>>>>>.@>>>>>>>>>>>>>oo@>>>>>;22;;<<@o#2;2;>><<<>>>>>",
">ooo>>>>>>>>>>>>>@@>>>>>>>,,>>,,  o;>>>>><;23;;Xoo;2;2;><>>>>>>6",
"2oo@222222222222>@O222222222,3,3o@@>22222221111X#o1322222222>2>2",
"2O@X3333333333332$;2226>62336,6,oo@333333333331+#X33333326<6<<6=",
"3@X@3333333333333$$226>6>63327,6o#@333333333333% %3333332266<6<6",
"7@@$7474770496757;;7697707667757;;;666068888888%%%8888889968886=",
"9@;$4040774777777;>4697767667575;;1669668888888%%%8888889668888=",
"7@@$4744774775754;;7757566477457;;>666668888888=%%8898888880888-",
";;;;;;;;;;;;;;;;;;;;;;;;;;;;;>;;;;;;;;;;-==-===@%%==--=====-#=--",
";;;;;;;;;;;;;;;;;;;;;;;;;;;;;;;;;;;;;;;;==;;--;;%%----===---=#<=",
";3;<;2<>>@@$>>>>>>>>>>>>OOO>>>>>>>>>><;<+%1;;1;<;1;1<1-o##-=66=<",
"@6@6@6@66o@@>>::::::@6@6 o@:::@6>>>>>>>>oo::6@6@6@6@:::  @@6@6@:",
"6@6-6@6@@oo=>>:@>::@6@6@@@ ::@6@>>>>>>>>@@::@6-@@6@66@:oo 6@6@::",
"6@6:6::66@@=6>666>666@66@@@6666633333333@#6666666666@66@@@86@666",
"66:6:6666@@=>666>6@66666@@@:6=6633333333o.666--6@6@6666@@@66666@",
"666686866@@6868666860666:@@9686666069696<-6606666666966:@@966666",
"668666686@@@686868686666@666660666666666--6666666666666@66666666",
"666666899@@>8689688686886@@6666606666696--66666666666666@@866686",
"@6@=6----->@=@@@=@@>@@6@@@6@@@6:;;;;;;;;--<-><>-6@6@:::@@6@@6=@6",
":-@6@@6@===@@@@@@@@==@=6@:=:@6@@;;;;=;;=;=;;=--=6#6@====@6=:@@:@",
":@@@6@@6>>6==6>>6@o:6===@66@6@6@@@o2>><><>><<-<#.@@@6=6>6@:@6:6@",
"6   ::6@6@6=6@6>= o:6=6=6@:@@6@6ooo2>>;<>>>>>><o.o@6@6@>@6@6:::@",
"@@@o::@6@6@@@6@:6 o:==6=:::66@6@ooo>>><<>>>>>>>ooo6@6@6=6@6@:@6@",
"6o@ 666=666666666@@:666=6@6@6666@@;333;613;6>66o#@666@6>666666>=",
"6@ @6:66=6@6=6=66@@66=666666@6@6@@@1336233626>6o@@6666:6@6@66:6=",
"6 oo6666666666666@o6666666668666;;;666666666666;##6-66666666666@",
"6o  6666666666666@o6666666666666;;<666666666666@6#6666666666666>",
"6@@=0889669666968:-6668666666666:-6668666666686:@66668666686666:",
"===:@@@::--:-:--@:-:-:--6@::-:-:--@:6--:6-::6--:@--@:o::@::::::o",
"-::=@6@6----:-:-@-6@--::--@:@::@-:--@@--@---@@@@:@-6@:@-6@:@--:@",
"::@:::@@-::---:-6@@::---::--@6@@--:--:@@--:--:6@6--#6@6@@:::::::",
"6@@6@66@6@@@6@6@6@6@6@:@@@@@6-@66@6@:6@6@o::6@6@#6@6@:@o @:::6@6",
"@66@:@@66-@@@6@6@@@6@6:6oo@-@66@@6@6:@6@@o@6-@@66#6#::6o@o:@::6@",
"6-666@6@-@@6666666-666@6###66-66@666:666#o6666-666666@8o@@666@6@",
"666-66666@@@@6@6-666-666###6666-66:66:66#o-6-666@9#6668 @@@66666",
"-666:6666o@-866666666@66#@@6-6666666666:@-866:666666668@@@66666@",
"866686668@@:686666666666::-6666866886666--6666686666666-@6686666",
"668966988@-6896686686668---6686666886666-:8666886668668---666866",
"-----*--@6-:@:@@@@6-6@:@-::--::-o@:@6:@@-:--@:--@@-:@----:-:6@@6",
"---:--:::---:--:-:---::---:--:---::-@-:---:::---:--:--:::---@--:",
"-:--:-----::-:---:-:----:-:--:-:------:-:-----::-:--:-----::@:--",
"0000000000000000000000000000000000000000000000000000000000000000",
"0000000000000000000000000000000000000000000000000000000000000000"
};
