/* XPM */
static char *c83910fa94684dbba74cf09f216db8e3hSZmrH3QghJ7lMN0[] = {
/* columns rows colors chars-per-pixel */
"64 64 177 2 ",
"   c None",
".  c #0E0F15",
"X  c #0F0F18",
"o  c #100F17",
"O  c #0F1016",
"+  c #0F1019",
"@  c #101116",
"#  c #13131C",
"$  c #18161F",
"%  c #17191F",
"&  c #18191F",
"*  c #171520",
"=  c #181721",
"-  c #1C1B23",
";  c #1F1E29",
":  c #211E26",
">  c #201F28",
",  c #212125",
"<  c #24232B",
"1  c #29272E",
"2  c #2B292E",
"3  c #292730",
"4  c #2D2B32",
"5  c #312E34",
"6  c #342E38",
"7  c #343136",
"8  c #36333A",
"9  c #3A363C",
"0  c #3D393D",
"q  c #413C3F",
"w  c #3E3C41",
"e  c #423D42",
"r  c #454145",
"t  c #494445",
"y  c #464249",
"u  c #4A454A",
"i  c #4D494B",
"p  c #514C4D",
"a  c #55504F",
"s  c #58514F",
"d  c #4F4C50",
"f  c #534E51",
"g  c #565152",
"h  c #5A5455",
"j  c #5D5957",
"k  c #5D5659",
"l  c #5E595A",
"z  c #615956",
"x  c #625C5C",
"c  c #66615E",
"v  c #69625F",
"b  c #645E61",
"n  c #666161",
"m  c #6B6463",
"M  c #6E6965",
"N  c #6E6969",
"B  c #706765",
"V  c #726A66",
"C  c #736D6A",
"Z  c #796F6D",
"A  c #76716D",
"S  c #7A736E",
"D  c #7F7A6F",
"F  c #7D7671",
"G  c #7E7973",
"H  c #817673",
"J  c #827B75",
"K  c #857D79",
"L  c #887E7A",
"P  c #858075",
"I  c #898377",
"U  c #86817A",
"Y  c #8B837C",
"T  c #8E887F",
"R  c #91897E",
"E  c #8C8580",
"W  c #8E8981",
"Q  c #938C84",
"!  c #988F86",
"~  c #968E88",
"^  c #979186",
"/  c #9A9286",
"(  c #969189",
")  c #9B948B",
"_  c #9E988E",
"`  c #9D9790",
"'  c #A0978D",
"]  c #A1998E",
"[  c #A49D92",
"{  c #A89F95",
"}  c #A6A094",
"|  c #AAA296",
" . c #ACA599",
".. c #AFA99C",
"X. c #B1A79C",
"o. c #B3AB9E",
"O. c #B6B09F",
"+. c #B5ADA1",
"@. c #B5AEA8",
"#. c #B7B1A2",
"$. c #BBB4A5",
"%. c #BFB8A6",
"&. c #BDB6A8",
"*. c #BFB9A9",
"=. c #C0B6A6",
"-. c #C0B9A7",
";. c #C3BCAB",
":. c #C5BEB1",
">. c #C7C0AE",
",. c #C8C1AF",
"<. c #C7C1B1",
"1. c #CBC4B1",
"2. c #CBC4B2",
"3. c #CAC4B3",
"4. c #CCC5B3",
"5. c #CCC5B2",
"6. c #CDC6B3",
"7. c #CAC2B5",
"8. c #CAC4B4",
"9. c #CCC5B4",
"0. c #CDC5B5",
"q. c #CDC6B4",
"w. c #CDC6B5",
"e. c #CEC7B5",
"r. c #CEC7B4",
"t. c #CDC5B6",
"y. c #CEC7B6",
"u. c #CEC7B7",
"i. c #CBC4B3",
"p. c #CFC8B6",
"a. c #CFC9B6",
"s. c #CEC9B5",
"d. c #CFC8B6",
"f. c #CFC7B8",
"g. c #CEC7B9",
"h. c #CFC8B8",
"j. c #CEC9B8",
"k. c #D0C7B7",
"l. c #D0C9B7",
"z. c #D0C9B6",
"x. c #D0CAB7",
"c. c #D0C9B7",
"v. c #D0C9B8",
"b. c #D1CAB8",
"n. c #D1CBB9",
"m. c #D2CBB9",
"M. c #D3CBBA",
"N. c #D3CCB9",
"B. c #D3CCBA",
"V. c #D3CDBB",
"C. c #D3CEBB",
"Z. c #D4CDBB",
"A. c #D4CDBA",
"S. c #D4CEBB",
"D. c #D5CEBB",
"F. c #D4CDBC",
"G. c #D5CEBC",
"H. c #D5CFBD",
"J. c #D6CFBD",
"K. c #D6CFBE",
"L. c #D3CDBA",
"P. c #D7D0BE",
"I. c #D7D1BF",
"U. c #D7D0BD",
"Y. c #D7D0BE",
"T. c #D8D1BF",
"R. c #D9D2BF",
"E. c #D8D1BF",
"W. c #D9D1C0",
"Q. c #D9D2C0",
"!. c #D8D2C0",
"~. c #DAD3C1",
"^. c #DAD3C2",
"/. c #DBD4C2",
"(. c #DCD5C3",
"). c #DDD6C4",
"_. c #D9D2C0",
/* pixels */
"(./.)././.K.~.T.K./.K.U.K.U.G.K.J.J.J.J.G.J.J.J.G.J.G.n.J.G.C.J.J.J.F.J.J.F.J.J.>.%.>.s.3.j.j...3. . .l.l.l.l.4.4.s.s.4.1.1.1.2.",
")././.~.~.T.T.K.K.K.K.G.U.K.U.T.~.J.J.J.J.J.J.G.J.J.G.G.C.F.s.+.| :.F.M.f.y.*.J j h x $.| ..` H C.o.} l.l.l.l.r.4.4.4.4.1.1.1.1.",
"/.~.~.P.~.T.n.;.K.T.T.U.G.T.K.U.~.J.W.J.J.J.J.J.J.J.G.l.&.Y | @.K E g.;.$.+.C.j.s.-.| G.C.a.| _ j.} A ;.s.s.s.j.#.$.s.3.0.0.1.1.",
"~.P.~.T.K.K.2.+.T.K.U.U.T.T.T.K.~.J.J.J.C.n.0.0.n.n.k.G j &.J.n.;.) n.F.G.J.n.1.| H A ,.%.*.U _ +.;.} 0 E 8.y.| m ;.y.3.2.:.;.;.",
"/.~.T.T.T.T.1.+.T.T.K.K.T.T.T.R.!.J.C.n.*.+. .k [ [ U J &...;.f.<.o.x.G.G.s.( m G V x C Y i G V } j.4./ U M W S | 4.3.y.1.#.X.:.",
"~.T.T.T.P.J.4.+.K.T.T.T.T.R.T.T.P.J.;.:.j.F.#.l 8.M ;.C.W.F.:.&.( l Q $.o.h r A I Q H Y Q A [ U 3.j.n.n.s.+.H #.4.;.;.+.+.=.2.2.",
"T.T.P.~.T.P.y.&.T.T.T.T.T.T.T.T.P.P.J.J.F.n.K +.<.o.C.J.M.M.n.n...l x p m h h S H Q H Y ! ! Q c 7.n.s.n.n.y.4.&.$.;.A U 2.4.y.1.",
"T.T.P.T.T.T.n.:.T.T.~././.T./.T.!.P.!.P.F...K J.F.J.J.n.M.j.n.j.[ v Q A Q C p m m J H L B E m x | s.s.l.n.y.y.;.Y r h ;.2.0.1.1.",
"J.J.F.~.W.~.M.f.T.R././.T.T.T.T.J.J.W.J.y.K $.8.N.J.J.N.N.n.s.o.] v T 0 V z h x G Z C H V C g l l [ >.l.s.s.3.#.p h $.4.y.4.4.,.",
"P.J.J.~.J.!.j.J.T.(.T.T./.T.T.T.J.J.J.J.1.m Q  .J.J.N.N.n.j.1.G Y E 0 r 6 B e u H G n V p x u J G S J ..&.o.U w C ;.4.y.4.4.4.,.",
"~.J.J.~.J.!.8.P.T.R.T.T.T.T.T.T.J.N.C.J.j.C #.C.F.J.N.n.n.2.| G R S V c z V 5 < 6 w 4 e 8 5 1 C n Y Q H T c ` ) $.y.y.y.4.4.3.3.",
"~.J.J.~.J.!.$.T.T.T./.T.T.T.T.T.J.J.J.M...;.J.F.N.n.n.l.y.~ A t z h h h y 5 3 9 w w w f f p 6 Z m Q R U / e #.:. .g.y.3.4.4.,.4.",
"J.!.P.~.R.T.| ~.T.T.T.T.T.T.T.T.J.J.G.;.+.n.J.C.0.n.n.y.[ Y / U 9 : 3 7 6 4 e u f k i e h d q m S Y U I m = ) <.G y.4.4.4.4.4.,.",
"~.~.!.~.R.R. .T.T.T.T.K.T.T.T.K.J.C.n.| J.C.n.n.&.1.y.K u m V m u < 4 w y y g h m l f i e e 8 w h V x Z < u E g l $.s.4.4.4.4.,.",
"~.P.~.P.T.R.| T.T.T.K.T.K.K.U.G.F.n.:...J.n.+._ ..+.S C m 5 w 8 1 6 5 i n x x m N p 0 y 6 < 6 1 5 e 0 8 6 &.y.S #.#.$.y.,.4.4.,.",
"~.~.P.~.T.T./ T.T.T.U.G.T.G.G.y.[ m N h C B N V l z q K x e 3 ; 3 w y m x g w x x k e 6 5 8 y 9 6 m q : g 1.;.U ;.[ _ ,.4.4.,.4.",
"~.~.P.P.~.P._ P.P.P.P.J.P.J.G.y.[ Z 8 0 g g A m q 7 M h z 4 > 3 9 u z k h p t z h u i > 5 f k f e 6 5 : 7 [ E #. .;...[ <.1.1.1.",
"~.P.~.J.J.J.&.P.P.J.J.J.J.J.n.s.#.| v o.! m J J J u z 0 4 < 6 w 6 k d B z x z x t 5 8 ; 3 l m u e y 1 < Q 4.>.>.Y M u e +.) ;.8.",
"~.~.~.~.!.F.<.F.J.P.P.J.J.G.G.G.J.C.;.G.l.#.$.X.Q c r # = 3 8 u e x x B B B p p e 8 < 8 9 g x k f 9 6 Q 4.4.4.4.^ >.A r &.;.[ 1.",
"~.P.T.~.!.!.*.Y.J.J.P.J.J.J.G.n.G.n.n.G.C.,.4.l.4.Y 8 = - 6 w e e B b Z Z b p p h i - w 0 i e y r 5 ( 2.4.4.4.;.] >.Y 0 ;.y.! J ",
"/.~.P.~.F.F.:.P.P.P.P.J.G.J.N.G.J.N.n.J.G.C.| l.8.u - # < 4 4 5 e h e f z h y r x i > 1 9 f w 0 g _ ;.y.4.4.,.,.>.>.W c 7.2.#.;.",
"~.~.P.!.!.s.&.P.T.T.P.J.J.J.G.J.G.n.C.G.l.x.#.l.} i 0 O O @ + # * * # * - : e 6 h e > > 5 8 9 K ] &.,.k.4.4.4.,.,.>.W V ;.y.1.1.",
"~.~.!.~.!.<.| P.P.P.J.J.J.J.G.N.G.n.;.C.<.|  ./ m l = O + @ - % o o X o . . o X * # # - - 1 z +.y.y.4.4.4.4.4.,.>.>./ r =.4.1. .",
"~.!./.!.P.<.[ P.J.J.J.n.G.G.G.N.N.n.| 3.y.;.1.E T V # O = e u j 1 o o o . . . X X X # # # e _ l.s.4.4.2.4.3.3.,.>.>.E H 1.,.+.| ",
"~.!.~.~.P.>.[ P.P.F.P.C.G.G.l.N.n.l.;.~ j.s.j.( c M % O # - , 7 5 $ . . . . . . O . @ = # h X.y.y.2.4.2.1.1.1.,.,.,.Q o.3.>.C %.",
"~.~./.P.!.<...P.P.P.C.J.G.G.G.n.y.| G 9 h j J l i 9 # e < = + = 0 7 X . @ . . . O O ; # . p { 4.2.1.1.=.@...1.1.,.,.J  .>.>.Q >.",
"T./.P.T.!.8.&.P.J.J.J.J.n.G.G.o.*.&.m | <.*.:.F g - 5 ( _ x n M x 4 X o . . . . . # w = o < K 2.2.1.#.o.:.:.1.,.,.>.a X.$.>.U >.",
"/./.T.T.!.j.;.!.J.J.G.G.G.G.C.G.j.} N y.:.~ A l w # 1 7 i G g t 1 X # @ o O . . + < u < # > h o.Q / ,.4.,.R >.<.>.) 2 2 < 9 i ) ",
"/.P./.P.P.g.<.!.P.J.P.F.F.C.n.l.n.s.+.Q ` Y n 7 , % 4 0 r i 9 8 < < # # @ @ . . O < 1 1 $ @ 5 +. .:.1._ P M Y S #.) O.| |  .$.S ",
"/.T.T.T.P.<.<.P.J.J.P.F.J.C.l.C.3.( U #.j.Q ~ ( m 4 0 0 7 a t 7 1 N g 3 = # o . O u @ - , @ m +.:.7.,.:.#.[ _ >.,.,.,.>.>.>.,.*.",
"T.T.T.T.Y.@.:.*.;.G U 3.J.G.C.l.s.G l ,.g.( +.#.t u ( l M Q [ h q c J t 1 # + o . 1 # ; > @ x o.1.1.,.#.v ] >.,.,.,.>.>.>.>.>.>.",
"/.P.T.P.U.( ` J 4 ; y U J.J.C.s.l.R m 4._ h G K r T } F ` [ _ S G A Z i g - : . . X X @ @ @ x +.2.;.[ ] $.,.,.,.,.,.>.>.>.>.;.-.",
"~.J.P.J.K.F Z h # = , r K.G.n.l.;.Y m &.s n h 0 t U { Y ] ] o.X.) S M x r r = + # O O O O @ i / } [ ;.1.1.,.,.;.1.;.>.;.>.>.;.-.",
"~.J.~.T.f.b f 0 # = e Q G.G.n.k.s.V C U u T z 1 Z Q { I ) )  .] / j e i m 1 # 1 % O O O O @ h G ;.1.>.<.,.,.$.#.1.;.>.>.;.>.-.^ ",
"J.J.W.f.' e 0 5 > 1 h 1.G.G.N.n.*.C 8 w 0 w r 4 S ' { ' ] [ [ ] / b 0 h t , e 9 > < = O O & g / 1.3.;.1.,.;.;.;.;.;.;.;.>.>.S v ",
"~.P.n.Y m 3 8 < = i y.G.G.G.n.n.&.| | o.C g 9 2 m ) ] | ] ) ] ) / g m 0 z e r 2 , 4 , @ @ & J A ;.;.&.;.:.;.;.;.;.;.:.:.%.} H $.",
"~.T.o.z f ; F ~ y ;.W.M.G.n.N.f.;.1.+. .Q m u j L ` [ { } / Q S z p 0 p x , 4 - 8 4 = = = + , 2 / #.}  .| +.;.;.-.>.-.$.j } >.-.",
"T.y.W k m u <.` 8 | F.F.n.#.] ;.[ ..s.&.C 5 0 J Y Y ] { [ } H J b h 9 Y r - 1 9 m S 9 = # @ O 5 ( o.S h i G | =.} R J i , J O.>.",
":.N N k k J #.V g V [ f.2.#.C.n.s.) n.y.! K i J B L ' | Y H G V m e J m < 1 q V m L S y ; * o = e  .;.;.;.;.;.;.>.>.-.I ] R ^ v ",
" .E N p 0 K i u b G h A G.G.n.G.:.;.n.3.A p 4 L G Z ) Q H Z g n q m m < u i x U H H S Z 5 > + : h ;.;.;.;.;.;.;.-.>.O.} -.>.-.) ",
"..b Y n i E 0 w f e 5 x | J.G.n.;.$.+.Y c J 1 J R V Q J H x q Z Z m < y h B V J x H B J m 4 # # q >.>.;.>.;.>.>.>.O.%.-.;.>.| -.",
"..m C E Q N 8 w w x F W F { Q J E 9 | n.o.&.0 Y ! R ! ' B z h s C 6 w m m V K H C S Z L H i ; + r / -.>.-.-.-.-.%./ %.%.;.-. .-.",
"!.J.o.m f w u 9 y B Y &.&._ &.K M 0 &.s.&.Q C m L Q Q / S h A x u 1 f C J S I Y Z Z H J S m 1 + q a | ;.>.-.O.$./ O.%.>.;.^ O.-.",
"!.y.Z 9 E d k 0 e J Y #.n.n.&.#.&.u ..l.s.A G f V V H S L g v A , 0 C S z c l i u h C b u n e = 2 A o.} ;.-._ o.%.>.>.-.%.D O.-.",
"K.$.m h n u r E g E / y.C.F...Q | w d _ 3.W 0 9 h K ~ Z S a i t ; 2 8 e p a W 7 c N _ i Q m F 0 : p O.Y D M | -.-.-.-.>.-.G $.-.",
",.I Y c f g g K x L | J.F.C.$.S | C o.{ ] T j h Z H J Y B z s 5 < 9 S Q Y A | i R m Q q P h c , @ 9 R Z | } >.>.>.-.>.-.} _ -.-.",
";.L / S l d 0 U m H f.N.C.n.j.y.f.*.&.#. .#.E Q h H Y Y K g t 1 q 5 p A a l M u S M U C ` n V - & M O.] R ;.>.-.-.;.>.-.o.-.;.-.",
"4.L K L K w i i n V f.N.J.n.j.j.g...#.s.l.s.o.m 4 C x H x 9 e f < - 8 S a m A r m A #.E C m 1 # - c R p i ] o.;.-.;.-.|  .>.-.;.",
"l.+.Y M m 1 x m p V ) :.J.n.l.l.:.;.M.l.l.y...e 4 C H k p 5 f l + 3 y u 7 3 w y e J C W y n 8 ; 1 h ] | G Y U J M Q %./ _ O.$.;.",
"G.l.;.m < * 3 b ( Q A G ;.C.n.n.[ +.n.l.s.3.U 1 y C L g 5 i e V ; 3 b l b 6 e C F / ! ] G C w < 9 M ;.]  .G [ _ | -.>.-.>.%.%.-.",
"G.l.*.x > ; 9 N <.n.[ i [ n.N.n.$.;.#.l.;.[ #.U W x G Z g u 7 v > < f u m 8 z C J Q ' ) ~ m 8 ; p o.-.o.;.Y o.>.>.>.-.;.;.;.;.;.",
"G.C.j.H m i p b N.G.G.&.:.J.N.k.3.y.Y ~ | &.[ ) F K A H f i 9 h w - d d k u b z H J _ / / k w < q X.' -.>.#.;.;.>.-.>.-.-.>.-.;.",
"G.n.n.;.) C G +.N.F.J.n.G.N.n.4.| T Y ;.l.l.y.o.U u p S h l 3 0 Z ; y f x f b g V Y ] ~ ~ i 8 6 z Y -.>.-.R ;.;.;.>.;.;.-.-.;.>.",
"G.G.l.N.;.7.y.J.N.F.N.n.N.l.G.n.;.s.8. .y.l.y.y.7.W Y V F m w e B e 4 k C V x b H { ] C G u 8 x J %.>.-.O.| ;.+.;.-.;.;.-.>.-.;.",
"n.n.l.N.M.n.C.N.F.J.N.J.N.N.l.4.4.l.l.$.;.l.y.y.>.%.` M U Y p u g x > h B C m S I X.] v E y 0 G ;.>.;.>.o.+.( -.-.-.;.-.-.;.-.-.",
"G.G.G.G.F.C.n.N.N.n.J.F.J.N.1.1.y.l.G.C.7.y.y.;.;.#.g e S T v p w V 4 6 x h C L Q ] ] H V 7 4 z >.>.>.%.*.X.| ;.-.;.;.;.;.;.#.x ",
"J.N.F.N.N.F.N.J.N.N.F.F.N.F.f.N.N.n.n.N.k.l.1.;.O.G 7 u C l Z i N i Z < u V H / H H R Z C q p H >.>.o.V Y -.-...O.-.;.;.;.X.O.H ",
"F.F.F.N.N.F.N.n.n.F.N.N.N.n.k.N.n.N.n.N.4.2.$.;.D / | | U | Z r Y z m e h x Z Y S ! L v C 9 u e R ) c T ;.-.>.>.;.;.;.;.-.;.;.#.",
"F.N.F.F.N.F.N.N.n.N.N.F.N.G.f.n.n.l.n.l.,.;.Q D } -.;.;.#.M C 9 Y F S G s h U U v Y I J B 6 p h O.[ i %.>.>.-.O.;.;.;.;.-.;.;.;.",
"F.N.N.n.N.n.n.l.F.N.F.N.N.G.l.k.k.y.l.&.K R o.;.$.-.;.;.;.#.V k G g m Z H g V S h S S J m 3 8 ) >.>.G X.;.-.-.$.;.;.;.-.;.;.;.-.",
"F.N.n.F.n.n.N.l.N.l.N.n.n.l.l.N.l.4._ n P ;.>.;.$.%.-.%.;.;.R n x 3 K 0 b p s z t l A L m m i R O.>.-.} H D r h $.;.;.;.-.;.-.-.",
"N.N.N.N.l.G.N.l.N.l.n.l.n.n.l.k.l.4._ ;.%./ %.%.-.>.%.%.$.;.Y ] G G J x X.i q ) } Y c a i V z $.-.-.-.-.Q t | | O.;.;.;.-.-.;.;.",
"l.n.n.F.n.N.G.n.N.n.l.l.n.l.l.l.n.n.s.s.;.}  .>.,.r.>.-.;.#.#.1.#.;.K #.X.S Z ,.,.#.Y W Y | o.;.;.-.>.>.;.$.-.;.-.;.;.;.;.;.-.-.",
"                                                                                                                                "
};
