/* XPM */
static char *result[] = {
/* columns rows colors chars-per-pixel */
"64 64 256 2 ",
"   c #020000",
".  c #0B0101",
"X  c #0B0A05",
"o  c #130402",
"O  c #150B05",
"+  c #190D06",
"@  c #15090A",
"#  c #1A0E09",
"$  c #191706",
"%  c #1E120B",
"&  c #0C0F13",
"*  c #150C12",
"=  c #180E13",
"-  c #1A1114",
";  c #1A161A",
":  c #240C08",
">  c #27160B",
",  c #21150D",
"<  c #221611",
"1  c #291410",
"2  c #251913",
"3  c #291D16",
"4  c #261D1A",
"5  c #2A1E1A",
"6  c #351A10",
"7  c #1A2312",
"8  c #2D300F",
"9  c #2D211B",
"0  c #2A2718",
"q  c #352415",
"w  c #392817",
"e  c #32251B",
"r  c #35291D",
"t  c #3A2A1C",
"y  c #181F28",
"u  c #2D2320",
"i  c #2D2A27",
"p  c #322522",
"a  c #352A24",
"s  c #372927",
"d  c #3A2C24",
"f  c #3A2D29",
"g  c #393627",
"h  c #39342B",
"j  c #3D332C",
"k  c #42290C",
"l  c #452E14",
"z  c #49371A",
"x  c #513B1B",
"c  c #422F25",
"v  c #443625",
"b  c #42352C",
"n  c #443C2C",
"m  c #4A3C2C",
"M  c #433632",
"N  c #453B33",
"B  c #4A3D33",
"V  c #473939",
"C  c #4A3F39",
"Z  c #394411",
"A  c #3A4129",
"S  c #424713",
"D  c #47452B",
"F  c #564629",
"G  c #4E542F",
"H  c #474335",
"J  c #4C4235",
"K  c #4D423A",
"L  c #52453A",
"P  c #574938",
"I  c #54493E",
"U  c #694F3C",
"Y  c #65553B",
"T  c #5A632D",
"R  c #6D6F39",
"E  c #354C53",
"W  c #4C4D44",
"Q  c #564C41",
"!  c #544A46",
"~  c #5A4E43",
"^  c #5D5145",
"/  c #5D534A",
"(  c #58564A",
")  c #595858",
"_  c #695343",
"`  c #62564B",
"'  c #655949",
"]  c #645A4E",
"[  c #655B55",
"{  c #6A674D",
"}  c #796648",
"|  c #757748",
" . c #6B6356",
".. c #77695B",
"X. c #6E7551",
"o. c #4A5368",
"O. c #565B66",
"+. c #535B6D",
"@. c #555C72",
"#. c #5A5E73",
"$. c #625E65",
"%. c #5D626B",
"&. c #596375",
"*. c #5B6274",
"=. c #5D657A",
"-. c #55747E",
";. c #686769",
":. c #776966",
">. c #797466",
",. c #636575",
"<. c #686774",
"1. c #666A73",
"2. c #6A6C73",
"3. c #62667B",
"4. c #636A7D",
"5. c #6A6D7C",
"6. c #6B7176",
"7. c #6D727A",
"8. c #75757A",
"9. c #994C3B",
"0. c #8E5544",
"q. c #8B7051",
"w. c #877659",
"e. c #A86852",
"r. c #B57056",
"t. c #84716C",
"y. c #867868",
"u. c #957D68",
"i. c #867875",
"p. c #FA7667",
"a. c #7B8450",
"s. c #7D8277",
"d. c #85834A",
"f. c #888757",
"g. c #928C56",
"h. c #999959",
"j. c #A49D5B",
"k. c #8A8667",
"l. c #978A67",
"z. c #8A9768",
"x. c #999A68",
"c. c #8A8576",
"v. c #978976",
"b. c #9B9577",
"n. c #A48869",
"m. c #A6966A",
"M. c #A48877",
"N. c #A89479",
"B. c #B69A78",
"V. c #96A66B",
"C. c #A8A769",
"Z. c #AAA777",
"A. c #B1AF76",
"S. c #CC947B",
"D. c #CAA97B",
"F. c #5C7A81",
"G. c #656C82",
"H. c #696E83",
"J. c #696F88",
"K. c #677385",
"L. c #6B7385",
"P. c #6D7489",
"I. c #6D798B",
"U. c #717585",
"Y. c #767A85",
"T. c #71768B",
"R. c #737A8D",
"E. c #7B7E8A",
"W. c #6D7993",
"Q. c #757D91",
"!. c #797E92",
"~. c #867F8F",
"^. c #74898F",
"/. c #7A8295",
"(. c #7C8599",
"). c #858287",
"_. c #95928B",
"`. c #838898",
"'. c #A79989",
"]. c #AF998F",
"[. c #B59B83",
"{. c #92A79B",
"}. c #A9A787",
"|. c #B7A688",
" X c #BBAA97",
".X c #B5B490",
"XX c #838CA4",
"oX c #8E96A7",
"OX c #8DA5A8",
"+X c #95ACAC",
"@X c #97AEAF",
"#X c #94B2B3",
"$X c #9BB5B3",
"%X c #9AB7B7",
"&X c #9DBABB",
"*X c #A7B3A6",
"=X c #A2BAB5",
"-X c #A4BDBB",
";X c #A9BCB8",
":X c #C69E8D",
">X c #CBA987",
",X c #D0B38C",
"<X c #C7AD97",
"1X c #C8B498",
"2X c #D7B798",
"3X c #E7B68F",
"4X c #E5BE96",
"5X c #E4BD9B",
"6X c #C9B9A4",
"7X c #D9BAA4",
"8X c #E6BDA5",
"9X c #BFC387",
"0X c #A8C3BA",
"qX c #ABC2BD",
"wX c #CEC78F",
"eX c #E8C29E",
"rX c #EAD29B",
"tX c #DAC3A7",
"yX c #DCCAB6",
"uX c #D4D1B9",
"iX c #E3C5AC",
"pX c #E9C7A8",
"aX c #F4CCA9",
"sX c #F8D5AE",
"dX c #E6CCB2",
"fX c #F8CBB6",
"gX c #ECD1B3",
"hX c #E8D4BB",
"jX c #F4D4B3",
"kX c #F8D7B7",
"lX c #FDDDBA",
"zX c #FFE1BD",
"xX c #9FBBC0",
"cX c #A3BEC1",
"vX c #B1BDC4",
"bX c #A5C2C3",
"nX c #ABC4C3",
"mX c #ADC9CA",
"MX c #B3C7C6",
"NX c #B3CCCC",
"BX c #B4CDD2",
"VX c #B8D5D3",
"CX c #B4CEEA",
"ZX c #BAD1EB",
"AX c #CDD0D2",
"SX c #C6D6D9",
"DX c #E6D8C8",
"FX c #FBDCC1",
"GX c #C5E0DC",
"HX c #FDE4C6",
"JX c #E9E1D3",
"KX c #C5D7EB",
"LX c #CADBEF",
"PX c #D9E4E8",
"IX c #D4EAEB",
"UX c #ECF2F7",
/* pixels */
"< u 3 < # - 9 3 % 2 2 3 # < - 3 2 2 3 % < 3 5 # 2 = < , , 1 < # < 9 9 5 < 2 % % 9 , % 3 2 % % $ 9 > # 1 : , 2 % 2 2 + + 3 % % 3 ",
"2 3 < < 2 3 3 % % 3 2 2 2 2 2 % 2 , 3 , 3 , % # < < < , O 4 < < , , % 2 , 2 , , , 2 < % 2 % % + $ , , % $ + % % O $ + , + % O % ",
"0 - 2 < 9 , $ % % 2 , 3 % 4 9 % , , 3 5 2 % % # 5 5 1 < < , 3 # 3 % < % % % , # % + 2 , % % # , , % O , + , % # , + % + % % + 4 ",
"% 2 2 % 2 3 # % 2 2 , , 3 , % O % % 3 , O , < # 2 2 < # , - < 3 , % O + % , 2 # + # % 2 O % % + + 2 , 2 # X + % , # + , , $ , , ",
"2 5 2 - 2 % % 2 2 < 3 < , 5 , , 2 3 % < 9 2 < 9 < - : < < # % , < # # < , , < # 3 % % O + + % 3 % % O 2 % , $ # $ + + O + , + O ",
"q - % 2 4 3 2 % 2 , < 4 , 2 4 2 # 3 < , 9 2 4 # 1 5 + , 2 , 3 3 2 2 # 5 # 2 3 # % , 3 3 , + + , % + 2 % % , % % 3 + % 2 % # % % ",
"2 2 2 4 9 2 2 3 < < e 5 9 , 2 < 3 , 1 9 , , 1 9 4 4 < < < , > 1 3 9 , 3 , 2 < 9 0 2 % 2 % , 3 + > > % 2 2 2 4 % , , , % % , + O ",
"9 - 9 9 2 3 3 3 2 5 e 5 < 5 5 3 9 9 r 5 e 0 1 1 9 q q 9 9 9 5 5 9 e 0 e q 9 e r 9 e t q r e e e r 0 r d 9 q 9 q e d d d t 9 > + ",
"2 5 e t b c t v m b m b b b m m b B c m C B B m m B m B J B v B B J m L B L m L P L m b b m L L B B c v n J b B H b J B b f t 4 ",
"4 9 d b M C L C Q I L C L ~ ~ L L Q L I L U C V I C L L L L ~ I ~ I I J J L I L C I L L I I I Q I L L ` L I I P m L L L B f d 9 ",
"5 5 d f C L Q ^ I L Q / ~ ^ ^ ` C ` / / ^ ^ ~ ` ] P I L P L Q I I Q ` I ^ ] ~ ~ I L ` ' ^ ^ Q ` ` ^ ` Q ~ L I I Q K I K L h t 0 ",
"5 e b b C +.3.#.%.G.H.~.5.` Q 5.,.<.5.U.!.5.U.~.H.H.U.U.5.#.H.5.5.,.<.,.*.,.<.<.U.5.,.,.L.%.<.`.%.O.H.`.5.8.T.U.<.U.O.O.H j a 2 ",
"p 9 s b C U.3.#.3.3.,.3.,.^ ` <.5.!.3.U.#.T.T.3.H.3.3.T.L.U.J.#.H.T.T.H.*.<.4.#.H.3.4.4.U.<.4.O./.+.5.5.,.7.5.*.U.5.7.,.N M j d ",
"5 s M M V U.G.!.3.5.#.5.5.^ ` ,.3.3.@.G.3.U.H.#.,.3.H.<.3.,.5.U.5.7.<.2.Y.<.,.<.;.8.$.;.;.;.[ [ ] ~ ! ( / ^ I ~ H Q K L M h d d ",
"u 5 b M V B ^ P C ~ ~ I I ` I I ! ~ _ ^ ^ Q ^ P ^ Q Q Q ^ ^ ^ ^ ` Q ` ~ ` ` ` ' ~ ~ Q I P Q ^ Q Q Q B Q K Q L K I I I L j j j 0 ",
"2 p b j V C ^ C ^ / ^ ] ^ ^ ^ ^ ^ ` ` / ` ` ` ^  .` ] / / ` Q ` Q Q ^ ` Q ~ ` ` ` ` ~ ~  .` Q Q ` ( _ ] ' ^ ^ _ ' ^ ! L j h j a ",
"5 s b M M ^ / Q ! / Q ! ~ I ^ / ~ Q ` ^ ~ Q ] ` ` ~ ` / ` ` ^ ] ` ] ] ` / ` ^ ` ~ ` ` ` ~ Q Q Q Q / ~ [ ] [ Q ` ` ` / ^ M N h a ",
"4 u s f M ,.T.J.@.3.T.T.<.~ Q U.@.T.#.#.3.L.G.#.#.J.J.G.P.R.J.J.!.J.!.J.H.T.R.J.L.H.J.!.L.4.L.L.H.E.T.4.P.U.3.#.3.U.*.=.M b f a ",
"5 p s M V #.T.G.G.J.J.J.(.L L P.*.G.#.J.4.T.T.@.G.T.T.J.T.J.G.P.3.J.G.J.R.H.H.=.P.R.4.U.J.T.T.P.I.R.R.(.3.H.4.=.#.*.4.3.M h b r ",
"p u b M c V G.G.J.J.T.G.XX! I #.#.3.G.G.T.J.!.G.!.*.T.J.T.L.G.*.R.T.T.H.T.T.H.P.#.L.L.T.L.J.P.T.G.P.3.T.Q.3.=.L.o.@.G.*.j M j 9 ",
"4 s b f M V J.J.#.#.@.#./.L ! 4.G.L.T.L.R.P.H.3.!.Q.J.G.H.@.L.G.!.J.G.J.T.T.!.=.J.T.3.=.#.U.P.J.L.Q.P.4./.=.L.Q.P.4.3.O.K W b p ",
"5 s f b c V G.J.G.=.J.W.K.I I 5.`.3.G.G.G.P.H.T.=.L.T.G.!.(.T.H.H.J.H.J.P.U.#.`.G.R.!.G.G.G.J.Q.=.G.R.T.G.G.P.P.4.L.~ C C j N s ",
"5 p M f f V V C ! I Q ! I K I I ! K L Q Q ! ~ Q Q Q ! ! L ! I K L Q ! ~ ` I ! C ! ~ ^ L L Q ^ Q Q ! ~ Q I ` Q ] / I I b N j M a ",
"4 p f b b C ! [ ` / ~ ` ] J ! ! ! / / ! ( / / ! / ! ( / / / ! ) / / Q / ~ [ ] _ ^ ] ] ^ / ( ( I ( ) O.$.O.1.8.7.L.) L M M K.j j ",
"5 u p p M j G.W.#.G.E W.^.! K G.`.L.#.+.Q.*.G.(.J.G.=.&.G.Q.L.+.G.G.=.=.J.Q.*.P.=.I.XXP.K.G.P.R.=.K.K.I.4.-.I./.L.L.~ C b W.j f ",
"= p j J.j V G.o.G.G.G.G.G.K M Q.@.K.K.K.G.*.K.=.(.G.(.K.(.*.P.G.P.G.W.(.W.W.=.Q.K.=.G.=.`.(.I.P.K.G.I./.K.G.G.K.,.*.L C V XXj a ",
"4 ; i W.j V P.J.=.G.@.W.=.K B K.(.W.=.Q.I.3.@.Q.=.R.Q.W.=.+.&./.oX=.@.+.G.G.G.=.I.R.=.+.I.K.Q.P.I.3.=.I.4.K.^.`.&.&.L C j (.j f ",
"< 4 s J.f M L.L./.J.@.J.K.N N /.=.+.=.J.=.K.4.I.Q.G.G.G.=.^./.G.(.K.K.&.=.I.G.G.&.K.=././.R./.P.5.P.5.P.K.R.:... ...J m j _.9 f ",
"- 4 s W.s V *.=.R.P.L.P.=.N C +.Q.P.G.=.R.G.G.=./.G.@.K.=.=.=.=.#.P.3.^.K.R.8.:.] y.y.y.y.y.c.y.k.>.>. .^  .~ ! L K B C j ].m s ",
"- 4 s oXf j 4.P.4.4.5.R.G.M C ,.&.+.R.H.&.&.@.XX=.+.L.G.=.P.4.=.3.;.! ! K I K I [ ..'.y.u.y.c.Q ! K Y J ~ ^ [ L K n B B C / ~ 0 ",
"5 < 5 5 5 4 u u u 5 u u 0 2 4 5 5 4 u 5 9 u 5 u 0 i 4 u 9 9 u 9 a 9 u 9 9 9 0 9 5 5 9 5 9 9 e b d 9 9 4 > 9 9 a 5 3 1 9 5 5 5 4 ",
"s s p f f s s s e s L  .i.' { c.v.b.'.'.v.v.v.b.v.c.c.b._.b.>.c.v.c.v.l.b.v.k.l.l.m.w.w.q.w.w.e.n.p.e.D.,X2XrX|.B.N.r.! o 3X5X. ",
"  X V LXy . CXCXCXCXCXCXB.P w.SXCXBXyXHXdXHXHXFXtXKXZXZXZXLXLXZXKX}.'.].].v._.:.c.c.` ` ` ..<Xe.(.p.S.2X2X2X>Xu.M.'.r.Q . D.i.. ",
"    e HXa   S.tX6XhXZX}..XY ..N.>.1X}.y.k.N.6XN.,X|.N.b. XKXZXKXKX_.'.'.'.v...] 6XhXyX X X|.'.0.r.p.r.[.M.N.'.'.i...0.! . S.>X  ",
"    : HXw   B..XA.C.h.f.| L ..g.A.k.| { f.b.} l.x.k.}.}.b..X}.'.'._.)._._.v...Q w._ ~ [ [ ^ |.9.t.p.e.e...t.w...N.M.0.! . ,Xu.  ",
"    o wXX   C.Z.d.f.A.A.| H ..S G R C.h.R J h.k.c.w.] Z.6X}.}. Xv.k.c._._.u. .`  ...~ ] [ ^ N.0.'.p.9.N.u. .y.U [.M.UXM . kXlX  ",
"    o a.a.  q.A.f.h.j.A.h.D ..C.| C.j.d.Z.g.B.q.M.R D.!  XtXa.uXk.;.c.'.x.,Xu.G x.N.N.N.N.A.Z.b.C.l.g.n.B.[.[.[.[.B.N.C   7X,X  ",
"    . R d.  9 wXd.d.h.d.R J  .w.w.|.g.z U g.w.y.w.u.| R A.k.Z.X.a.X.A 9XA.x.R Z.R B.w.X.{ b.Z.f.{ l.9Xh.x.C.! _ B._ P M   m.V.  ",
"    . l l   e e t e t t w J ( r q t w t 9 q e e r e t e q 0 e e 0 e e t t d r r q w r q r w w q w w q w l l t l w w q M   l l # ",
"    . l l   s c t t t l w D ^ r t t e e q e r r t d e e e e a s e r 0 d e t e r r e w r q w w w w q q q d b M b q q w V . l k N ",
"    : v.i.  c ].z.g.7X7XM.B Y  XN.k.w.].6X XI X.U w.[ u.].u.iXdXdX<X<X7XV.fX,Xm.N.M.}.|.D ..{ A D L Y A } R R w.Y N.B.B . j.A.. ",
"    8XFX8X. c 7XtXtXtX>X>.C } >.c.2XtX7XAXAXdXUXDXyXdXiX8XDXdX8XiXpX7XDXdXfXfX8X| w.a.g.( [...B.P I D x n.n.R v 2Xw.q.C . h.rX> ",
"    FXfXkX  c 1X{.+X@XbXOXH I dXiXJX-XmXvXMX-X;XPXMXMX$XR.JXhXgXiXM.dX8XiXiX}.[ 7 H | i j q y.y.N.2X}.DXB.jXkXiXsXjXjXC   zX0.: ",
"    UXaXNX. b =X#X#X#X}.DXA ' pXnXUX-XcXMXMX;X;XPX;XMX$X-XSX%XL.<X<X_.~.[ ~.t.8.:. .%.) ; i k.>.g 0 m k.<XhX8XpXpXfXN.C o zXlX, ",
"  . UXvXbX  b OX+X2XtX2XUXH ( #XbXPX%X-XIXvXMXMXAXqXbXbX%XSXBXcX#XBX'.yXhXaX6Xi.! 2.[ $.[ [ ..`  .B j g w.u Q n.FXfX8XN @ fXfX6 ",
"  X GXMXIX  b iXtXdXdXmXPXB y.%XbXNX-X0XUX%X$XnXNXmXNX&XSXmXBXmXBX-XbX0XOXgX7XpXgXgXgXv.dX8X8XpX8XiXdXX.f.m.7XdX8X8X8X3 O lXFX0.",
"    MXD.FX  j 1XdX0X&XqXSXH :.OXxXNXKXnXPXcXcX=X#XbXnXmXUXMXcXmXOXI.I.K.Y.K.I.^.E.E.Y.Y.!.T.R.U.Y./.Y.T.T.U.U.^.Y./.E.. o ~.oX@X",
"    XXXXXX  4 I.I.K.P.I.L.H  .I.P.P.P.K.W.P.L.P.U.I.U.8.Y.~.[ H f j g L H n n D B b n D b m H n D n v n D n n v n n v . . F P B ",
"    _ P I     H H W K ) ( H b.MXbX%XNXNXMXmX&XNX$X0X&X0XNX0XbX0X%XbXVX0XbXmXxXbX&X0XbXbX-.%.8XgXgXpXpXgXtXu.yXiXiX5X8X  < fXkXkX",
"  . VX;XNX&   %XmXcX@XnX%XD 8.VXnXbX+XBXbXNXmXmXmXbX%XmX0X%X0XC.bXmX=XNXVXVXbX#X&X#X#XbXmXbX&XF...sXgXpXgXpXpXgX7Xv.hX  + fXfXfX",
"    z.SXPX*   $XcX#X+X&XGXH s.$X&X+X0X@XVXnX-XOXBXUXBXmXGXA 8 a.R R d.{.bX&X#XVX#X&XbXmXbX0XmX#X-XbX-.zXeXdXrXdXl.pXT     B.:XfX",
"    z.b.a.y   $X$X$X=XnXmXD c.@X0X$X-X=XVXqX$XnXSXPXmXX.Z Z G a.G Z T *XIX0X0X&X#X+X0X&X&XbXPX&X&XIX#X%X^.E tXtX1Xk.1X    G T V.",
"    G $ a.A   NX+X;XqX^.{.n c.UXmXMX0X;X0XXXXXOXMXPX0X{ Z }.Z 8 7 V.z.wXg.9X0XqX0XmX0X^.(.MXvXAXBX#X#X&X+XmX0XA W 8 $     | .Xz.",
"    8 T Z 0X  =X$X0XqX;X=Xn ^.bX=X0X0XGX0X$X0X0XmXmXg a.7 A A 0 A A }.S T | 0X&X$XqXnX0X@X*X^.;.%.%.6.6.6.2.2.6.7.8.6.  & ).).).",
"    `./.`.`.X ;.7.7.7.U.) m ..6.2.;.;.6.6.6.6.7.5.2.6.2.7.6.6.1.1.%.s.-.6.6.7.7.2.6.2.5.6.2.2.2.6.2.6.2.6.2.2.2.2.;.6.  ) 2.5.1.",
"    `.).).`.X i 6.6.7.2.J D  .;.1.1.2.2.6.2.5.<.1.1.2.1.6.&.1.1.1.& 1.1.2.2.2.2.2.2.<.1.5.;.2.;.2.6.;.2.2.;.;.2.;.2.2.  _.E.)./.",
"    ( L l m   X X - = # @ = * = # = - - = - = - - = * = = = =     O     = - = * = = - - - - - - = = 4 % = = = @ @ @ .   F F z x ",
"    x F x F . o o o + o o   . + : 1 > o 1 6 6 6 e 6 p o             X + 7 l.HXHXFXFXlXjXzXzXlXHXsXlXlXsXsXzXlXHXz > >   $   A $ ",
"    7   ; 8 I kXFXFXHXHXB.P :XsXkXsXkXlXkXjXjXlXlXlXlXsXy.% . b g   8 D x HXHX|.pX7X<X X].kXlXlXlXzXHXkX5XpXjXjXjX,Xf.X X X D z.",
"      0 7 gX5X5XpXeX5X,X0.Y y.u.t.<XpX[.:X5XaXaXaX5X5XsXU 6Xl o i 8 D m jXaX[.v.u.].i.:.:.>.:.:.:.v.u.pX4XpXaX2XeX,X2X8Xw D.$ AX",
".   i tX8XaXaXaXaXaXpX>X{ _ w.:.>.V i.i.i.t.i.>.0.2XfX2X6 : aXpX{ ].l Y gXsXe.v.>.i.:.[ 8.:.:.:.;.:.:.;.>.M.aXpXeXsXeXsXrXpXP q ",
"          o . . . .                                                                                   .                         ",
"                                                                                                                                ",
"                                                                                                                                "
};
