/* XPM */
static char *result[] = {
/* columns rows colors chars-per-pixel */
"64 64 256 2 ",
"   c gray7",
".  c #3D1D04",
"X  c #361B15",
"o  c #412018",
"O  c #45231B",
"+  c #52291F",
"@  c #5C2E23",
"#  c #5C3F34",
"$  c #054D05",
"%  c #055905",
"&  c #39641F",
"*  c #5C4034",
"=  c #5E4035",
"-  c #5D4235",
";  c #5D4037",
":  c #5E4136",
">  c #5F4236",
",  c #5F4338",
"<  c #5E4339",
"1  c #604137",
"2  c #614139",
"3  c #624338",
"4  c #62433A",
"5  c #604439",
"6  c #634738",
"7  c #60443A",
"8  c #61443A",
"9  c #63453A",
"0  c #62443B",
"q  c #63443B",
"w  c #63453B",
"e  c #63473B",
"r  c #64453B",
"t  c #63453C",
"y  c #64463C",
"u  c #64473C",
"i  c #65473C",
"p  c #65473D",
"a  c #67463D",
"s  c #67473E",
"d  c #68463D",
"f  c #68473D",
"g  c #69473D",
"h  c #68473E",
"j  c #69473E",
"k  c #6A473E",
"l  c #62483B",
"z  c #64483B",
"x  c #67493D",
"c  c #64483E",
"v  c #66483E",
"b  c #67483E",
"n  c #67493E",
"m  c #68483D",
"M  c #68483E",
"N  c #69493E",
"B  c #68483F",
"V  c #68493F",
"C  c #69493F",
"Z  c #6A483E",
"A  c #6B4A3F",
"S  c #4C514D",
"D  c #674940",
"F  c #684B40",
"G  c #6B4B40",
"H  c #6B4A41",
"J  c #684A42",
"K  c #694A42",
"L  c #6B4B42",
"P  c #6D4B41",
"I  c #6C4B42",
"U  c #6A4C41",
"Y  c #6C4C41",
"T  c #6E4D41",
"R  c #6F4E41",
"E  c #6C4C42",
"W  c #6D4C42",
"Q  c #6E4C42",
"!  c #6F4C42",
"~  c #6F4D43",
"^  c #704D41",
"/  c #714D43",
"(  c #734D43",
")  c #704E42",
"_  c #704E43",
"`  c #724E43",
"'  c #734F44",
"]  c #744F44",
"[  c #744F45",
"{  c #725044",
"}  c #745045",
"|  c #755045",
" . c #765145",
".. c #755146",
"X. c #765146",
"o. c #755246",
"O. c #765246",
"+. c #775347",
"@. c #785447",
"#. c #795548",
"$. c #6D5850",
"%. c #755C51",
"&. c #7A685B",
"*. c #846357",
"=. c #8E7163",
"-. c #897668",
";. c #8C766A",
":. c #957B6E",
">. c #977D6E",
",. c #058205",
"<. c #28AB28",
"1. c #488224",
"2. c #529926",
"3. c #64A834",
"4. c #8BC03D",
"5. c #948075",
"6. c #968174",
"7. c #988174",
"8. c #988276",
"9. c #9D8678",
"0. c #9F8779",
"q. c #9B8A7E",
"w. c #A1887F",
"e. c #A69182",
"r. c #A19385",
"t. c #A29285",
"y. c #A39587",
"u. c #A49487",
"i. c #AB988A",
"p. c #AD998B",
"a. c #AC9A8A",
"s. c #AD9A8B",
"d. c #B09F91",
"f. c #A4A296",
"g. c #AEA294",
"h. c #AFA395",
"j. c #B2A192",
"k. c #B4A596",
"l. c #B7A899",
"z. c #B8A899",
"x. c #B8AB9C",
"c. c #BCAE9F",
"v. c #ACA7A1",
"b. c #ACADAC",
"n. c #ADAFAC",
"m. c #AEAFAC",
"M. c #AEAFAD",
"N. c #BEADA3",
"B. c #AEB0AB",
"V. c #ADB0AC",
"C. c #ADB0AD",
"Z. c #AEB0AD",
"A. c #AEB0AE",
"S. c #AFB0AE",
"D. c #AEB1AE",
"F. c #AFB1AE",
"G. c #AFB1AF",
"H. c #AFB2AE",
"J. c #AFB3AE",
"K. c #AFB2AF",
"L. c #BCB0A2",
"P. c #BDB0A3",
"I. c #BDB2A3",
"U. c #BFB2A3",
"Y. c #BFB3A4",
"T. c #B0B2AF",
"R. c #B0B3AF",
"E. c #B0B2B0",
"W. c #B0B3B0",
"Q. c #B0B2B1",
"!. c #B1B3B2",
"~. c #B2B2B2",
"^. c #B2B4B1",
"/. c #B2B4B3",
"(. c #C0B4A4",
"). c #C3BAAB",
"_. c #C4B9A9",
"`. c #C5BBAC",
"'. c #C6BDAD",
"]. c #C7BDAD",
"[. c #C7BDAE",
"{. c #C8C0B0",
"}. c #CDC4B4",
"|. c #CCC5B5",
" X c #CEC5B5",
".X c #CEC8B9",
"XX c #D2CCBD",
"oX c #D3CEBE",
"OX c #D5D0C0",
"+X c #D7D3C2",
"@X c #D1C9D1",
"#X c #D3CCD2",
"$X c #D5CED2",
"%X c #D4CED3",
"&X c #D7D1D2",
"*X c #D6D0D3",
"=X c #D8D3D2",
"-X c #D8D2D3",
";X c #D9D4D2",
":X c #D9D5D3",
">X c #DAD6D3",
",X c #DBD6D3",
"<X c #DBD7D3",
"1X c #DBD8D2",
"2X c #DBD8D3",
"3X c #DCD9D2",
"4X c #DCD8D3",
"5X c #DDD9D3",
"6X c #DDDAD3",
"7X c #DDDBD3",
"8X c #DEDBD3",
"9X c #DFDBD3",
"0X c #DEDCD2",
"qX c #DFDCD2",
"wX c #DFDDD2",
"eX c #DEDCD3",
"rX c #DFDCD3",
"tX c #DEDDD3",
"yX c #DFDDD3",
"uX c #DFDED3",
"iX c #DFDCD4",
"pX c #E0DDD3",
"aX c #E0DED3",
"sX c #E0DFD3",
"dX c #E1DFD3",
"fX c #E0DDD4",
"gX c #E0DED4",
"hX c #E1DED4",
"jX c #E1DFD4",
"kX c #E1E0D3",
"lX c #E1E1D3",
"zX c #E2E1D2",
"xX c #E2E0D3",
"cX c #E2E1D3",
"vX c #E3E1D3",
"bX c #E3E2D2",
"nX c #E3E3D2",
"mX c #E2E2D3",
"MX c #E3E2D3",
"NX c #E3E3D3",
"BX c #E4E3D2",
"VX c #E4E3D3",
"CX c #E4E4D2",
"ZX c #E4E4D3",
"AX c #E5E4D3",
"SX c #E5E5D3",
"DX c #E1E0D4",
"FX c #E2E1D4",
"GX c #E3E2D4",
"HX c #E3E3D4",
"JX c #E4E0D4",
"KX c #E4E2D4",
"LX c #E4E3D4",
"PX c #E4E4D4",
"IX c #E5E4D4",
"UX c #E5E5D4",
/* pixels */
"n.S.n.C.~.v.q.y.6X8XpXkXaX8X4X6X:X=X@X@X<X=X$X=X5X$X=X5X$X$X<X<X@X$X1X$X$X&X&X<X$X#X=X8X@X$X0X&X$X5X6X@X;X6X$X@X&.%.v.~.JX!.!.Q.",
"Z.T.S.D.~.v.8.g.uX6XaXMXcX6X6XuX;X;X@X&X;X1X&X&X0X$X;X;X;X$X;X<X@X&X<X&X#X&X<X;X&X&X;X5X=X;X1X8X5X0X7X<X0X6X-X$X-.$.v.~.v.!.!.Q.",
"n.V.B.A.~.v.7.L.yXpXdXMXcXpX9XyX5X5X@X;X0X5X;X1XwX$X1X1X=X;X1X8X&X<X0X=X<X=X1X5X<X&X<XdX$X;X0X5X;X5XyX&X5X6X:X#X5.;.v.~.JX/.!.!.",
"H.Z.~.~.~.v.d.{.mXfXGXZXNXfXuXmX:X;X@X5X;X;X0X0X<X&XdX1X$X5X0X1X&X5X8X$X<X;X1X$X<X<X&X<X1X5X=XqXaX8XyXqXqX6X4X=X:.6.v.~.f./.!.!.",
"F.K.~.~.~.v.i.|.aXjXGXZXMXjXdXaX5X8X#X1X8XwX5X1XaX1X8X=X5X5X=X<X5X<X=X<X5X&X1X5X<X<X1X0X<X8X8XqX0XqXdX1XqXyX4X$Xe.9.v.~.JX/./.!.",
"b.M.~.~.~.v.x.XXLXxXVXSXPXdXxXLX>X8X$X8XqXqXaXaXaX5XdX0X1XqX8X0X0XqX0X;XwX0X<X5X0X5X<XwX8X0XwXqXdXdXcX8XdXjX5X&Xe.s.v.~.f././.!.",
"D.H.~.~.~.v.u.OXVXkXPXUXZXaXmXVX1XqX#X1XqXdX5X1XxX5X8X<XwX8X<X8XaX1X1X8X8X8X1X8X8XqX<X0XaXqX8XxXzXdXGXdXxXcXaX;Xs.z.v.~.JX^./.!.",
"M.F.~.~.~.v.r.+XPXcXPXSXUXjXMXPX5XxX=XqXzXMXdXaXMXwXaX1XaXdX1XwXzXdX0X8XxXdX1X0XxXwX<XxXaXdXaXxXzXdXMX0XxXxXdX&Xe.(.v.~.f.^././.",
"F.H.~.~.~.v.t.+XZXdXVXSXZX9XmXZX=XwX$XwXdXxXxXxXxXaXzX8XdXdX0XqXbX0X8XwXdXqX1X5XwXaX&X5XdXaX=XxXMX0XMXzXzXkXcX5X>.].v.~.f././.^.",
"S.W.~.~.~.v.h.oXZXcXVXUXZXdXMXVX5XdX&XqXxXzXwXaXdXwXaX=XaXdX<X5XMX0X=XqXdX5X;X1XqXqX;X0XqXdX8XdXxXqXVXwXdXkXcX;X>.].v.~.JX~.~.~.",
"S.G.~.~.~.v.P..XPXcXPXSXIXMXZXZXLXUXUXNXNXNXZXZXNXNXNXNXnXnXZXZXZXLXMXZXZXVXMXMXNXNXzXdXbXMXxXzXNXxXVXzXxXxXcX1X=._.v.~.JX~.~.~.",
"n.G.~.~.~.v.U.).MXdXHXZXVXxXMXNXsXNXvXMXIXZXVXIXVXNXNXNXZXLXzXzXUXxXwXzXzXdX1X0XwXdX8XwXdXdXdXxXxXqXMXqXqXdXkX;X=.].v.~.f.~.~.~.",
"S.E.~.~.~.v.Y.`.ZXLXVXUXUXZXZXZXZXPXZXZXZXZXZXZXZXZXZXZXZXZXSXZXUXIXZXZXSXAXZXIXUXUXAXZXAXUXIXVXPXLXZXcXdXkXlX=X*.(.v.~.JX~.~.~.",
"R.J.~.~.~.v.k.I.MXpXcXZXMXdXcXNXdXPXLXLXUXSXAXUXUXAXZXZXZXIXZXZXSXVXCXAXAXCXVXVXNXZXcXlXMXcXxXcXGXdXPXjXkXFXFX,X>.[.v.~.f.~.~.~.",
"n.R.~.~.~.v.}.'.PXZXAXSXSXUXZXSXZXZXcXVXZXZXMXVXZXZXVXMXZXVXNXVXAXMXcXVXVXNXMXVXZXVXVXVXMXVXNXMXFXDXmX3X7XrXpX&X#.c.v.~.JX~.~.~.",
"m.F.~.~.~.v.(.l.xXxXLXPXVXZXZXSXUXUXUXUXZXZXSXSXZXZXZXZXSXSXSXSXSXSXSXAXSXZXSXUXZXSXZXZXAXSXSXSXSXSXAXZXVXZXKX9Xj._.v.~.JX~.~.~.",
"W.F.~.~.~.v. Xa.uXMXLXMXMXIXVXVXZXZXVXZXAXZXVXUXZXZXVXZXVXVXVXVXZXMXcXMXcXxXdXdXdXgXjXcXrXyXsXyX<X1XpX&X=X,X,X$X#.a.v.~.f.~.~.~.",
"S.H.~.~.~.v.(.0.rXMXLXLXZXSXAXSXUXUXUXSXSXZXZXZXSXZXZXZXUXUXSXSXAXAXSXAXAXAXAXAXSXSXSXAXZXZXZXZXVXZXCXMXcXmXdX,X0.p.v.~.f.~.~.~.",
"~.~.~.~.~.v.a.#.@X,X2X$X#XpX7X6XdXGXLXGXPXZXVXIXVXVXVXVXMXVXVXVXZXNXCXZXVXBXVXMXcXMXcXdXaXsXdXaXeXyXdX4X6X7X,X$X>.0.v.~.JX~.~.~.",
"~.~.~.~.~.v.(.a.jXPXVXMXZXAXMXVXZXVXxXMXNXMXcXMXMXMXMXMXMXmXMXMXcXxXcXcXcXcXMXMXMXMXMXMXcXxXxXaX5X5X4X&X$X*X%X@X#.*.v.~.f.~.~.~.",
"~.~.~.~.~.v.0.=.&X<X6X<X1XyX8X8XiXgXhXpXrXyXyXtXtXtXyXaXdXdXxXbXbXMXZXVXNXNXZXLXMXNXMXcXbXbXMXNXNXNXMXcXcXcXeX,Xj.0.v.~.JX~.~.~.",
"~.~.~.~.~.v.v.v.v.v.v.v.v.v.v.v.v.v.v.v.v.v.v.v.v.v.v.v.v.v.v.v.v.v.v.v.v.v.v.v.v.v.v.v.v.v.v.v.v.v.v.v.v.v.v.v.v.v.v.~.JX~.~.~.",
"~.~.~.~.~.S S S S S S S S S S S S S S S S S S S S S S S S S S S S S S S S S S S S S S S S S S S S S S S S S S S S S S ~.f.~.~.~.",
"~.~.~.~.~.~.#.#.@XN.N.@X@X@X@X@X@X@X@X@X@X@X@X@X@X@X@X@X@X@X@X@Xw.w.w.w.w.w.w.w.w.w.w.w.w.w.w.@X@XN.N.@X@X@X@X@X#.#.~.~.f.~.~.~.",
"~.~.~.~.~.~.@.#.N.N.N.N.N.N.N.N.N.N.N.N.N.N.N.N.N.N.N.N.N.N.N.N.N.N.N.N.N.N.N.N.N.N.N.N.N.N.N.N.N.N.N.N.N.N.N.N.#.#.~.~.f.~.~.~.",
"~.~.~.~.~.~. .o.N.N.N.N.N.N.N.N.N.N.N.N.N.N.N.N.N.N.N.N.N.N.N.N.N.N.N.N.N.N.N.N.N.N.N.N.N.N.N.N.N.N.N.N.N.N.N.N.#.#.~.~.JX~.~.~.",
"~.~.~.~.~.~./ G N.N.N.N.N.N.N.N.N.N.N.N.N.N.N.N.N.N.N.N.N.N.N.N.N.N.N.N.N.N.N.N.N.N.N.N.N.N.N.N.N.N.N.N.N.N.N.N.{ #.~.~.f.~.~.~.",
"~.~.~.~.~.~.! p @XN.N.@X@X@X@X@X@X@X@X@X@X@X2.@X@X@X@X@Xw.w.w.w.w.w.w.w.w.w.w.w.w.w.w.w.w.w.w.2.2.N.N.@X@X@X@X@X) #.~.~.JX~.~.~.",
"~.~.~.~.~.~.W u @XN.N.@X@X@X@X@X@X@X@X@X@X@X2.2.2.,.2.1.w.2.,.2.2.2.,.2.2.,.2.2.2.1.w.w.w.w.w.4.4.N.N.w.@X@X@X@XA #.~.~.JX~.~.~.",
"~.~.~.~.~.~.I 5 @XN.N.@X@X@X@X@X@X@X,.<.1.1.3.2.3.4.3.4.w.2.4.4.3.4.4.4.3.4.4.3.4.4.,.2.2.2.1.4.4.N.N.w.w.@X@X@XC #.~.~.f.~.~.~.",
"~.~.~.~.~.~.Q 8 @XN.N.@X@X@X@X@X@X,.,.,.2.2.2.& 2.2.2.2.w.2.2.2.2.2.2.2.2.2.2.2.2.2.4.4.3.4.4.2.2.N.N.w.w.w.w.@XV #.~.~.JX~.~.~.",
"~.~.~.~.~.~.W e @XN.N.@X@X@X,.<.1.2.1.1.3.3.3.2.3.2.4.2.2.2.2.4.4.4.2.4.4.2.4.4.4.2.2.2.2.2.2.4.4.N.N.w.w.w.w.w.i #.~.~.JX~.~.~.",
"~.~.~.~.~.~.J 5 @XN.N.@X@X,.,.,.2.2.2.1.2.2.2.2.2.2.4.2.2.2.2.2.2.2.2.2.2.2.2.2.2.2.2.4.4.4.2.4.4.N.N.w.w.w.w.w.: #.~.~.f.~.~.~.",
"~.~.~.~.~.~.K # @XN.N.2.2.% % 4.4.3.4.4.2.2.2.2.2.2.2.2.2.O 2.2.4.2.2.2.4.2.2.4.2.2.2.2.2.2.2.2.2.N.N.w.w.w.w.w.* #.~.~.f.~.~.~.",
"~.~.~.~.~.~.~ < @XN.N.2.2.% . 2.2.2.2.2.@X@XX o X 2.4.2.O O O O + O O O + O O + O O 2.2.4.2.2.2.2.N.N.@X@X@X@X@X- #.~.~.f.~.~.~.",
"~.~.~.~.~.~.| f @XN.2.2.2.2.2.2.4.4.4.2.2.2.O @ O O + O @X@X@X@X@X@X@X@X@X@X@X@X@X@XO O + O O 2.2.N.N.@X@X@X@X@X7 #.~.~.JX~.~.~.",
"~.~.~.~.~.~.+.T @XN.N.O O 2.2.2.2.2.2.2.2.@X@X@X@X@X@X@X@X@X@X@X@X@X@X@X@X@X@X@X@X@X@X@X@X@X@XO O N.N.@X@X@X@X@Xt #.~.~.f.~.~.~.",
"~.~.~.~.~.~.#.+.@XN.N.2.2.2.2.2.2.4.2.2.2.2.@X@X@X@X@X@X@X@X@X@X@X@X@X@X@X@X@X@X@X@X@X@X@X@X@X@X@XN.N.@X@X@X@X@Xn #.~.~.JX~.~.~.",
"~.~.~.~.~.~.#.#.@XN.N.@XO O O O O + O O O @X@X@X@X@X@X@X@X@X@X@X@X@X@X@X@X@X@X@X@X@X@X@X@X@X@X@X@XN.N.@X@X@X@X@X^ #.~.~.f.~.~.~.",
"~.~.~.~.~.~.#.#.N.N.N.N.N.N.N.N.N.N.N.N.N.N.N.N.N.N.N.N.N.N.N.N.N.N.N.N.N.N.N.N.N.N.N.N.N.N.N.N.N.N.N.N.N.N.N.N.A #.~.~.JX~.~.~.",
"~.~.~.~.~.~.#.#.N.N.N.N.N.N.N.N.N.N.N.N.N.N.N.N.N.N.N.N.N.N.N.N.N.N.N.N.N.N.N.N.N.N.N.N.N.N.N.N.N.N.N.N.N.N.N.N.i #.~.~.JX~.~.~.",
"~.~.~.~.~.~.#.#.n.N.N.n.n.n.n.n.n.$ n.n.n.n.$ n.n.n.n.n.n.n.n.n.n.n.n.n.n.n.n.n.n.n.n.N.N.N.N.n.n.N.N.n.n.n.n.n.9 #.~.~.f.~.~.~.",
"~.~.~.~.~.~.#.#.n.N.N.n.$ n.$ n.n.$   n.$ n.$   n.n.n.n.n.n.n.n.n.n.n.n.n.n.n.n.n.n.N.N.N.N.n.n.n.N.N.n.n.n.n.n.c { ~.~.f.~.~.~.",
"~.~.~.~.~.~.#.#.n.N.N.n.$   $   n.  $ n.$     $ n.n.n.n.n.n.n.n.n.n.n.n.n.n.n.n.n.N.N.n.n.n.n.$ n.N.N.n.n.n.n.n.b ) ~.~.JX~.~.~.",
"~.~.~.~.~.~.#.#.n.N.N.n.  $   $ n.$   n.  $ $   n.n.n.n.n.n.n.n.n.n.n.n.n.n.n.N.N.N.n.n.n.n.n.$   N.N.n.n.n.n.n.v ) ~.~.JX~.~.~.",
"~.~.~.~.~.~.@.#.n.N.N.n.$   $     $   n.$       n.n.n.n.n.n.n.n.n.n.n.n.n.n.N.N.N.n.n.n.n.n.n.  $ N.N.n.n.n.n.n.U ) ~.~.f.~.~.~.",
"~.~.~.~.~.~. .o.n.N.N.        $ $ $       $     n.n.n.n.n.n.n.n.n.n.n.n.n.N.N.N.n.n.n.$ n.$ n.$   N.N.n.n.n.n.n.| ) ~.~.JX~.~.~.",
"~.~.~.~.~.~.! G n.N.N.$       $     $ $           n.n.n.n.n.n.n.n.n.n.n.N.N.N.n.n.n.n.$   $       N.N.n.n.n.n.n.X.) ~.~.f.~.~.~.",
"~.~.~.~.~.~.L 3 n.N.N.n.        $ $           n.n.n.n.n.n.n.n.n.n.n.N.N.N.n.n.n.n.n.n.  $   $     N.N.n.n.n.n.n.^ ) ~.~.f.~.~.~.",
"~.~.~.~.~.~.M , n.N.N.n.      $       $   n.n.n.n.n.n.n.n.n.n.n.n.N.N.N.N.n.n.n.n.n.n.$   $       N.N.n.n.n.n.n.N ) ~.~.JX~.~.~.",
"~.~.~.~.~.~./ w n.N.N.          $         n.n.n.n.n.n.n.n.n.n.n.N.N.N.v.n.n.n.n.n.n.n.          n.N.N.n.n.n.n.n.n ) ~.~.f.~.~.~.",
"~.~.~.~.~.~.X.E n.N.N.$     $       $     n.n.n.n.n.n.n.n.n.N.N.N.N.n.n.n.n.n.n.n.n.n.  $     n.n.N.N.n.n.n.n.n.^ +.~.~.JX~.~.~.",
"~.~.~.~.~.~..._ n.N.N.n.            n.      n.n.n.n.n.n.N.N.N.N.N.n.n.n.n.n.n.n.n.n.n.          n.N.N.n.n.n.n.n.+.#.~.~.f.~.~.~.",
"~.~.~.~.~.~.] H n.N.N.n.  n.n.  n.n.n.  n.n.n.n.n.n.n.N.N.N.N.N.v.n.n.n.n.n.n.n.n.n.n.  n.  n.n.n.N.N.n.n.n.n.n.y #.~.~.f.~.~.~.",
"~.~.~.~.~.~.F 6 z l > = 1 t 0 4 k j 2 q s a s m M T T T R | | | |  .] ` / ` ` ]  .] Y ) ) ) ) ) ) ) ) ^ x 8 r d ; o.~.~.JX~.~.~.",
"~.~.~.~.~.~.T h P B 6 D Z g [ ] ..O.' } O.X.O.X.X.+.+.+.+.#.#.#.#.#.#.#.#.#.#.#.#.#.+.+.+.+.+.+.+.+.+.+.X.] | X.( @.~.~.JX~.~.~.",
"~.~.~.~.~.~.~.~.~.~.~.~.~.~.~.~.~.~.~.~.~.~.~.~.~.~.~.~.~.~.~.~.~.~.~.~.~.~.~.~.~.~.~.~.~.~.~.~.~.~.~.~.~.~.~.~.~.~.~.~.~.~.~.~.",
"~.~.~.~.~.~.~.~.~.~.~.~.~.~.~.~.~.~.~.~.~.~.~.~.~.~.~.~.~.~.~.~.~.~.~.~.~.~.~.~.~.~.~.~.~.~.~.~.~.~.~.~.~.~.~.~.~.~.~.~.~.~.~.~.",
"~.~.~.~.~.~.~.~.~.~.~.~.~.~.~.~.~.~.~.~.~.~.~.~.~.~.~.~.~.~.~.~.~.~.~.~.~.~.~.~.~.~.~.~.~.~.~.~.~.~.~.~.~.~.~.~.~.~.~.~.~.~.~.~.",
"~.~.~.~.~.~.~.~.~.~.~.~.~.~.~.~.~.~.~.~.~.~.~.~.~.~.~.~.~.~.~.~.~.~.~.~.~.~.~.~.~.~.~.~.~.~.~.~.~.~.~.~.~.~.~.~.~.~.~.~.~.~.~.~.",
"~.~.~.~.~.~.~.~.~.~.~.~.~.~.~.~.~.~.~.~.~.~.~.~.~.~.~.~.~.~.~.~.~.~.~.~.~.~.~.~.~.~.~.~.~.~.~.~.~.~.~.~.~.~.~.~.~.~.~.~.~.~.~.~.",
"~.~.~.~.~.~.~.~.~.~.~.~.~.~.~.~.~.~.~.~.~.~.~.~.~.~.~.~.~.~.~.~.~.~.~.~.~.~.~.~.~.~.~.~.~.~.~.~.~.~.~.~.~.~.~.~.~.~.~.~.~.~.~.~.",
"~.~.~.~.~.~.~.~.~.~.~.~.~.~.~.~.~.~.~.~.~.~.~.~.~.~.~.~.~.~.~.~.~.~.~.~.~.~.~.~.~.~.~.~.~.~.~.~.~.~.~.~.~.~.~.~.~.~.~.~.~.~.~.~.",
"n.n.n.n.n.n.~.~.~.~.~.~.~.~.~.~.~.~.~.~.~.~.~.~.~.~.~.~.~.~.~.~.~.~.~.~.~.~.~.~.~.~.~.~.~.~.~.~.~.~.~.~.~.~.~.~.~.~.~.~.~.~.~.~."
};
